<svg xmlns="http://www.w3.org/2000/svg" xmlns:xlink="http://www.w3.org/1999/xlink" viewBox="0 0 300 300"><defs><style>.cls-1{fill:#161616;}.cls-2{fill:#d81b60;}.cls-3{fill:url(#linear-gradient);}.cls-4{fill:#212121;}.cls-5{fill:none;}</style><linearGradient id="linear-gradient" x1="162.99" y1="-578.79" x2="124.08" y2="-706.07" gradientTransform="translate(0 777)" gradientUnits="userSpaceOnUse"><stop offset="0" stop-color="#000f43" stop-opacity="0.4"/><stop offset="0.48" stop-color="#001962" stop-opacity="0.17"/><stop offset="1" stop-color="#002079" stop-opacity="0"/></linearGradient></defs><title>Customa-Firefox</title><g id="Layer_2" data-name="Layer 2"><g id="Layer_1-2" data-name="Layer 1"><g id="Layer_2-2" data-name="Layer 2"><g id="Firefox_-_Large" data-name="Firefox - Large"><path class="cls-1" d="M209.67,68.61c-4.86,5.67-7.13,18.42-2.2,31.35s12.5,10.12,17.22,23.31C230.91,140.67,228,164,228,164s7.48,21.67,12.69-1.35C252.26,119.46,209.67,79.26,209.67,68.61Z"/><path id="_Path_" data-name=" Path " class="cls-2" d="M150.28,248.1c49.85,0,90.22-40.6,90.22-90.65S200.13,66.8,150.33,66.8s-90.18,40.58-90.18,90.64S100.48,248.1,150.28,248.1Z"/><path class="cls-3" d="M217.88,213.34a50,50,0,0,1-6.12,3.7,142.78,142.78,0,0,0,7.78-12.81,48.4,48.4,0,0,0,5.12-6.43c.69-1.09,1.48-2.45,2.32-4,5.06-9.13,10.65-23.9,10.81-39.07v-1.16a53.27,53.27,0,0,0-1.16-11.33c0,.29.07.58.11.87-.05-.22-.08-.45-.13-.67.07.41.13.81.2,1.22,1,8.78.3,17.35-3.39,23.67l-.18.27a79,79,0,0,0,.43-30.81s-.85-5.16-7.19-20.83c-3.66-9-10.13-16.4-15.86-21.79a176.55,176.55,0,0,0-12.09-13c-5.24-5.52-7.44-9.67-8.34-12.37-.78-.39-10.8-10.12-11.59-10.49-4.37,6.77-18.12,28-11.58,47.79,3,9,10.46,18.29,18.3,23.52.35.4,4.68,5.08,6.73,15.69,2.12,10.94,1,19.48-3.36,32.11-5.14,11.08-18.31,22-30.64,23.15-26.36,2.39-36-13.23-36-13.23,9.41,3.76,19.83,3,26.16-.93s10.24-6.87,13.37-5.72,5.56-2.19,3.34-5.65a16,16,0,0,0-16.14-7c-6.39,1-12.24,6.1-20.61,1.2a16.31,16.31,0,0,1-1.57-1c-.55-.36,1.79.56,1.25.14a39.4,39.4,0,0,1-5.26-3.5c-.13-.11,1.26.45,1.13.33-7.82-6.44-6.84-10.8-6.6-13.53a7.88,7.88,0,0,1,4-6.12c1.15.63,1.87,1.12,1.87,1.12s-.49-1-.76-1.55c.1,0,.19,0,.28-.06a45.06,45.06,0,0,1,4.15,2.37,6.13,6.13,0,0,1,1.89,1.91s.38-.2.1-1.09a5.74,5.74,0,0,0-2-2.68h.09a16.75,16.75,0,0,1,2.41,1.68,14.48,14.48,0,0,0,1-5.71c-.1-1.92-.06-2.41-.39-3.15s.16-.89.69-.23a6.64,6.64,0,0,0-.45-1.5v0c.66-2.28,13.87-8.23,14.84-8.92a13.8,13.8,0,0,0,3.89-4.23,10.82,10.82,0,0,0,1.42-5.3c.07-1.8-.76-3-14.13-4.4-3.66-.36-5.8-3-7-5.45-.23-.53-.45-1-.68-1.48a11.6,11.6,0,0,1-.52-1.71,32,32,0,0,1,11.25-15.59c.3-.27-1.17.07-.88-.21a26.8,26.8,0,0,1,3-1.42c.51-.24-2.21-1.4-4.62-1.12a11.39,11.39,0,0,0-4.29,1.13c.55-.55,2.27-1.25,1.87-1.25a26,26,0,0,0-8.74,3.68,2.06,2.06,0,0,1,.17-.88c-1.31.55-4.53,2.8-5.46,4.7a8,8,0,0,0,0-1.09,17.76,17.76,0,0,0-2.68,2.8l0,0c-7.59-3.06-14.27-3.25-19.93-1.89-1.23-1.24-1.84-.33-4.65-6.51-.19-.38.14.36,0,0-.47-1.2.28,1.6,0,0-4.74,3.73-11,8-14,10.95,0,.12,3.49-1,0,0-1.22.35-1.14,1.07-1.33,7.62,0,.5,0,1,0,1.5a42.76,42.76,0,0,0-4.63,7c-3.09,5.32-6.49,13.62-9.78,26.74A66.55,66.55,0,0,1,68.4,131c-2.75,7-5.4,17.9-5.93,34.74A101,101,0,0,1,65,155.42a96,96,0,0,0,7.06,40.86,100.3,100.3,0,0,0,10.37,19.39,91.87,91.87,0,0,0,135.43-2.33Z"/><path class="cls-4" d="M197.64,226.16c33.11-3.83,47.77-37.95,28.94-38.62C209.58,187,182,228,197.64,226.16Z"/><path class="cls-1" d="M229,180.57c22.76-13.25,16.83-41.88,16.83-41.88A93.61,93.61,0,0,0,231,165.17C225.14,181.3,215.27,188.58,229,180.57Z"/><path class="cls-4" d="M156.66,243.1c31.76,10.13,59.05-14.88,42.23-23.23C183.6,212.33,141.59,238.31,156.66,243.1Z"/><path class="cls-1" d="M231.33,192.73c.77-1.09,1.82-4.58,2.74-6.14,5.61-9.05,5.65-16.26,5.65-16.43,3.38-16.91,3.08-23.82,1-36.59-1.67-10.29-9-25-15.36-32.12-6.54-7.32-1.93-4.93-8.27-10.26-5.55-6.16-10.94-12.26-13.87-14.71C182,58.76,182.5,55,182.9,54.35l-.3.34c-.25-1-.42-1.84-.42-1.84a56.83,56.83,0,0,0-14,30.89c-1.59,12.6,3.13,25.75,10,34.15a77.66,77.66,0,0,0,12,11.78h0a46,46,0,0,1,8,26.41,44.7,44.7,0,0,1-54.64,43.5c-11.63-2.22-18.34-8.09-21.7-12.07a21.39,21.39,0,0,1-2.73-3.95c10.42,3.73,22,2.95,29-.92s11.33-6.81,14.8-5.67,6.14-2.17,3.7-5.6a18.46,18.46,0,0,0-17.86-7c-7.07,1-13.55,6-22.82,1.19-.59-.31-1.17-.65-1.74-1s2,.54,1.38.13a45.46,45.46,0,0,1-5.82-3.47c-.13-.11,1.4.44,1.26.33-8.66-6.39-7.58-10.71-7.31-13.42a7.74,7.74,0,0,1,4.44-6.06c1.28.62,2.08,1.1,2.08,1.1l-.84-1.53c.1,0,.2,0,.3-.07,1.05.46,3.37,1.63,4.59,2.36a6.35,6.35,0,0,1,2.1,1.9s.42-.21.11-1.09a5.66,5.66,0,0,0-2.17-2.65h.1a18.77,18.77,0,0,1,2.66,1.66,12.89,12.89,0,0,0,1.07-5.66c-.1-1.9-.06-2.4-.43-3.13s.19-.88.77-.22a5.94,5.94,0,0,0-.5-1.49v-.05c.73-2.27,15.36-8.16,16.42-8.85a14.09,14.09,0,0,0,4.3-4.19,9.86,9.86,0,0,0,1.58-5.26c.05-1.12-.29-2-4.17-2.85a105.64,105.64,0,0,0-11.47-1.52,9.75,9.75,0,0,1-7.76-5.41c-.25-.52-.5-1-.75-1.46a11.35,11.35,0,0,1-.58-1.7A32.16,32.16,0,0,1,137.9,86.52c.32-.27-1.3.07-1-.2a32,32,0,0,1,3.33-1.41c.57-.24-2.44-1.39-5.11-1.11a13.64,13.64,0,0,0-4.74,1.11c.61-.53,2.51-1.24,2.06-1.23a30.59,30.59,0,0,0-9.67,3.66,1.93,1.93,0,0,1,.18-.88c-1.45.55-5,2.78-6,4.67A8,8,0,0,0,117,90a18.2,18.2,0,0,0-3,2.78l0,.05c-8.39-3-15.79-3.24-22-1.87-1.37-1.23-3.57-3.1-6.68-9.23-.21-.37-.33.76-.49.41a28.45,28.45,0,0,1-1.83-10.57s-2.5,1.14-4.58,5.91c-.38.85-.63,1.33-.87,1.8a11.47,11.47,0,0,1,.2-1.47A13.61,13.61,0,0,0,76,80.41a19.22,19.22,0,0,0-.93,2.3L75,82.8c0-.3.08-1.24,0-1a47.55,47.55,0,0,0-2.5,6A56.08,56.08,0,0,0,69.87,103c-.05.49,0,1-.05,1.48a42.07,42.07,0,0,0-5.13,6.9c-3.41,5.28-7.18,13.51-10.82,26.52a63.77,63.77,0,0,1,5.8-10.16c-3,6.9-6,17.75-6.56,34.45a90.81,90.81,0,0,1,2.82-10.21,86.53,86.53,0,0,0,7.82,40.54,94.33,94.33,0,0,0,37.32,42.29h0s8,5.95,21.74,10.42c1,.36,2,.73,3.1,1.08-.33-.13-.65-.27-1-.41A98.45,98.45,0,0,0,153.17,250c35.6,0,46.1-14.27,46.1-14.27l-.1.08c.5-.47,1-1,1.45-1.48-5.62,5.31-18.44,5.66-23.23,5.29,8.17-2.4,13.55-4.43,24-8.44,1.22-.45,2.47-1,3.75-1.55l.41-.19c.25-.12.51-.23.76-.36a70.7,70.7,0,0,0,14.28-8.94c10.51-8.4,12.81-16.58,14-22a26.18,26.18,0,0,1-1,2.5c-2.7,5.79-8.71,9.35-15.22,12.4a141.42,141.42,0,0,0,8.61-12.69C229.08,198.25,229.74,195,231.33,192.73Z"/><path class="cls-4" d="M218.54,212.8a67.05,67.05,0,0,0,11.05-16.26c7.5-15.76,19.1-42,10-69.37-7.22-21.64-17.13-33.47-29.71-45C189.4,63.37,183.7,55,183.7,50c0,0-23.6,26.3-13.37,53.74s31.2,26.42,45.06,55.05c16.32,33.69-13.2,70.45-37.6,80.74,1.49-.33,54.27-12.27,57-42.45C234.75,197.63,233.56,206,218.54,212.8Z"/><path class="cls-1" d="M150.18,114.91c.08-1.78-.84-3-15.58-4.36-6.07-.56-8.39-6.16-9.1-8.52a42,42,0,0,0-2.57,18.59c.33,4.66,3.46,9.66,5,12.6,0,0,.33-.43.48-.59,2.82-2.93,14.62-7.4,15.73-8S150,120.41,150.18,114.91Z"/><path class="cls-4" d="M85.29,81.8c-.21-.37-.33.77-.49.41A26.91,26.91,0,0,1,83,71.64s-2.5,1.14-4.58,5.91c-.38.85-.63,1.33-.88,1.8a13.68,13.68,0,0,1,.21-1.47,12.51,12.51,0,0,0-2.63,4.9c-.08.3.07-1.28,0-1.09-4.83,9.3-5.75,23.39-5.24,22.78a47.45,47.45,0,0,1,22-13.54c-1.25-.92-4-3.58-6.64-9.13Z"/><path class="cls-1" d="M124.22,196.36c-14.17-6.05-30.29-14.58-29.68-34,.83-25.53,23.81-20.49,23.81-20.49a8.34,8.34,0,0,0-4,3.63c-.87,2.2-2.46,7.17,2.34,12.37,7.54,8.17-15.48,19.39,20.06,40.57.89.49-8.34-.29-12.53-2.11Z"/><path class="cls-4" d="M119.18,183.64c10,3.5,21.75,2.88,28.77-1,4.69-2.61,10.71-6.79,14.41-5.76a25.2,25.2,0,0,0-8.55-2,15.35,15.35,0,0,1-1.64-.06,28.46,28.46,0,0,0-3.2.17c-1.81.17-3.82,1.31-5.64,1.13-.1,0,1.77-.77,1.62-.73-1,.2-2,.24-3.13.38-.7.08-1.31.17-2,.2-20.93,1.78-38.62-11.34-38.62-11.34-1.5,5.08,6.75,15.1,18,19Z"/><path class="cls-1" d="M218.51,212.94c21.17-20.79,31.88-46.06,27.35-74.39a59.89,59.89,0,0,1-5.05,29.39c3.29-14.51,3.68-32.54-5.08-51.22-11.68-24.92-30.9-38-38.24-43.51-11.11-8.29-15.72-16.73-15.81-18.47-3.32,6.8-13.36,30.12-1.08,50.2,11.51,18.81,29.65,24.39,42.35,41.67C246.34,178.39,218.51,212.94,218.51,212.94Z"/><path class="cls-4" d="M215.47,158.85c-7.4-15.28-16.63-21.95-25.37-29.18a33.54,33.54,0,0,1,1.83,2.85,54,54,0,0,1,10.8,53.27c-15.5,47.23-77.46,25-84,18.75,2.63,27.33,48.38,40.41,78.17,22.7C213.88,211.18,227.6,183.9,215.47,158.85Z"/></g></g><rect class="cls-5" width="300" height="300"/></g></g></svg>