<svg xmlns="http://www.w3.org/2000/svg" viewBox="0 0 300 300"><defs><style>.cls-1{fill:none;}.cls-2{fill:#171717;}.cls-3{fill:#d81a62;}.cls-4{fill:#181818;}</style></defs><title>Customa-Misc</title><g id="Layer_2" data-name="Layer 2"><g id="Layer_1-2" data-name="Layer 1"><rect class="cls-1" width="300" height="300"/><circle class="cls-2" cx="150.62" cy="150" r="82.66"/><path class="cls-2" d="M252.9,136.39,229,132.82a4.06,4.06,0,0,0-4.66,4v21.41a4.06,4.06,0,0,0,4.66,4l23.91-3.57a4.07,4.07,0,0,0,3.46-4V140.41A4.07,4.07,0,0,0,252.9,136.39Z"/><path class="cls-2" d="M138.53,46.94l-3.87,25.92A4.4,4.4,0,0,0,139,77.92h23.22a4.41,4.41,0,0,0,4.36-5.06l-3.88-25.92a4.4,4.4,0,0,0-4.35-3.76H142.89A4.4,4.4,0,0,0,138.53,46.94Z"/><path class="cls-2" d="M47.1,158.69,71,162.26a4.06,4.06,0,0,0,4.66-4V136.84a4.06,4.06,0,0,0-4.66-4L47.1,136.39a4.07,4.07,0,0,0-3.46,4v14.26A4.07,4.07,0,0,0,47.1,158.69Z"/><path class="cls-2" d="M162.71,253.06l3.88-25.92a4.41,4.41,0,0,0-4.36-5.06H139a4.4,4.4,0,0,0-4.35,5.06l3.87,25.92a4.4,4.4,0,0,0,4.36,3.76h15.47A4.4,4.4,0,0,0,162.71,253.06Z"/><path class="cls-2" d="M213.14,67.62,193.71,82a4.05,4.05,0,0,0-.46,6.13l15.14,15.14a4.06,4.06,0,0,0,6.14-.46l14.38-19.43a4.05,4.05,0,0,0-.4-5.28L218.43,68A4.06,4.06,0,0,0,213.14,67.62Z"/><path class="cls-2" d="M69,85.23l15.6,21.08a4.4,4.4,0,0,0,6.65.49l16.42-16.42a4.4,4.4,0,0,0-.5-6.65L86.11,68.13a4.41,4.41,0,0,0-5.73.43L69.44,79.5A4.4,4.4,0,0,0,69,85.23Z"/><path class="cls-2" d="M83.38,228.91l19.43-14.38a4.06,4.06,0,0,0,.46-6.14L88.13,193.25a4.05,4.05,0,0,0-6.13.46L67.62,213.14a4.06,4.06,0,0,0,.39,5.29L78.1,228.51A4.05,4.05,0,0,0,83.38,228.91Z"/><path class="cls-2" d="M231.87,213.89l-15.6-21.07a4.4,4.4,0,0,0-6.65-.5L193.2,208.74a4.4,4.4,0,0,0,.49,6.65L214.77,231a4.4,4.4,0,0,0,5.73-.43l10.94-10.94A4.41,4.41,0,0,0,231.87,213.89Z"/><circle class="cls-3" cx="150" cy="150" r="53.59"/><path class="cls-4" d="M140.1,140.21c0,6-4.45,10.89-9.89,10.89s-9.89-4.89-9.89-10.89,4.45-10.88,9.89-10.88S140.1,134.17,140.1,140.21Z"/><path class="cls-4" d="M179.7,140.21c0,6-4.45,10.89-9.89,10.89s-9.89-4.89-9.89-10.89,4.45-10.88,9.89-10.88S179.7,134.17,179.7,140.21Z"/><path class="cls-4" d="M169.26,160.73a3.83,3.83,0,0,1,1.32,5.77,25.13,25.13,0,0,1-12.86,8.08,25.43,25.43,0,0,1-15.17-.66,3.85,3.85,0,0,1-1.81-5.66h0c1.21-2.09,3.9-2.75,6.27-2.14a16.17,16.17,0,0,0,8.4-.06,16.68,16.68,0,0,0,7.32-4.12c1.76-1.65,4.39-2.42,6.54-1.21Z"/></g></g></svg>