<svg xmlns="http://www.w3.org/2000/svg" viewBox="0 0 300 300"><defs><style>.cls-1{fill:#d81b60;}.cls-2{fill:#161616;}.cls-3{fill:none;}</style></defs><title>Customa-Website</title><g id="Layer_2" data-name="Layer 2"><g id="Layer_1-2" data-name="Layer 1"><circle class="cls-1" cx="150" cy="150" r="100"/><path class="cls-2" d="M249.76,143.33a100,100,0,0,0-93.09-93.1V50H143.33v.23a100,100,0,0,0-93.1,93.1H50v13.34h.23a100,100,0,0,0,93.1,93.09V250h13.34v-.24a100,100,0,0,0,93.09-93.09H250V143.33ZM112.6,71.8c-6.44,8.56-11.79,19.29-15.68,31.53H77A87.11,87.11,0,0,1,112.6,71.8ZM70,116.67H93.41a158.91,158.91,0,0,0-3.28,26.66H63.59A85.87,85.87,0,0,1,70,116.67Zm-6.38,40H90.13a158.91,158.91,0,0,0,3.28,26.66H70A85.87,85.87,0,0,1,63.59,156.67Zm13.36,40h20c3.89,12.24,9.24,23,15.69,31.53A87,87,0,0,1,77,196.67Zm66.38,39.14c-13.7-3.66-25.5-18.38-32.66-39.14h32.66Zm0-52.48H106.92a148.34,148.34,0,0,1-3.45-26.66h39.86Zm0-40H103.47a148.34,148.34,0,0,1,3.45-26.66h36.41Zm0-40H110.67c7.16-20.76,19-35.48,32.66-39.13Zm79.72,0H203.11c-3.91-12.24-9.24-23-15.71-31.53A87.17,87.17,0,0,1,223.05,103.33ZM156.67,64.2c13.69,3.65,25.5,18.37,32.66,39.13H156.67Zm0,52.47h36.4a150.15,150.15,0,0,1,3.46,26.66H156.67Zm0,40h39.86a147.43,147.43,0,0,1-3.46,26.66h-36.4Zm0,79.14V196.67h32.66C182.17,217.43,170.36,232.15,156.67,235.81Zm30.73-7.61a106.54,106.54,0,0,0,15.71-31.53h19.94A87.1,87.1,0,0,1,187.4,228.2ZM230,183.33H206.59a158.91,158.91,0,0,0,3.28-26.66H236.4A85.58,85.58,0,0,1,230,183.33Zm-20.16-40a158.91,158.91,0,0,0-3.28-26.66H230a85.87,85.87,0,0,1,6.38,26.66Z"/><rect class="cls-3" width="300" height="300"/></g></g></svg>