<svg xmlns="http://www.w3.org/2000/svg" viewBox="0 0 300 300"><defs><style>.cls-1{fill:none;}.cls-2{fill:#171717;}.cls-3{fill:#d81a61;}</style></defs><title>Customa-Injector-Powercord</title><g id="Layer_2" data-name="Layer 2"><g id="Layer_1-2" data-name="Layer 1"><rect class="cls-1" width="300" height="300"/><polygon class="cls-2" points="78.22 134.32 134.66 77.77 247.53 190.86 191.09 247.41 78.22 134.32"/><path class="cls-3" d="M250,193,194.55,137.4s-12,25.89-28.22,28.28S138.12,194,138.12,194l55.44,55.55H250Z"/><polygon class="cls-2" points="70.88 85.12 84.99 70.99 113.21 99.26 99.1 113.39 70.88 85.12"/><polygon class="cls-2" points="50 106.05 106.44 49.5 120.55 63.64 64.11 120.18 50 106.05"/><path class="cls-3" d="M102.65,230.52l-5-5L108,215.26a3.54,3.54,0,0,1,5,0h0a3.52,3.52,0,0,1,0,5l-10.29,10.29Z"/><path class="cls-3" d="M102,231.2l-5-5a1,1,0,0,1,0-1.37l10.29-10.29a4.48,4.48,0,0,1,6.34,6.34L103.33,231.2A1,1,0,0,1,102,231.2Zm-2.91-5.64,3.6,3.6,9.6-9.6a2.55,2.55,0,0,0-3.6-3.61l-9.6,9.61Z"/><path class="cls-3" d="M116.13,244l-5-5,10.29-10.29a3.52,3.52,0,0,1,5,0h0a3.54,3.54,0,0,1,0,5L116.13,244Z"/><path class="cls-3" d="M115.44,244.68l-5-5a1,1,0,0,1,0-1.36l10.3-10.3a4.48,4.48,0,1,1,6.33,6.34l-10.29,10.29A1,1,0,0,1,115.44,244.68ZM112.53,239l3.6,3.6,9.61-9.6a2.55,2.55,0,0,0-3.61-3.6l-9.6,9.6Z"/><rect class="cls-2" x="102.62" y="219.49" width="5.01" height="34.12" transform="translate(-136.47 143.62) rotate(-45)"/><path class="cls-2" d="M114.71,251.09,90.58,227a1,1,0,0,1,0-1.43L94.12,222a1,1,0,0,1,1.43,0l24.13,24.12a1,1,0,0,1,0,1.43l-3.55,3.54A1,1,0,0,1,114.71,251.09Zm-22-24.83L115.43,249l2.13-2.14L94.85,224.13Z"/><path class="cls-2" d="M93.86,261.47,80.2,247.81a5.41,5.41,0,0,1,0-7.63l12.51-12.51L114,249l-12.51,12.51A5.37,5.37,0,0,1,93.86,261.47Z"/><path class="cls-2" d="M93.15,262.18,79.5,248.52a6.41,6.41,0,0,1,0-9.06L92,227a1,1,0,0,1,1.42,0l21.28,21.31a1,1,0,0,1,0,1.42l-12.5,12.5A6.41,6.41,0,0,1,93.15,262.18Zm-.44-33.08L80.92,240.89a4.39,4.39,0,0,0,0,6.22l13.66,13.66a4.39,4.39,0,0,0,6.22,0L112.59,249Z"/></g></g></svg>