<svg id="Layer_1" data-name="Layer 1" xmlns="http://www.w3.org/2000/svg" viewBox="0 0 1133.86 1688.39"><defs><style>.cls-1,.cls-3,.cls-6{fill:#171717;}.cls-1,.cls-6{stroke:#231f20;}.cls-1,.cls-10,.cls-11,.cls-5,.cls-6,.cls-8{stroke-miterlimit:10;}.cls-2,.cls-7{fill:#d81b61;}.cls-4{fill:#231f20;}.cls-10,.cls-11,.cls-12,.cls-5,.cls-8{fill:none;}.cls-10,.cls-5,.cls-8{stroke:#171717;}.cls-5{stroke-width:5px;}.cls-6,.cls-7,.cls-9{opacity:0.1;}.cls-11,.cls-8{stroke-linecap:round;stroke-width:6px;}.cls-10{stroke-width:4px;stroke-dasharray:17;}.cls-11{stroke:#d81b61;}</style></defs><title>Customa-Design Spreadsheet</title><g id="Right"><g id="Other_Usecases" data-name="Other Usecases"><g id="Usecase_2" data-name="Usecase 2"><g id="Server_Icon" data-name="Server Icon"><g id="Logo"><path id="BackgroundBG1" class="cls-1" d="M953.27,1553.06l12.09-68.56c37.61,6.63,63.11,43,56.47,80.65s-43,63.1-80.65,56.47-63.1-43-56.47-80.65Z"/><circle id="BackgroundAccent" class="cls-2" cx="953.27" cy="1553.06" r="45.25"/><g id="Mouth"><path class="cls-3" d="M969.2,1534c4.55-.82,9,2.7,9.95,7.88s-2,10.05-6.53,10.88-9-2.7-10-7.86S964.65,1534.83,969.2,1534Z"/><path class="cls-3" d="M927.55,1540.82c1.29-5.08,6-8.29,10.47-7.14s7.05,6.22,5.76,11.31-6,8.29-10.48,7.14S926.25,1545.91,927.55,1540.82Z"/><g id="Group"><path class="cls-3" d="M957.26,1563.25c-2.11,1.15-3.92,2.37-6.38,1.46a14.76,14.76,0,0,1-4-1.85c-.89-.65-1.89-1.18-2.78-1.83-.46-.34-.91-.69-1.37-1a2.41,2.41,0,0,0-1.37-.65c-.53,0-1.59-.09-2,.35-1.74,2,.71,4.83,2,6.15a27.12,27.12,0,0,0,7.33,5.18c2.51,1.09,5,2.4,7.69,1.07a52.56,52.56,0,0,0,8.09-5.61c1.7-1.29,5.51-3.57,4.85-6.1-.47-1.85-2.61-1.46-4-1a31,31,0,0,0-5,2.28C959.28,1562.16,958.28,1562.71,957.26,1563.25Z"/></g></g></g></g><path class="cls-4" d="M590.42,1532h4.76v20.59h10.74v4.3h-15.5Z"/><path class="cls-4" d="M623,1538.9a8.79,8.79,0,0,1,3.52,3.4,9.86,9.86,0,0,1,1.26,5,10,10,0,0,1-1.26,5.08,8.78,8.78,0,0,1-3.52,3.42,11,11,0,0,1-5.21,1.21,11.16,11.16,0,0,1-5.27-1.21,8.74,8.74,0,0,1-3.53-3.42,10,10,0,0,1-1.27-5.08,9.77,9.77,0,0,1,1.27-5,8.76,8.76,0,0,1,3.53-3.4,11,11,0,0,1,5.27-1.21A10.86,10.86,0,0,1,623,1538.9Zm-9.13,4.34a6.55,6.55,0,0,0,0,8.32,5.1,5.1,0,0,0,3.92,1.6,5,5,0,0,0,3.84-1.6,6.55,6.55,0,0,0,0-8.32,5,5,0,0,0-3.84-1.6A5.1,5.1,0,0,0,613.88,1543.24Z"/><path class="cls-4" d="M643.05,1556.86v-2.31a6.22,6.22,0,0,1-2.56,1.88,9.4,9.4,0,0,1-3.6.64,7.67,7.67,0,0,1-3.5-.76,5.64,5.64,0,0,1-2.33-2.12,5.77,5.77,0,0,1-.82-3,5.06,5.06,0,0,1,1.89-4.18,8.48,8.48,0,0,1,5.33-1.55H643V1545a3.22,3.22,0,0,0-1.1-2.6,4.85,4.85,0,0,0-3.2-.92,11.06,11.06,0,0,0-5.66,1.77l-1.67-3.2a21.31,21.31,0,0,1,4.07-1.79,14.85,14.85,0,0,1,4.29-.55,8.5,8.5,0,0,1,5.74,1.77,6.36,6.36,0,0,1,2.08,5l0,12.45Zm-1.64-4.29a3.25,3.25,0,0,0,1.6-2.32v-1.71h-4.8a5.2,5.2,0,0,0-2.72.55,2,2,0,0,0-.87,1.79,2.34,2.34,0,0,0,.9,1.93,4,4,0,0,0,2.48.71A6,6,0,0,0,641.41,1552.57Z"/><path class="cls-4" d="M671.14,1530.47v26.39h-4.62v-3.06a7,7,0,0,1-2.65,2.44,8.17,8.17,0,0,1-3.76.83,9.09,9.09,0,0,1-4.74-1.22,8.38,8.38,0,0,1-3.19-3.45,11,11,0,0,1-1.13-5.11,10.86,10.86,0,0,1,1.12-5,8.09,8.09,0,0,1,3.16-3.39,9,9,0,0,1,4.68-1.21,8.09,8.09,0,0,1,3.8.85,7.39,7.39,0,0,1,2.71,2.45v-10.49ZM665,1551.58a6.51,6.51,0,0,0,0-8.36,5.47,5.47,0,0,0-7.77,0,6.51,6.51,0,0,0,0,8.36,5.47,5.47,0,0,0,7.77,0Z"/><path class="cls-4" d="M681.24,1530.44a2.75,2.75,0,0,1,.75,2,2.7,2.7,0,0,1-.75,2,2.64,2.64,0,0,1-3.77,0,2.7,2.7,0,0,1-.75-2,2.75,2.75,0,0,1,.75-2,2.64,2.64,0,0,1,3.77,0Zm-4.16,7.39h4.62v19h-4.62Z"/><path class="cls-4" d="M704,1539.63a7.42,7.42,0,0,1,1.89,5.35v11.88h-4.66v-10.53a4.28,4.28,0,0,0-1.14-3.14A4.15,4.15,0,0,0,697,1542a4.72,4.72,0,0,0-3.65,1.56,5.75,5.75,0,0,0-1.33,3.92v9.35h-4.62v-19h4.62v3.56c1.3-2.44,3.58-3.69,6.83-3.73A6.75,6.75,0,0,1,704,1539.63Z"/><path class="cls-4" d="M728.5,1537.83v17.22a8.84,8.84,0,0,1-1.23,4.71,8.06,8.06,0,0,1-3.48,3.09,12.07,12.07,0,0,1-5.25,1.09,14,14,0,0,1-8-2.53l1.85-3.34a9.79,9.79,0,0,0,5.94,2,6,6,0,0,0,4.07-1.32,4.5,4.5,0,0,0,1.52-3.59v-2.24a6.33,6.33,0,0,1-2.49,2.22,7.87,7.87,0,0,1-3.56.77,8.39,8.39,0,0,1-4.41-1.16,7.91,7.91,0,0,1-3-3.23,10.36,10.36,0,0,1-1.06-4.79,10.09,10.09,0,0,1,1.06-4.71,7.84,7.84,0,0,1,3-3.18,8.47,8.47,0,0,1,4.41-1.14,7.75,7.75,0,0,1,3.54.78,6.61,6.61,0,0,1,2.51,2.21v-2.85Zm-6,12.93a6.18,6.18,0,0,0,0-7.86,5.13,5.13,0,0,0-7.29,0,6.06,6.06,0,0,0,0,7.84,5.15,5.15,0,0,0,7.29,0Z"/><path class="cls-4" d="M742.83,1532h4.76v24.89h-4.76Z"/><path class="cls-4" d="M761.64,1541.75a4.87,4.87,0,0,0-3.75,1.56,5.75,5.75,0,0,0-1.44,4,5.85,5.85,0,0,0,1.44,4.13,4.87,4.87,0,0,0,3.75,1.56,6,6,0,0,0,5.12-2.24l2.88,2.39a8.37,8.37,0,0,1-3.38,2.84,11.12,11.12,0,0,1-4.87,1,10.18,10.18,0,0,1-5-1.21,8.56,8.56,0,0,1-3.4-3.4,10.17,10.17,0,0,1-1.21-5,10.31,10.31,0,0,1,1.23-5.09,8.61,8.61,0,0,1,3.41-3.41,10.2,10.2,0,0,1,5-1.21,11.24,11.24,0,0,1,4.64.91,8.24,8.24,0,0,1,3.33,2.58l-2.81,2.66A6.46,6.46,0,0,0,761.64,1541.75Z"/><path class="cls-4" d="M786.45,1538.9a8.79,8.79,0,0,1,3.52,3.4,9.86,9.86,0,0,1,1.26,5,10,10,0,0,1-1.26,5.08,8.78,8.78,0,0,1-3.52,3.42,11,11,0,0,1-5.21,1.21,11.16,11.16,0,0,1-5.27-1.21,8.74,8.74,0,0,1-3.53-3.42,10,10,0,0,1-1.27-5.08,9.77,9.77,0,0,1,1.27-5,8.76,8.76,0,0,1,3.53-3.4,11,11,0,0,1,5.27-1.21A10.83,10.83,0,0,1,786.45,1538.9Zm-9.12,4.34a6.52,6.52,0,0,0,0,8.32,5.08,5.08,0,0,0,3.91,1.6,5,5,0,0,0,3.84-1.6,6.55,6.55,0,0,0,0-8.32,5,5,0,0,0-3.84-1.6A5.08,5.08,0,0,0,777.33,1543.24Z"/><path class="cls-4" d="M811.86,1539.63a7.46,7.46,0,0,1,1.88,5.35v11.88h-4.66v-10.53a4.28,4.28,0,0,0-1.14-3.14,4.15,4.15,0,0,0-3.09-1.16,4.72,4.72,0,0,0-3.65,1.56,5.8,5.8,0,0,0-1.33,3.92v9.35h-4.62v-19h4.62v3.56c1.3-2.44,3.58-3.69,6.83-3.73A6.79,6.79,0,0,1,811.86,1539.63Z"/><path class="cls-4" d="M589,1568.56a15.58,15.58,0,0,0,0,8.28,13.56,13.56,0,0,0,1.56,3.56h-2.1a11.54,11.54,0,0,1-1.62-3.51,16,16,0,0,1,0-8.38,11.54,11.54,0,0,1,1.62-3.51h2.1A13.71,13.71,0,0,0,589,1568.56Z"/><path class="cls-4" d="M590.8,1568.7l2.38,0,2.33,7.19,2.26-7.19h2.32l2.3,7.19,2.28-7.19H607l-3.45,9.52h-2.36l-2.28-6.71-2.25,6.71h-2.37Z"/><path class="cls-4" d="M610.43,1565a1.5,1.5,0,0,1,0,2,1.27,1.27,0,0,1-.95.39,1.24,1.24,0,0,1-.94-.39,1.5,1.5,0,0,1,0-2,1.22,1.22,0,0,1,.94-.4A1.24,1.24,0,0,1,610.43,1565Zm-2.08,3.69h2.31v9.52h-2.31Z"/><path class="cls-4" d="M619.09,1577.61a4.56,4.56,0,0,1-2.39.69,2.85,2.85,0,0,1-2-.72,2.75,2.75,0,0,1-.78-2.12v-4.7h-1.33l0-1.69h1.35v-2.61h2.29v2.61h2.72v1.69H616.2v4.29a1.4,1.4,0,0,0,.25.93,1,1,0,0,0,.75.28,3.28,3.28,0,0,0,1.35-.39Z"/><path class="cls-4" d="M629.31,1569.58a3.71,3.71,0,0,1,.94,2.68v5.94h-2.33v-5.27a2.15,2.15,0,0,0-.57-1.57,2,2,0,0,0-1.54-.58,2.38,2.38,0,0,0-1.84.78,2.86,2.86,0,0,0-.67,2v4.68H621V1565h2.31v5.5a3.6,3.6,0,0,1,3.43-1.91A3.4,3.4,0,0,1,629.31,1569.58Z"/><path class="cls-4" d="M640.82,1569.1a4,4,0,0,1,1.93-.51v2.24a3.14,3.14,0,0,0-2.35.69,2.63,2.63,0,0,0-.88,2.09v4.59H637.2v-9.52h2.32v1.83A3.48,3.48,0,0,1,640.82,1569.1Z"/><path class="cls-4" d="M651.13,1569.22a4.3,4.3,0,0,1,1.76,1.7,4.81,4.81,0,0,1,.64,2.51,4.92,4.92,0,0,1-.64,2.54,4.27,4.27,0,0,1-1.76,1.71,5.45,5.45,0,0,1-2.6.61,5.55,5.55,0,0,1-2.63-.61,4.29,4.29,0,0,1-1.77-1.71,5,5,0,0,1-.63-2.54,4.9,4.9,0,0,1,.63-2.51,4.33,4.33,0,0,1,1.77-1.7,5.43,5.43,0,0,1,2.63-.61A5.34,5.34,0,0,1,651.13,1569.22Zm-4.56,2.17a2.94,2.94,0,0,0-.74,2.08,3,3,0,0,0,.74,2.08,2.57,2.57,0,0,0,2,.8,2.53,2.53,0,0,0,1.92-.8,2.94,2.94,0,0,0,.75-2.08,2.9,2.9,0,0,0-.75-2.08,2.49,2.49,0,0,0-1.92-.8A2.53,2.53,0,0,0,646.57,1571.39Z"/><path class="cls-4" d="M661.1,1577.61a4.52,4.52,0,0,1-2.38.69,2.85,2.85,0,0,1-2-.72,2.75,2.75,0,0,1-.78-2.12v-4.7h-1.34v-1.69h1.35v-2.61h2.29v2.61h2.72v1.69h-2.72v4.29a1.35,1.35,0,0,0,.25.93.92.92,0,0,0,.75.28,3.36,3.36,0,0,0,1.35-.39Z"/><path class="cls-4" d="M668.53,1578.2V1577a3,3,0,0,1-1.28.94,4.57,4.57,0,0,1-1.79.32,3.73,3.73,0,0,1-1.75-.38,2.74,2.74,0,0,1-1.17-1.06,2.87,2.87,0,0,1-.41-1.51,2.56,2.56,0,0,1,.94-2.09,4.26,4.26,0,0,1,2.67-.77h2.77v-.25a1.6,1.6,0,0,0-.55-1.3,2.4,2.4,0,0,0-1.6-.46,5.49,5.49,0,0,0-2.82.89l-.84-1.6a10.14,10.14,0,0,1,2-.9,7.56,7.56,0,0,1,2.14-.28,4.25,4.25,0,0,1,2.87.89,3.19,3.19,0,0,1,1,2.49l0,6.23Zm-.82-2.15a1.58,1.58,0,0,0,.8-1.16V1574h-2.4a2.67,2.67,0,0,0-1.36.27,1,1,0,0,0-.43.9,1.17,1.17,0,0,0,.45,1,1.94,1.94,0,0,0,1.24.35A3,3,0,0,0,667.71,1576.05Z"/><path class="cls-4" d="M679,1577.61a4.52,4.52,0,0,1-2.38.69,2.85,2.85,0,0,1-2-.72,2.75,2.75,0,0,1-.78-2.12v-4.7h-1.34v-1.69h1.35v-2.61h2.29v2.61h2.72v1.69h-2.72v4.29a1.35,1.35,0,0,0,.25.93.92.92,0,0,0,.75.28,3.36,3.36,0,0,0,1.35-.39Z"/><path class="cls-4" d="M682.86,1565a1.47,1.47,0,0,1,0,2,1.23,1.23,0,0,1-.94.39,1.24,1.24,0,0,1-.94-.39,1.5,1.5,0,0,1,0-2,1.22,1.22,0,0,1,.94-.4A1.2,1.2,0,0,1,682.86,1565Zm-2.08,3.69h2.32v9.52h-2.32Z"/><path class="cls-4" d="M694.26,1569.58a3.71,3.71,0,0,1,.94,2.68v5.94h-2.32v-5.27a2.19,2.19,0,0,0-.57-1.57,2.07,2.07,0,0,0-1.55-.58,2.32,2.32,0,0,0-1.82.78,2.86,2.86,0,0,0-.67,2v4.68H686v-9.52h2.31v1.78a3.61,3.61,0,0,1,3.41-1.87A3.4,3.4,0,0,1,694.26,1569.58Z"/><path class="cls-4" d="M706.49,1568.68v8.61a4.44,4.44,0,0,1-.61,2.36,4,4,0,0,1-1.74,1.54,6,6,0,0,1-2.62.54,7,7,0,0,1-4-1.26l.92-1.67a4.92,4.92,0,0,0,3,1,3,3,0,0,0,2-.66,2.27,2.27,0,0,0,.75-1.8v-1.12a3.08,3.08,0,0,1-1.24,1.11,3.86,3.86,0,0,1-1.78.39,4.22,4.22,0,0,1-2.2-.58,4,4,0,0,1-1.5-1.62,5.22,5.22,0,0,1-.53-2.39,5.1,5.1,0,0,1,.53-2.36,4,4,0,0,1,1.5-1.59,4.22,4.22,0,0,1,2.2-.57,3.9,3.9,0,0,1,1.77.39,3.19,3.19,0,0,1,1.25,1.11v-1.43Zm-3,6.47a3.11,3.11,0,0,0,0-3.93,2.55,2.55,0,0,0-3.64,0,3,3,0,0,0,0,3.92,2.58,2.58,0,0,0,3.64,0Z"/><path class="cls-4" d="M720.34,1569.22a4.36,4.36,0,0,1,1.76,1.7,4.9,4.9,0,0,1,.63,2.51,5,5,0,0,1-.63,2.54,4.33,4.33,0,0,1-1.76,1.71,5.5,5.5,0,0,1-2.61.61,5.58,5.58,0,0,1-2.63-.61,4.29,4.29,0,0,1-1.77-1.71,5,5,0,0,1-.63-2.54,4.9,4.9,0,0,1,.63-2.51,4.33,4.33,0,0,1,1.77-1.7,5.46,5.46,0,0,1,2.63-.61A5.38,5.38,0,0,1,720.34,1569.22Zm-4.56,2.17a2.9,2.9,0,0,0-.75,2.08,2.94,2.94,0,0,0,.75,2.08,2.74,2.74,0,0,0,3.87,0,2.94,2.94,0,0,0,.75-2.08,2.9,2.9,0,0,0-.75-2.08,2.74,2.74,0,0,0-3.87,0Z"/><path class="cls-4" d="M733.52,1568.68v9.52h-2.33v-1.76a3.42,3.42,0,0,1-3.31,1.85,3.32,3.32,0,0,1-2.52-1,3.71,3.71,0,0,1-.93-2.67v-6h2.33V1574a2.15,2.15,0,0,0,.55,1.57,2,2,0,0,0,1.5.57,2.19,2.19,0,0,0,1.74-.78,2.91,2.91,0,0,0,.64-1.94v-4.7Z"/><path class="cls-4" d="M742,1577.61a4.56,4.56,0,0,1-2.39.69,2.84,2.84,0,0,1-2-.72,2.72,2.72,0,0,1-.79-2.12v-4.7h-1.33l0-1.69h1.35v-2.61h2.3v2.61h2.72v1.69h-2.72v4.29a1.35,1.35,0,0,0,.25.93.92.92,0,0,0,.74.28,3.28,3.28,0,0,0,1.35-.39Z"/><path class="cls-4" d="M751.08,1569.91a5.36,5.36,0,0,1,1.15,3.65c0,.3,0,.53,0,.69h-7a2.79,2.79,0,0,0,1,1.59,2.71,2.71,0,0,0,1.77.58,3.49,3.49,0,0,0,1.39-.28,3.32,3.32,0,0,0,1.17-.79l1.24,1.3a4.87,4.87,0,0,1-1.73,1.21,6,6,0,0,1-2.27.43,5.33,5.33,0,0,1-2.57-.61,4.26,4.26,0,0,1-1.72-1.7,5.55,5.55,0,0,1,0-5,4.29,4.29,0,0,1,1.72-1.71,5,5,0,0,1,2.51-.62A4.32,4.32,0,0,1,751.08,1569.91Zm-1,2.79a2.29,2.29,0,0,0-.69-1.67,2.46,2.46,0,0,0-1.75-.62,2.42,2.42,0,0,0-1.69.61,2.72,2.72,0,0,0-.85,1.68Z"/><path class="cls-4" d="M757.84,1569.1a4,4,0,0,1,1.93-.51v2.24a3.17,3.17,0,0,0-2.36.69,2.63,2.63,0,0,0-.88,2.09v4.59h-2.31v-9.52h2.31v1.83A3.5,3.5,0,0,1,757.84,1569.1Z"/><path class="cls-4" d="M769.79,1570.64a2.42,2.42,0,0,0-1.87.78,2.88,2.88,0,0,0-.72,2,2.92,2.92,0,0,0,.72,2.06,2.42,2.42,0,0,0,1.87.78,3,3,0,0,0,2.56-1.12l1.44,1.2a4.23,4.23,0,0,1-1.68,1.42,5.69,5.69,0,0,1-2.44.5,5.11,5.11,0,0,1-2.5-.61,4.28,4.28,0,0,1-1.7-1.7,5.12,5.12,0,0,1-.6-2.51,5.17,5.17,0,0,1,.61-2.55,4.3,4.3,0,0,1,1.71-1.7,5.06,5.06,0,0,1,2.52-.61,5.59,5.59,0,0,1,2.32.46,4.24,4.24,0,0,1,1.66,1.28l-1.41,1.34A3.22,3.22,0,0,0,769.79,1570.64Z"/><path class="cls-4" d="M777.85,1565a1.5,1.5,0,0,1,0,2,1.24,1.24,0,0,1-.94.39,1.27,1.27,0,0,1-.95-.39,1.5,1.5,0,0,1,0-2,1.24,1.24,0,0,1,.95-.4A1.22,1.22,0,0,1,777.85,1565Zm-2.08,3.69h2.31v9.52h-2.31Z"/><path class="cls-4" d="M784.56,1569.1a4,4,0,0,1,1.93-.51v2.24a3.18,3.18,0,0,0-2.36.69,2.67,2.67,0,0,0-.88,2.09v4.59h-2.31v-9.52h2.31v1.83A3.5,3.5,0,0,1,784.56,1569.1Z"/><path class="cls-4" d="M792.16,1570.64a2.42,2.42,0,0,0-1.87.78,2.88,2.88,0,0,0-.72,2,2.92,2.92,0,0,0,.72,2.06,2.42,2.42,0,0,0,1.87.78,3,3,0,0,0,2.56-1.12l1.44,1.2a4.19,4.19,0,0,1-1.69,1.42,5.64,5.64,0,0,1-2.43.5,5.11,5.11,0,0,1-2.5-.61,4.22,4.22,0,0,1-1.7-1.7,5.12,5.12,0,0,1-.6-2.51,5.17,5.17,0,0,1,.61-2.55,4.3,4.3,0,0,1,1.71-1.7,5,5,0,0,1,2.51-.61,5.52,5.52,0,0,1,2.32.46,4.28,4.28,0,0,1,1.67,1.28l-1.41,1.34A3.22,3.22,0,0,0,792.16,1570.64Z"/><path class="cls-4" d="M798.22,1565h2.32v13.2h-2.32Z"/><path class="cls-4" d="M810.89,1569.91a5.31,5.31,0,0,1,1.15,3.65c0,.3,0,.53,0,.69h-7a2.65,2.65,0,0,0,2.72,2.17,3.54,3.54,0,0,0,1.4-.28,3.28,3.28,0,0,0,1.16-.79l1.24,1.3a4.87,4.87,0,0,1-1.73,1.21,5.92,5.92,0,0,1-2.27.43,5.29,5.29,0,0,1-2.56-.61,4.15,4.15,0,0,1-1.72-1.7,5.47,5.47,0,0,1,0-5,4.33,4.33,0,0,1,1.71-1.71,5.08,5.08,0,0,1,2.51-.62A4.3,4.3,0,0,1,810.89,1569.91Zm-1,2.79a2.29,2.29,0,0,0-.69-1.67,2.71,2.71,0,0,0-3.44,0,2.66,2.66,0,0,0-.84,1.68Z"/><path class="cls-4" d="M814.9,1565a11.56,11.56,0,0,1,1.63,3.51,16,16,0,0,1,0,8.38,11.56,11.56,0,0,1-1.63,3.51h-2.1a12.94,12.94,0,0,0,1.56-3.56,15.58,15.58,0,0,0,0-8.28,13.07,13.07,0,0,0-1.56-3.56Z"/></g><g id="Usecase_1" data-name="Usecase 1"><g id="Server_Icon-2" data-name="Server Icon"><circle class="cls-5" cx="692.4" cy="1318.35" r="101.69"/><g id="Logo-2" data-name="Logo"><path id="BackgroundBG1-2" data-name="BackgroundBG1" class="cls-1" d="M692.4,1318.35H762c0,38.2-31.42,69.62-69.62,69.62s-69.61-31.42-69.61-69.62,31.42-69.62,69.61-69.62Z"/><circle id="BackgroundAccent-2" data-name="BackgroundAccent" class="cls-2" cx="692.4" cy="1318.35" r="45.25"/><g id="Mouth-2" data-name="Mouth"><path class="cls-3" d="M708.33,1299.27c4.55-.81,9,2.7,9.95,7.88s-2,10-6.53,10.88-9-2.7-10-7.86S703.78,1300.12,708.33,1299.27Z"/><path class="cls-3" d="M666.68,1306.12c1.3-5.09,6-8.29,10.47-7.15s7.05,6.22,5.76,11.31-6,8.29-10.47,7.14S665.39,1311.2,666.68,1306.12Z"/><g id="Group-2" data-name="Group"><path class="cls-3" d="M696.4,1328.54c-2.11,1.15-3.93,2.37-6.39,1.46a14.6,14.6,0,0,1-4-1.85c-.89-.65-1.89-1.18-2.78-1.83-.46-.33-.9-.68-1.37-1a2.31,2.31,0,0,0-1.37-.64c-.53-.06-1.59-.1-2,.35-1.74,1.94.7,4.83,2,6.14a26.9,26.9,0,0,0,7.33,5.18c2.52,1.09,5,2.41,7.7,1.07a52.9,52.9,0,0,0,8.08-5.6c1.7-1.3,5.52-3.57,4.85-6.11-.46-1.85-2.61-1.46-4-1a32.26,32.26,0,0,0-5,2.28C698.41,1327.45,697.41,1328,696.4,1328.54Z"/></g></g></g></g><path class="cls-4" d="M861,1294.34a11.68,11.68,0,0,1,4.63,4.43,12.51,12.51,0,0,1,1.67,6.44,12.36,12.36,0,0,1-1.69,6.42,11.86,11.86,0,0,1-4.68,4.42,14.1,14.1,0,0,1-6.79,1.6H844v-24.89H854.3A13.93,13.93,0,0,1,861,1294.34Zm-2.47,18.07a7.46,7.46,0,0,0,2.87-2.92,8.71,8.71,0,0,0,1-4.25,8.6,8.6,0,0,0-1.07-4.28,7.56,7.56,0,0,0-2.93-3,8.4,8.4,0,0,0-4.18-1h-5.52v16.5h5.7A8.1,8.1,0,0,0,858.51,1312.41Z"/><path class="cls-4" d="M875.42,1291.23a2.76,2.76,0,0,1,.75,2,2.73,2.73,0,0,1-.75,2,2.67,2.67,0,0,1-3.77,0,2.72,2.72,0,0,1-.74-2,2.76,2.76,0,0,1,.74-2,2.67,2.67,0,0,1,3.77,0Zm-4.16,7.4h4.62v19h-4.62Z"/><path class="cls-4" d="M890,1302.5a9.39,9.39,0,0,0-2.72-.46,3.7,3.7,0,0,0-1.87.41,1.36,1.36,0,0,0-.69,1.26,1.49,1.49,0,0,0,.87,1.37,14.2,14.2,0,0,0,2.76,1,27.08,27.08,0,0,1,3.27,1.19,6.18,6.18,0,0,1,2.22,1.74,4.64,4.64,0,0,1,.94,3,4.91,4.91,0,0,1-2.13,4.27,9.17,9.17,0,0,1-5.37,1.49,13.63,13.63,0,0,1-4.3-.69,10,10,0,0,1-3.56-2l1.6-3.23a9.29,9.29,0,0,0,3.06,1.72,10.09,10.09,0,0,0,3.38.63,4,4,0,0,0,2-.45,1.45,1.45,0,0,0,.77-1.33,1.63,1.63,0,0,0-.89-1.5,16.1,16.1,0,0,0-2.88-1.1,24,24,0,0,1-3.13-1.12,5.6,5.6,0,0,1-2.1-1.67,4.61,4.61,0,0,1-.89-2.93,5,5,0,0,1,2-4.29,8.61,8.61,0,0,1,5.14-1.48,13.08,13.08,0,0,1,3.72.54,11.27,11.27,0,0,1,3.25,1.49l-1.67,3.34A14,14,0,0,0,890,1302.5Z"/><path class="cls-4" d="M906.86,1302.54a4.87,4.87,0,0,0-3.75,1.56,6.53,6.53,0,0,0,0,8.18,4.84,4.84,0,0,0,3.75,1.57,6,6,0,0,0,5.12-2.24l2.88,2.38a8.37,8.37,0,0,1-3.38,2.84,11.15,11.15,0,0,1-4.87,1,10.14,10.14,0,0,1-5-1.21,8.44,8.44,0,0,1-3.39-3.39,10.21,10.21,0,0,1-1.21-5,10.35,10.35,0,0,1,1.22-5.08,8.65,8.65,0,0,1,3.42-3.42,10.28,10.28,0,0,1,5-1.2,11.4,11.4,0,0,1,4.64.9,8.56,8.56,0,0,1,3.33,2.58l-2.81,2.67A6.44,6.44,0,0,0,906.86,1302.54Z"/><path class="cls-4" d="M931.66,1299.69a8.73,8.73,0,0,1,3.52,3.4,9.91,9.91,0,0,1,1.26,5,10.09,10.09,0,0,1-1.26,5.09,8.63,8.63,0,0,1-3.52,3.41,10.8,10.8,0,0,1-5.21,1.21,11,11,0,0,1-5.26-1.21,8.62,8.62,0,0,1-3.54-3.41,10.09,10.09,0,0,1-1.26-5.09,9.91,9.91,0,0,1,1.26-5,8.72,8.72,0,0,1,3.54-3.4,11.12,11.12,0,0,1,5.26-1.2A10.92,10.92,0,0,1,931.66,1299.69Zm-9.12,4.34a6.55,6.55,0,0,0,0,8.32,5.1,5.1,0,0,0,3.91,1.61,5,5,0,0,0,3.84-1.61,6.52,6.52,0,0,0,0-8.32,5,5,0,0,0-3.84-1.6A5.13,5.13,0,0,0,922.54,1304Z"/><path class="cls-4" d="M947.7,1299.46a7.67,7.67,0,0,1,3.86-1v4.48a6.26,6.26,0,0,0-4.71,1.37,5.25,5.25,0,0,0-1.76,4.18v9.17h-4.63v-19h4.63v3.66A7,7,0,0,1,947.7,1299.46Z"/><path class="cls-4" d="M973.14,1291.27v26.38h-4.62v-3.06a6.88,6.88,0,0,1-2.65,2.44,8,8,0,0,1-3.75.84,9.06,9.06,0,0,1-4.75-1.23,8.42,8.42,0,0,1-3.18-3.45,11.92,11.92,0,0,1,0-10.13,8.14,8.14,0,0,1,3.17-3.4,9,9,0,0,1,4.67-1.21,8.11,8.11,0,0,1,3.81.85,7.23,7.23,0,0,1,2.7,2.46v-10.49Zm-6.13,21.1a6.53,6.53,0,0,0,0-8.35,5.09,5.09,0,0,0-3.89-1.62,5,5,0,0,0-3.88,1.62,6.46,6.46,0,0,0,0,8.35,5,5,0,0,0,3.88,1.62A5.09,5.09,0,0,0,967,1312.37Z"/><path class="cls-4" d="M855.67,1340a11.77,11.77,0,0,0-3.54-.64,4.9,4.9,0,0,0-2.7.64,2,2,0,0,0-1,1.78,2.33,2.33,0,0,0,.69,1.72,5.31,5.31,0,0,0,1.75,1.14,27.65,27.65,0,0,0,2.86,1,33,33,0,0,1,4.14,1.49,7.46,7.46,0,0,1,2.76,2.21,6.05,6.05,0,0,1,1.14,3.84,6.52,6.52,0,0,1-1.23,4,7.63,7.63,0,0,1-3.38,2.58,12.63,12.63,0,0,1-4.92.89,15.54,15.54,0,0,1-5.69-1.08,16.23,16.23,0,0,1-4.84-2.9l2-4.06a14.43,14.43,0,0,0,4.23,2.74,11.21,11.21,0,0,0,4.38,1,5.57,5.57,0,0,0,3.13-.77,2.53,2.53,0,0,0,.44-3.84,5.27,5.27,0,0,0-1.76-1.12c-.71-.28-1.68-.6-2.92-1a36.17,36.17,0,0,1-4.12-1.45,7.24,7.24,0,0,1-2.74-2.16,5.91,5.91,0,0,1-1.14-3.78,6.36,6.36,0,0,1,1.16-3.79,7.41,7.41,0,0,1,3.27-2.51,12.58,12.58,0,0,1,4.89-.89,17,17,0,0,1,9,2.63l-1.92,4.16A18.25,18.25,0,0,0,855.67,1340Z"/><path class="cls-4" d="M880.88,1343.76q2.29,2.6,2.29,7.29,0,.92,0,1.38h-14a5.56,5.56,0,0,0,1.9,3.19,5.47,5.47,0,0,0,3.54,1.15,7.19,7.19,0,0,0,2.79-.55,6.78,6.78,0,0,0,2.33-1.58l2.49,2.59a9.53,9.53,0,0,1-3.47,2.42,11.61,11.61,0,0,1-4.53.85,10.66,10.66,0,0,1-5.14-1.2,8.51,8.51,0,0,1-3.43-3.4,11,11,0,0,1,0-10.08,8.64,8.64,0,0,1,3.43-3.43,10.11,10.11,0,0,1,5-1.23Q878.59,1341.16,880.88,1343.76Zm-1.94,5.58a4.6,4.6,0,0,0-1.39-3.34,4.83,4.83,0,0,0-3.48-1.25,4.92,4.92,0,0,0-3.4,1.23,5.48,5.48,0,0,0-1.69,3.36Z"/><path class="cls-4" d="M894.39,1342.14a7.81,7.81,0,0,1,3.86-1v4.48a6.31,6.31,0,0,0-4.71,1.37,5.3,5.3,0,0,0-1.76,4.18v9.18h-4.62v-19h4.62V1345A6.86,6.86,0,0,1,894.39,1342.14Z"/><path class="cls-4" d="M899.46,1341.34l4.84,0,5,14.48,4.87-14.48h4.66l-7.26,19h-4.76Z"/><path class="cls-4" d="M935.57,1343.76q2.29,2.6,2.3,7.29c0,.61,0,1.07,0,1.38h-14a5.28,5.28,0,0,0,5.44,4.34,7.19,7.19,0,0,0,2.79-.55,6.88,6.88,0,0,0,2.33-1.58l2.49,2.59a9.61,9.61,0,0,1-3.47,2.42,11.69,11.69,0,0,1-4.54.85,10.62,10.62,0,0,1-5.13-1.2,8.47,8.47,0,0,1-3.44-3.4,10.31,10.31,0,0,1-1.21-5,10.18,10.18,0,0,1,1.23-5,8.64,8.64,0,0,1,3.43-3.43,10.12,10.12,0,0,1,5-1.23Q933.28,1341.16,935.57,1343.76Zm-1.93,5.58a4.6,4.6,0,0,0-1.39-3.34,5.39,5.39,0,0,0-6.88,0,5.38,5.38,0,0,0-1.69,3.36Z"/><path class="cls-4" d="M949.09,1342.14a7.78,7.78,0,0,1,3.86-1v4.48a6.34,6.34,0,0,0-4.72,1.37,5.3,5.3,0,0,0-1.76,4.18v9.18h-4.62v-19h4.62V1345A6.82,6.82,0,0,1,949.09,1342.14Z"/><path class="cls-4" d="M965.07,1335.43h4.77v24.9h-4.77Z"/><path class="cls-4" d="M983.88,1345.21a4.88,4.88,0,0,0-3.75,1.57,5.74,5.74,0,0,0-1.44,4,5.87,5.87,0,0,0,1.44,4.13,4.87,4.87,0,0,0,3.75,1.56,6,6,0,0,0,5.12-2.24l2.89,2.38a8.38,8.38,0,0,1-3.38,2.85,11.34,11.34,0,0,1-4.88,1,10.2,10.2,0,0,1-5-1.2,8.56,8.56,0,0,1-3.4-3.4,11.1,11.1,0,0,1,0-10.12,8.61,8.61,0,0,1,3.41-3.41,10.21,10.21,0,0,1,5-1.21,11.27,11.27,0,0,1,4.64.91,8.34,8.34,0,0,1,3.32,2.57l-2.81,2.67A6.44,6.44,0,0,0,983.88,1345.21Z"/><path class="cls-4" d="M1008.69,1342.37a8.77,8.77,0,0,1,3.52,3.39,9.92,9.92,0,0,1,1.26,5,10,10,0,0,1-1.26,5.08,8.78,8.78,0,0,1-3.52,3.42,10.94,10.94,0,0,1-5.21,1.2,11.16,11.16,0,0,1-5.27-1.2,8.74,8.74,0,0,1-3.53-3.42,10.05,10.05,0,0,1-1.27-5.08,9.93,9.93,0,0,1,1.27-5,8.73,8.73,0,0,1,3.53-3.39,11,11,0,0,1,5.27-1.21A10.83,10.83,0,0,1,1008.69,1342.37Zm-9.12,4.34a6.52,6.52,0,0,0,0,8.32,5.08,5.08,0,0,0,3.91,1.6,5,5,0,0,0,3.84-1.6,6.55,6.55,0,0,0,0-8.32,5,5,0,0,0-3.84-1.6A5.08,5.08,0,0,0,999.57,1346.71Z"/><path class="cls-4" d="M1034.1,1343.1a7.44,7.44,0,0,1,1.88,5.35v11.88h-4.66V1349.8a4.29,4.29,0,0,0-1.14-3.15,4.13,4.13,0,0,0-3.09-1.15,4.66,4.66,0,0,0-3.64,1.56,5.75,5.75,0,0,0-1.34,3.91v9.36h-4.62v-19h4.62v3.56c1.31-2.44,3.58-3.69,6.83-3.74A6.8,6.8,0,0,1,1034.1,1343.1Z"/></g><path class="cls-4" d="M673.44,1121.86a17,17,0,0,1,6.38,23.4,16.93,16.93,0,0,1-6.38,6.19,18.92,18.92,0,0,1-18,0,16.93,16.93,0,0,1-6.38-6.19,16.8,16.8,0,0,1,6.38-23.4,19.22,19.22,0,0,1,18,0Zm-14.53,5a11.36,11.36,0,0,0-4.11,15.53,11.51,11.51,0,0,0,4.13,4.13,10.92,10.92,0,0,0,5.62,1.52,10.73,10.73,0,0,0,5.55-1.52,11.43,11.43,0,0,0,0-19.66,10.89,10.89,0,0,0-5.55-1.49A11.19,11.19,0,0,0,658.91,1126.81Z"/><path class="cls-4" d="M702.34,1151.68a12,12,0,0,1-6.36,1.85,7.58,7.58,0,0,1-5.35-1.92,7.32,7.32,0,0,1-2.09-5.66v-12.52H685l0-4.51h3.6v-7h6.12v7h7.25v4.51h-7.25v11.43a3.71,3.71,0,0,0,.66,2.49,2.55,2.55,0,0,0,2,.73,9,9,0,0,0,3.61-1Z"/><path class="cls-4" d="M729.6,1130.28a9.87,9.87,0,0,1,2.52,7.13v15.84H725.9v-14a5.7,5.7,0,0,0-1.51-4.19,5.54,5.54,0,0,0-4.13-1.54,6.31,6.31,0,0,0-4.88,2.08,7.6,7.6,0,0,0-1.8,5.22v12.47h-6.17v-35.18h6.17v14.65c1.73-3.32,4.79-5,9.15-5.08A9,9,0,0,1,729.6,1130.28Z"/><path class="cls-4" d="M758.74,1131.15q3.06,3.46,3.06,9.72c0,.83,0,1.44,0,1.85H743a7.07,7.07,0,0,0,7.26,5.79,9.68,9.68,0,0,0,3.72-.74,9,9,0,0,0,3.1-2.11l3.32,3.46a12.69,12.69,0,0,1-4.62,3.23,15.53,15.53,0,0,1-6,1.14,14.07,14.07,0,0,1-6.85-1.62,11.24,11.24,0,0,1-4.57-4.52,14.69,14.69,0,0,1,0-13.45,11.57,11.57,0,0,1,4.58-4.57,13.49,13.49,0,0,1,6.68-1.64Q755.69,1127.69,758.74,1131.15Zm-2.58,7.45a6.22,6.22,0,0,0-1.85-4.46,6.47,6.47,0,0,0-4.65-1.66,6.55,6.55,0,0,0-4.53,1.64,7.17,7.17,0,0,0-2.25,4.48Z"/><path class="cls-4" d="M776.76,1129a10.32,10.32,0,0,1,5.14-1.36v6a8.37,8.37,0,0,0-6.28,1.82,7,7,0,0,0-2.35,5.58v12.23h-6.16v-25.37h6.16v4.89A9.18,9.18,0,0,1,776.76,1129Z"/><path class="cls-4" d="M806,1145.76a8.07,8.07,0,0,0,6,2.23,7.85,7.85,0,0,0,5.9-2.23,8.5,8.5,0,0,0,2.16-6.17v-19.53h6.35v19.53a15.42,15.42,0,0,1-1.75,7.52,12,12,0,0,1-5,4.91,16.36,16.36,0,0,1-7.66,1.7,16.71,16.71,0,0,1-7.75-1.7,11.85,11.85,0,0,1-5-4.91,15.42,15.42,0,0,1-1.76-7.52v-19.53h6.36v19.53A8.33,8.33,0,0,0,806,1145.76Z"/><path class="cls-4" d="M844.89,1133.05a12.24,12.24,0,0,0-3.63-.62,4.87,4.87,0,0,0-2.48.55,1.81,1.81,0,0,0-.93,1.68,2,2,0,0,0,1.16,1.83,19,19,0,0,0,3.68,1.35,36.13,36.13,0,0,1,4.36,1.59,8.07,8.07,0,0,1,3,2.32,6.21,6.21,0,0,1,1.26,4,6.54,6.54,0,0,1-2.85,5.7,12.22,12.22,0,0,1-7.16,2,18,18,0,0,1-5.73-.93,13.27,13.27,0,0,1-4.74-2.63l2.13-4.31a12.66,12.66,0,0,0,4.08,2.3,13.68,13.68,0,0,0,4.5.82,5.37,5.37,0,0,0,2.73-.59,1.93,1.93,0,0,0,1-1.78,2.16,2.16,0,0,0-1.19-2,21.32,21.32,0,0,0-3.84-1.47,31.45,31.45,0,0,1-4.17-1.49,7.47,7.47,0,0,1-2.8-2.23,6.11,6.11,0,0,1-1.18-3.91,6.62,6.62,0,0,1,2.72-5.72,11.42,11.42,0,0,1,6.85-2,17.44,17.44,0,0,1,5,.71,15.42,15.42,0,0,1,4.34,2l-2.23,4.46A18,18,0,0,0,844.89,1133.05Z"/><path class="cls-4" d="M876.23,1131.15q3.06,3.46,3.06,9.72c0,.83,0,1.44,0,1.85H860.52a7,7,0,0,0,7.25,5.79,9.61,9.61,0,0,0,3.72-.74,9.08,9.08,0,0,0,3.11-2.11l3.32,3.46a12.81,12.81,0,0,1-4.63,3.23,15.48,15.48,0,0,1-6,1.14,14,14,0,0,1-6.85-1.62,11.26,11.26,0,0,1-4.58-4.52,13.7,13.7,0,0,1-1.61-6.71,13.54,13.54,0,0,1,1.64-6.74,11.55,11.55,0,0,1,4.57-4.57,13.53,13.53,0,0,1,6.69-1.64C871.15,1127.69,874.2,1128.85,876.23,1131.15Zm-2.58,7.45a6.14,6.14,0,0,0-1.85-4.46,7.19,7.19,0,0,0-9.17,0,7.23,7.23,0,0,0-2.26,4.48Z"/><path class="cls-4" d="M895.41,1133.1a6.48,6.48,0,0,0-5,2.08,7.7,7.7,0,0,0-1.92,5.41,7.79,7.79,0,0,0,1.92,5.5,6.49,6.49,0,0,0,5,2.09c3,0,5.31-1,6.83-3l3.84,3.18a11.32,11.32,0,0,1-4.5,3.79,15.09,15.09,0,0,1-6.5,1.33,13.46,13.46,0,0,1-6.66-1.62,11.39,11.39,0,0,1-4.53-4.52,14.81,14.81,0,0,1,0-13.49,11.47,11.47,0,0,1,4.55-4.56,13.68,13.68,0,0,1,6.71-1.61,15,15,0,0,1,6.18,1.21,11.2,11.2,0,0,1,4.44,3.44l-3.75,3.55A8.6,8.6,0,0,0,895.41,1133.1Z"/><path class="cls-4" d="M925.43,1153.25v-3.08a8.43,8.43,0,0,1-3.42,2.51,12.52,12.52,0,0,1-4.79.85,10.23,10.23,0,0,1-4.67-1,7.45,7.45,0,0,1-3.1-2.82,7.59,7.59,0,0,1-1.09-4,6.77,6.77,0,0,1,2.51-5.57q2.52-2,7.11-2.06h7.4v-.66a4.29,4.29,0,0,0-1.47-3.47,6.49,6.49,0,0,0-4.27-1.23,14.69,14.69,0,0,0-7.54,2.37l-2.22-4.27a28.53,28.53,0,0,1,5.42-2.39,20,20,0,0,1,5.72-.74c3.28,0,5.84.8,7.66,2.38a8.47,8.47,0,0,1,2.77,6.63l0,16.6Zm-2.18-5.71a4.4,4.4,0,0,0,2.13-3.11v-2.28H919a7,7,0,0,0-3.63.74,2.63,2.63,0,0,0-1.16,2.39,3.06,3.06,0,0,0,1.21,2.56,5.15,5.15,0,0,0,3.29,1A8.15,8.15,0,0,0,923.25,1147.54Z"/><path class="cls-4" d="M949.63,1133.05a12.24,12.24,0,0,0-3.63-.62,4.87,4.87,0,0,0-2.48.55,1.81,1.81,0,0,0-.93,1.68,2,2,0,0,0,1.16,1.83,19,19,0,0,0,3.68,1.35,36.13,36.13,0,0,1,4.36,1.59,8.07,8.07,0,0,1,3,2.32,6.21,6.21,0,0,1,1.26,4,6.55,6.55,0,0,1-2.84,5.7,12.28,12.28,0,0,1-7.17,2,18,18,0,0,1-5.73-.93,13.27,13.27,0,0,1-4.74-2.63l2.13-4.31a12.66,12.66,0,0,0,4.08,2.3,13.68,13.68,0,0,0,4.5.82,5.37,5.37,0,0,0,2.73-.59,1.93,1.93,0,0,0,1-1.78,2.16,2.16,0,0,0-1.19-2,21.32,21.32,0,0,0-3.84-1.47,31.45,31.45,0,0,1-4.17-1.49,7.47,7.47,0,0,1-2.8-2.23,6.11,6.11,0,0,1-1.18-3.91,6.62,6.62,0,0,1,2.72-5.72,11.42,11.42,0,0,1,6.85-2,17.44,17.44,0,0,1,5,.71,15.42,15.42,0,0,1,4.34,2l-2.23,4.46A18,18,0,0,0,949.63,1133.05Z"/><path class="cls-4" d="M981,1131.15q3.06,3.46,3.06,9.72c0,.83,0,1.44,0,1.85H965.26a7,7,0,0,0,7.25,5.79,9.61,9.61,0,0,0,3.72-.74,9.08,9.08,0,0,0,3.11-2.11l3.32,3.46a12.86,12.86,0,0,1-4.62,3.23,15.57,15.57,0,0,1-6,1.14,14,14,0,0,1-6.85-1.62,11.26,11.26,0,0,1-4.58-4.52,14.73,14.73,0,0,1,0-13.45,11.55,11.55,0,0,1,4.57-4.57,13.53,13.53,0,0,1,6.69-1.64C975.89,1127.69,978.94,1128.85,981,1131.15Zm-2.58,7.45a6.14,6.14,0,0,0-1.85-4.46,7.19,7.19,0,0,0-9.17,0,7.23,7.23,0,0,0-2.26,4.48Z"/><path class="cls-4" d="M1000.56,1133.05a12.29,12.29,0,0,0-3.63-.62,4.94,4.94,0,0,0-2.49.55,1.8,1.8,0,0,0-.92,1.68,2,2,0,0,0,1.16,1.83,18.85,18.85,0,0,0,3.67,1.35,35.5,35.5,0,0,1,4.36,1.59,8.18,8.18,0,0,1,3,2.32,6.26,6.26,0,0,1,1.25,4,6.53,6.53,0,0,1-2.84,5.7,12.25,12.25,0,0,1-7.16,2,18.11,18.11,0,0,1-5.74-.93,13.45,13.45,0,0,1-4.74-2.63l2.13-4.31a12.66,12.66,0,0,0,4.08,2.3,13.69,13.69,0,0,0,4.51.82,5.35,5.35,0,0,0,2.72-.59,1.93,1.93,0,0,0,1-1.78,2.15,2.15,0,0,0-1.18-2,21.32,21.32,0,0,0-3.84-1.47,32.19,32.19,0,0,1-4.18-1.49,7.52,7.52,0,0,1-2.79-2.23,6.12,6.12,0,0,1-1.19-3.91,6.62,6.62,0,0,1,2.73-5.72,11.4,11.4,0,0,1,6.85-2,17.43,17.43,0,0,1,5,.71,15.29,15.29,0,0,1,4.34,2l-2.23,4.46A18,18,0,0,0,1000.56,1133.05Z"/></g><g id="Use_with_Logo" data-name="Use with Logo"><g id="Example_2" data-name="Example 2"><g id="Logo-3" data-name="Logo"><path id="BackgroundBG1-3" data-name="BackgroundBG1" class="cls-1" d="M834.49,874.32h54.87a54.87,54.87,0,1,1-54.87-54.86Z"/><circle id="BackgroundAccent-3" data-name="BackgroundAccent" class="cls-2" cx="834.49" cy="874.32" r="35.66"/><g id="Mouth-3" data-name="Mouth"><path class="cls-3" d="M847,859.28c3.59-.64,7.1,2.13,7.85,6.22s-1.56,7.91-5.15,8.57-7.08-2.13-7.84-6.2S843.46,860,847,859.28Z"/><path class="cls-3" d="M814.22,864.68c1-4,4.74-6.53,8.26-5.63S828,864,827,868s-4.72,6.53-8.25,5.63S813.2,868.69,814.22,864.68Z"/><g id="Group-3" data-name="Group"><path class="cls-3" d="M837.64,882.35c-1.66.9-3.09,1.87-5,1.15a11.5,11.5,0,0,1-3.16-1.46c-.7-.51-1.49-.93-2.19-1.44-.37-.26-.72-.54-1.08-.8a1.82,1.82,0,0,0-1.08-.51c-.42,0-1.25-.07-1.57.28-1.37,1.53.55,3.8,1.59,4.84a21.24,21.24,0,0,0,5.77,4.08c2,.86,4,1.89,6.06.84a41.64,41.64,0,0,0,6.38-4.41c1.34-1,4.34-2.82,3.82-4.81-.37-1.46-2.06-1.16-3.17-.81a25.09,25.09,0,0,0-4,1.8C839.23,881.49,838.44,881.93,837.64,882.35Z"/></g></g></g><path class="cls-4" d="M699.33,955.83a18.4,18.4,0,0,0-17.15.54A17.43,17.43,0,0,0,675.6,963a19,19,0,0,0,0,18.51,17.65,17.65,0,0,0,6.58,6.65,17.92,17.92,0,0,0,9.21,2.44,19.42,19.42,0,0,0,7.78-1.7,22.37,22.37,0,0,0,6.93-4.72l6.12,6.81a32,32,0,0,1-9.91,6.85,27.91,27.91,0,0,1-11.46,2.52,28.35,28.35,0,0,1-14.32-3.72,27.3,27.3,0,0,1-10.22-10.1,27.57,27.57,0,0,1-3.72-14.13,26.94,26.94,0,0,1,3.8-14.09,27.31,27.31,0,0,1,10.33-10,30,30,0,0,1,25.9-1.31,27.83,27.83,0,0,1,9.52,6.42l-6,7.59A20.48,20.48,0,0,0,699.33,955.83Z"/><path class="cls-4" d="M758.59,958.15v41.42H748.45v-7.66q-4.19,8.05-14.4,8.05-7,0-11-4.26t-4-11.61V958.15h10.14v23a9.48,9.48,0,0,0,2.36,6.81,8.64,8.64,0,0,0,6.55,2.48,9.59,9.59,0,0,0,7.58-3.41,12.69,12.69,0,0,0,2.79-8.44V958.15Z"/><path class="cls-4" d="M789.44,966.59a19.94,19.94,0,0,0-5.92-1,7.93,7.93,0,0,0-4.07.89,3,3,0,0,0-1.51,2.74,3.29,3.29,0,0,0,1.9,3,30.56,30.56,0,0,0,6,2.2A58.58,58.58,0,0,1,793,977a13.5,13.5,0,0,1,4.84,3.8,10.13,10.13,0,0,1,2.05,6.62,10.68,10.68,0,0,1-4.64,9.29,20,20,0,0,1-11.69,3.25,29.55,29.55,0,0,1-9.37-1.51,22,22,0,0,1-7.74-4.3l3.48-7a20.38,20.38,0,0,0,6.66,3.75,22.1,22.1,0,0,0,7.35,1.36,8.81,8.81,0,0,0,4.46-1,3.16,3.16,0,0,0,1.66-2.9,3.53,3.53,0,0,0-1.93-3.26,35,35,0,0,0-6.28-2.4,53.31,53.31,0,0,1-6.81-2.43,12.43,12.43,0,0,1-4.57-3.64,10,10,0,0,1-1.93-6.39q0-6.12,4.45-9.33a18.65,18.65,0,0,1,11.19-3.21,29,29,0,0,1,8.09,1.16,25.12,25.12,0,0,1,7.08,3.25l-3.64,7.28A29.53,29.53,0,0,0,789.44,966.59Z"/><path class="cls-4" d="M832.68,997a19.72,19.72,0,0,1-10.38,3,12.42,12.42,0,0,1-8.75-3.14q-3.4-3.14-3.4-9.25V967.21h-5.81l-.08-7.35h5.89V948.48h10v11.38H832v7.35H820.13v18.66a6,6,0,0,0,1.09,4.06,4.15,4.15,0,0,0,3.25,1.2,14.3,14.3,0,0,0,5.88-1.7Z"/><path class="cls-4" d="M869.64,960.48a19.08,19.08,0,0,1,7.67,7.39,21.53,21.53,0,0,1,2.74,11,21.88,21.88,0,0,1-2.74,11.07,19.07,19.07,0,0,1-7.67,7.44A23.73,23.73,0,0,1,858.3,1000a24.1,24.1,0,0,1-11.46-2.63,19,19,0,0,1-7.7-7.44,21.88,21.88,0,0,1-2.75-11.07,21.53,21.53,0,0,1,2.75-11,19,19,0,0,1,7.7-7.39,24,24,0,0,1,11.46-2.64A23.62,23.62,0,0,1,869.64,960.48Zm-19.86,9.44a14.25,14.25,0,0,0,0,18.12,11.13,11.13,0,0,0,8.52,3.48,10.93,10.93,0,0,0,8.36-3.48,14.25,14.25,0,0,0,0-18.12,10.93,10.93,0,0,0-8.36-3.48A11.13,11.13,0,0,0,849.78,969.92Z"/><path class="cls-4" d="M954.14,962.06q4,4.31,4,11.65v25.86H948V976.66a9.55,9.55,0,0,0-2.43-6.93,8.8,8.8,0,0,0-6.62-2.52,10,10,0,0,0-7.63,3.49,12.6,12.6,0,0,0-2.83,8.43v20.44H918.37V976.66a9.62,9.62,0,0,0-2.4-6.93,8.65,8.65,0,0,0-6.58-2.52,10,10,0,0,0-7.7,3.49,12.59,12.59,0,0,0-2.82,8.43v20.44H888.8V958.15h10.07v7.67q4.1-7.91,14.55-8.05a15.42,15.42,0,0,1,9.1,2.59,13.58,13.58,0,0,1,5.14,7.32q4-9.76,15.41-9.91C947.76,957.77,951.46,959.2,954.14,962.06Z"/><path class="cls-4" d="M993.85,999.57v-5a13.5,13.5,0,0,1-5.57,4.1,20.51,20.51,0,0,1-7.82,1.4,16.64,16.64,0,0,1-7.62-1.67,12.17,12.17,0,0,1-5.08-4.61,12.51,12.51,0,0,1-1.78-6.58,11,11,0,0,1,4.11-9.09q4.1-3.29,11.61-3.37h12.08v-1.08a7,7,0,0,0-2.4-5.65c-1.6-1.35-3.93-2-7-2a23.93,23.93,0,0,0-12.31,3.87l-3.64-7a45.53,45.53,0,0,1,8.87-3.91,32.4,32.4,0,0,1,9.32-1.2q8.05,0,12.51,3.87t4.52,10.84l.08,27.09Zm-3.56-9.33a7.12,7.12,0,0,0,3.49-5.07v-3.71H983.32q-4,0-5.92,1.2a4.28,4.28,0,0,0-1.89,3.91,5,5,0,0,0,2,4.18,8.52,8.52,0,0,0,5.38,1.54A13.11,13.11,0,0,0,990.29,990.24Z"/></g><g id="Example_1" data-name="Example 1"><g id="Logo-4" data-name="Logo"><path id="BackgroundBG1-4" data-name="BackgroundBG1" class="cls-1" d="M640.39,675.51h54.87a54.87,54.87,0,1,1-54.87-54.86Z"/><circle id="BackgroundAccent-4" data-name="BackgroundAccent" class="cls-2" cx="640.39" cy="675.51" r="35.66"/><g id="Mouth-4" data-name="Mouth"><path class="cls-3" d="M652.94,660.47c3.59-.64,7.1,2.13,7.85,6.21s-1.56,7.92-5.15,8.58-7.08-2.13-7.84-6.2S649.36,661.14,652.94,660.47Z"/><path class="cls-3" d="M620.12,665.87c1-4,4.74-6.54,8.26-5.63s5.55,4.9,4.53,8.91-4.72,6.53-8.25,5.62S619.1,669.88,620.12,665.87Z"/><g id="Group-4" data-name="Group"><path class="cls-3" d="M643.54,683.54c-1.66.9-3.09,1.86-5,1.15a11.5,11.5,0,0,1-3.16-1.46c-.7-.51-1.49-.93-2.19-1.44l-1.08-.8a1.82,1.82,0,0,0-1.08-.51c-.42-.05-1.25-.08-1.57.27-1.37,1.53.55,3.81,1.59,4.84a21.28,21.28,0,0,0,5.77,4.09c2,.86,4,1.89,6.06.84a42.42,42.42,0,0,0,6.38-4.42c1.34-1,4.34-2.81,3.82-4.81-.37-1.46-2.06-1.15-3.17-.8a25,25,0,0,0-4,1.79C645.13,682.68,644.34,683.11,643.54,683.54Z"/></g></g></g><path class="cls-4" d="M758.66,653.93a18.47,18.47,0,0,0-7.94-1.85,18.16,18.16,0,0,0-9.21,2.4,17.4,17.4,0,0,0-6.58,6.61,19,19,0,0,0,0,18.51,17.65,17.65,0,0,0,6.58,6.65,17.9,17.9,0,0,0,9.21,2.44,19.29,19.29,0,0,0,7.78-1.7,22.2,22.2,0,0,0,6.93-4.72l6.12,6.81a32,32,0,0,1-9.91,6.85,27.91,27.91,0,0,1-11.46,2.52,28.32,28.32,0,0,1-14.32-3.72,27.22,27.22,0,0,1-10.22-10.1,27.57,27.57,0,0,1-3.72-14.13,26.94,26.94,0,0,1,3.8-14.09,27.24,27.24,0,0,1,10.33-10,30.05,30.05,0,0,1,25.9-1.31,28.07,28.07,0,0,1,9.52,6.42l-6,7.59A20.48,20.48,0,0,0,758.66,653.93Z"/><path class="cls-4" d="M817.92,656.26v41.41H807.78V690q-4.18,8.06-14.4,8-7,0-11-4.26t-4-11.61V656.26H788.5v23a9.48,9.48,0,0,0,2.36,6.81,8.61,8.61,0,0,0,6.54,2.48,9.59,9.59,0,0,0,7.59-3.41,12.69,12.69,0,0,0,2.79-8.44V656.26Z"/><path class="cls-4" d="M848.77,664.7a19.67,19.67,0,0,0-5.93-1,8,8,0,0,0-4.06.89,3,3,0,0,0-1.51,2.75,3.26,3.26,0,0,0,1.9,3,30.56,30.56,0,0,0,6,2.2,58.42,58.42,0,0,1,7.12,2.6,13.36,13.36,0,0,1,4.84,3.79,10.21,10.21,0,0,1,2,6.62,10.66,10.66,0,0,1-4.65,9.29,19.86,19.86,0,0,1-11.69,3.25,29.49,29.49,0,0,1-9.36-1.51,22,22,0,0,1-7.74-4.3l3.48-7a20.38,20.38,0,0,0,6.66,3.75,22.1,22.1,0,0,0,7.35,1.36,8.77,8.77,0,0,0,4.45-1,3.14,3.14,0,0,0,1.67-2.9,3.5,3.5,0,0,0-1.94-3.25,33.83,33.83,0,0,0-6.27-2.4,53.57,53.57,0,0,1-6.81-2.44,12.25,12.25,0,0,1-4.57-3.64,10,10,0,0,1-1.93-6.39q0-6.11,4.45-9.33a18.6,18.6,0,0,1,11.18-3.21,28.87,28.87,0,0,1,8.09,1.16,25.2,25.2,0,0,1,7.09,3.26L855,667.48A29.49,29.49,0,0,0,848.77,664.7Z"/><path class="cls-4" d="M892,695.12a19.66,19.66,0,0,1-10.37,3,12.42,12.42,0,0,1-8.75-3.14q-3.4-3.13-3.41-9.25V665.31h-5.8l-.08-7.35h5.88V646.58h10V658h11.85v7.35H879.46V684a6.07,6.07,0,0,0,1.08,4.07,4.18,4.18,0,0,0,3.26,1.2,14.38,14.38,0,0,0,5.88-1.71Z"/><path class="cls-4" d="M929,658.58a19,19,0,0,1,7.66,7.39,21.57,21.57,0,0,1,2.75,11A21.91,21.91,0,0,1,936.63,688a19,19,0,0,1-7.66,7.43,23.73,23.73,0,0,1-11.34,2.63,24.1,24.1,0,0,1-11.46-2.63,18.94,18.94,0,0,1-7.7-7.43,21.8,21.8,0,0,1-2.75-11.07,21.47,21.47,0,0,1,2.75-11,19,19,0,0,1,7.7-7.39A24.1,24.1,0,0,1,917.63,656,23.73,23.73,0,0,1,929,658.58ZM909.11,668a14.25,14.25,0,0,0,0,18.12,11.13,11.13,0,0,0,8.52,3.48,10.94,10.94,0,0,0,8.36-3.48A14.25,14.25,0,0,0,926,668a10.94,10.94,0,0,0-8.36-3.48A11.13,11.13,0,0,0,909.11,668Z"/><path class="cls-4" d="M1013.47,660.17q4,4.29,4,11.65v25.85h-10.14V674.76a9.53,9.53,0,0,0-2.44-6.93,8.77,8.77,0,0,0-6.62-2.52,9.94,9.94,0,0,0-7.62,3.49,12.56,12.56,0,0,0-2.83,8.44v20.43H977.7V674.76a9.64,9.64,0,0,0-2.4-6.93,8.65,8.65,0,0,0-6.58-2.52,10,10,0,0,0-7.7,3.49,12.56,12.56,0,0,0-2.83,8.44v20.43H948.13V656.26h10.06v7.66q4.11-7.89,14.56-8a15.36,15.36,0,0,1,9.09,2.59,13.59,13.59,0,0,1,5.15,7.32q3.94-9.75,15.41-9.91Q1009.44,655.87,1013.47,660.17Z"/><path class="cls-4" d="M1053.18,697.67v-5a13.59,13.59,0,0,1-5.57,4.11,20.7,20.7,0,0,1-7.82,1.39,16.68,16.68,0,0,1-7.63-1.67,12.24,12.24,0,0,1-5.07-4.6,12.44,12.44,0,0,1-1.78-6.58,11,11,0,0,1,4.1-9.1q4.11-3.29,11.62-3.37h12.07v-1.08a7,7,0,0,0-2.4-5.65q-2.4-2-7-2a23.9,23.9,0,0,0-12.31,3.87l-3.64-7a45.47,45.47,0,0,1,8.86-3.91,32.52,32.52,0,0,1,9.33-1.2q8.05,0,12.5,3.87t4.53,10.84l.08,27.09Zm-3.56-9.32a7.15,7.15,0,0,0,3.48-5.08v-3.71h-10.45c-2.68,0-4.66.4-5.92,1.2a4.26,4.26,0,0,0-1.9,3.91,5,5,0,0,0,2,4.18,8.5,8.5,0,0,0,5.38,1.55A13.22,13.22,0,0,0,1049.62,688.35Z"/></g><path class="cls-4" d="M679.59,534a8.1,8.1,0,0,0,6,2.23,7.87,7.87,0,0,0,5.91-2.23,8.5,8.5,0,0,0,2.16-6.17V508.32H700v19.53a15.42,15.42,0,0,1-1.76,7.52,11.9,11.9,0,0,1-5,4.91,16.33,16.33,0,0,1-7.66,1.7,16.74,16.74,0,0,1-7.75-1.7,11.85,11.85,0,0,1-5-4.91,15.42,15.42,0,0,1-1.75-7.52V508.32h6.35v19.53A8.33,8.33,0,0,0,679.59,534Z"/><path class="cls-4" d="M718.45,521.31a12.34,12.34,0,0,0-3.63-.62,4.94,4.94,0,0,0-2.49.55,1.8,1.8,0,0,0-.92,1.68,2,2,0,0,0,1.16,1.83,19.53,19.53,0,0,0,3.67,1.35,35.5,35.5,0,0,1,4.36,1.59,8.18,8.18,0,0,1,3,2.32,6.26,6.26,0,0,1,1.25,4,6.5,6.5,0,0,1-2.84,5.69,12.18,12.18,0,0,1-7.16,2,18.11,18.11,0,0,1-5.74-.93,13.45,13.45,0,0,1-4.74-2.63l2.13-4.32a12.3,12.3,0,0,0,4.08,2.3,13.46,13.46,0,0,0,4.51.83,5.35,5.35,0,0,0,2.72-.59,1.93,1.93,0,0,0,1-1.78,2.14,2.14,0,0,0-1.18-2,21.32,21.32,0,0,0-3.84-1.47,32.19,32.19,0,0,1-4.18-1.49,7.52,7.52,0,0,1-2.79-2.23,6.06,6.06,0,0,1-1.19-3.91,6.62,6.62,0,0,1,2.73-5.72,11.4,11.4,0,0,1,6.85-2,17.43,17.43,0,0,1,4.95.71,15.29,15.29,0,0,1,4.34,2L722.26,523A18,18,0,0,0,718.45,521.31Z"/><path class="cls-4" d="M749.79,519.41q3.06,3.47,3.06,9.72c0,.83,0,1.44-.05,1.85H734.07a7.07,7.07,0,0,0,7.25,5.79,9.7,9.7,0,0,0,3.73-.74,9,9,0,0,0,3.1-2.11l3.32,3.46a12.69,12.69,0,0,1-4.62,3.23,15.57,15.57,0,0,1-6.05,1.14,14.07,14.07,0,0,1-6.85-1.62,11.24,11.24,0,0,1-4.57-4.52,14.69,14.69,0,0,1,0-13.45,11.55,11.55,0,0,1,4.57-4.57,13.53,13.53,0,0,1,6.69-1.64Q746.74,516,749.79,519.41Zm-2.59,7.45a6.14,6.14,0,0,0-1.85-4.46,6.45,6.45,0,0,0-4.64-1.66,6.55,6.55,0,0,0-4.53,1.64,7.17,7.17,0,0,0-2.25,4.48Z"/><path class="cls-4" d="M765.88,516.19l6.36-.05,6.21,19.16,6-19.16h6.21l6.12,19.16,6.07-19.16h6.21l-9.2,25.37h-6.3l-6.07-17.88-6,17.88h-6.31Z"/><path class="cls-4" d="M818.23,506.28a3.65,3.65,0,0,1,1,2.65,3.59,3.59,0,0,1-1,2.61,3.55,3.55,0,0,1-5,0,3.59,3.59,0,0,1-1-2.61,3.65,3.65,0,0,1,1-2.65,3.55,3.55,0,0,1,5,0Zm-5.55,9.86h6.17v25.37h-6.17Z"/><path class="cls-4" d="M841.32,539.94a12,12,0,0,1-6.35,1.85,7.61,7.61,0,0,1-5.36-1.92,7.32,7.32,0,0,1-2.09-5.66V521.69H824l-.05-4.51h3.6v-7h6.12v7h7.26v4.51h-7.26v11.43a3.71,3.71,0,0,0,.66,2.49,2.57,2.57,0,0,0,2,.73,8.87,8.87,0,0,0,3.6-1Z"/><path class="cls-4" d="M868.59,518.54a9.91,9.91,0,0,1,2.51,7.13v15.84h-6.21v-14a5.7,5.7,0,0,0-1.52-4.19,5.51,5.51,0,0,0-4.12-1.54,6.32,6.32,0,0,0-4.89,2.08,7.6,7.6,0,0,0-1.8,5.22v12.47H846.4V506.33h6.16V521q2.61-5,9.15-5.08A9.06,9.06,0,0,1,868.59,518.54Z"/><path class="cls-4" d="M889.88,508.32h6.35v27.45h14.32v5.74H889.88Z"/><path class="cls-4" d="M933.33,517.56a11.78,11.78,0,0,1,4.7,4.53,13.21,13.21,0,0,1,1.68,6.71,13.42,13.42,0,0,1-1.68,6.78,11.63,11.63,0,0,1-4.7,4.55,14.44,14.44,0,0,1-7,1.62,14.65,14.65,0,0,1-7-1.62,11.5,11.5,0,0,1-4.72-4.55A13.42,13.42,0,0,1,913,528.8a13.21,13.21,0,0,1,1.68-6.71,11.64,11.64,0,0,1,4.72-4.53,14.77,14.77,0,0,1,7-1.61A14.55,14.55,0,0,1,933.33,517.56Zm-12.16,5.79a8.72,8.72,0,0,0,0,11.09,6.79,6.79,0,0,0,5.21,2.14,6.69,6.69,0,0,0,5.13-2.14,8.72,8.72,0,0,0,0-11.09,6.72,6.72,0,0,0-5.13-2.14A6.82,6.82,0,0,0,921.17,523.35Z"/><path class="cls-4" d="M968.25,516.14v23a11.8,11.8,0,0,1-1.63,6.28A10.76,10.76,0,0,1,962,549.5a16,16,0,0,1-7,1.44,18.66,18.66,0,0,1-10.72-3.36l2.47-4.46a13,13,0,0,0,7.91,2.66,8,8,0,0,0,5.43-1.76,6,6,0,0,0,2-4.79v-3a8.45,8.45,0,0,1-3.32,3,10.47,10.47,0,0,1-4.74,1,11.24,11.24,0,0,1-5.88-1.54,10.46,10.46,0,0,1-4-4.32,13.74,13.74,0,0,1-1.43-6.37,13.38,13.38,0,0,1,1.43-6.29,10.37,10.37,0,0,1,4-4.24A11.32,11.32,0,0,1,954,516a10.28,10.28,0,0,1,4.72,1,8.67,8.67,0,0,1,3.34,2.93v-3.79Zm-8,17.24a8.28,8.28,0,0,0,0-10.48,6.83,6.83,0,0,0-9.72,0,8.08,8.08,0,0,0,0,10.46,6.88,6.88,0,0,0,9.72,0Z"/><path class="cls-4" d="M993.55,517.56a11.69,11.69,0,0,1,4.69,4.53,13.22,13.22,0,0,1,1.69,6.71,13.43,13.43,0,0,1-1.69,6.78,11.55,11.55,0,0,1-4.69,4.55,14.44,14.44,0,0,1-6.95,1.62,14.72,14.72,0,0,1-7-1.62,11.53,11.53,0,0,1-4.71-4.55,13.33,13.33,0,0,1-1.69-6.78,13.12,13.12,0,0,1,1.69-6.71,11.68,11.68,0,0,1,4.71-4.53,14.84,14.84,0,0,1,7-1.61A14.55,14.55,0,0,1,993.55,517.56Zm-12.16,5.79a8.69,8.69,0,0,0,0,11.09,6.76,6.76,0,0,0,5.21,2.14,6.65,6.65,0,0,0,5.12-2.14,8.72,8.72,0,0,0,0-11.09,6.69,6.69,0,0,0-5.12-2.14A6.79,6.79,0,0,0,981.39,523.35Z"/></g><g id="Wordmark_Details" data-name="Wordmark Details"><path class="cls-4" d="M664,23.47h6.59L659.32,56.66h-6.59l-7.59-25.18-7.73,25.18h-6.49L619.73,23.47h6.83l7.82,26.31,7.78-26.31h6.25l7.83,26.41Z"/><path class="cls-4" d="M689.88,32.71a11.69,11.69,0,0,1,4.69,4.53A13.19,13.19,0,0,1,696.26,44a13.43,13.43,0,0,1-1.69,6.78,11.55,11.55,0,0,1-4.69,4.55,14.44,14.44,0,0,1-7,1.61,14.72,14.72,0,0,1-7-1.61,11.53,11.53,0,0,1-4.71-4.55A13.33,13.33,0,0,1,669.51,44a13.09,13.09,0,0,1,1.69-6.71,11.68,11.68,0,0,1,4.71-4.53,14.84,14.84,0,0,1,7-1.61A14.55,14.55,0,0,1,689.88,32.71ZM677.72,38.5a7.79,7.79,0,0,0-2,5.54,7.79,7.79,0,0,0,2,5.55,6.79,6.79,0,0,0,5.21,2.14,6.69,6.69,0,0,0,5.12-2.14A7.79,7.79,0,0,0,690,44a7.78,7.78,0,0,0-2-5.54,6.65,6.65,0,0,0-5.12-2.14A6.76,6.76,0,0,0,677.72,38.5Z"/><path class="cls-4" d="M711.26,32.4a10.35,10.35,0,0,1,5.15-1.35v6a8.4,8.4,0,0,0-6.29,1.82,7.05,7.05,0,0,0-2.34,5.57V56.66h-6.17V31.29h6.17v4.88A9.15,9.15,0,0,1,711.26,32.4Z"/><path class="cls-4" d="M745.19,21.47V56.66H739V52.58a9.27,9.27,0,0,1-3.54,3.25,10.77,10.77,0,0,1-5,1.11,12.08,12.08,0,0,1-6.33-1.63,11.23,11.23,0,0,1-4.24-4.6,14.66,14.66,0,0,1-1.52-6.81,14.6,14.6,0,0,1,1.49-6.71,10.91,10.91,0,0,1,4.22-4.52,12,12,0,0,1,6.24-1.62,10.77,10.77,0,0,1,5.07,1.14A9.67,9.67,0,0,1,739,35.46v-14ZM737,49.62A7.87,7.87,0,0,0,739,44a7.86,7.86,0,0,0-2-5.57,7.32,7.32,0,0,0-10.36,0,8.64,8.64,0,0,0,0,11.15,7.32,7.32,0,0,0,10.36,0Z"/><path class="cls-4" d="M793.13,33.68a10.06,10.06,0,0,1,2.46,7.14V56.66h-6.21v-14a5.86,5.86,0,0,0-1.49-4.24,5.39,5.39,0,0,0-4.06-1.54A6.08,6.08,0,0,0,779.16,39a7.73,7.73,0,0,0-1.73,5.17V56.66h-6.21v-14a5.89,5.89,0,0,0-1.47-4.24,5.29,5.29,0,0,0-4-1.54A6.14,6.14,0,0,0,761,39a7.73,7.73,0,0,0-1.73,5.17V56.66h-6.16V31.29h6.16V36q2.52-4.83,8.92-4.93a9.44,9.44,0,0,1,5.57,1.59,8.31,8.31,0,0,1,3.15,4.48q2.42-6,9.44-6.07A8.87,8.87,0,0,1,793.13,33.68Z"/><path class="cls-4" d="M817.45,56.66V53.58A8.4,8.4,0,0,1,814,56.09a12.59,12.59,0,0,1-4.79.85,10.2,10.2,0,0,1-4.67-1,7.48,7.48,0,0,1-3.11-2.82,7.59,7.59,0,0,1-1.09-4,6.75,6.75,0,0,1,2.51-5.57q2.52-2,7.11-2.06h7.4v-.67a4.27,4.27,0,0,0-1.47-3.46,6.49,6.49,0,0,0-4.27-1.23,14.63,14.63,0,0,0-7.53,2.37l-2.23-4.27a28.32,28.32,0,0,1,5.43-2.39,19.83,19.83,0,0,1,5.71-.74q4.94,0,7.66,2.37a8.49,8.49,0,0,1,2.77,6.64l0,16.6Zm-2.18-5.72a4.36,4.36,0,0,0,2.13-3.1V45.56H811a7,7,0,0,0-3.63.74,2.61,2.61,0,0,0-1.16,2.39,3.06,3.06,0,0,0,1.21,2.56,5.22,5.22,0,0,0,3.3,1A8,8,0,0,0,815.27,50.94Z"/><path class="cls-4" d="M840.09,32.4a10.32,10.32,0,0,1,5.15-1.35v6A8.4,8.4,0,0,0,839,38.85a7.05,7.05,0,0,0-2.34,5.57V56.66h-6.17V31.29h6.17v4.88A9.15,9.15,0,0,1,840.09,32.4Z"/><path class="cls-4" d="M866.71,56.66l-6.87-11.1L856,49.64v7h-6.16V21.47H856V41.86l10.43-10.52h7.11l-9.38,9.76,9.95,15.56Z"/><path class="cls-4" d="M912.8,25.58a15.5,15.5,0,0,1,6.17,5.9,16.67,16.67,0,0,1,2.22,8.58,16.38,16.38,0,0,1-2.25,8.56,15.81,15.81,0,0,1-6.23,5.9,18.83,18.83,0,0,1-9.06,2.14H890.09V23.47h13.8A18.5,18.5,0,0,1,912.8,25.58Zm-3.29,24.08a9.94,9.94,0,0,0,3.81-3.88,12.26,12.26,0,0,0,0-11.38,10.1,10.1,0,0,0-3.92-3.94,11.18,11.18,0,0,0-5.57-1.4h-7.35v22H904A10.77,10.77,0,0,0,909.51,49.66Z"/><path class="cls-4" d="M946.21,34.56q3.06,3.46,3,9.72c0,.82,0,1.44,0,1.85H930.49a7.07,7.07,0,0,0,7.25,5.79,9.61,9.61,0,0,0,3.72-.74,9.08,9.08,0,0,0,3.11-2.11l3.32,3.46a12.89,12.89,0,0,1-4.62,3.23,15.75,15.75,0,0,1-6,1.13,14,14,0,0,1-6.85-1.61,11.23,11.23,0,0,1-4.58-4.53A13.68,13.68,0,0,1,924.18,44a13.63,13.63,0,0,1,1.64-6.73,11.55,11.55,0,0,1,4.57-4.57,13.53,13.53,0,0,1,6.69-1.64Q943.14,31.1,946.21,34.56ZM943.62,42a6.14,6.14,0,0,0-1.85-4.46,7.2,7.2,0,0,0-9.17,0A7.17,7.17,0,0,0,930.35,42Z"/><path class="cls-4" d="M969.42,55.09a12,12,0,0,1-6.36,1.85A7.61,7.61,0,0,1,957.7,55a7.32,7.32,0,0,1-2.08-5.66V36.84h-3.56l0-4.51h3.61v-7h6.11v7H969v4.51h-7.26V48.26a3.71,3.71,0,0,0,.67,2.49,2.54,2.54,0,0,0,2,.74,8.87,8.87,0,0,0,3.6-1Z"/><path class="cls-4" d="M989.24,56.66V53.58a8.43,8.43,0,0,1-3.42,2.51,12.56,12.56,0,0,1-4.79.85,10.23,10.23,0,0,1-4.67-1,7.45,7.45,0,0,1-3.1-2.82,7.59,7.59,0,0,1-1.09-4,6.73,6.73,0,0,1,2.51-5.57q2.51-2,7.11-2.06h7.4v-.67a4.27,4.27,0,0,0-1.47-3.46,6.49,6.49,0,0,0-4.27-1.23,14.69,14.69,0,0,0-7.54,2.37l-2.23-4.27a28.32,28.32,0,0,1,5.43-2.39,19.9,19.9,0,0,1,5.72-.74c3.28,0,5.84.79,7.65,2.37a8.5,8.5,0,0,1,2.78,6.64l0,16.6Zm-2.19-5.72a4.35,4.35,0,0,0,2.14-3.1V45.56h-6.4a6.94,6.94,0,0,0-3.63.74A2.59,2.59,0,0,0,978,48.69a3.06,3.06,0,0,0,1.21,2.56,5.19,5.19,0,0,0,3.29,1A8,8,0,0,0,987.05,50.94Z"/><path class="cls-4" d="M1007.77,21.43a3.65,3.65,0,0,1,1,2.65,3.59,3.59,0,0,1-1,2.61,3.55,3.55,0,0,1-5,0,3.59,3.59,0,0,1-1-2.61,3.65,3.65,0,0,1,1-2.65,3.53,3.53,0,0,1,5,0Zm-5.54,9.86h6.16V56.66h-6.16Z"/><path class="cls-4" d="M1016.26,21.47h6.16V56.66h-6.16Z"/><path class="cls-4" d="M1041.56,36.46a12.29,12.29,0,0,0-3.63-.62,4.84,4.84,0,0,0-2.49.55,1.8,1.8,0,0,0-.92,1.68,2,2,0,0,0,1.16,1.83,19.53,19.53,0,0,0,3.67,1.35,33.92,33.92,0,0,1,4.36,1.59,8.18,8.18,0,0,1,3,2.32,6.26,6.26,0,0,1,1.25,4.05,6.5,6.5,0,0,1-2.84,5.69,12.17,12.17,0,0,1-7.16,2,18.1,18.1,0,0,1-5.74-.92,13.61,13.61,0,0,1-4.74-2.63l2.13-4.32a12.48,12.48,0,0,0,4.08,2.3,13.46,13.46,0,0,0,4.51.83,5.35,5.35,0,0,0,2.72-.59,1.93,1.93,0,0,0,1-1.78,2.14,2.14,0,0,0-1.18-2,21.32,21.32,0,0,0-3.84-1.47,32.19,32.19,0,0,1-4.18-1.49,7.62,7.62,0,0,1-2.79-2.23,6.12,6.12,0,0,1-1.19-3.91,6.62,6.62,0,0,1,2.73-5.72,11.4,11.4,0,0,1,6.85-2,17.44,17.44,0,0,1,5,.72,15,15,0,0,1,4.34,2l-2.23,4.46A18,18,0,0,0,1041.56,36.46Z"/><path class="cls-4" d="M668.92,176.9a22.51,22.51,0,0,0-9.72-2.27,22.23,22.23,0,0,0-11.28,2.94,21.35,21.35,0,0,0-8.07,8.1,23.39,23.39,0,0,0,0,22.67,21.72,21.72,0,0,0,8.07,8.16,22,22,0,0,0,11.28,3,23.7,23.7,0,0,0,9.53-2.08,27.36,27.36,0,0,0,8.49-5.79l7.49,8.35a39.26,39.26,0,0,1-12.14,8.39,34.25,34.25,0,0,1-14,3.08A34.79,34.79,0,0,1,641,226.88a33.43,33.43,0,0,1-12.52-12.38,33.8,33.8,0,0,1-4.55-17.3,33,33,0,0,1,4.65-17.26,33.45,33.45,0,0,1,12.66-12.24A36.8,36.8,0,0,1,673,166.09,34.39,34.39,0,0,1,684.62,174l-7.4,9.3A25.08,25.08,0,0,0,668.92,176.9Z"/><path class="cls-4" d="M741.51,179.75v50.73H729.09v-9.39Q724,231,711.45,231q-8.54,0-13.46-5.22t-4.93-14.22V179.75h12.42v28.16c0,3.54,1,6.33,2.89,8.35a10.55,10.55,0,0,0,8,3,11.75,11.75,0,0,0,9.3-4.17,15.58,15.58,0,0,0,3.41-10.34v-25Z"/><path class="cls-4" d="M779.3,190.08a24.43,24.43,0,0,0-7.25-1.23,9.83,9.83,0,0,0-5,1.09,3.65,3.65,0,0,0-1.85,3.37,4,4,0,0,0,2.32,3.65,37.84,37.84,0,0,0,7.35,2.7,72.49,72.49,0,0,1,8.73,3.18,16.32,16.32,0,0,1,5.92,4.65,12.38,12.38,0,0,1,2.52,8.1A13,13,0,0,1,786.37,227q-5.68,4-14.32,4a36.45,36.45,0,0,1-11.48-1.85,27.05,27.05,0,0,1-9.48-5.27l4.27-8.63a24.81,24.81,0,0,0,8.15,4.6,27.21,27.21,0,0,0,9,1.66,10.84,10.84,0,0,0,5.46-1.18,3.87,3.87,0,0,0,2-3.56,4.29,4.29,0,0,0-2.37-4,41.16,41.16,0,0,0-7.68-2.94,65.31,65.31,0,0,1-8.34-3,15.1,15.1,0,0,1-5.6-4.45,12.24,12.24,0,0,1-2.37-7.83q0-7.48,5.45-11.43t13.71-3.93a35.23,35.23,0,0,1,9.91,1.42,30.92,30.92,0,0,1,8.67,4l-4.45,8.92A36.59,36.59,0,0,0,779.3,190.08Z"/><path class="cls-4" d="M832.27,227.35a24.06,24.06,0,0,1-12.71,3.7,15.22,15.22,0,0,1-10.72-3.84q-4.17-3.84-4.17-11.33v-25h-7.11l-.1-9h7.21V167.89H816.9v13.94h14.51v9H816.9V213.7q0,3.51,1.33,5a5.1,5.1,0,0,0,4,1.47,17.7,17.7,0,0,0,7.21-2.09Z"/><path class="cls-4" d="M877.55,182.59a23.4,23.4,0,0,1,9.39,9.06,26.4,26.4,0,0,1,3.36,13.42,26.85,26.85,0,0,1-3.36,13.56,23.3,23.3,0,0,1-9.39,9.1A29,29,0,0,1,863.66,231a29.5,29.5,0,0,1-14-3.23,23.1,23.1,0,0,1-9.43-9.1,26.75,26.75,0,0,1-3.37-13.56,26.3,26.3,0,0,1,3.37-13.42,23.19,23.19,0,0,1,9.43-9.06,29.5,29.5,0,0,1,14-3.22A29,29,0,0,1,877.55,182.59Zm-24.33,11.57a17.45,17.45,0,0,0,0,22.19,13.61,13.61,0,0,0,10.44,4.27,13.37,13.37,0,0,0,10.24-4.27,17.45,17.45,0,0,0,0-22.19,13.41,13.41,0,0,0-10.24-4.27A13.65,13.65,0,0,0,853.22,194.16Z"/><path class="cls-4" d="M981.06,184.54q4.92,5.25,4.93,14.27v31.67H973.56V202.41q0-5.4-3-8.49a10.79,10.79,0,0,0-8.11-3.08,12.18,12.18,0,0,0-9.34,4.27,15.4,15.4,0,0,0-3.46,10.34v25H937.24V202.41q0-5.4-2.94-8.49a10.62,10.62,0,0,0-8.06-3.08,12.26,12.26,0,0,0-9.43,4.27,15.4,15.4,0,0,0-3.46,10.34v25H901V179.75h12.33v9.39q5-9.67,17.82-9.87a18.87,18.87,0,0,1,11.15,3.18,16.66,16.66,0,0,1,6.3,9q4.85-11.94,18.88-12.14Q976.13,179.27,981.06,184.54Z"/><path class="cls-4" d="M1029.7,230.48v-6.16a16.55,16.55,0,0,1-6.82,5,25.15,25.15,0,0,1-9.58,1.71,20.39,20.39,0,0,1-9.34-2,15,15,0,0,1-6.22-5.64,15.29,15.29,0,0,1-2.18-8.06q0-7.11,5-11.14t14.22-4.13h14.8v-1.33a8.54,8.54,0,0,0-2.94-6.92q-2.94-2.46-8.54-2.46-7.2,0-15.08,4.74l-4.45-8.54a56.11,56.11,0,0,1,10.86-4.79,39.73,39.73,0,0,1,11.42-1.47q9.87,0,15.32,4.74t5.55,13.28l.09,33.19Zm-4.36-11.42a8.76,8.76,0,0,0,4.27-6.22v-4.55h-12.8q-4.93,0-7.26,1.47a5.24,5.24,0,0,0-2.32,4.79,6.14,6.14,0,0,0,2.42,5.12,10.35,10.35,0,0,0,6.59,1.9A16.14,16.14,0,0,0,1025.34,219.06Z"/><path class="cls-4" d="M574.85,258.3H586.3l0,2.78H578v4.48h7.51v2.77H578v6.57h-3.18Z"/><path class="cls-4" d="M597.57,262.93a5.75,5.75,0,0,1,2.35,2.26,6.59,6.59,0,0,1,.84,3.35,6.66,6.66,0,0,1-.84,3.39,5.74,5.74,0,0,1-2.35,2.28,7.2,7.2,0,0,1-3.47.81,7.33,7.33,0,0,1-3.51-.81,5.76,5.76,0,0,1-2.36-2.28,6.66,6.66,0,0,1-.84-3.39,6.59,6.59,0,0,1,.84-3.35,5.78,5.78,0,0,1,2.36-2.26,7.33,7.33,0,0,1,3.51-.81A7.2,7.2,0,0,1,597.57,262.93Zm-6.08,2.89a3.9,3.9,0,0,0-1,2.77,3.94,3.94,0,0,0,1,2.78,3.42,3.42,0,0,0,2.61,1.06,3.34,3.34,0,0,0,2.56-1.06,3.9,3.9,0,0,0,1-2.78,3.86,3.86,0,0,0-1-2.77,3.35,3.35,0,0,0-2.56-1.07A3.43,3.43,0,0,0,591.49,265.82Z"/><path class="cls-4" d="M614.51,263.41a5,5,0,0,1,1.26,3.57v7.92h-3.11v-7a2.9,2.9,0,0,0-.75-2.1,2.8,2.8,0,0,0-2.07-.77,3.17,3.17,0,0,0-2.43,1.05,3.82,3.82,0,0,0-.89,2.6v6.24h-3.08V262.21h3.08v2.38a4.81,4.81,0,0,1,4.56-2.49A4.53,4.53,0,0,1,614.51,263.41Z"/><path class="cls-4" d="M626.65,274.12a6.07,6.07,0,0,1-3.18.92,3.77,3.77,0,0,1-2.67-1,3.64,3.64,0,0,1-1-2.83V265H618l0-2.25h1.8v-3.49h3.06v3.49h3.63V265h-3.63v5.71a1.87,1.87,0,0,0,.33,1.25,1.3,1.3,0,0,0,1,.36,4.4,4.4,0,0,0,1.8-.52Z"/><path class="cls-4" d="M631,265.13a1.66,1.66,0,0,1,.46,1.21,1.7,1.7,0,0,1-.46,1.24,1.54,1.54,0,0,1-1.18.49,1.49,1.49,0,0,1-1.14-.5,1.73,1.73,0,0,1-.47-1.23,1.67,1.67,0,0,1,.47-1.21,1.5,1.5,0,0,1,1.14-.47A1.56,1.56,0,0,1,631,265.13Zm0,7a1.66,1.66,0,0,1,.46,1.21,1.74,1.74,0,0,1-.46,1.25,1.57,1.57,0,0,1-1.18.48,1.46,1.46,0,0,1-1.14-.5,1.73,1.73,0,0,1-.47-1.23,1.67,1.67,0,0,1,.47-1.21,1.54,1.54,0,0,1,1.14-.47A1.6,1.6,0,0,1,631,272.17Z"/><path class="cls-4" d="M685.8,258.3h3.63l5.5,10.7,5.45-10.7H704v16.6h-2.92V263l-5.16,10.19h-2L688.7,263v11.9h-2.9Z"/><path class="cls-4" d="M717,262.93a5.81,5.81,0,0,1,2.35,2.26,6.59,6.59,0,0,1,.84,3.35,6.66,6.66,0,0,1-.84,3.39,5.8,5.8,0,0,1-2.35,2.28,7.2,7.2,0,0,1-3.47.81,7.33,7.33,0,0,1-3.51-.81,5.76,5.76,0,0,1-2.36-2.28,6.66,6.66,0,0,1-.84-3.39,6.59,6.59,0,0,1,.84-3.35,5.78,5.78,0,0,1,2.36-2.26,7.33,7.33,0,0,1,3.51-.81A7.2,7.2,0,0,1,717,262.93Zm-6.08,2.89a3.91,3.91,0,0,0-1,2.77,4,4,0,0,0,1,2.78,3.39,3.39,0,0,0,2.61,1.06,3.36,3.36,0,0,0,2.56-1.06,3.94,3.94,0,0,0,1-2.78,3.9,3.9,0,0,0-1-2.77,3.37,3.37,0,0,0-2.56-1.07A3.4,3.4,0,0,0,710.91,265.82Z"/><path class="cls-4" d="M733.93,263.41a5,5,0,0,1,1.26,3.57v7.92h-3.11v-7a2.87,2.87,0,0,0-.76-2.1,2.76,2.76,0,0,0-2.06-.77,3.14,3.14,0,0,0-2.43,1.05,3.82,3.82,0,0,0-.89,2.6v6.24h-3.08V262.21h3.08v2.38a4.8,4.8,0,0,1,4.55-2.49A4.55,4.55,0,0,1,733.93,263.41Z"/><path class="cls-4" d="M746.07,274.12a6.07,6.07,0,0,1-3.18.92,3.81,3.81,0,0,1-2.68-1,3.67,3.67,0,0,1-1-2.83V265h-1.78l0-2.25h1.8v-3.49h3.06v3.49h3.63V265h-3.63v5.71a1.87,1.87,0,0,0,.33,1.25,1.29,1.29,0,0,0,1,.36,4.4,4.4,0,0,0,1.8-.52Z"/><path class="cls-4" d="M754.09,264.8a5.93,5.93,0,0,0-1.81-.31,2.43,2.43,0,0,0-1.24.27.93.93,0,0,0-.47.84,1,1,0,0,0,.58.92,9.23,9.23,0,0,0,1.84.67,17.67,17.67,0,0,1,2.18.8,4,4,0,0,1,1.48,1.16,3.1,3.1,0,0,1,.63,2,3.25,3.25,0,0,1-1.42,2.84,6.05,6.05,0,0,1-3.58,1,9,9,0,0,1-2.87-.47,6.64,6.64,0,0,1-2.37-1.31l1.07-2.16a6.15,6.15,0,0,0,2,1.15,6.74,6.74,0,0,0,2.25.42,2.66,2.66,0,0,0,1.36-.3,1,1,0,0,0,.51-.89,1.1,1.1,0,0,0-.59-1,11.05,11.05,0,0,0-1.92-.73,15.56,15.56,0,0,1-2.09-.75,3.71,3.71,0,0,1-1.4-1.11,3.09,3.09,0,0,1-.59-2,3.29,3.29,0,0,1,1.36-2.85,5.68,5.68,0,0,1,3.43-1,8.75,8.75,0,0,1,2.48.36,8.13,8.13,0,0,1,2.17,1L756,265.65A8.78,8.78,0,0,0,754.09,264.8Z"/><path class="cls-4" d="M769.76,263.85a7.08,7.08,0,0,1,1.53,4.86c0,.41,0,.72,0,.93h-9.36a3.52,3.52,0,0,0,3.62,2.89,4.71,4.71,0,0,0,1.86-.37,4.62,4.62,0,0,0,1.56-1.05l1.66,1.73a6.58,6.58,0,0,1-2.32,1.61,7.74,7.74,0,0,1-3,.57,7,7,0,0,1-3.42-.81,5.6,5.6,0,0,1-2.29-2.26,6.82,6.82,0,0,1-.81-3.36,6.74,6.74,0,0,1,.82-3.36,5.8,5.8,0,0,1,2.29-2.29,6.69,6.69,0,0,1,3.34-.82A5.77,5.77,0,0,1,769.76,263.85Zm-1.29,3.72a3.1,3.1,0,0,0-.92-2.23,3.6,3.6,0,0,0-4.59,0,3.66,3.66,0,0,0-1.13,2.24Z"/><path class="cls-4" d="M778.77,262.77a5.15,5.15,0,0,1,2.58-.67v3a4.19,4.19,0,0,0-3.15.92,3.5,3.5,0,0,0-1.17,2.78v6.12H774V262.21H777v2.45A4.63,4.63,0,0,1,778.77,262.77Z"/><path class="cls-4" d="M788.33,262.77a5.09,5.09,0,0,1,2.57-.67v3a4.17,4.17,0,0,0-3.14.92,3.5,3.5,0,0,0-1.17,2.78v6.12H783.5V262.21h3.09v2.45A4.5,4.5,0,0,1,788.33,262.77Z"/><path class="cls-4" d="M800.1,274.9v-1.54a4.1,4.1,0,0,1-1.71,1.25A6.14,6.14,0,0,1,796,275a5.11,5.11,0,0,1-2.34-.51,3.72,3.72,0,0,1-1.55-1.41,3.84,3.84,0,0,1-.55-2,3.37,3.37,0,0,1,1.26-2.79,5.63,5.63,0,0,1,3.56-1h3.7V267a2.13,2.13,0,0,0-.74-1.73,3.18,3.18,0,0,0-2.13-.62,7.32,7.32,0,0,0-3.77,1.18l-1.12-2.13a14.56,14.56,0,0,1,2.72-1.2,10.08,10.08,0,0,1,2.85-.36,5.64,5.64,0,0,1,3.83,1.18,4.25,4.25,0,0,1,1.39,3.32l0,8.3ZM799,272a2.19,2.19,0,0,0,1.07-1.55v-1.14h-3.2a3.44,3.44,0,0,0-1.82.37,1.29,1.29,0,0,0-.58,1.2,1.54,1.54,0,0,0,.61,1.28,2.62,2.62,0,0,0,1.64.47A4,4,0,0,0,799,272Z"/><path class="cls-4" d="M814,274.12a6.09,6.09,0,0,1-3.18.92,3.81,3.81,0,0,1-2.68-1,3.63,3.63,0,0,1-1-2.83V265h-1.78l0-2.25h1.81v-3.49h3v3.49h3.63V265h-3.63v5.71a1.87,1.87,0,0,0,.34,1.25,1.28,1.28,0,0,0,1,.36,4.32,4.32,0,0,0,1.8-.52Z"/><path class="cls-4" d="M595,286.75h3.29l-5.61,16.6h-3.3l-3.79-12.59-3.87,12.59h-3.25l-5.59-16.6h3.41l3.91,13.16,3.89-13.16h3.13L591.11,300Z"/><path class="cls-4" d="M608.76,292.3a7.08,7.08,0,0,1,1.53,4.86c0,.41,0,.72,0,.92h-9.36a3.51,3.51,0,0,0,3.62,2.9,4.9,4.9,0,0,0,1.86-.37,4.64,4.64,0,0,0,1.56-1.06l1.66,1.74a6.58,6.58,0,0,1-2.32,1.61,7.7,7.7,0,0,1-3,.57,7,7,0,0,1-3.42-.81,5.66,5.66,0,0,1-2.29-2.26,6.82,6.82,0,0,1-.81-3.36,6.92,6.92,0,0,1,.82-3.37,5.84,5.84,0,0,1,2.29-2.28,6.69,6.69,0,0,1,3.34-.82A5.77,5.77,0,0,1,608.76,292.3ZM607.47,296a3.1,3.1,0,0,0-.92-2.23,3.6,3.6,0,0,0-4.59,0,3.59,3.59,0,0,0-1.12,2.24Z"/><path class="cls-4" d="M615.72,285.73a1.82,1.82,0,0,1,.5,1.33,1.76,1.76,0,0,1-.5,1.3,1.75,1.75,0,0,1-2.51,0,1.8,1.8,0,0,1-.5-1.3,1.86,1.86,0,0,1,.5-1.33,1.77,1.77,0,0,1,2.51,0ZM613,290.66H616v12.69H613Z"/><path class="cls-4" d="M631.44,290.66v11.48a5.86,5.86,0,0,1-.82,3.14,5.36,5.36,0,0,1-2.32,2.06,8,8,0,0,1-3.5.73,9.32,9.32,0,0,1-5.35-1.69l1.23-2.23a6.49,6.49,0,0,0,4,1.33,4,4,0,0,0,2.71-.88,3,3,0,0,0,1-2.39v-1.49a4.3,4.3,0,0,1-1.66,1.48,5.23,5.23,0,0,1-2.37.51,5.61,5.61,0,0,1-2.94-.77,5.33,5.33,0,0,1-2-2.16,6.81,6.81,0,0,1-.71-3.19,6.64,6.64,0,0,1,.71-3.14,5.16,5.16,0,0,1,2-2.12,5.6,5.6,0,0,1,2.94-.76,5.15,5.15,0,0,1,2.36.52,4.39,4.39,0,0,1,1.67,1.47v-1.9Zm-4,8.62a4.12,4.12,0,0,0,0-5.24,3.44,3.44,0,0,0-4.86,0,4,4,0,0,0,0,5.23,3.43,3.43,0,0,0,4.86,0Z"/><path class="cls-4" d="M646.28,291.86a5,5,0,0,1,1.26,3.57v7.92h-3.11v-7a2.87,2.87,0,0,0-.76-2.1,2.76,2.76,0,0,0-2.06-.77,3.21,3.21,0,0,0-2.44,1,3.8,3.8,0,0,0-.9,2.61v6.24h-3.08V285.76h3.08v7.32a4.79,4.79,0,0,1,4.57-2.53A4.51,4.51,0,0,1,646.28,291.86Z"/><path class="cls-4" d="M658.42,302.57a6.07,6.07,0,0,1-3.18.92,3.77,3.77,0,0,1-2.67-1,3.64,3.64,0,0,1-1.05-2.83v-6.26h-1.78l0-2.25h1.8V287.7h3.06v3.49h3.63v2.25h-3.63v5.71a1.87,1.87,0,0,0,.33,1.25,1.29,1.29,0,0,0,1,.36,4.4,4.4,0,0,0,1.8-.52Z"/><path class="cls-4" d="M662.75,293.58a1.66,1.66,0,0,1,.46,1.21,1.71,1.71,0,0,1-.46,1.24,1.62,1.62,0,0,1-2.33,0,1.77,1.77,0,0,1-.46-1.23,1.7,1.7,0,0,1,.46-1.21,1.54,1.54,0,0,1,1.15-.47A1.56,1.56,0,0,1,662.75,293.58Zm0,7a1.66,1.66,0,0,1,.46,1.21,1.74,1.74,0,0,1-.46,1.25,1.57,1.57,0,0,1-1.18.48,1.49,1.49,0,0,1-1.15-.5,1.77,1.77,0,0,1-.46-1.23,1.7,1.7,0,0,1,.46-1.21,1.58,1.58,0,0,1,1.15-.47A1.6,1.6,0,0,1,662.75,300.62Z"/><path class="cls-4" d="M685.8,286.75h3.63l5.5,10.69,5.45-10.69H704v16.6H701.1v-11.9l-5.17,10.19h-2l-5.19-10.19v11.9h-2.9Z"/><path class="cls-4" d="M717.82,292.3a7.08,7.08,0,0,1,1.53,4.86c0,.41,0,.72,0,.92H710a3.53,3.53,0,0,0,3.63,2.9,4.9,4.9,0,0,0,1.86-.37,4.6,4.6,0,0,0,1.55-1.06l1.66,1.74a6.45,6.45,0,0,1-2.31,1.61,7.74,7.74,0,0,1-3,.57,7,7,0,0,1-3.43-.81,5.64,5.64,0,0,1-2.28-2.26,7.35,7.35,0,0,1,0-6.73,5.71,5.71,0,0,1,2.29-2.28,6.67,6.67,0,0,1,3.34-.82A5.78,5.78,0,0,1,717.82,292.3ZM716.53,296a3.1,3.1,0,0,0-.92-2.23,3.6,3.6,0,0,0-4.59,0,3.6,3.6,0,0,0-1.13,2.24Z"/><path class="cls-4" d="M734.24,285.76v17.59h-3.08v-2a4.58,4.58,0,0,1-1.77,1.62,5.39,5.39,0,0,1-2.5.56,6,6,0,0,1-3.17-.82,5.62,5.62,0,0,1-2.12-2.3,7.43,7.43,0,0,1-.76-3.4,7.22,7.22,0,0,1,.75-3.35,5.45,5.45,0,0,1,2.11-2.27,6,6,0,0,1,3.12-.8,5.56,5.56,0,0,1,2.54.56,5,5,0,0,1,1.8,1.64v-7Zm-4.09,14.07a3.94,3.94,0,0,0,1-2.79,3.89,3.89,0,0,0-1-2.78,3.4,3.4,0,0,0-2.6-1.08,3.35,3.35,0,0,0-2.58,1.08,4,4,0,0,0-1,2.78,4.08,4.08,0,0,0,1,2.79,3.35,3.35,0,0,0,2.58,1.08A3.4,3.4,0,0,0,730.15,299.83Z"/><path class="cls-4" d="M741,285.73a1.86,1.86,0,0,1,.5,1.33,1.8,1.8,0,0,1-.5,1.3,1.75,1.75,0,0,1-2.51,0,1.8,1.8,0,0,1-.5-1.3,1.86,1.86,0,0,1,.5-1.33,1.77,1.77,0,0,1,2.51,0Zm-2.77,4.93h3.08v12.69H738.2Z"/><path class="cls-4" d="M756.81,290.66v12.69H753.7V301a4.56,4.56,0,0,1-4.41,2.47,4.4,4.4,0,0,1-3.36-1.31,4.92,4.92,0,0,1-1.24-3.55v-7.95h3.11v7a2.89,2.89,0,0,0,.72,2.08,2.62,2.62,0,0,0,2,.76,2.94,2.94,0,0,0,2.32-1,3.89,3.89,0,0,0,.85-2.59v-6.26Z"/><path class="cls-4" d="M780.66,291.86a5,5,0,0,1,1.23,3.57v7.92h-3.1v-7a2.9,2.9,0,0,0-.75-2.12,2.71,2.71,0,0,0-2-.77,3,3,0,0,0-2.33,1.06,3.86,3.86,0,0,0-.87,2.59v6.26h-3.1v-7a2.94,2.94,0,0,0-.74-2.12,2.66,2.66,0,0,0-2-.77,3.07,3.07,0,0,0-2.36,1.06,3.86,3.86,0,0,0-.87,2.59v6.26h-3.08V290.66h3.08V293a5.28,5.28,0,0,1,7.24-1.67,4.18,4.18,0,0,1,1.58,2.24,4.7,4.7,0,0,1,4.72-3A4.4,4.4,0,0,1,780.66,291.86Z"/><path class="cls-4" d="M582.66,318.26a8.06,8.06,0,0,0-2.36-.43,3.33,3.33,0,0,0-1.8.43,1.34,1.34,0,0,0-.66,1.19,1.53,1.53,0,0,0,.46,1.14,3.54,3.54,0,0,0,1.16.76,18.31,18.31,0,0,0,1.91.66,21,21,0,0,1,2.76,1,4.92,4.92,0,0,1,1.84,1.47,4.08,4.08,0,0,1,.76,2.56,4.34,4.34,0,0,1-.82,2.64,5,5,0,0,1-2.25,1.72,8.47,8.47,0,0,1-3.29.6,10.17,10.17,0,0,1-3.79-.73,10.58,10.58,0,0,1-3.22-1.93l1.32-2.7a9.72,9.72,0,0,0,2.83,1.82,7.35,7.35,0,0,0,2.91.67,3.71,3.71,0,0,0,2.09-.51,1.67,1.67,0,0,0,.29-2.56,3.28,3.28,0,0,0-1.17-.75c-.47-.19-1.12-.4-1.94-.64a23.23,23.23,0,0,1-2.75-1,4.89,4.89,0,0,1-1.83-1.44,4,4,0,0,1-.76-2.52,4.23,4.23,0,0,1,.77-2.52,5,5,0,0,1,2.18-1.68,8.46,8.46,0,0,1,3.26-.59,10.87,10.87,0,0,1,3.19.48,10.48,10.48,0,0,1,2.81,1.28l-1.28,2.77A11.87,11.87,0,0,0,582.66,318.26Z"/><path class="cls-4" d="M592.39,314.18a1.82,1.82,0,0,1,.5,1.33,1.76,1.76,0,0,1-.5,1.3,1.77,1.77,0,0,1-2.51,0,1.8,1.8,0,0,1-.5-1.3,1.86,1.86,0,0,1,.5-1.33,1.77,1.77,0,0,1,2.51,0Zm-2.77,4.93h3.08V331.8h-3.08Z"/><path class="cls-4" d="M595.83,319.14h10.58v2l-7,8.1,7.16,0v2.51l-11,0v-2l7-8.11-6.73,0Z"/><path class="cls-4" d="M619.08,320.75a7.08,7.08,0,0,1,1.53,4.86c0,.41,0,.72,0,.92h-9.36a3.53,3.53,0,0,0,3.62,2.9,5,5,0,0,0,1.87-.37,4.6,4.6,0,0,0,1.55-1.06l1.66,1.73a6.35,6.35,0,0,1-2.31,1.62,7.79,7.79,0,0,1-3,.57,7,7,0,0,1-3.42-.81,5.66,5.66,0,0,1-2.29-2.26,7.35,7.35,0,0,1,0-6.73,5.77,5.77,0,0,1,2.29-2.28,6.69,6.69,0,0,1,3.34-.82A5.79,5.79,0,0,1,619.08,320.75Zm-1.3,3.72a3.1,3.1,0,0,0-.92-2.23,3.25,3.25,0,0,0-2.32-.83,3.31,3.31,0,0,0-2.27.82,3.59,3.59,0,0,0-1.12,2.24Z"/><path class="cls-4" d="M625.17,322a1.66,1.66,0,0,1,.46,1.21,1.71,1.71,0,0,1-.46,1.24A1.53,1.53,0,0,1,624,325a1.5,1.5,0,0,1-1.15-.5,1.73,1.73,0,0,1-.47-1.23,1.67,1.67,0,0,1,.47-1.21,1.52,1.52,0,0,1,1.15-.48A1.56,1.56,0,0,1,625.17,322Zm0,7a1.66,1.66,0,0,1,.46,1.21,1.7,1.7,0,0,1-.46,1.24A1.53,1.53,0,0,1,624,332a1.5,1.5,0,0,1-1.15-.5,1.73,1.73,0,0,1-.47-1.23,1.67,1.67,0,0,1,.47-1.21,1.51,1.51,0,0,1,1.15-.47A1.55,1.55,0,0,1,625.17,329.07Z"/><path class="cls-4" d="M683.79,315.2h6.66v16.6h-3.18V318h-3.48Z"/><path class="cls-4" d="M699.79,312.47h2.61l-7.54,22h-2.63Z"/><path class="cls-4" d="M714,329v2.78H701.71v-2.3l6.26-6.45a10.22,10.22,0,0,0,1.45-1.78,3,3,0,0,0,.54-1.52,1.65,1.65,0,0,0-.71-1.41,3.32,3.32,0,0,0-2-.51,5.63,5.63,0,0,0-2.32.55,8.88,8.88,0,0,0-2.33,1.52l-1.25-2.45a12.6,12.6,0,0,1,3.09-1.76,9,9,0,0,1,3.26-.63,7.5,7.5,0,0,1,2.9.52,4.53,4.53,0,0,1,2,1.48,3.65,3.65,0,0,1,.7,2.22,5,5,0,0,1-.83,2.56,18.39,18.39,0,0,1-2.32,2.92L705.91,329Z"/><path class="cls-4" d="M731.55,319.82a5.88,5.88,0,0,1,2.34,2.27,6.59,6.59,0,0,1,.85,3.35,6.72,6.72,0,0,1-.85,3.39,5.84,5.84,0,0,1-2.34,2.28,7.27,7.27,0,0,1-3.48.81,7.39,7.39,0,0,1-3.51-.81,5.8,5.8,0,0,1-2.35-2.28,6.62,6.62,0,0,1-.85-3.39,6.49,6.49,0,0,1,.85-3.35,5.84,5.84,0,0,1,2.35-2.27,7.5,7.5,0,0,1,3.51-.8A7.38,7.38,0,0,1,731.55,319.82Zm-6.08,2.9a4.34,4.34,0,0,0,0,5.54,3.36,3.36,0,0,0,2.6,1.07,3.3,3.3,0,0,0,2.56-1.07,4.34,4.34,0,0,0,0-5.54,3.34,3.34,0,0,0-2.56-1.07A3.39,3.39,0,0,0,725.47,322.72Z"/><path class="cls-4" d="M741.38,317.12a1.55,1.55,0,0,0-.46,1.21v1.3h3.18v2.26h-3.18v9.91h-3.08v-9.91h-1.66v-2.26h1.66v-1.2a4.43,4.43,0,0,1,.62-2.39,3.93,3.93,0,0,1,1.65-1.48,5.08,5.08,0,0,1,2.24-.5,5.37,5.37,0,0,1,2.32.55l-.55,2.49a4.47,4.47,0,0,0-1.56-.38A1.74,1.74,0,0,0,741.38,317.12Z"/><path class="cls-4" d="M759.15,331a6,6,0,0,1-3.17.93,3.8,3.8,0,0,1-2.68-1,3.65,3.65,0,0,1-1-2.83v-6.26h-1.78l0-2.26h1.81v-3.48h3v3.48h3.63v2.26h-3.63v5.71a1.82,1.82,0,0,0,.34,1.25,1.28,1.28,0,0,0,1,.36,4.32,4.32,0,0,0,1.8-.52Z"/><path class="cls-4" d="M772.79,320.31a5,5,0,0,1,1.25,3.57v7.92h-3.1v-7a2.89,2.89,0,0,0-.76-2.1,2.78,2.78,0,0,0-2.06-.77,3.19,3.19,0,0,0-2.45,1,3.8,3.8,0,0,0-.9,2.61v6.24h-3.08V314.21h3.08v7.32a4.81,4.81,0,0,1,4.58-2.53A4.53,4.53,0,0,1,772.79,320.31Z"/><path class="cls-4" d="M787.35,320.75a7.08,7.08,0,0,1,1.53,4.86c0,.41,0,.72,0,.92H779.5a3.51,3.51,0,0,0,3.62,2.9,4.9,4.9,0,0,0,1.86-.37,4.64,4.64,0,0,0,1.56-1.06l1.66,1.73a6.48,6.48,0,0,1-2.32,1.62,7.7,7.7,0,0,1-3,.57,7,7,0,0,1-3.42-.81,5.66,5.66,0,0,1-2.29-2.26,7.35,7.35,0,0,1,0-6.73,5.77,5.77,0,0,1,2.29-2.28,6.69,6.69,0,0,1,3.34-.82A5.77,5.77,0,0,1,787.35,320.75Zm-1.29,3.72a3.1,3.1,0,0,0-.92-2.23,3.6,3.6,0,0,0-4.59,0,3.66,3.66,0,0,0-1.13,2.24Z"/><path class="cls-4" d="M797.47,315.2h3.17v13.73h7.16v2.87H797.47Z"/><path class="cls-4" d="M819.19,319.82a5.84,5.84,0,0,1,2.35,2.27,6.59,6.59,0,0,1,.84,3.35,6.71,6.71,0,0,1-.84,3.39,5.8,5.8,0,0,1-2.35,2.28,7.2,7.2,0,0,1-3.47.81,7.33,7.33,0,0,1-3.51-.81,5.82,5.82,0,0,1-2.36-2.28,6.71,6.71,0,0,1-.84-3.39,6.59,6.59,0,0,1,.84-3.35,5.86,5.86,0,0,1,2.36-2.27,7.45,7.45,0,0,1,3.51-.8A7.31,7.31,0,0,1,819.19,319.82Zm-6.08,2.9a4.37,4.37,0,0,0,0,5.54,3.39,3.39,0,0,0,2.61,1.07,3.32,3.32,0,0,0,2.56-1.07,4.34,4.34,0,0,0,0-5.54,3.35,3.35,0,0,0-2.56-1.07A3.43,3.43,0,0,0,813.11,322.72Z"/><path class="cls-4" d="M836.66,319.11v11.48a6,6,0,0,1-.82,3.14,5.38,5.38,0,0,1-2.33,2.06,8,8,0,0,1-3.49.72,9.32,9.32,0,0,1-5.36-1.68l1.23-2.23a6.49,6.49,0,0,0,4,1.33,4,4,0,0,0,2.72-.88,3,3,0,0,0,1-2.39v-1.49a4.23,4.23,0,0,1-1.66,1.48,5.23,5.23,0,0,1-2.37.51,5.66,5.66,0,0,1-2.94-.77,5.39,5.39,0,0,1-2-2.16,7,7,0,0,1-.71-3.19,6.73,6.73,0,0,1,.71-3.14,5.22,5.22,0,0,1,2-2.12,5.65,5.65,0,0,1,2.94-.76,5.12,5.12,0,0,1,2.36.52,4.32,4.32,0,0,1,1.67,1.47v-1.9Zm-4,8.62a4.16,4.16,0,0,0,0-5.24,3.19,3.19,0,0,0-2.43-1,3.13,3.13,0,0,0-2.43,1,4,4,0,0,0,0,5.23,3.43,3.43,0,0,0,4.86,0Z"/><path class="cls-4" d="M849.3,319.82a5.84,5.84,0,0,1,2.35,2.27,6.59,6.59,0,0,1,.84,3.35,6.71,6.71,0,0,1-.84,3.39,5.8,5.8,0,0,1-2.35,2.28,7.2,7.2,0,0,1-3.47.81,7.33,7.33,0,0,1-3.51-.81,5.82,5.82,0,0,1-2.36-2.28,6.71,6.71,0,0,1-.84-3.39,6.59,6.59,0,0,1,.84-3.35,5.86,5.86,0,0,1,2.36-2.27,7.45,7.45,0,0,1,3.51-.8A7.31,7.31,0,0,1,849.3,319.82Zm-6.08,2.9a4.37,4.37,0,0,0,0,5.54,3.38,3.38,0,0,0,2.61,1.07,3.32,3.32,0,0,0,2.56-1.07,4.34,4.34,0,0,0,0-5.54,3.35,3.35,0,0,0-2.56-1.07A3.41,3.41,0,0,0,843.22,322.72Z"/></g></g><g id="Seperator"><path class="cls-4" d="M512,465.33v6.35H484.55V486h-5.73V465.33Z"/><path class="cls-4" d="M510.21,534a17,17,0,0,1-23.41,6.37,16.88,16.88,0,0,1-6.18-6.37,18.84,18.84,0,0,1,0-18,16.84,16.84,0,0,1,6.18-6.38A16.81,16.81,0,0,1,510.21,516a19.29,19.29,0,0,1,0,18Zm-5-14.54a11.12,11.12,0,0,0-4.08-4.12,11.48,11.48,0,0,0-11.45,0,11.41,11.41,0,0,0-4.12,4.13,10.8,10.8,0,0,0-1.52,5.62,10.57,10.57,0,0,0,1.52,5.54,11.15,11.15,0,0,0,4.12,4.06,11.4,11.4,0,0,0,5.74,1.49,11.26,11.26,0,0,0,5.71-1.49,11.11,11.11,0,0,0,4.08-4.06,10.73,10.73,0,0,0,1.49-5.54A11.13,11.13,0,0,0,505.25,519.47Z"/><path class="cls-4" d="M495.32,588.65v5.55H482.7a22.44,22.44,0,0,1-3.15-6.16,21.76,21.76,0,0,1-1.21-7,17.71,17.71,0,0,1,2.28-8.9,17,17,0,0,1,6.19-6.33,16.68,16.68,0,0,1,8.65-2.32,16.16,16.16,0,0,1,8.61,2.37,17.13,17.13,0,0,1,6.11,6.47,18.6,18.6,0,0,1,2.25,9.08,19.93,19.93,0,0,1-1.28,7,18.72,18.72,0,0,1-3.5,6l-4.7-3.61a13.87,13.87,0,0,0,3.79-9.39,11.45,11.45,0,0,0-1.49-5.76,11.35,11.35,0,0,0-15.53-4.12,11.4,11.4,0,0,0-5.64,9.93,12.58,12.58,0,0,0,.55,3.58,15.49,15.49,0,0,0,1.54,3.58Z"/><path class="cls-4" d="M510.21,644.58a17,17,0,0,1-23.4,6.38,16.93,16.93,0,0,1-6.19-6.38,18.84,18.84,0,0,1,0-18,16.93,16.93,0,0,1,6.19-6.38,16.8,16.8,0,0,1,23.4,6.38,19.29,19.29,0,0,1,0,18Zm-5-14.53a11.36,11.36,0,0,0-15.53-4.11,11.49,11.49,0,0,0-4.12,4.13,10.92,10.92,0,0,0-1.52,5.62,10.73,10.73,0,0,0,1.52,5.55,11.42,11.42,0,0,0,19.65,0,10.8,10.8,0,0,0,1.49-5.55A11.09,11.09,0,0,0,505.25,630.05Z"/><path class="cls-4" d="M517.13,708.57v4.69H473.41v-4.69Z"/><path class="cls-4" d="M512,811.36V818l-33.19-11.24v-6.59L504,792.54l-25.17-7.73v-6.5L512,767.12V774l-26.32,7.82L512,789.55v6.26l-26.41,7.82Z"/><path class="cls-4" d="M510.21,864.54a17,17,0,0,1-23.4,6.38,16.93,16.93,0,0,1-6.19-6.38,18.84,18.84,0,0,1,0-18,16.93,16.93,0,0,1,6.19-6.38,16.8,16.8,0,0,1,23.4,6.38,19.29,19.29,0,0,1,0,18Zm-5-14.53a11.36,11.36,0,0,0-15.53-4.11A11.49,11.49,0,0,0,485.6,850a10.9,10.9,0,0,0-1.52,5.62,10.73,10.73,0,0,0,1.52,5.55,11.42,11.42,0,0,0,19.65,0,10.8,10.8,0,0,0,1.49-5.55A11.07,11.07,0,0,0,505.25,850Z"/><path class="cls-4" d="M478.82,918.57l9.81-5.74a10.78,10.78,0,0,1-.05-1.18v-7.5h-9.76V897.8H512v13.85q0,6.44-3,10c-2,2.34-4.81,3.51-8.44,3.51a12.52,12.52,0,0,1-6.64-1.68,10.27,10.27,0,0,1-4.12-4.91l-11,7.3Zm15.36-14.42v7.5a8.48,8.48,0,0,0,1.56,5.5,5.71,5.71,0,0,0,4.65,1.89,5.49,5.49,0,0,0,4.55-1.89,8.66,8.66,0,0,0,1.52-5.5v-7.5Z"/><path class="cls-4" d="M509.9,973.76a15.51,15.51,0,0,1-5.91,6.16,16.58,16.58,0,0,1-8.58,2.23,16.4,16.4,0,0,1-8.56-2.25,15.81,15.81,0,0,1-5.9-6.23,18.94,18.94,0,0,1-2.13-9.06V951.05H512v13.8A18.61,18.61,0,0,1,509.9,973.76Zm-24.09-3.3a9.86,9.86,0,0,0,3.89,3.82,12.23,12.23,0,0,0,11.38,0,10,10,0,0,0,3.93-3.91,11.08,11.08,0,0,0,1.4-5.57V957.4h-22V965A10.81,10.81,0,0,0,485.81,970.46Z"/><path class="cls-4" d="M512,1006.67v7.25l-21.39,11L512,1035.83v7.25H478.82v-5.83h23.8l-20.39-10.34v-4.08l20.39-10.38h-23.8v-5.78Z"/><path class="cls-4" d="M478.82,1094.76l7-2.94v-16.21l-7-2.94v-6.59L512,1080.63v6.59l-33.19,14.37Zm12.47-16.88v11.67l13.94-5.79Z"/><path class="cls-4" d="M478.82,1145.36l9.81-5.74a10.86,10.86,0,0,1-.05-1.19v-7.49h-9.76v-6.35H512v13.84q0,6.45-3,10c-2,2.34-4.81,3.51-8.44,3.51a12.52,12.52,0,0,1-6.64-1.68,10.32,10.32,0,0,1-4.12-4.91l-11,7.3Zm15.36-14.42v7.49a8.44,8.44,0,0,0,1.56,5.5,5.68,5.68,0,0,0,4.65,1.9,5.46,5.46,0,0,0,4.55-1.9,8.62,8.62,0,0,0,1.52-5.5v-7.49Z"/><path class="cls-4" d="M478.82,1207.47v-7.63L493,1189.41l-5.74-5.22h-8.48v-6.35H512v6.35H495.46l16.55,15v7.49l-14-12.75Z"/></g><g id="Left"><g id="Dimensions"><g id="Face"><g id="Logo-5" data-name="Logo"><path id="BackgroundBG1-5" data-name="BackgroundBG1" class="cls-6" d="M233.64,1457.13H378.13c0,79.27-65.22,144.49-144.49,144.49S89.16,1536.4,89.16,1457.13s65.22-144.48,144.48-144.48Z"/><circle id="BackgroundAccent-5" data-name="BackgroundAccent" class="cls-7" cx="233.64" cy="1457.13" r="93.92"/><g id="Mouth-5" data-name="Mouth"><path class="cls-3" d="M266.32,1417.77c9.34-1.68,18.49,5.57,20.42,16.26s-4.06,20.72-13.4,22.44-18.45-5.57-20.42-16.22S257,1419.52,266.32,1417.77Z"/><path class="cls-3" d="M180.87,1431.89c2.66-10.5,12.34-17.1,21.49-14.73s14.46,12.82,11.8,23.32-12.3,17.1-21.48,14.73S178.21,1442.39,180.87,1431.89Z"/><g id="Group-5" data-name="Group"><path class="cls-3" d="M241.83,1478.15c-4.32,2.37-8,4.88-13.09,3-2.92-1.06-5.7-1.9-8.24-3.81-1.82-1.34-3.87-2.45-5.69-3.78-.95-.69-1.86-1.41-2.81-2.1a4.91,4.91,0,0,0-2.81-1.34c-1.1-.11-3.27-.19-4.1.73-3.57,4,1.44,10,4.14,12.67,4,3.93,9.75,8.4,15,10.69s10.29,5,15.79,2.21c6-3,11.27-7.48,16.59-11.56,3.49-2.68,11.31-7.37,9.95-12.6-.95-3.82-5.36-3-8.24-2.1-3.65,1.11-6.91,3-10.29,4.7C246,1475.9,243.92,1477,241.83,1478.15Z"/></g></g></g><g id="Scale"><line class="cls-8" x1="180.18" y1="1647.76" x2="287.11" y2="1648.96"/><line class="cls-8" x1="287.11" y1="1667.62" x2="287.11" y2="1630.3"/><line class="cls-8" x1="180.18" y1="1666.22" x2="180.18" y2="1628.9"/></g><path class="cls-4" d="M222.41,1615.74a11.53,11.53,0,0,1,0,12.5,7.51,7.51,0,0,1-10.58,0,11.48,11.48,0,0,1,0-12.5,7.51,7.51,0,0,1,10.58,0Zm-8.21,1.77a11.06,11.06,0,0,0,0,9,3.67,3.67,0,0,0,5.84,0,11.17,11.17,0,0,0,0-9,3.68,3.68,0,0,0-5.84,0Z"/><path class="cls-4" d="M229.29,1627.57a1.66,1.66,0,0,1,.46,1.21,1.74,1.74,0,0,1-.46,1.25,1.56,1.56,0,0,1-1.17.48,1.48,1.48,0,0,1-1.15-.5,1.72,1.72,0,0,1-.46-1.23,1.66,1.66,0,0,1,.46-1.21,1.56,1.56,0,0,1,1.15-.47A1.59,1.59,0,0,1,229.29,1627.57Z"/><path class="cls-4" d="M242.43,1622a3.92,3.92,0,0,1,1.36,3.11,4.82,4.82,0,0,1-.81,2.76,5.26,5.26,0,0,1-2.3,1.87,8.34,8.34,0,0,1-3.48.68,11.22,11.22,0,0,1-3.33-.51,9.31,9.31,0,0,1-2.81-1.36l1.26-2.47a7,7,0,0,0,2.2,1.27,7.27,7.27,0,0,0,2.47.44,4.59,4.59,0,0,0,2.71-.71,2.25,2.25,0,0,0,1-1.92,2.14,2.14,0,0,0-1-1.89,5,5,0,0,0-2.77-.65h-2.52v-1.92l4.46-4.31h-7l0-2.71H243v2l-5.07,4.86.87.09A6.38,6.38,0,0,1,242.43,1622Z"/><path class="cls-4" d="M245.07,1613.7h12.8v2.37L251,1630.3h-3.36l6.61-13.82h-6.37l0,2.34h-2.82Z"/><g id="Scale-2" data-name="Scale"><line class="cls-8" x1="71.36" y1="1497.84" x2="72.56" y2="1417.29"/><line class="cls-8" x1="91.22" y1="1417.29" x2="53.9" y2="1417.29"/><line class="cls-8" x1="89.82" y1="1497.84" x2="52.5" y2="1497.84"/></g><path class="cls-4" d="M39.34,1467.42c1.45-1.24,3.54-1.85,6.26-1.85a9.37,9.37,0,0,1,6.24,1.85,7.5,7.5,0,0,1,0,10.57,9.42,9.42,0,0,1-6.24,1.85,9.43,9.43,0,0,1-6.26-1.85,7.5,7.5,0,0,1,0-10.57Zm1.77,8.2a8.31,8.31,0,0,0,4.49,1,8.34,8.34,0,0,0,4.48-1,3.66,3.66,0,0,0,0-5.83,8.34,8.34,0,0,0-4.48-1,8.31,8.31,0,0,0-4.49,1,3.67,3.67,0,0,0,0,5.83Z"/><path class="cls-4" d="M51.17,1460.53a1.66,1.66,0,0,1,1.21-.46,1.74,1.74,0,0,1,1.25.46,1.56,1.56,0,0,1,.48,1.17,1.47,1.47,0,0,1-.5,1.15,1.73,1.73,0,0,1-1.23.47,1.67,1.67,0,0,1-1.21-.47,1.55,1.55,0,0,1-.47-1.15A1.59,1.59,0,0,1,51.17,1460.53Z"/><path class="cls-4" d="M45.62,1447.4a3.93,3.93,0,0,1,3.11-1.37,4.82,4.82,0,0,1,2.76.81,5.31,5.31,0,0,1,1.87,2.3,8.37,8.37,0,0,1,.68,3.48,11.23,11.23,0,0,1-.51,3.34,9.36,9.36,0,0,1-1.36,2.8l-2.47-1.25A7.39,7.39,0,0,0,51,1455.3a7.17,7.17,0,0,0,.44-2.46,4.6,4.6,0,0,0-.71-2.72,2.27,2.27,0,0,0-1.92-1,2.14,2.14,0,0,0-1.89,1,5,5,0,0,0-.65,2.77v2.52H44.32L40,1450.94v7l-2.7,0v-11.1h2l4.86,5.08.09-.88A6.37,6.37,0,0,1,45.62,1447.4Z"/><path class="cls-4" d="M44,1434.18A5.09,5.09,0,0,1,45.8,1432a4.52,4.52,0,0,1,2.6-.77,5.49,5.49,0,0,1,3,.8,5.39,5.39,0,0,1,2,2.28,7.81,7.81,0,0,1,.7,3.41,11,11,0,0,1-.53,3.26,11.28,11.28,0,0,1-1.44,3l-2.49-1.26a8.6,8.6,0,0,0,1.3-2.27,6.92,6.92,0,0,0,.46-2.42,3.85,3.85,0,0,0-.73-2.48,2.38,2.38,0,0,0-2-.91,2.19,2.19,0,0,0-1.87.9,4.51,4.51,0,0,0-.66,2.68q0,.86.06,2.25c0,.94.08,1.65.13,2.16h-9V1432h2.78v7.73h3.29v-2.2A8.09,8.09,0,0,1,44,1434.18Z"/></g><g id="Inner"><g id="Logo-6" data-name="Logo"><path id="BackgroundBG1-6" data-name="BackgroundBG1" class="cls-6" d="M233.61,1093.48H378.09c0,79.26-65.22,144.49-144.48,144.49S89.12,1172.74,89.12,1093.48,154.34,949,233.61,949Z"/><circle id="BackgroundAccent-6" data-name="BackgroundAccent" class="cls-2" cx="233.61" cy="1093.48" r="93.92"/><g id="Mouth-6" data-name="Mouth" class="cls-9"><path class="cls-3" d="M266.66,1053.88c9.45-1.69,18.7,5.6,20.66,16.35s-4.11,20.85-13.56,22.58-18.66-5.6-20.66-16.32S257.21,1055.64,266.66,1053.88Z"/><path class="cls-3" d="M180.22,1068.08c2.69-10.56,12.48-17.2,21.74-14.82s14.63,12.9,11.94,23.46-12.44,17.21-21.74,14.83S177.53,1078.64,180.22,1068.08Z"/><g id="Group-6" data-name="Group"><path class="cls-3" d="M241.89,1114.62c-4.38,2.38-8.14,4.92-13.25,3-2.95-1.08-5.76-1.92-8.33-3.84-1.84-1.35-3.92-2.46-5.76-3.8-1-.7-1.88-1.43-2.84-2.12a5,5,0,0,0-2.84-1.34c-1.11-.12-3.3-.19-4.15.73-3.61,4,1.46,10,4.19,12.75,4.07,4,9.87,8.45,15.2,10.75s10.41,5,16,2.23c6.1-3.08,11.4-7.53,16.78-11.64,3.53-2.69,11.44-7.41,10.06-12.67-1-3.84-5.42-3-8.33-2.11-3.69,1.11-7,3-10.41,4.72C246.08,1112.36,244,1113.51,241.89,1114.62Z"/></g></g></g><g id="Scale-3" data-name="Scale"><line class="cls-8" x1="71.32" y1="1184.2" x2="72.52" y2="1002.76"/><line class="cls-8" x1="91.18" y1="1002.76" x2="53.86" y2="1002.76"/><line class="cls-8" x1="89.78" y1="1184.2" x2="52.46" y2="1184.2"/></g><path class="cls-4" d="M40.32,1145.13a8.07,8.07,0,0,0-.42,2.36,3.33,3.33,0,0,0,.42,1.8,1.34,1.34,0,0,0,1.19.67,1.59,1.59,0,0,0,1.15-.46,3.64,3.64,0,0,0,.76-1.17,18.34,18.34,0,0,0,.65-1.9,20.73,20.73,0,0,1,1-2.77,5.09,5.09,0,0,1,1.47-1.83,4,4,0,0,1,2.56-.76,4.35,4.35,0,0,1,2.65.82,5.11,5.11,0,0,1,1.72,2.25,8.61,8.61,0,0,1,.59,3.28,10.33,10.33,0,0,1-.72,3.79,10.85,10.85,0,0,1-1.94,3.23l-2.7-1.33a9.63,9.63,0,0,0,1.83-2.82,7.51,7.51,0,0,0,.66-2.92,3.68,3.68,0,0,0-.51-2.08,1.68,1.68,0,0,0-2.56-.3,3.42,3.42,0,0,0-.75,1.18c-.19.47-.4,1.12-.64,1.94a22.13,22.13,0,0,1-1,2.75,4.66,4.66,0,0,1-1.43,1.82,3.93,3.93,0,0,1-2.53.76,4.18,4.18,0,0,1-2.52-.77,4.89,4.89,0,0,1-1.67-2.18,8.28,8.28,0,0,1-.6-3.26,10.92,10.92,0,0,1,.48-3.19,10.63,10.63,0,0,1,1.28-2.81l2.77,1.28A12.58,12.58,0,0,0,40.32,1145.13Z"/><path class="cls-4" d="M43.78,1132.77a3.23,3.23,0,0,0,1,2.5,3.81,3.81,0,0,0,2.7,1,3.89,3.89,0,0,0,2.75-1,3.22,3.22,0,0,0,1-2.5,4,4,0,0,0-1.49-3.41l1.59-1.92a5.64,5.64,0,0,1,1.9,2.25,7.51,7.51,0,0,1,.66,3.25,6.78,6.78,0,0,1-.81,3.33,5.65,5.65,0,0,1-2.26,2.26,6.79,6.79,0,0,1-3.36.81,6.91,6.91,0,0,1-3.39-.82,5.79,5.79,0,0,1-2.27-2.28,6.78,6.78,0,0,1-.81-3.35,7.49,7.49,0,0,1,.61-3.1,5.55,5.55,0,0,1,1.72-2.21l1.77,1.87A4.3,4.3,0,0,0,43.78,1132.77Z"/><path class="cls-4" d="M53.86,1117.76H52.32a4.34,4.34,0,0,1,1.26,1.71,6.39,6.39,0,0,1,.42,2.4,5.09,5.09,0,0,1-.51,2.33,3.74,3.74,0,0,1-3.42,2.1,3.37,3.37,0,0,1-2.79-1.26,5.68,5.68,0,0,1-1-3.55v-3.7h-.33a2.13,2.13,0,0,0-1.73.73,3.25,3.25,0,0,0-.62,2.14,7.37,7.37,0,0,0,1.19,3.77l-2.14,1.11a14,14,0,0,1-1.19-2.71,9.83,9.83,0,0,1-.37-2.86,5.66,5.66,0,0,1,1.18-3.83,4.25,4.25,0,0,1,3.32-1.39l8.3,0ZM51,1118.85a2.15,2.15,0,0,0-1.55-1.06H48.31v3.2a3.5,3.5,0,0,0,.37,1.81,1.31,1.31,0,0,0,1.2.58,1.55,1.55,0,0,0,1.28-.6,2.65,2.65,0,0,0,.47-1.65A4.06,4.06,0,0,0,51,1118.85Z"/><path class="cls-4" d="M36.27,1111.15v-3.08H53.86v3.08Z"/><path class="cls-4" d="M42.81,1094.26a7.12,7.12,0,0,1,4.86-1.53l.93,0v9.37a3.54,3.54,0,0,0,2.89-3.63,4.71,4.71,0,0,0-.37-1.86,4.44,4.44,0,0,0-1-1.55l1.73-1.66a6.45,6.45,0,0,1,1.61,2.31,7.74,7.74,0,0,1,.57,3,7,7,0,0,1-.81,3.43,5.58,5.58,0,0,1-2.26,2.28,7.33,7.33,0,0,1-6.72,0,5.8,5.8,0,0,1-2.29-2.29,6.69,6.69,0,0,1-.82-3.34A5.78,5.78,0,0,1,42.81,1094.26Zm3.72,1.29a3.06,3.06,0,0,0-2.22.92,3.23,3.23,0,0,0-.83,2.33,3.28,3.28,0,0,0,.81,2.26,3.68,3.68,0,0,0,2.24,1.13Z"/><path class="cls-4" d="M44.09,1088.16a1.7,1.7,0,0,1,1.21-.46,1.78,1.78,0,0,1,1.25.46,1.57,1.57,0,0,1,.48,1.18,1.48,1.48,0,0,1-.5,1.15,1.72,1.72,0,0,1-1.23.46,1.66,1.66,0,0,1-1.21-.46,1.56,1.56,0,0,1-.47-1.15A1.6,1.6,0,0,1,44.09,1088.16Zm7,0a1.7,1.7,0,0,1,1.21-.46,1.78,1.78,0,0,1,1.25.46,1.57,1.57,0,0,1,.48,1.18,1.51,1.51,0,0,1-.49,1.15,1.76,1.76,0,0,1-1.24.46,1.66,1.66,0,0,1-1.21-.46,1.56,1.56,0,0,1-.47-1.15A1.6,1.6,0,0,1,51.13,1088.16Z"/><path class="cls-4" d="M39.3,1067.17a9.45,9.45,0,0,1,6.26-1.85,9.41,9.41,0,0,1,6.24,1.85,7.51,7.51,0,0,1,0,10.58,9.41,9.41,0,0,1-6.24,1.84,9.45,9.45,0,0,1-6.26-1.84,7.51,7.51,0,0,1,0-10.58Zm1.77,8.2a8.24,8.24,0,0,0,4.49,1,8.23,8.23,0,0,0,4.48-1,3.66,3.66,0,0,0,0-5.83,8.32,8.32,0,0,0-4.48-1,8.33,8.33,0,0,0-4.49,1,3.69,3.69,0,0,0,0,5.83Z"/><path class="cls-4" d="M51.13,1060.28a1.7,1.7,0,0,1,1.21-.46,1.78,1.78,0,0,1,1.25.46,1.57,1.57,0,0,1,.48,1.18,1.51,1.51,0,0,1-.49,1.15,1.76,1.76,0,0,1-1.24.46,1.66,1.66,0,0,1-1.21-.46,1.56,1.56,0,0,1-.47-1.15A1.6,1.6,0,0,1,51.13,1060.28Z"/><path class="cls-4" d="M40,1048.26a7.21,7.21,0,0,0-.27,1.94,4,4,0,0,0,1.49,3.35,6.39,6.39,0,0,0,4.08,1.06,4.15,4.15,0,0,1-1.65-1.75,5.72,5.72,0,0,1-.56-2.62,5.32,5.32,0,0,1,1.45-3.91,5.22,5.22,0,0,1,3.86-1.44,5.85,5.85,0,0,1,3,.73,4.92,4.92,0,0,1,2,2.08,6.82,6.82,0,0,1,.68,3.11,6.65,6.65,0,0,1-1,3.65,6.16,6.16,0,0,1-2.8,2.36,10.5,10.5,0,0,1-4.36.82,11.22,11.22,0,0,1-4.61-.89,7,7,0,0,1-3.06-2.52,6.81,6.81,0,0,1-1.08-3.84,10.79,10.79,0,0,1,.35-2.65,9.38,9.38,0,0,1,.93-2.38l2.37,1.21A5.6,5.6,0,0,0,40,1048.26Zm6.39,5a2.74,2.74,0,0,0,2.11.88,2.64,2.64,0,0,0,1.36-.34,2.68,2.68,0,0,0,1.07-1.07,3.54,3.54,0,0,0,.41-1.79,3.25,3.25,0,0,0-.78-2.28,2.8,2.8,0,0,0-2.18-.85,2.71,2.71,0,0,0-2.07.81,3.09,3.09,0,0,0-.77,2.22A3.37,3.37,0,0,0,46.37,1053.28Z"/><path class="cls-4" d="M44,1033a5.18,5.18,0,0,1,1.79-2.2,4.62,4.62,0,0,1,2.6-.77,5.41,5.41,0,0,1,3,.81,5.23,5.23,0,0,1,2,2.27,7.82,7.82,0,0,1,.7,3.42,10.72,10.72,0,0,1-.53,3.26,11.26,11.26,0,0,1-1.43,3l-2.49-1.26a8.91,8.91,0,0,0,1.29-2.28,6.64,6.64,0,0,0,.46-2.41,3.89,3.89,0,0,0-.72-2.48,2.39,2.39,0,0,0-2-.91,2.21,2.21,0,0,0-1.88.9,4.51,4.51,0,0,0-.66,2.68c0,.56,0,1.32.06,2.25s.08,1.65.13,2.16h-9v-10.67H40v7.73h3.29v-2.21A8,8,0,0,1,44,1033Z"/></g><g id="Outer"><g id="Logo-7" data-name="Logo"><path id="BackgroundBG1-7" data-name="BackgroundBG1" class="cls-1" d="M233.61,729.37H378.09c0,79.26-65.22,144.49-144.48,144.49S89.12,808.63,89.12,729.37s65.22-144.49,144.49-144.49Z"/><circle id="BackgroundAccent-7" data-name="BackgroundAccent" class="cls-7" cx="233.61" cy="729.37" r="93.92"/><g id="Mouth-7" data-name="Mouth" class="cls-9"><path class="cls-3" d="M266.66,689.77c9.45-1.69,18.7,5.6,20.66,16.35S283.21,727,273.76,728.7s-18.66-5.6-20.66-16.32S257.21,691.53,266.66,689.77Z"/><path class="cls-3" d="M180.22,704c2.69-10.56,12.48-17.2,21.74-14.82s14.63,12.9,11.94,23.46-12.44,17.21-21.74,14.83S177.53,714.53,180.22,704Z"/><g id="Group-7" data-name="Group"><path class="cls-3" d="M241.89,750.51c-4.38,2.39-8.14,4.92-13.25,3-2.95-1.08-5.76-1.92-8.33-3.84-1.84-1.35-3.92-2.46-5.76-3.8-1-.69-1.88-1.42-2.84-2.12a5,5,0,0,0-2.84-1.34c-1.11-.11-3.3-.19-4.15.73-3.61,4,1.46,10,4.19,12.75,4.07,4,9.87,8.45,15.2,10.75s10.41,5,16,2.23c6.1-3.07,11.4-7.53,16.78-11.64,3.53-2.69,11.44-7.41,10.06-12.67-1-3.84-5.42-3-8.33-2.11-3.69,1.11-7,3-10.41,4.72C246.08,748.25,244,749.4,241.89,750.51Z"/></g></g></g><g id="Scale-4" data-name="Scale"><line class="cls-8" x1="71.32" y1="874.79" x2="72.52" y2="583.95"/><line class="cls-8" x1="91.18" y1="583.95" x2="53.86" y2="583.95"/><line class="cls-8" x1="89.78" y1="874.79" x2="52.46" y2="874.79"/></g><path class="cls-4" d="M40.32,759.67A8,8,0,0,0,39.9,762a3.39,3.39,0,0,0,.42,1.81,1.35,1.35,0,0,0,1.19.66,1.55,1.55,0,0,0,1.15-.46,3.71,3.71,0,0,0,.76-1.16,19.55,19.55,0,0,0,.65-1.91,20,20,0,0,1,1-2.76,5,5,0,0,1,1.47-1.84,4,4,0,0,1,2.56-.76,4.35,4.35,0,0,1,2.65.82,5.11,5.11,0,0,1,1.72,2.25,8.64,8.64,0,0,1,.59,3.28,10.42,10.42,0,0,1-.72,3.8A10.93,10.93,0,0,1,51.39,769l-2.7-1.33a9.63,9.63,0,0,0,1.83-2.82,7.5,7.5,0,0,0,.66-2.91,3.71,3.71,0,0,0-.51-2.09,1.68,1.68,0,0,0-2.56-.3,3.42,3.42,0,0,0-.75,1.18c-.19.47-.4,1.12-.64,1.94a22.13,22.13,0,0,1-1,2.75,4.76,4.76,0,0,1-1.43,1.83,4,4,0,0,1-2.53.75,4.18,4.18,0,0,1-2.52-.77A4.89,4.89,0,0,1,37.6,765a8.24,8.24,0,0,1-.6-3.26,11,11,0,0,1,.48-3.19,10.63,10.63,0,0,1,1.28-2.81L41.53,757A12.42,12.42,0,0,0,40.32,759.67Z"/><path class="cls-4" d="M43.78,747.3a3.23,3.23,0,0,0,1,2.5,3.81,3.81,0,0,0,2.7,1,3.89,3.89,0,0,0,2.75-1,3.22,3.22,0,0,0,1-2.5,4,4,0,0,0-1.49-3.41L51.42,742a5.71,5.71,0,0,1,1.9,2.25,7.51,7.51,0,0,1,.66,3.25,6.73,6.73,0,0,1-.81,3.33,5.59,5.59,0,0,1-2.26,2.26,7.4,7.4,0,0,1-6.75,0,5.72,5.72,0,0,1-2.27-2.28,6.78,6.78,0,0,1-.81-3.35,7.44,7.44,0,0,1,.61-3.09,5.51,5.51,0,0,1,1.72-2.22L45.18,744A4.31,4.31,0,0,0,43.78,747.3Z"/><path class="cls-4" d="M53.86,732.29H52.32A4.34,4.34,0,0,1,53.58,734a6.42,6.42,0,0,1,.42,2.4,5.09,5.09,0,0,1-.51,2.33,3.74,3.74,0,0,1-3.42,2.1,3.37,3.37,0,0,1-2.79-1.26,5.66,5.66,0,0,1-1-3.55v-3.7h-.33a2.13,2.13,0,0,0-1.73.73,3.25,3.25,0,0,0-.62,2.14A7.34,7.34,0,0,0,44.76,739l-2.14,1.11a13.77,13.77,0,0,1-1.19-2.71,9.83,9.83,0,0,1-.37-2.86,5.66,5.66,0,0,1,1.18-3.83,4.25,4.25,0,0,1,3.32-1.39l8.3,0ZM51,733.39a2.14,2.14,0,0,0-1.55-1.07H48.31v3.2a3.5,3.5,0,0,0,.37,1.81,1.31,1.31,0,0,0,1.2.58,1.55,1.55,0,0,0,1.28-.6,2.63,2.63,0,0,0,.47-1.65A4,4,0,0,0,51,733.39Z"/><path class="cls-4" d="M36.27,725.68V722.6H53.86v3.08Z"/><path class="cls-4" d="M42.81,708.79a7.12,7.12,0,0,1,4.86-1.53l.93,0v9.37A3.54,3.54,0,0,0,51.49,713a4.71,4.71,0,0,0-.37-1.86,4.44,4.44,0,0,0-1-1.55L51.8,708a6.45,6.45,0,0,1,1.61,2.31,7.74,7.74,0,0,1,.57,3,7,7,0,0,1-.81,3.43A5.6,5.6,0,0,1,50.91,719a6.9,6.9,0,0,1-3.36.8,6.74,6.74,0,0,1-3.36-.82,5.77,5.77,0,0,1-2.29-2.28,6.73,6.73,0,0,1-.82-3.35A5.78,5.78,0,0,1,42.81,708.79Zm3.72,1.29a3.06,3.06,0,0,0-2.22.92,3.24,3.24,0,0,0-.83,2.33,3.28,3.28,0,0,0,.81,2.26,3.63,3.63,0,0,0,2.24,1.13Z"/><path class="cls-4" d="M44.09,702.7a1.67,1.67,0,0,1,1.21-.47,1.75,1.75,0,0,1,1.25.47,1.53,1.53,0,0,1,.48,1.17,1.48,1.48,0,0,1-.5,1.15,1.72,1.72,0,0,1-1.23.46,1.66,1.66,0,0,1-1.21-.46,1.67,1.67,0,0,1,0-2.32Zm7,0a1.67,1.67,0,0,1,1.21-.47,1.75,1.75,0,0,1,1.25.47,1.53,1.53,0,0,1,.48,1.17,1.51,1.51,0,0,1-.49,1.15,1.76,1.76,0,0,1-1.24.46,1.66,1.66,0,0,1-1.21-.46,1.67,1.67,0,0,1,0-2.32Z"/><path class="cls-4" d="M37.26,695.36V688.7h16.6v3.17H40.06v3.49Z"/><path id="BackgroundBG1-8" data-name="BackgroundBG1" class="cls-10" d="M231.19,731.79V586.37A145.43,145.43,0,0,1,376.61,731.79Z"/></g><path class="cls-4" d="M120.24,510.43a15.41,15.41,0,0,1,6.16,5.9,16.58,16.58,0,0,1,2.23,8.58,16.35,16.35,0,0,1-2.25,8.56,15.7,15.7,0,0,1-6.24,5.9,18.76,18.76,0,0,1-9,2.14H97.53V508.32h13.8A18.53,18.53,0,0,1,120.24,510.43Zm-3.3,24.08a9.9,9.9,0,0,0,3.82-3.88,12.23,12.23,0,0,0-.05-11.38,10.08,10.08,0,0,0-3.91-3.94,11.21,11.21,0,0,0-5.57-1.4h-7.35v22h7.59A10.71,10.71,0,0,0,116.94,534.51Z"/><path class="cls-4" d="M139.49,506.28a3.7,3.7,0,0,1,1,2.65,3.63,3.63,0,0,1-1,2.61,3.56,3.56,0,0,1-5,0,3.62,3.62,0,0,1-1-2.61,3.69,3.69,0,0,1,1-2.65,3.56,3.56,0,0,1,5,0Zm-5.55,9.86h6.17v25.37h-6.17Z"/><path class="cls-4" d="M187.76,518.54a10,10,0,0,1,2.46,7.13v15.84H184v-14a5.86,5.86,0,0,0-1.49-4.24,5.39,5.39,0,0,0-4.06-1.54,6.08,6.08,0,0,0-4.67,2.13,7.73,7.73,0,0,0-1.73,5.17v12.52h-6.21v-14a5.89,5.89,0,0,0-1.47-4.24,5.29,5.29,0,0,0-4-1.54,6.14,6.14,0,0,0-4.72,2.13A7.73,7.73,0,0,0,153.9,529v12.52h-6.16V516.14h6.16v4.7q2.52-4.85,8.92-4.94a9.42,9.42,0,0,1,5.57,1.59,8.35,8.35,0,0,1,3.15,4.48q2.42-6,9.44-6.07A8.84,8.84,0,0,1,187.76,518.54Z"/><path class="cls-4" d="M216.8,519.41q3.06,3.47,3.06,9.72c0,.83,0,1.44-.05,1.85H201.08a7.07,7.07,0,0,0,7.26,5.79,9.68,9.68,0,0,0,3.72-.74,9,9,0,0,0,3.1-2.11l3.32,3.46a12.69,12.69,0,0,1-4.62,3.23,15.53,15.53,0,0,1-6.05,1.14,14.07,14.07,0,0,1-6.85-1.62,11.24,11.24,0,0,1-4.57-4.52,14.77,14.77,0,0,1,0-13.45,11.57,11.57,0,0,1,4.58-4.57,13.49,13.49,0,0,1,6.68-1.64Q213.75,516,216.8,519.41Zm-2.58,7.45a6.18,6.18,0,0,0-1.85-4.46,6.47,6.47,0,0,0-4.65-1.66,6.55,6.55,0,0,0-4.53,1.64,7.17,7.17,0,0,0-2.25,4.48Z"/><path class="cls-4" d="M247.31,518.54a9.87,9.87,0,0,1,2.51,7.13v15.84h-6.21v-14a5.66,5.66,0,0,0-1.52-4.19,5.5,5.5,0,0,0-4.12-1.54,6.24,6.24,0,0,0-4.86,2.08,7.63,7.63,0,0,0-1.78,5.22v12.47h-6.16V516.14h6.16v4.74q2.61-4.87,9.11-5A9,9,0,0,1,247.31,518.54Z"/><path class="cls-4" d="M268,521.31a12.24,12.24,0,0,0-3.63-.62,4.94,4.94,0,0,0-2.49.55,1.82,1.82,0,0,0-.92,1.68,2,2,0,0,0,1.16,1.83,19.53,19.53,0,0,0,3.67,1.35,36.36,36.36,0,0,1,4.37,1.59,8.23,8.23,0,0,1,3,2.32,6.21,6.21,0,0,1,1.26,4,6.51,6.51,0,0,1-2.85,5.69,12.15,12.15,0,0,1-7.16,2,18.11,18.11,0,0,1-5.74-.93,13.45,13.45,0,0,1-4.74-2.63l2.14-4.32a12.2,12.2,0,0,0,4.08,2.3,13.45,13.45,0,0,0,4.5.83,5.37,5.37,0,0,0,2.73-.59,1.93,1.93,0,0,0,1-1.78,2.15,2.15,0,0,0-1.19-2,21.32,21.32,0,0,0-3.84-1.47,31.45,31.45,0,0,1-4.17-1.49,7.47,7.47,0,0,1-2.8-2.23,6.12,6.12,0,0,1-1.19-3.91,6.62,6.62,0,0,1,2.73-5.72,11.42,11.42,0,0,1,6.85-2,17.44,17.44,0,0,1,5,.71,15.36,15.36,0,0,1,4.33,2L271.78,523A18.27,18.27,0,0,0,268,521.31Z"/><path class="cls-4" d="M285.15,506.28a3.69,3.69,0,0,1,1,2.65,3.62,3.62,0,0,1-1,2.61,3.56,3.56,0,0,1-5,0,3.62,3.62,0,0,1-1-2.61,3.69,3.69,0,0,1,1-2.65,3.56,3.56,0,0,1,5,0Zm-5.55,9.86h6.16v25.37H279.6Z"/><path class="cls-4" d="M311.44,517.56a11.69,11.69,0,0,1,4.69,4.53,13.22,13.22,0,0,1,1.69,6.71,13.43,13.43,0,0,1-1.69,6.78,11.55,11.55,0,0,1-4.69,4.55,14.44,14.44,0,0,1-6.95,1.62,14.72,14.72,0,0,1-7-1.62,11.53,11.53,0,0,1-4.71-4.55,13.33,13.33,0,0,1-1.69-6.78,13.12,13.12,0,0,1,1.69-6.71,11.68,11.68,0,0,1,4.71-4.53,14.84,14.84,0,0,1,7-1.61A14.55,14.55,0,0,1,311.44,517.56Zm-12.16,5.79a8.72,8.72,0,0,0,0,11.09,6.76,6.76,0,0,0,5.21,2.14,6.65,6.65,0,0,0,5.12-2.14,8.72,8.72,0,0,0,0-11.09,6.69,6.69,0,0,0-5.12-2.14A6.79,6.79,0,0,0,299.28,523.35Z"/><path class="cls-4" d="M345.32,518.54a9.91,9.91,0,0,1,2.51,7.13v15.84h-6.21v-14a5.7,5.7,0,0,0-1.52-4.19,5.51,5.51,0,0,0-4.12-1.54,6.22,6.22,0,0,0-4.86,2.08,7.63,7.63,0,0,0-1.78,5.22v12.47h-6.17V516.14h6.17v4.74q2.61-4.87,9.1-5A9.06,9.06,0,0,1,345.32,518.54Z"/><path class="cls-4" d="M366,521.31a12.34,12.34,0,0,0-3.63-.62,4.91,4.91,0,0,0-2.49.55,1.81,1.81,0,0,0-.93,1.68,2,2,0,0,0,1.17,1.83,19.53,19.53,0,0,0,3.67,1.35,35.5,35.5,0,0,1,4.36,1.59,8.18,8.18,0,0,1,3,2.32,6.26,6.26,0,0,1,1.25,4,6.53,6.53,0,0,1-2.84,5.69,12.2,12.2,0,0,1-7.16,2,18.11,18.11,0,0,1-5.74-.93,13.45,13.45,0,0,1-4.74-2.63l2.13-4.32a12.3,12.3,0,0,0,4.08,2.3,13.46,13.46,0,0,0,4.51.83,5.35,5.35,0,0,0,2.72-.59,1.93,1.93,0,0,0,1-1.78,2.14,2.14,0,0,0-1.18-2,21.18,21.18,0,0,0-3.85-1.47,32.53,32.53,0,0,1-4.17-1.49,7.52,7.52,0,0,1-2.79-2.23,6.06,6.06,0,0,1-1.19-3.91,6.62,6.62,0,0,1,2.73-5.72,11.4,11.4,0,0,1,6.85-2,17.43,17.43,0,0,1,4.95.71,15.29,15.29,0,0,1,4.34,2L369.78,523A18,18,0,0,0,366,521.31Z"/></g><g id="Colors"><g id="Logo-8" data-name="Logo"><path id="BackgroundBG1-9" data-name="BackgroundBG1" class="cls-1" d="M233.61,249H378.09c0,79.26-65.22,144.49-144.48,144.49S89.12,328.26,89.12,249s65.22-144.49,144.49-144.49Z"/><circle id="BackgroundAccent-8" data-name="BackgroundAccent" class="cls-2" cx="233.61" cy="249" r="93.92"/><g id="Mouth-8" data-name="Mouth"><path class="cls-3" d="M266.66,209.39c9.45-1.69,18.7,5.61,20.66,16.36s-4.11,20.85-13.56,22.58S255.1,242.73,253.1,232,257.21,211.16,266.66,209.39Z"/><path class="cls-3" d="M180.22,223.6C182.91,213,192.7,206.4,202,208.78s14.63,12.9,11.94,23.46-12.44,17.21-21.74,14.82S177.53,234.16,180.22,223.6Z"/><g id="Group-8" data-name="Group"><path class="cls-3" d="M241.89,270.14c-4.38,2.38-8.14,4.92-13.25,3-2.95-1.08-5.76-1.92-8.33-3.84-1.84-1.35-3.92-2.46-5.76-3.81-1-.69-1.88-1.42-2.84-2.11a5,5,0,0,0-2.84-1.34c-1.11-.12-3.3-.19-4.15.73-3.61,4,1.46,10,4.19,12.75,4.07,3.95,9.87,8.44,15.2,10.75s10.41,5,16,2.23c6.1-3.08,11.4-7.53,16.78-11.64,3.53-2.69,11.44-7.41,10.06-12.67-1-3.84-5.42-3-8.33-2.11-3.69,1.11-7,3-10.41,4.72C246.08,267.88,244,269,241.89,270.14Z"/></g></g></g><g id="Explanations"><path class="cls-3" d="M367.8,102h-3.32l-.47,3.89h3.25l-.24,2.32h-3.3l-.49,4H361l.5-4h-4l-.5,4h-2.27l.49-4h-3.27l.24-2.32h3.32L356,102h-3.25l.22-2.3h3.32l.52-4.13H359l-.5,4.13h4l.52-4.13h2.26l-.5,4.13H368Zm-6.07,3.89.48-3.89h-4l-.48,3.89Z"/><path class="cls-3" d="M368.66,95.54h6.66v16.6h-3.18V98.34h-3.48Z"/><path class="cls-3" d="M388.2,98.26a7.08,7.08,0,0,0-1.93-.27,3.92,3.92,0,0,0-3.35,1.49,6.32,6.32,0,0,0-1.06,4.08,4.19,4.19,0,0,1,1.74-1.65,5.78,5.78,0,0,1,2.62-.56,5.24,5.24,0,0,1,3.91,1.45,5.19,5.19,0,0,1,1.45,3.86,5.85,5.85,0,0,1-.73,3,4.9,4.9,0,0,1-2.08,2,7.37,7.37,0,0,1-6.77-.28,6.28,6.28,0,0,1-2.36-2.8,10.67,10.67,0,0,1-.81-4.36,11.06,11.06,0,0,1,.89-4.61,7,7,0,0,1,2.52-3.06,6.81,6.81,0,0,1,3.84-1.08,10.71,10.71,0,0,1,2.64.35,9.09,9.09,0,0,1,2.39.93l-1.21,2.37A5.66,5.66,0,0,0,388.2,98.26Zm-5,6.39a3,3,0,0,0-.55,3.47,2.78,2.78,0,0,0,1.08,1.07,3.62,3.62,0,0,0,1.79.41,3.25,3.25,0,0,0,2.28-.78,2.8,2.8,0,0,0,.85-2.18,2.68,2.68,0,0,0-.82-2.07,3.06,3.06,0,0,0-2.21-.78A3.38,3.38,0,0,0,383.19,104.65Z"/><path class="cls-3" d="M392.72,95.54h6.66v16.6H396.2V98.34h-3.48Z"/><path class="cls-3" d="M412.27,98.26a7.15,7.15,0,0,0-1.94-.27A3.92,3.92,0,0,0,407,99.48a6.38,6.38,0,0,0-1.06,4.08,4.15,4.15,0,0,1,1.75-1.65,5.72,5.72,0,0,1,2.62-.56,5.28,5.28,0,0,1,3.91,1.45,5.22,5.22,0,0,1,1.44,3.86,5.85,5.85,0,0,1-.73,3,4.9,4.9,0,0,1-2.08,2,7.35,7.35,0,0,1-6.76-.28,6.16,6.16,0,0,1-2.36-2.8,10.5,10.5,0,0,1-.82-4.36,11.22,11.22,0,0,1,.89-4.61,7,7,0,0,1,2.52-3.06,6.81,6.81,0,0,1,3.84-1.08,10.79,10.79,0,0,1,2.65.35,9,9,0,0,1,2.38.93L414,99.05A5.6,5.6,0,0,0,412.27,98.26Zm-5,6.39a2.74,2.74,0,0,0-.88,2.11,2.64,2.64,0,0,0,.34,1.36,2.68,2.68,0,0,0,1.07,1.07,3.64,3.64,0,0,0,1.79.41,3.25,3.25,0,0,0,2.28-.78,2.8,2.8,0,0,0,.85-2.18,2.71,2.71,0,0,0-.81-2.07,3.1,3.1,0,0,0-2.22-.78A3.38,3.38,0,0,0,407.25,104.65Z"/><path class="cls-3" d="M416.78,95.54h6.66v16.6h-3.17V98.34h-3.49Z"/><path class="cls-3" d="M436.33,98.26A7.13,7.13,0,0,0,434.4,98,3.93,3.93,0,0,0,431,99.48a6.32,6.32,0,0,0-1.05,4.08,4.07,4.07,0,0,1,1.74-1.65,5.75,5.75,0,0,1,2.62-.56,5,5,0,0,1,5.36,5.31,5.86,5.86,0,0,1-.74,3,4.93,4.93,0,0,1-2.07,2,7.37,7.37,0,0,1-6.77-.28,6.22,6.22,0,0,1-2.36-2.8,10.5,10.5,0,0,1-.82-4.36,11.22,11.22,0,0,1,.89-4.61,7,7,0,0,1,2.53-3.06,6.81,6.81,0,0,1,3.84-1.08,10.77,10.77,0,0,1,2.64.35,9,9,0,0,1,2.38.93L438,99.05A5.6,5.6,0,0,0,436.33,98.26Zm-5,6.39a2.69,2.69,0,0,0-.87,2.11,2.54,2.54,0,0,0,.33,1.36,2.78,2.78,0,0,0,1.08,1.07,3.62,3.62,0,0,0,1.79.41,3.23,3.23,0,0,0,2.27-.78,2.81,2.81,0,0,0,.86-2.18,2.68,2.68,0,0,0-.82-2.07,3.08,3.08,0,0,0-2.22-.78A3.39,3.39,0,0,0,431.31,104.65Z"/><line class="cls-8" x1="242.92" y1="137.03" x2="367.73" y2="120.73"/><line class="cls-8" x1="287.69" y1="208.3" x2="367.73" y2="120.73"/><line class="cls-11" x1="112.63" y1="412.27" x2="181.76" y2="334.9"/><path class="cls-2" d="M68.89,433.49H65.57l-.47,3.89h3.24l-.23,2.33h-3.3l-.5,4H62l.5-4h-4l-.5,4H55.8l.5-4H53l.23-2.33h3.32l.48-3.89H53.81l.21-2.3h3.32l.52-4.12h2.26l-.5,4.12h4l.52-4.12h2.25l-.5,4.12h3.28Zm-6.07,3.89.47-3.89h-4l-.47,3.89Z"/><path class="cls-2" d="M83.11,428.12a7.77,7.77,0,0,1,3.08,3,8.72,8.72,0,0,1,0,8.57,8,8,0,0,1-3.11,3,9.47,9.47,0,0,1-4.53,1.06H71.76V427.07h6.9A9.28,9.28,0,0,1,83.11,428.12Zm-1.65,12.05a4.91,4.91,0,0,0,1.91-1.95,5.73,5.73,0,0,0,.69-2.83,5.8,5.8,0,0,0-.71-2.86,5,5,0,0,0-2-2,5.52,5.52,0,0,0-2.78-.7H74.93v11h3.8A5.44,5.44,0,0,0,81.46,440.17Z"/><path class="cls-2" d="M99.6,428.1a3.82,3.82,0,0,1,1.51,3.19,3.64,3.64,0,0,1-.62,2.06,4.13,4.13,0,0,1-1.71,1.45,4.9,4.9,0,0,1,2.31,1.66,4.07,4.07,0,0,1,.85,2.56,4.16,4.16,0,0,1-.79,2.53,4.86,4.86,0,0,1-2.24,1.68,10.26,10.26,0,0,1-6.8,0,5,5,0,0,1-2.24-1.65,4.37,4.37,0,0,1,.09-5.11,5.15,5.15,0,0,1,2.42-1.67,4.61,4.61,0,0,1-1.81-1.52,3.61,3.61,0,0,1-.65-2.11,3.68,3.68,0,0,1,1.5-3.09,7.79,7.79,0,0,1,8.18,0ZM93,436.84a2.16,2.16,0,0,0-.91,1.87,2.26,2.26,0,0,0,.91,1.92,4.07,4.07,0,0,0,2.53.69,4.18,4.18,0,0,0,2.53-.68,2.23,2.23,0,0,0,.91-1.91,2.2,2.2,0,0,0-.91-1.88,4.22,4.22,0,0,0-2.55-.68A4.09,4.09,0,0,0,93,436.84Zm.39-7a2,2,0,0,0-.77,1.66,1.94,1.94,0,0,0,.77,1.66,4.12,4.12,0,0,0,4.28,0,2,2,0,0,0,.75-1.66,2,2,0,0,0-.75-1.66,4.18,4.18,0,0,0-4.28,0Z"/><path class="cls-2" d="M103.05,427.07h6.66v16.59h-3.17V429.87h-3.49Z"/><path class="cls-2" d="M125.68,428.18a3.57,3.57,0,0,1,1.53,3,3.62,3.62,0,0,1-2.89,3.67,4.3,4.3,0,0,1,2.59,1.42,4.16,4.16,0,0,1,.94,2.78,3.94,3.94,0,0,1-1.65,3.35,7.34,7.34,0,0,1-4.49,1.22h-7.59V427.07h7.38A7,7,0,0,1,125.68,428.18Zm-2.42,5.12a1.8,1.8,0,0,0,.7-1.51,1.7,1.7,0,0,0-.7-1.47,3,3,0,0,0-1.93-.5h-4v4h4A3,3,0,0,0,123.26,433.3Zm.44,7a1.88,1.88,0,0,0,.85-1.65,1.85,1.85,0,0,0-.85-1.61,4.08,4.08,0,0,0-2.37-.55h-4v4.38h4A3.93,3.93,0,0,0,123.7,440.34Z"/><path class="cls-2" d="M139.41,429.78a7.15,7.15,0,0,0-1.94-.27,4,4,0,0,0-3.35,1.49,6.33,6.33,0,0,0-1.05,4.08,4.19,4.19,0,0,1,1.74-1.65,5.75,5.75,0,0,1,2.62-.55,5,5,0,0,1,5.36,5.31,5.79,5.79,0,0,1-.74,3,5,5,0,0,1-2.07,2,6.76,6.76,0,0,1-3.12.69,6.66,6.66,0,0,1-3.65-1,6.13,6.13,0,0,1-2.36-2.79,10.55,10.55,0,0,1-.82-4.37,11.22,11.22,0,0,1,.89-4.61,6.62,6.62,0,0,1,6.37-4.13,10.75,10.75,0,0,1,2.64.34,9,9,0,0,1,2.38.94l-1.21,2.37A5.39,5.39,0,0,0,139.41,429.78Zm-5,6.39a2.71,2.71,0,0,0-.87,2.11,2.57,2.57,0,0,0,.33,1.37,2.69,2.69,0,0,0,1.08,1.06,3.49,3.49,0,0,0,1.79.42,3.2,3.2,0,0,0,2.27-.79,2.8,2.8,0,0,0,.86-2.18,2.72,2.72,0,0,0-.82-2.07,3.14,3.14,0,0,0-2.22-.77A3.37,3.37,0,0,0,134.39,436.17Z"/><path class="cls-2" d="M157.58,429.11a11.47,11.47,0,0,1,0,12.49,7.51,7.51,0,0,1-10.58,0,11.52,11.52,0,0,1,0-12.49,7.51,7.51,0,0,1,10.58,0Zm-8.2,1.76a11.09,11.09,0,0,0,0,9,3.67,3.67,0,0,0,5.83,0,11.09,11.09,0,0,0,0-9,3.69,3.69,0,0,0-5.83,0Z"/></g><path class="cls-4" d="M183.49,29.87a11.26,11.26,0,0,0-10.5.33,10.66,10.66,0,0,0-4,4.05,11.67,11.67,0,0,0,0,11.34,10.79,10.79,0,0,0,4,4.07,10.94,10.94,0,0,0,5.64,1.5,11.82,11.82,0,0,0,4.77-1,13.65,13.65,0,0,0,4.24-2.89l3.74,4.17a19.43,19.43,0,0,1-6.06,4.2,17.08,17.08,0,0,1-7,1.54,17.4,17.4,0,0,1-8.77-2.27,16.61,16.61,0,0,1-6.26-6.19A16.88,16.88,0,0,1,161,40a16.61,16.61,0,0,1,8.65-14.74,18.38,18.38,0,0,1,15.86-.81,17.06,17.06,0,0,1,5.84,3.94L187.64,33A12.59,12.59,0,0,0,183.49,29.87Z"/><path class="cls-4" d="M213.74,32.71a11.78,11.78,0,0,1,4.7,4.53A13.19,13.19,0,0,1,220.12,44a13.42,13.42,0,0,1-1.68,6.78,11.63,11.63,0,0,1-4.7,4.55,14.44,14.44,0,0,1-7,1.61,14.65,14.65,0,0,1-7-1.61,11.5,11.5,0,0,1-4.72-4.55A13.42,13.42,0,0,1,193.38,44a13.19,13.19,0,0,1,1.68-6.71,11.64,11.64,0,0,1,4.72-4.53,14.77,14.77,0,0,1,7-1.61A14.55,14.55,0,0,1,213.74,32.71ZM201.58,38.5a7.78,7.78,0,0,0-2,5.54,7.79,7.79,0,0,0,2,5.55,6.82,6.82,0,0,0,5.21,2.14,6.72,6.72,0,0,0,5.13-2.14,7.83,7.83,0,0,0,2-5.55,7.82,7.82,0,0,0-2-5.54,6.69,6.69,0,0,0-5.13-2.14A6.79,6.79,0,0,0,201.58,38.5Z"/><path class="cls-4" d="M225.71,21.47h6.17V56.66h-6.17Z"/><path class="cls-4" d="M257.84,32.71a11.75,11.75,0,0,1,4.69,4.53A13.19,13.19,0,0,1,264.21,44a13.42,13.42,0,0,1-1.68,6.78,11.61,11.61,0,0,1-4.69,4.55,14.46,14.46,0,0,1-6.95,1.61,14.72,14.72,0,0,1-7-1.61,11.53,11.53,0,0,1-4.71-4.55A13.33,13.33,0,0,1,237.47,44a13.09,13.09,0,0,1,1.69-6.71,11.68,11.68,0,0,1,4.71-4.53,14.84,14.84,0,0,1,7-1.61A14.58,14.58,0,0,1,257.84,32.71ZM245.67,38.5a7.82,7.82,0,0,0-2,5.54,7.83,7.83,0,0,0,2,5.55,6.83,6.83,0,0,0,5.22,2.14A6.7,6.7,0,0,0,256,49.59,7.79,7.79,0,0,0,258,44a7.78,7.78,0,0,0-2-5.54,6.67,6.67,0,0,0-5.12-2.14A6.79,6.79,0,0,0,245.67,38.5Z"/><path class="cls-4" d="M279.22,32.4a10.35,10.35,0,0,1,5.15-1.35v6a8.4,8.4,0,0,0-6.29,1.82,7.05,7.05,0,0,0-2.34,5.57V56.66h-6.17V31.29h6.17v4.88A9.15,9.15,0,0,1,279.22,32.4Z"/><path class="cls-4" d="M299.89,36.46a12.23,12.23,0,0,0-3.62-.62,4.79,4.79,0,0,0-2.49.55,1.81,1.81,0,0,0-.93,1.68A2,2,0,0,0,294,39.9a19.69,19.69,0,0,0,3.68,1.35,34.49,34.49,0,0,1,4.36,1.59,8.18,8.18,0,0,1,3,2.32,6.26,6.26,0,0,1,1.25,4.05,6.53,6.53,0,0,1-2.84,5.69,12.19,12.19,0,0,1-7.16,2,18.05,18.05,0,0,1-5.74-.92,13.43,13.43,0,0,1-4.74-2.63L287.92,49a12.48,12.48,0,0,0,4.08,2.3,13.45,13.45,0,0,0,4.5.83,5.37,5.37,0,0,0,2.73-.59,1.93,1.93,0,0,0,1-1.78,2.15,2.15,0,0,0-1.19-2,21.32,21.32,0,0,0-3.84-1.47,32.53,32.53,0,0,1-4.17-1.49,7.66,7.66,0,0,1-2.8-2.23,6.11,6.11,0,0,1-1.18-3.91A6.64,6.64,0,0,1,289.79,33a11.45,11.45,0,0,1,6.86-2,17.44,17.44,0,0,1,5,.72,15.14,15.14,0,0,1,4.34,2l-2.23,4.46A17.82,17.82,0,0,0,299.89,36.46Z"/></g></g><rect id="Background" class="cls-12" width="1133.86" height="1688.39"/></svg>