<?xml version="1.0" encoding="utf-8"?>
<!-- Generator: Adobe Illustrator 24.0.0, SVG Export Plug-In . SVG Version: 6.00 Build 0)  -->
<svg version="1.1" id="Layer_1" xmlns="http://www.w3.org/2000/svg" xmlns:xlink="http://www.w3.org/1999/xlink" x="0px" y="0px"
	 viewBox="0 0 1133.9 1688.4" style="enable-background:new 0 0 1133.9 1688.4;" xml:space="preserve">
<style type="text/css">
	.st0{fill:#161616;}
	.st1{fill:#D81B60;}
	.st2{fill:#231F20;}
	.st3{fill:none;stroke:#171717;stroke-width:5;stroke-miterlimit:10;}
	.st4{opacity:0.1;fill:#161616;}
	.st5{opacity:0.1;fill:#D81B60;}
	.st6{fill:none;stroke:#171717;stroke-width:6;stroke-linecap:round;stroke-miterlimit:10;}
	.st7{opacity:0.1;}
	.st8{fill:none;stroke:#171717;stroke-width:4;stroke-miterlimit:10;stroke-dasharray:17;}
	.st9{fill:#171717;}
	.st10{fill:none;stroke:#D81B61;stroke-width:6;stroke-linecap:round;stroke-miterlimit:10;}
	.st11{fill:#D81B61;}
	.st12{fill:none;}
</style>
<title>Customa-Design Spreadsheet</title>
<g id="Right">
	<g id="Other_Usecases">
		<g id="Usecase_2">
			<g id="Logo_Loading">
				<path class="st0" d="M932.2,1485.7c13.4-3.1,27.4-2.1,40.3,2.7c12.9,4.9,24,13.5,32,24.7c8,11.2,12.5,24.5,12.9,38.3
					c0.4,13.8-3.3,27.3-10.5,39s-17.9,20.9-30.4,26.6c-12.6,5.7-26.5,7.5-40.1,5.2c-13.6-2.3-26.2-8.5-36.2-18
					c-10-9.4-17-21.6-20.1-35l67.8-15.7L932.2,1485.7z"/>
				<ellipse class="st1" cx="948.7" cy="1553.5" rx="45.2" ry="45.2"/>
				<g>
					<path class="st0" d="M940.4,1545.3c0,5.1-3.7,9.2-8.4,9.2c-4.6,0-8.4-4.1-8.4-9.2s3.7-9.2,8.4-9.2
						C936.6,1536,940.4,1540.2,940.4,1545.3z"/>
					<path class="st0" d="M973.8,1545.3c0,5.1-3.7,9.2-8.4,9.2s-8.4-4.1-8.4-9.2s3.7-9.2,8.4-9.2S973.8,1540.2,973.8,1545.3z"/>
					<path class="st0" d="M965,1562.6c1.8,1,2.4,3.3,1.1,4.9c-2.8,3.3-6.6,5.7-10.8,6.8c-4.3,1.1-8.7,0.9-12.8-0.5
						c-1.9-0.7-2.6-3-1.5-4.8l0,0c1-1.8,3.3-2.3,5.3-1.8c2.3,0.6,4.8,0.6,7.1,0c2.3-0.6,4.5-1.8,6.2-3.5
						C960.9,1562.2,963.2,1561.6,965,1562.6L965,1562.6z"/>
				</g>
			</g>
			<g id="Loading_Icon_1_">
				<g id="Explanation">
					<path class="st2" d="M589,1568.6c-0.7,2.7-0.7,5.6,0,8.3c0.3,1.3,0.9,2.5,1.6,3.6h-2.1c-0.7-1.1-1.3-2.3-1.6-3.5
						c-0.7-2.7-0.7-5.6,0-8.4c0.3-1.3,0.9-2.4,1.6-3.5h2.1C589.9,1566.1,589.3,1567.3,589,1568.6z"/>
					<path class="st2" d="M590.8,1568.7h2.4l2.3,7.2l2.3-7.2h2.3l2.3,7.2l2.3-7.2h2.3l-3.5,9.5h-2.4l-2.3-6.7l-2.3,6.7h-2.4
						L590.8,1568.7z"/>
					<path class="st2" d="M610.4,1565c0.5,0.6,0.5,1.4,0,2c-0.2,0.3-0.6,0.4-1,0.4c-0.4,0-0.7-0.1-0.9-0.4c-0.5-0.6-0.5-1.4,0-2
						c0.2-0.3,0.6-0.4,0.9-0.4C609.8,1564.6,610.2,1564.7,610.4,1565z M608.3,1568.7h2.3v9.5h-2.3V1568.7z"/>
					<path class="st2" d="M619.1,1577.6c-0.7,0.4-1.5,0.7-2.4,0.7c-0.7,0-1.5-0.2-2-0.7c-0.6-0.6-0.8-1.3-0.8-2.1v-4.7h-1.3v-1.7
						h1.3v-2.6h2.3v2.6h2.7v1.7h-2.7v4.3c0,0.3,0.1,0.7,0.3,0.9c0.2,0.2,0.5,0.3,0.8,0.3c0.5,0,0.9-0.2,1.3-0.4L619.1,1577.6z"/>
					<path class="st2" d="M629.3,1569.6c0.7,0.7,1,1.7,0.9,2.7v5.9h-2.3v-5.3c0-0.6-0.2-1.1-0.6-1.6c-0.4-0.4-1-0.6-1.5-0.6
						c-0.7,0-1.4,0.3-1.8,0.8c-0.5,0.6-0.7,1.3-0.7,2v4.7H621V1565h2.3v5.5c0.7-1.3,2-2,3.4-1.9
						C627.7,1568.5,628.6,1568.9,629.3,1569.6z"/>
					<path class="st2" d="M640.8,1569.1c0.6-0.3,1.3-0.5,1.9-0.5v2.2c-0.8-0.1-1.7,0.2-2.3,0.7c-0.6,0.5-0.9,1.3-0.9,2.1v4.6h-2.3
						v-9.5h2.3v1.8C639.8,1569.9,640.3,1569.4,640.8,1569.1z"/>
					<path class="st2" d="M651.1,1569.2c0.7,0.4,1.4,1,1.8,1.7c0.4,0.8,0.7,1.6,0.6,2.5c0,0.9-0.2,1.8-0.6,2.5
						c-0.4,0.7-1,1.3-1.8,1.7c-0.8,0.4-1.7,0.6-2.6,0.6c-0.9,0-1.8-0.2-2.6-0.6c-0.7-0.4-1.4-1-1.8-1.7c-0.4-0.8-0.6-1.7-0.6-2.5
						c0-0.9,0.2-1.7,0.6-2.5c0.4-0.7,1-1.3,1.8-1.7c0.8-0.4,1.7-0.6,2.6-0.6C649.4,1568.6,650.3,1568.8,651.1,1569.2z M646.6,1571.4
						c-0.5,0.6-0.8,1.3-0.7,2.1c0,0.8,0.2,1.5,0.7,2.1c0.5,0.5,1.2,0.8,2,0.8c0.7,0,1.4-0.3,1.9-0.8c0.5-0.6,0.8-1.3,0.8-2.1
						c0-0.8-0.2-1.5-0.8-2.1c-0.5-0.5-1.2-0.8-1.9-0.8C647.8,1570.5,647.1,1570.8,646.6,1571.4z"/>
					<path class="st2" d="M661.1,1577.6c-0.7,0.4-1.5,0.7-2.4,0.7c-0.7,0-1.5-0.2-2-0.7c-0.6-0.6-0.8-1.3-0.8-2.1v-4.7h-1.3v-1.7
						h1.3v-2.6h2.3v2.6h2.7v1.7h-2.7v4.3c0,0.3,0.1,0.7,0.3,0.9c0.2,0.2,0.5,0.3,0.8,0.3c0.5,0,0.9-0.2,1.3-0.4L661.1,1577.6z"/>
					<path class="st2" d="M668.5,1578.2v-1.2c-0.3,0.4-0.8,0.7-1.3,0.9c-0.6,0.2-1.2,0.3-1.8,0.3c-0.6,0-1.2-0.1-1.8-0.4
						c-0.5-0.2-0.9-0.6-1.2-1.1c-0.3-0.5-0.4-1-0.4-1.5c0-0.8,0.3-1.6,0.9-2.1c0.8-0.5,1.7-0.8,2.7-0.8h2.8v-0.3
						c0-0.5-0.2-1-0.5-1.3c-0.5-0.3-1-0.5-1.6-0.5c-1,0-2,0.3-2.8,0.9l-0.8-1.6c0.6-0.4,1.3-0.7,2-0.9c0.7-0.2,1.4-0.3,2.1-0.3
						c1-0.1,2.1,0.3,2.9,0.9c0.7,0.6,1,1.6,1,2.5v6.2L668.5,1578.2z M667.7,1576c0.4-0.2,0.7-0.7,0.8-1.2v-0.9h-2.4
						c-0.5,0-0.9,0.1-1.4,0.3c-0.3,0.2-0.5,0.5-0.4,0.9c0,0.4,0.1,0.8,0.5,1c0.4,0.3,0.8,0.4,1.2,0.3
						C666.6,1576.5,667.2,1576.4,667.7,1576L667.7,1576z"/>
					<path class="st2" d="M679,1577.6c-0.7,0.4-1.5,0.7-2.4,0.7c-0.7,0-1.5-0.2-2-0.7c-0.6-0.6-0.8-1.3-0.8-2.1v-4.7h-1.3v-1.7h1.3
						v-2.6h2.3v2.6h2.7v1.7h-2.7v4.3c0,0.3,0.1,0.7,0.3,0.9c0.2,0.2,0.5,0.3,0.8,0.3c0.5,0,0.9-0.2,1.3-0.4L679,1577.6z"/>
					<path class="st2" d="M682.9,1565c0.5,0.6,0.5,1.4,0,2c-0.2,0.3-0.6,0.4-0.9,0.4c-0.4,0-0.7-0.1-0.9-0.4c-0.5-0.6-0.5-1.4,0-2
						c0.2-0.3,0.6-0.4,0.9-0.4C682.3,1564.6,682.6,1564.7,682.9,1565z M680.8,1568.7h2.3v9.5h-2.3V1568.7z"/>
					<path class="st2" d="M694.3,1569.6c0.7,0.7,1,1.7,0.9,2.7v5.9h-2.3v-5.3c0-0.6-0.2-1.1-0.6-1.6c-0.4-0.4-1-0.6-1.5-0.6
						c-0.7,0-1.4,0.3-1.8,0.8c-0.5,0.6-0.7,1.3-0.7,2v4.7H686v-9.5h2.3v1.8c0.7-1.2,2-2,3.4-1.9
						C692.7,1568.6,693.6,1568.9,694.3,1569.6z"/>
					<path class="st2" d="M706.5,1568.7v8.6c0,0.8-0.2,1.6-0.6,2.4c-0.4,0.7-1,1.2-1.7,1.5c-0.8,0.4-1.7,0.6-2.6,0.5
						c-1.4,0-2.8-0.4-4-1.3l0.9-1.7c0.9,0.7,1.9,1,3,1c0.7,0,1.4-0.2,2-0.7c0.5-0.5,0.8-1.1,0.8-1.8v-1.1c-0.3,0.5-0.7,0.9-1.2,1.1
						c-0.6,0.3-1.2,0.4-1.8,0.4c-0.8,0-1.5-0.2-2.2-0.6c-0.6-0.4-1.2-0.9-1.5-1.6c-0.4-0.7-0.5-1.6-0.5-2.4c0-0.8,0.2-1.6,0.5-2.4
						c0.3-0.7,0.9-1.2,1.5-1.6c0.7-0.4,1.4-0.6,2.2-0.6c0.6,0,1.2,0.1,1.8,0.4c0.5,0.3,0.9,0.6,1.3,1.1v-1.4H706.5z M703.5,1575.2
						c0.9-1.1,0.9-2.8,0-3.9c-1-1-2.6-1-3.6,0c0,0,0,0,0,0c-1,1.1-1,2.8,0,3.9C700.9,1576.1,702.5,1576.1,703.5,1575.2L703.5,1575.2
						z"/>
					<path class="st2" d="M720.3,1569.2c0.7,0.4,1.3,1,1.8,1.7c0.4,0.8,0.6,1.6,0.6,2.5c0,0.9-0.2,1.8-0.6,2.5
						c-0.4,0.7-1,1.3-1.8,1.7c-0.8,0.4-1.7,0.6-2.6,0.6c-0.9,0-1.8-0.2-2.6-0.6c-0.7-0.4-1.4-1-1.8-1.7c-0.4-0.8-0.6-1.7-0.6-2.5
						c0-0.9,0.2-1.7,0.6-2.5c0.4-0.7,1-1.3,1.8-1.7c0.8-0.4,1.7-0.6,2.6-0.6C718.6,1568.6,719.5,1568.8,720.3,1569.2z M715.8,1571.4
						c-0.5,0.6-0.8,1.3-0.8,2.1c0,0.8,0.2,1.5,0.8,2.1c1.1,1.1,2.8,1.1,3.9,0c0.5-0.6,0.8-1.3,0.8-2.1c0-0.8-0.2-1.5-0.8-2.1
						C718.6,1570.3,716.8,1570.3,715.8,1571.4z"/>
					<path class="st2" d="M733.5,1568.7v9.5h-2.3v-1.8c-0.6,1.2-1.9,2-3.3,1.8c-0.9,0-1.9-0.3-2.5-1c-0.7-0.7-1-1.7-0.9-2.7v-6h2.3
						v5.4c0,0.6,0.2,1.1,0.5,1.6c0.4,0.4,0.9,0.6,1.5,0.6c0.7,0,1.3-0.3,1.7-0.8c0.4-0.5,0.7-1.2,0.6-1.9v-4.7L733.5,1568.7z"/>
					<path class="st2" d="M742,1577.6c-0.7,0.4-1.5,0.7-2.4,0.7c-0.7,0-1.5-0.2-2-0.7c-0.6-0.6-0.8-1.3-0.8-2.1v-4.7h-1.3v-1.7h1.3
						v-2.6h2.3v2.6h2.7v1.7h-2.7v4.3c0,0.3,0.1,0.7,0.3,0.9c0.2,0.2,0.5,0.3,0.7,0.3c0.5,0,0.9-0.2,1.3-0.4L742,1577.6z"/>
					<path class="st2" d="M751.1,1569.9c0.8,1,1.2,2.3,1.2,3.7c0,0.3,0,0.5,0,0.7h-7c0.1,0.6,0.5,1.2,1,1.6c0.5,0.4,1.1,0.6,1.8,0.6
						c0.5,0,1-0.1,1.4-0.3c0.4-0.2,0.8-0.4,1.2-0.8l1.2,1.3c-0.5,0.5-1.1,0.9-1.7,1.2c-0.7,0.3-1.5,0.4-2.3,0.4
						c-0.9,0-1.8-0.2-2.6-0.6c-0.7-0.4-1.3-1-1.7-1.7c-0.8-1.6-0.8-3.4,0-5c0.4-0.7,1-1.3,1.7-1.7c0.8-0.4,1.6-0.6,2.5-0.6
						C749,1568.6,750.2,1569,751.1,1569.9z M750.1,1572.7c0-0.6-0.2-1.2-0.7-1.7c-0.5-0.4-1.1-0.6-1.8-0.6c-0.6,0-1.2,0.2-1.7,0.6
						c-0.5,0.4-0.8,1-0.8,1.7H750.1z"/>
					<path class="st2" d="M757.8,1569.1c0.6-0.3,1.3-0.5,1.9-0.5v2.2c-0.8-0.1-1.7,0.2-2.4,0.7c-0.6,0.5-0.9,1.3-0.9,2.1v4.6h-2.3
						v-9.5h2.3v1.8C756.8,1569.9,757.3,1569.4,757.8,1569.1z"/>
					<path class="st2" d="M769.8,1570.6c-0.7,0-1.4,0.3-1.9,0.8c-0.5,0.6-0.7,1.3-0.7,2c0,0.8,0.2,1.5,0.7,2.1
						c0.5,0.5,1.2,0.8,1.9,0.8c1,0.1,1.9-0.3,2.6-1.1l1.4,1.2c-0.4,0.6-1,1.1-1.7,1.4c-0.8,0.3-1.6,0.5-2.4,0.5
						c-0.9,0-1.7-0.2-2.5-0.6c-0.7-0.4-1.3-1-1.7-1.7c-0.4-0.8-0.6-1.6-0.6-2.5c0-0.9,0.2-1.8,0.6-2.6c0.4-0.7,1-1.3,1.7-1.7
						c0.8-0.4,1.6-0.6,2.5-0.6c0.8,0,1.6,0.1,2.3,0.5c0.7,0.3,1.2,0.7,1.7,1.3l-1.4,1.3C771.6,1571,770.7,1570.6,769.8,1570.6z"/>
					<path class="st2" d="M777.8,1565c0.5,0.6,0.5,1.4,0,2c-0.2,0.3-0.6,0.4-0.9,0.4c-0.4,0-0.7-0.1-1-0.4c-0.5-0.6-0.5-1.4,0-2
						c0.2-0.3,0.6-0.4,1-0.4C777.3,1564.6,777.6,1564.7,777.8,1565z M775.8,1568.7h2.3v9.5h-2.3V1568.7z"/>
					<path class="st2" d="M784.6,1569.1c0.6-0.3,1.3-0.5,1.9-0.5v2.2c-0.8-0.1-1.7,0.2-2.4,0.7c-0.6,0.5-0.9,1.3-0.9,2.1v4.6h-2.3
						v-9.5h2.3v1.8C783.5,1569.9,784,1569.4,784.6,1569.1z"/>
					<path class="st2" d="M792.2,1570.6c-0.7,0-1.4,0.3-1.9,0.8c-0.5,0.6-0.7,1.3-0.7,2c0,0.8,0.2,1.5,0.7,2.1
						c0.5,0.5,1.2,0.8,1.9,0.8c1,0.1,1.9-0.3,2.6-1.1l1.4,1.2c-0.4,0.6-1,1.1-1.7,1.4c-0.8,0.3-1.6,0.5-2.4,0.5
						c-0.9,0-1.7-0.2-2.5-0.6c-0.7-0.4-1.3-1-1.7-1.7c-0.4-0.8-0.6-1.6-0.6-2.5c0-0.9,0.2-1.8,0.6-2.6c0.4-0.7,1-1.3,1.7-1.7
						c0.8-0.4,1.6-0.6,2.5-0.6c0.8,0,1.6,0.1,2.3,0.5c0.7,0.3,1.2,0.7,1.7,1.3l-1.4,1.3C794,1571,793.1,1570.6,792.2,1570.6z"/>
					<path class="st2" d="M798.2,1565h2.3v13.2h-2.3V1565z"/>
					<path class="st2" d="M810.9,1569.9c0.8,1,1.2,2.3,1.2,3.7c0,0.3,0,0.5,0,0.7h-7c0.2,1.3,1.4,2.2,2.7,2.2c0.5,0,1-0.1,1.4-0.3
						c0.4-0.2,0.8-0.4,1.2-0.8l1.2,1.3c-0.5,0.5-1.1,0.9-1.7,1.2c-0.7,0.3-1.5,0.4-2.3,0.4c-0.9,0-1.8-0.2-2.6-0.6
						c-0.7-0.4-1.3-1-1.7-1.7c-0.8-1.6-0.8-3.4,0-5c0.4-0.7,1-1.3,1.7-1.7c0.8-0.4,1.6-0.6,2.5-0.6
						C808.8,1568.6,810,1569,810.9,1569.9z M809.9,1572.7c0-0.6-0.2-1.2-0.7-1.7c-1-0.8-2.4-0.8-3.4,0c-0.5,0.4-0.8,1-0.8,1.7
						L809.9,1572.7z"/>
					<path class="st2" d="M814.9,1565c0.7,1.1,1.3,2.3,1.6,3.5c0.7,2.7,0.7,5.6,0,8.4c-0.3,1.3-0.9,2.4-1.6,3.5h-2.1
						c0.7-1.1,1.2-2.3,1.6-3.6c0.7-2.7,0.7-5.6,0-8.3c-0.3-1.3-0.9-2.5-1.6-3.6L814.9,1565z"/>
				</g>
				<g id="Loading_Icon">
					<path class="st2" d="M590.4,1532h4.8v20.6h10.7v4.3h-15.5V1532z"/>
					<path class="st2" d="M623,1538.9c1.5,0.8,2.7,2,3.5,3.4c0.9,1.5,1.3,3.3,1.3,5c0,1.8-0.4,3.5-1.3,5.1c-0.8,1.5-2,2.6-3.5,3.4
						c-1.6,0.8-3.4,1.2-5.2,1.2c-1.8,0-3.6-0.4-5.3-1.2c-1.5-0.8-2.7-2-3.5-3.4c-0.9-1.6-1.3-3.3-1.3-5.1c0-1.8,0.4-3.5,1.3-5
						c0.8-1.4,2.1-2.6,3.5-3.4c1.6-0.8,3.4-1.3,5.3-1.2C619.6,1537.7,621.4,1538.1,623,1538.9z M613.9,1543.2c-2,2.4-2,5.9,0,8.3
						c1,1.1,2.4,1.7,3.9,1.6c1.5,0,2.9-0.5,3.8-1.6c2-2.4,2-5.9,0-8.3c-1-1.1-2.4-1.6-3.8-1.6
						C616.3,1541.6,614.9,1542.2,613.9,1543.2L613.9,1543.2z"/>
					<path class="st2" d="M643,1556.9v-2.3c-0.7,0.8-1.6,1.5-2.6,1.9c-1.1,0.4-2.4,0.7-3.6,0.6c-1.2,0-2.4-0.2-3.5-0.8
						c-1-0.5-1.8-1.2-2.3-2.1c-0.5-0.9-0.8-1.9-0.8-3c-0.1-1.6,0.6-3.2,1.9-4.2c1.6-1.1,3.4-1.6,5.3-1.6h5.5v-0.5
						c0.1-1-0.4-1.9-1.1-2.6c-0.9-0.7-2.1-1-3.2-0.9c-2,0.1-4,0.7-5.7,1.8l-1.7-3.2c1.3-0.7,2.7-1.3,4.1-1.8
						c1.4-0.4,2.8-0.6,4.3-0.6c2.1-0.1,4.1,0.5,5.7,1.8c1.4,1.3,2.2,3.1,2.1,5v12.4L643,1556.9z M641.4,1552.6
						c0.9-0.5,1.4-1.3,1.6-2.3v-1.7h-4.8c-0.9-0.1-1.9,0.1-2.7,0.6c-0.6,0.4-0.9,1.1-0.9,1.8c0,0.8,0.3,1.5,0.9,1.9
						c0.7,0.5,1.6,0.8,2.5,0.7C639.2,1553.6,640.4,1553.2,641.4,1552.6z"/>
					<path class="st2" d="M671.1,1530.5v26.4h-4.6v-3.1c-0.7,1-1.6,1.9-2.7,2.4c-1.2,0.6-2.5,0.9-3.8,0.8c-1.7,0-3.3-0.4-4.7-1.2
						c-1.4-0.8-2.5-2-3.2-3.4c-0.8-1.6-1.2-3.3-1.1-5.1c0-1.7,0.4-3.4,1.1-5c0.7-1.4,1.8-2.6,3.2-3.4c1.4-0.8,3-1.2,4.7-1.2
						c1.3,0,2.6,0.3,3.8,0.8c1.1,0.6,2,1.4,2.7,2.4v-10.5L671.1,1530.5z M665,1551.6c2-2.4,2-5.9,0-8.4c-2.1-2.1-5.6-2.2-7.7,0
						c0,0,0,0,0,0c-2,2.4-2,5.9,0,8.4C659.4,1553.7,662.8,1553.7,665,1551.6C665,1551.6,665,1551.6,665,1551.6z"/>
					<path class="st2" d="M681.2,1530.4c0.5,0.5,0.8,1.3,0.8,2c0,0.7-0.2,1.5-0.8,2c-1,1-2.7,1.1-3.7,0c0,0,0,0,0,0
						c-0.5-0.5-0.8-1.3-0.8-2c0-0.7,0.2-1.5,0.8-2C678.5,1529.4,680.2,1529.4,681.2,1530.4C681.2,1530.4,681.2,1530.4,681.2,1530.4z
						 M677.1,1537.8h4.6v19h-4.6V1537.8z"/>
					<path class="st2" d="M704,1539.6c1.3,1.5,2,3.4,1.9,5.3v11.9h-4.7v-10.5c0.1-1.2-0.4-2.3-1.1-3.1c-0.8-0.8-1.9-1.2-3.1-1.2
						c-1.4,0-2.7,0.5-3.7,1.6c-0.9,1.1-1.4,2.5-1.3,3.9v9.3h-4.6v-19h4.6v3.6c1.3-2.4,3.6-3.7,6.8-3.7
						C700.8,1537.6,702.6,1538.3,704,1539.6z"/>
					<path class="st2" d="M728.5,1537.8v17.2c0,1.7-0.4,3.3-1.2,4.7c-0.8,1.3-2,2.4-3.5,3.1c-1.6,0.8-3.4,1.1-5.3,1.1
						c-2.9,0-5.7-0.9-8-2.5l1.8-3.3c1.7,1.3,3.8,2,5.9,2c1.5,0.1,2.9-0.4,4.1-1.3c1-0.9,1.6-2.2,1.5-3.6v-2.2
						c-0.6,0.9-1.5,1.7-2.5,2.2c-1.1,0.5-2.3,0.8-3.6,0.8c-1.5,0-3.1-0.4-4.4-1.2c-1.3-0.8-2.3-1.9-3-3.2c-0.7-1.5-1.1-3.1-1.1-4.8
						c0-1.6,0.3-3.2,1.1-4.7c0.7-1.3,1.7-2.4,3-3.2c1.3-0.8,2.9-1.2,4.4-1.1c1.2,0,2.4,0.2,3.5,0.8c1,0.5,1.9,1.3,2.5,2.2v-2.8
						L728.5,1537.8z M722.5,1550.8c1.9-2.3,1.9-5.6,0-7.9c-2-2-5.2-2-7.3,0c0,0,0,0,0,0c-1.9,2.3-1.9,5.6,0,7.8
						C717.2,1552.8,720.5,1552.8,722.5,1550.8C722.5,1550.7,722.5,1550.7,722.5,1550.8L722.5,1550.8z"/>
					<path class="st2" d="M742.8,1532h4.8v24.9h-4.8V1532z"/>
					<path class="st2" d="M761.6,1541.8c-1.4-0.1-2.8,0.5-3.8,1.6c-1,1.1-1.5,2.5-1.4,4c-0.1,1.5,0.4,3,1.4,4.1c1,1,2.3,1.6,3.8,1.6
						c2,0.1,3.9-0.7,5.1-2.2l2.9,2.4c-0.9,1.2-2,2.2-3.4,2.8c-1.5,0.7-3.2,1-4.9,1c-1.7,0-3.5-0.4-5-1.2c-1.4-0.8-2.6-2-3.4-3.4
						c-0.8-1.5-1.2-3.3-1.2-5c0-1.8,0.4-3.5,1.2-5.1c0.8-1.4,2-2.6,3.4-3.4c1.5-0.8,3.3-1.2,5-1.2c1.6,0,3.2,0.3,4.6,0.9
						c1.3,0.6,2.5,1.4,3.3,2.6l-2.8,2.7C765.3,1542.4,763.5,1541.7,761.6,1541.8z"/>
					<path class="st2" d="M786.5,1538.9c1.5,0.8,2.7,2,3.5,3.4c0.9,1.5,1.3,3.3,1.3,5c0,1.8-0.4,3.5-1.3,5.1c-0.8,1.5-2,2.6-3.5,3.4
						c-1.6,0.8-3.4,1.2-5.2,1.2c-1.8,0-3.6-0.4-5.3-1.2c-1.5-0.8-2.7-2-3.5-3.4c-0.9-1.6-1.3-3.3-1.3-5.1c0-1.8,0.4-3.5,1.3-5
						c0.8-1.4,2.1-2.6,3.5-3.4c1.6-0.8,3.4-1.3,5.3-1.2C783.1,1537.7,784.8,1538.1,786.5,1538.9z M777.3,1543.2c-2,2.4-2,5.9,0,8.3
						c1,1.1,2.4,1.7,3.9,1.6c1.5,0,2.9-0.5,3.8-1.6c2-2.4,2-5.9,0-8.3c-1-1.1-2.4-1.6-3.8-1.6
						C779.8,1541.6,778.3,1542.2,777.3,1543.2z"/>
					<path class="st2" d="M811.9,1539.6c1.3,1.5,2,3.4,1.9,5.3v11.9h-4.7v-10.5c0.1-1.2-0.4-2.3-1.1-3.1c-0.8-0.8-1.9-1.2-3.1-1.2
						c-1.4,0-2.7,0.5-3.7,1.6c-0.9,1.1-1.4,2.5-1.3,3.9v9.3h-4.6v-19h4.6v3.6c1.3-2.4,3.6-3.7,6.8-3.7
						C808.6,1537.6,810.5,1538.3,811.9,1539.6z"/>
				</g>
			</g>
		</g>
		<g id="Usecase_1">
			<g id="Server_Icon-2">
				<circle class="st3" cx="692.4" cy="1318.3" r="101.7"/>
				<g id="Logo_Normal_3_">
					<path class="st0" d="M762,1318.4c0,13.8-4.1,27.2-11.7,38.7c-7.6,11.4-18.5,20.4-31.2,25.6c-12.7,5.3-26.7,6.6-40.2,4
						c-13.5-2.7-25.9-9.3-35.6-19.1c-9.7-9.7-16.4-22.1-19.1-35.6c-2.7-13.5-1.3-27.5,4-40.2s14.2-23.6,25.6-31.2
						c11.4-7.6,24.9-11.7,38.7-11.7l0,69.6L762,1318.4z"/>
					<ellipse class="st1" cx="692.4" cy="1318.3" rx="45.2" ry="45.2"/>
					<g>
						<path class="st0" d="M684,1310.1c0,5.1-3.7,9.2-8.4,9.2s-8.4-4.1-8.4-9.2s3.7-9.2,8.4-9.2S684,1305,684,1310.1z"/>
						<path class="st0" d="M717.4,1310.1c0,5.1-3.7,9.2-8.4,9.2s-8.4-4.1-8.4-9.2s3.7-9.2,8.4-9.2S717.4,1305,717.4,1310.1z"/>
						<path class="st0" d="M708.6,1327.4c1.8,1,2.4,3.3,1.1,4.9c-2.8,3.3-6.6,5.7-10.8,6.8c-4.3,1.1-8.7,0.9-12.8-0.5
							c-1.9-0.7-2.6-3-1.5-4.8l0,0c1-1.8,3.3-2.3,5.3-1.8c2.3,0.6,4.8,0.6,7.1,0c2.3-0.6,4.5-1.8,6.2-3.5
							C704.6,1327,706.8,1326.4,708.6,1327.4L708.6,1327.4z"/>
					</g>
				</g>
			</g>
			<g id="Discord_Server_Icon">
				<path class="st2" d="M861,1294.3c1.9,1,3.5,2.6,4.6,4.4c1.1,2,1.7,4.2,1.7,6.4c0,2.3-0.6,4.5-1.7,6.4c-1.1,1.9-2.7,3.4-4.7,4.4
					c-2.1,1.1-4.4,1.6-6.8,1.6H844v-24.9h10.3C856.6,1292.7,858.9,1293.3,861,1294.3z M858.5,1312.4c1.2-0.7,2.2-1.7,2.9-2.9
					c0.7-1.3,1-2.8,1-4.3c0-1.5-0.3-3-1.1-4.3c-0.7-1.3-1.7-2.3-2.9-3c-1.3-0.7-2.7-1-4.2-1h-5.5v16.5h5.7
					C855.8,1313.5,857.3,1313.1,858.5,1312.4L858.5,1312.4z"/>
				<path class="st2" d="M875.4,1291.2c0.5,0.5,0.8,1.3,0.8,2c0,0.7-0.2,1.5-0.8,2c-1,1-2.7,1-3.8,0c-0.5-0.5-0.8-1.3-0.7-2
					c0-0.7,0.2-1.5,0.7-2C872.7,1290.2,874.4,1290.2,875.4,1291.2z M871.3,1298.6h4.6v19h-4.6V1298.6z"/>
				<path class="st2" d="M890,1302.5c-0.9-0.3-1.8-0.4-2.7-0.5c-0.6,0-1.3,0.1-1.9,0.4c-0.5,0.3-0.7,0.7-0.7,1.3
					c0,0.6,0.3,1.1,0.9,1.4c0.9,0.4,1.8,0.8,2.8,1c1.1,0.3,2.2,0.7,3.3,1.2c0.9,0.4,1.6,1,2.2,1.7c0.7,0.9,1,1.9,0.9,3
					c0.1,1.7-0.7,3.3-2.1,4.3c-1.6,1-3.5,1.6-5.4,1.5c-1.5,0-2.9-0.2-4.3-0.7c-1.3-0.4-2.5-1.1-3.6-2l1.6-3.2
					c0.9,0.8,1.9,1.3,3.1,1.7c1.1,0.4,2.2,0.6,3.4,0.6c0.7,0,1.4-0.1,2-0.4c0.5-0.3,0.8-0.8,0.8-1.3c0-0.6-0.3-1.2-0.9-1.5
					c-0.9-0.5-1.9-0.8-2.9-1.1c-1.1-0.3-2.1-0.7-3.1-1.1c-0.8-0.4-1.5-1-2.1-1.7c-0.6-0.8-0.9-1.9-0.9-2.9c-0.1-1.7,0.7-3.3,2-4.3
					c1.5-1,3.3-1.5,5.1-1.5c1.3,0,2.5,0.2,3.7,0.5c1.2,0.3,2.3,0.8,3.3,1.5l-1.7,3.3C891.9,1303.2,891,1302.8,890,1302.5z"/>
				<path class="st2" d="M906.9,1302.5c-1.4-0.1-2.8,0.5-3.8,1.6c-1.9,2.4-1.9,5.8,0,8.2c1,1,2.3,1.6,3.8,1.6c2,0.1,3.9-0.7,5.1-2.2
					l2.9,2.4c-0.9,1.2-2,2.2-3.4,2.8c-1.5,0.7-3.2,1-4.9,1c-1.7,0-3.5-0.4-5-1.2c-1.4-0.8-2.6-2-3.4-3.4c-0.8-1.5-1.2-3.3-1.2-5
					c0-1.8,0.4-3.5,1.2-5.1c0.8-1.4,2-2.6,3.4-3.4c1.5-0.8,3.3-1.2,5-1.2c1.6,0,3.2,0.3,4.6,0.9c1.3,0.6,2.5,1.5,3.3,2.6l-2.8,2.7
					C910.6,1303.3,908.7,1302.5,906.9,1302.5z"/>
				<path class="st2" d="M931.7,1299.7c1.5,0.8,2.7,2,3.5,3.4c0.9,1.5,1.3,3.3,1.3,5c0,1.8-0.4,3.5-1.3,5.1c-0.8,1.5-2,2.6-3.5,3.4
					c-1.6,0.8-3.4,1.2-5.2,1.2c-1.8,0-3.6-0.4-5.3-1.2c-1.5-0.8-2.7-2-3.5-3.4c-0.9-1.6-1.3-3.3-1.3-5.1c0-1.7,0.4-3.5,1.3-5
					c0.8-1.4,2.1-2.6,3.5-3.4c1.6-0.8,3.4-1.2,5.3-1.2C928.3,1298.5,930,1298.9,931.7,1299.7z M922.5,1304c-2,2.4-2,5.9,0,8.3
					c1,1.1,2.4,1.7,3.9,1.6c1.5,0,2.9-0.5,3.8-1.6c2-2.4,2-5.9,0-8.3c-1-1.1-2.4-1.6-3.8-1.6C925,1302.4,923.6,1302.9,922.5,1304
					L922.5,1304z"/>
				<path class="st2" d="M947.7,1299.5c1.2-0.7,2.5-1,3.9-1v4.5c-1.7-0.2-3.4,0.3-4.7,1.4c-1.2,1.1-1.8,2.6-1.8,4.2v9.2h-4.6v-19
					h4.6v3.7C945.7,1301.1,946.6,1300.1,947.7,1299.5z"/>
				<path class="st2" d="M973.1,1291.3v26.4h-4.6v-3.1c-0.7,1-1.6,1.9-2.7,2.4c-1.2,0.6-2.5,0.9-3.8,0.8c-1.7,0-3.3-0.4-4.8-1.2
					c-1.4-0.8-2.5-2-3.2-3.4c-1.5-3.2-1.5-6.9,0-10.1c0.7-1.4,1.8-2.6,3.2-3.4c1.4-0.8,3-1.2,4.7-1.2c1.3,0,2.6,0.3,3.8,0.8
					c1.1,0.6,2,1.4,2.7,2.5v-10.5L973.1,1291.3z M967,1312.4c2-2.4,2-5.9,0-8.3c-1-1.1-2.4-1.7-3.9-1.6c-1.5-0.1-2.9,0.5-3.9,1.6
					c-2,2.4-2,5.9,0,8.3c1,1.1,2.4,1.7,3.9,1.6C964.6,1314,966,1313.4,967,1312.4L967,1312.4z"/>
				<path class="st2" d="M855.7,1340c-1.1-0.4-2.3-0.6-3.5-0.6c-0.9-0.1-1.9,0.2-2.7,0.6c-0.6,0.4-1,1-1,1.8c0,0.6,0.2,1.3,0.7,1.7
					c0.5,0.5,1.1,0.9,1.8,1.1c0.9,0.4,1.9,0.7,2.9,1c1.4,0.4,2.8,0.9,4.1,1.5c1.1,0.5,2,1.3,2.8,2.2c0.8,1.1,1.2,2.5,1.1,3.8
					c0,1.4-0.4,2.8-1.2,4c-0.9,1.2-2,2.1-3.4,2.6c-1.6,0.6-3.2,0.9-4.9,0.9c-1.9,0-3.9-0.4-5.7-1.1c-1.8-0.7-3.4-1.7-4.8-2.9l2-4.1
					c1.2,1.2,2.7,2.1,4.2,2.7c1.4,0.6,2.9,1,4.4,1c1.1,0.1,2.2-0.2,3.1-0.8c1.2-0.8,1.5-2.3,0.7-3.5c-0.1-0.1-0.2-0.2-0.3-0.3
					c-0.5-0.5-1.1-0.9-1.8-1.1c-0.7-0.3-1.7-0.6-2.9-1c-1.4-0.4-2.8-0.9-4.1-1.4c-1.1-0.5-2-1.2-2.7-2.2c-0.8-1.1-1.2-2.4-1.1-3.8
					c0-1.4,0.4-2.7,1.2-3.8c0.8-1.1,2-2,3.3-2.5c1.6-0.6,3.2-0.9,4.9-0.9c3.2,0,6.3,0.9,9,2.6l-1.9,4.2
					C858.4,1341.1,857.1,1340.5,855.7,1340z"/>
				<path class="st2" d="M880.9,1343.8c1.5,1.7,2.3,4.2,2.3,7.3c0,0.6,0,1.1,0,1.4h-14c0.2,1.2,0.9,2.4,1.9,3.2
					c1,0.8,2.3,1.2,3.5,1.2c1,0,1.9-0.2,2.8-0.6c0.9-0.4,1.7-0.9,2.3-1.6l2.5,2.6c-1,1.1-2.1,1.9-3.5,2.4c-1.4,0.6-3,0.9-4.5,0.8
					c-1.8,0-3.6-0.4-5.1-1.2c-1.4-0.8-2.6-2-3.4-3.4c-1.6-3.2-1.6-6.9,0-10.1c0.8-1.4,2-2.6,3.4-3.4c1.5-0.8,3.3-1.3,5-1.2
					C877.1,1341.2,879.4,1342,880.9,1343.8z M878.9,1349.3c0-1.3-0.5-2.5-1.4-3.3c-0.9-0.9-2.2-1.3-3.5-1.3c-1.2,0-2.5,0.4-3.4,1.2
					c-0.9,0.9-1.5,2.1-1.7,3.4H878.9z"/>
				<path class="st2" d="M894.4,1342.1c1.2-0.7,2.5-1,3.9-1v4.5c-1.7-0.2-3.4,0.3-4.7,1.4c-1.2,1.1-1.8,2.6-1.8,4.2v9.2h-4.6v-19
					h4.6v3.6C892.4,1343.8,893.3,1342.8,894.4,1342.1z"/>
				<path class="st2" d="M899.5,1341.3h4.8l5,14.5l4.9-14.5h4.7l-7.3,19h-4.8L899.5,1341.3z"/>
				<path class="st2" d="M935.6,1343.8c1.5,1.7,2.3,4.2,2.3,7.3c0,0.6,0,1.1,0,1.4h-14c0.5,2.6,2.8,4.5,5.4,4.3c1,0,1.9-0.2,2.8-0.6
					c0.9-0.4,1.7-0.9,2.3-1.6l2.5,2.6c-1,1.1-2.1,1.9-3.5,2.4c-1.4,0.6-3,0.9-4.5,0.8c-1.8,0-3.5-0.4-5.1-1.2
					c-1.5-0.8-2.6-2-3.4-3.4c-0.8-1.5-1.2-3.3-1.2-5c0-1.7,0.4-3.5,1.2-5c0.8-1.4,2-2.6,3.4-3.4c1.5-0.8,3.3-1.3,5-1.2
					C931.8,1341.2,934,1342,935.6,1343.8z M933.6,1349.3c0-1.3-0.5-2.5-1.4-3.3c-2-1.7-4.9-1.7-6.9,0c-0.9,0.9-1.5,2.1-1.7,3.4
					L933.6,1349.3z"/>
				<path class="st2" d="M949.1,1342.1c1.2-0.7,2.5-1,3.9-1v4.5c-1.7-0.2-3.4,0.3-4.7,1.4c-1.2,1.1-1.8,2.6-1.8,4.2v9.2h-4.6v-19
					h4.6v3.6C947,1343.8,948,1342.8,949.1,1342.1z"/>
				<path class="st2" d="M965.1,1335.4h4.8v24.9h-4.8V1335.4z"/>
				<path class="st2" d="M983.9,1345.2c-1.4,0-2.8,0.5-3.8,1.6c-1,1.1-1.5,2.5-1.4,4c-0.1,1.5,0.4,3,1.4,4.1c1,1,2.3,1.6,3.8,1.6
					c2,0.1,3.9-0.7,5.1-2.2l2.9,2.4c-0.9,1.2-2,2.2-3.4,2.8c-1.5,0.7-3.2,1-4.9,1c-1.7,0-3.5-0.4-5-1.2c-1.4-0.8-2.6-2-3.4-3.4
					c-1.6-3.2-1.6-6.9,0-10.1c0.8-1.4,2-2.6,3.4-3.4c1.5-0.8,3.3-1.2,5-1.2c1.6,0,3.2,0.3,4.6,0.9c1.3,0.6,2.5,1.4,3.3,2.6l-2.8,2.7
					C987.5,1345.9,985.7,1345.2,983.9,1345.2z"/>
				<path class="st2" d="M1008.7,1342.4c1.5,0.8,2.7,1.9,3.5,3.4c0.9,1.5,1.3,3.3,1.3,5c0,1.8-0.4,3.5-1.3,5.1
					c-0.8,1.5-2,2.6-3.5,3.4c-1.6,0.8-3.4,1.2-5.2,1.2c-1.8,0-3.6-0.4-5.3-1.2c-1.5-0.8-2.7-2-3.5-3.4c-0.9-1.6-1.3-3.3-1.3-5.1
					c0-1.7,0.4-3.5,1.3-5c0.8-1.4,2.1-2.6,3.5-3.4c1.6-0.8,3.4-1.3,5.3-1.2C1005.3,1341.1,1007.1,1341.5,1008.7,1342.4z
					 M999.6,1346.7c-2,2.4-2,5.9,0,8.3c1,1.1,2.4,1.7,3.9,1.6c1.5,0,2.9-0.5,3.8-1.6c2-2.4,2-5.9,0-8.3c-1-1.1-2.4-1.6-3.8-1.6
					C1002,1345.1,1000.6,1345.6,999.6,1346.7z"/>
				<path class="st2" d="M1034.1,1343.1c1.3,1.5,2,3.4,1.9,5.3v11.9h-4.7v-10.5c0.1-1.2-0.3-2.3-1.1-3.2c-0.8-0.8-1.9-1.2-3.1-1.2
					c-1.4,0-2.7,0.5-3.6,1.6c-0.9,1.1-1.4,2.5-1.3,3.9v9.4h-4.6v-19h4.6v3.6c1.3-2.4,3.6-3.7,6.8-3.7
					C1030.9,1341,1032.7,1341.8,1034.1,1343.1z"/>
			</g>
		</g>
		<g id="Other_Usecases_1_">
			<path class="st2" d="M673.4,1121.9c8.2,4.6,11.1,14.9,6.5,23.1c0,0.1-0.1,0.2-0.1,0.3c-1.5,2.6-3.7,4.7-6.4,6.2
				c-5.6,3-12.4,3-18,0c-2.6-1.5-4.8-3.6-6.4-6.2c-4.8-8-2.2-18.3,5.8-23c0.2-0.1,0.4-0.2,0.6-0.4
				C661.1,1118.9,667.8,1118.9,673.4,1121.9z M658.9,1126.9c-5.4,3.2-7.3,10.1-4.1,15.5c1,1.7,2.4,3.1,4.1,4.1
				c1.7,1,3.6,1.5,5.6,1.5c2,0,3.9-0.5,5.5-1.5c5.4-3.2,7.2-10.2,4-15.7c-1-1.6-2.4-3-4-4c-1.7-1-3.6-1.5-5.5-1.5
				C662.6,1125.3,660.6,1125.8,658.9,1126.9L658.9,1126.9z"/>
			<path class="st2" d="M702.3,1151.7c-1.9,1.2-4.1,1.8-6.4,1.8c-2,0.1-3.9-0.6-5.3-1.9c-1.5-1.5-2.2-3.6-2.1-5.7v-12.5H685v-4.5
				h3.6v-7h6.1v7h7.3v4.5h-7.3v11.4c-0.1,0.9,0.1,1.8,0.7,2.5c0.5,0.5,1.3,0.8,2,0.7c1.3-0.1,2.5-0.4,3.6-1L702.3,1151.7z"/>
			<path class="st2" d="M729.6,1130.3c1.8,1.9,2.7,4.5,2.5,7.1v15.8h-6.2v-14c0.1-1.5-0.5-3.1-1.5-4.2c-1.1-1.1-2.6-1.6-4.1-1.5
				c-1.9-0.1-3.6,0.7-4.9,2.1c-1.2,1.5-1.9,3.3-1.8,5.2v12.5h-6.2v-35.2h6.2v14.7c1.7-3.3,4.8-5,9.2-5.1
				C725.3,1127.5,727.8,1128.5,729.6,1130.3z"/>
			<path class="st2" d="M758.7,1131.2c2,2.3,3.1,5.5,3.1,9.7c0,0.8,0,1.4,0,1.8H743c0.6,3.5,3.7,5.9,7.3,5.8c1.3,0,2.5-0.3,3.7-0.7
				c1.2-0.5,2.2-1.2,3.1-2.1l3.3,3.5c-1.3,1.4-2.9,2.5-4.6,3.2c-1.9,0.8-3.9,1.2-6,1.1c-2.4,0-4.7-0.5-6.8-1.6
				c-1.9-1-3.5-2.6-4.6-4.5c-2.2-4.2-2.2-9.2,0-13.4c1.1-1.9,2.6-3.5,4.6-4.6c2-1.1,4.3-1.7,6.7-1.6
				C753.7,1127.7,756.7,1128.8,758.7,1131.2z M756.2,1138.6c0-1.7-0.7-3.3-1.8-4.5c-1.3-1.1-2.9-1.7-4.7-1.7c-1.7,0-3.3,0.5-4.5,1.6
				c-1.3,1.2-2.1,2.8-2.3,4.5H756.2z"/>
			<path class="st2" d="M776.8,1129c1.6-0.9,3.3-1.4,5.1-1.4v6c-2.3-0.3-4.5,0.4-6.3,1.8c-1.6,1.4-2.5,3.5-2.3,5.6v12.2h-6.2v-25.4
				h6.2v4.9C774,1131.2,775.3,1129.9,776.8,1129z"/>
			<path class="st2" d="M806,1145.8c1.6,1.5,3.8,2.3,6,2.2c2.2,0.1,4.3-0.7,5.9-2.2c1.5-1.7,2.3-3.9,2.2-6.2v-19.5h6.3v19.5
				c0.1,2.6-0.5,5.2-1.8,7.5c-1.1,2.1-2.9,3.8-5,4.9c-2.4,1.2-5,1.8-7.7,1.7c-2.7,0.1-5.3-0.5-7.8-1.7c-2.1-1.1-3.9-2.8-5-4.9
				c-1.2-2.3-1.8-4.9-1.8-7.5v-19.5h6.4v19.5C803.7,1141.9,804.5,1144.1,806,1145.8z"/>
			<path class="st2" d="M844.9,1133.1c-1.2-0.4-2.4-0.6-3.6-0.6c-0.9,0-1.7,0.2-2.5,0.6c-0.6,0.3-1,1-0.9,1.7c0,0.8,0.4,1.5,1.2,1.8
				c1.2,0.6,2.4,1,3.7,1.3c1.5,0.4,2.9,1,4.4,1.6c1.2,0.5,2.2,1.3,3,2.3c0.9,1.1,1.3,2.6,1.3,4c0.1,2.3-1,4.4-2.8,5.7
				c-2.1,1.4-4.6,2.1-7.2,2c-1.9,0-3.9-0.3-5.7-0.9c-1.7-0.5-3.4-1.4-4.7-2.6l2.1-4.3c1.2,1,2.6,1.8,4.1,2.3c1.4,0.5,3,0.8,4.5,0.8
				c0.9,0,1.9-0.2,2.7-0.6c0.6-0.4,1-1,1-1.8c0-0.8-0.4-1.6-1.2-2c-1.2-0.6-2.5-1.1-3.8-1.5c-1.4-0.4-2.8-0.9-4.2-1.5
				c-1.1-0.5-2.1-1.3-2.8-2.2c-0.8-1.1-1.2-2.5-1.2-3.9c-0.1-2.2,0.9-4.4,2.7-5.7c2-1.4,4.4-2.1,6.8-2c1.7,0,3.4,0.2,5,0.7
				c1.5,0.4,3,1.1,4.3,2l-2.2,4.5C847.5,1134,846.2,1133.4,844.9,1133.1z"/>
			<path class="st2" d="M876.2,1131.2c2,2.3,3.1,5.5,3.1,9.7c0,0.8,0,1.4,0,1.8h-18.8c0.6,3.5,3.7,6,7.3,5.8c1.3,0,2.5-0.2,3.7-0.7
				c1.2-0.5,2.2-1.2,3.1-2.1l3.3,3.5c-1.3,1.4-2.9,2.5-4.6,3.2c-1.9,0.8-3.9,1.2-6,1.1c-2.4,0.1-4.7-0.5-6.8-1.6
				c-1.9-1-3.5-2.6-4.6-4.5c-1.1-2.1-1.7-4.4-1.6-6.7c0-2.4,0.5-4.7,1.6-6.7c1.1-1.9,2.6-3.5,4.6-4.6c2.1-1.1,4.4-1.7,6.7-1.6
				C871.2,1127.7,874.2,1128.8,876.2,1131.2z M873.6,1138.6c0-1.7-0.7-3.3-1.8-4.5c-2.7-2.2-6.5-2.2-9.2,0c-1.3,1.2-2.1,2.8-2.3,4.5
				L873.6,1138.6z"/>
			<path class="st2" d="M895.4,1133.1c-1.9-0.1-3.7,0.7-5,2.1c-1.3,1.5-2,3.4-1.9,5.4c-0.1,2,0.6,4,1.9,5.5c1.3,1.4,3.1,2.2,5,2.1
				c3,0,5.3-1,6.8-3l3.8,3.2c-1.1,1.6-2.7,2.9-4.5,3.8c-2,0.9-4.3,1.4-6.5,1.3c-2.3,0-4.6-0.5-6.7-1.6c-1.9-1-3.5-2.6-4.5-4.5
				c-2.2-4.2-2.2-9.3,0-13.5c1-1.9,2.6-3.5,4.5-4.6c2.1-1.1,4.4-1.7,6.7-1.6c2.1,0,4.2,0.4,6.2,1.2c1.7,0.8,3.3,1.9,4.4,3.4
				l-3.8,3.6C900.3,1134,897.9,1133,895.4,1133.1z"/>
			<path class="st2" d="M925.4,1153.3v-3.1c-0.9,1.1-2.1,2-3.4,2.5c-1.5,0.6-3.2,0.9-4.8,0.8c-1.6,0-3.2-0.3-4.7-1
				c-1.3-0.6-2.4-1.6-3.1-2.8c-0.7-1.2-1.1-2.6-1.1-4c-0.1-2.2,0.8-4.2,2.5-5.6c1.7-1.3,4.1-2,7.1-2.1h7.4v-0.7
				c0.1-1.3-0.5-2.6-1.5-3.5c-1.2-0.9-2.7-1.3-4.3-1.2c-2.7,0.1-5.3,0.9-7.5,2.4l-2.2-4.3c1.7-1,3.5-1.8,5.4-2.4
				c1.9-0.5,3.8-0.8,5.7-0.7c3.3,0,5.8,0.8,7.7,2.4c1.9,1.7,2.9,4.1,2.8,6.6v16.6L925.4,1153.3z M923.3,1147.5
				c1.1-0.7,1.9-1.8,2.1-3.1v-2.3H919c-1.3-0.1-2.5,0.2-3.6,0.7c-0.8,0.5-1.2,1.4-1.2,2.4c0,1,0.4,2,1.2,2.6c0.9,0.7,2.1,1.1,3.3,1
				C920.3,1148.9,921.9,1148.4,923.3,1147.5z"/>
			<path class="st2" d="M949.6,1133.1c-1.2-0.4-2.4-0.6-3.6-0.6c-0.9,0-1.7,0.2-2.5,0.6c-0.6,0.3-1,1-0.9,1.7c0,0.8,0.4,1.5,1.2,1.8
				c1.2,0.6,2.4,1,3.7,1.3c1.5,0.4,2.9,1,4.4,1.6c1.2,0.5,2.2,1.3,3,2.3c0.9,1.1,1.3,2.6,1.3,4c0.1,2.3-1,4.4-2.8,5.7
				c-2.1,1.4-4.6,2.1-7.2,2c-1.9,0-3.9-0.3-5.7-0.9c-1.7-0.5-3.4-1.4-4.7-2.6l2.1-4.3c1.2,1,2.6,1.8,4.1,2.3c1.4,0.5,3,0.8,4.5,0.8
				c0.9,0,1.9-0.2,2.7-0.6c0.6-0.4,1-1,1-1.8c0-0.8-0.4-1.6-1.2-2c-1.2-0.6-2.5-1.1-3.8-1.5c-1.4-0.4-2.8-0.9-4.2-1.5
				c-1.1-0.5-2.1-1.3-2.8-2.2c-0.8-1.1-1.2-2.5-1.2-3.9c-0.1-2.2,0.9-4.4,2.7-5.7c2-1.4,4.4-2.1,6.8-2c1.7,0,3.4,0.2,5,0.7
				c1.5,0.4,3,1.1,4.3,2l-2.2,4.5C952.3,1134,951,1133.4,949.6,1133.1z"/>
			<path class="st2" d="M981,1131.2c2,2.3,3.1,5.5,3.1,9.7c0,0.8,0,1.4,0,1.8h-18.8c0.6,3.5,3.7,6,7.3,5.8c1.3,0,2.5-0.2,3.7-0.7
				c1.2-0.5,2.2-1.2,3.1-2.1l3.3,3.5c-1.3,1.4-2.9,2.5-4.6,3.2c-1.9,0.8-3.9,1.2-6,1.1c-2.4,0.1-4.7-0.5-6.8-1.6
				c-1.9-1-3.5-2.6-4.6-4.5c-2.2-4.2-2.2-9.2,0-13.4c1.1-1.9,2.6-3.5,4.6-4.6c2.1-1.1,4.4-1.7,6.7-1.6
				C975.9,1127.7,978.9,1128.8,981,1131.2z M978.4,1138.6c0-1.7-0.7-3.3-1.8-4.5c-2.7-2.2-6.5-2.2-9.2,0c-1.3,1.2-2.1,2.8-2.3,4.5
				L978.4,1138.6z"/>
			<path class="st2" d="M1000.6,1133.1c-1.2-0.4-2.4-0.6-3.6-0.6c-0.9,0-1.7,0.2-2.5,0.6c-0.6,0.3-1,1-0.9,1.7
				c0,0.8,0.4,1.5,1.2,1.8c1.2,0.6,2.4,1,3.7,1.3c1.5,0.4,2.9,1,4.4,1.6c1.2,0.5,2.2,1.3,3,2.3c0.9,1.2,1.3,2.6,1.3,4
				c0.1,2.3-1,4.4-2.8,5.7c-2.1,1.4-4.6,2.1-7.2,2c-2,0-3.9-0.3-5.7-0.9c-1.7-0.5-3.4-1.4-4.7-2.6l2.1-4.3c1.2,1,2.6,1.8,4.1,2.3
				c1.4,0.5,3,0.8,4.5,0.8c0.9,0,1.9-0.2,2.7-0.6c0.6-0.4,1-1,1-1.8c0-0.8-0.4-1.6-1.2-2c-1.2-0.6-2.5-1.1-3.8-1.5
				c-1.4-0.4-2.8-0.9-4.2-1.5c-1.1-0.5-2.1-1.3-2.8-2.2c-0.8-1.1-1.3-2.5-1.2-3.9c-0.1-2.2,0.9-4.4,2.7-5.7c2-1.4,4.4-2.1,6.8-2
				c1.7,0,3.4,0.2,5,0.7c1.5,0.4,3,1.1,4.3,2l-2.2,4.5C1003.2,1134,1001.9,1133.4,1000.6,1133.1z"/>
		</g>
	</g>
	<g id="Use_with_Logo">
		<g id="Example_2">
			<g id="Logo_Normal_1_">
				<path class="st0" d="M889.4,874.3c0,10.9-3.2,21.5-9.2,30.5s-14.6,16-24.7,20.2c-10,4.2-21.1,5.3-31.7,3.1
					c-10.6-2.1-20.4-7.4-28.1-15s-12.9-17.4-15-28.1c-2.1-10.5-1-21.6,3.2-31.6c4.2-10.1,11.2-18.7,20.2-24.7c9-6,19.6-9.2,30.5-9.2
					v54.9H889.4z"/>
				<ellipse class="st1" cx="834.5" cy="874.3" rx="35.7" ry="35.7"/>
				<g>
					<path class="st0" d="M827.9,867.9c0,4.1-3,7.2-6.6,7.2c-3.6,0-6.6-3.3-6.6-7.2c0-4.1,3-7.2,6.6-7.2
						C825,860.6,827.9,863.8,827.9,867.9z"/>
					<path class="st0" d="M854.3,867.9c0,4.1-3,7.2-6.6,7.2c-3.6,0-6.6-3.3-6.6-7.2c0-4.1,3-7.2,6.6-7.2
						C851.3,860.5,854.3,863.8,854.3,867.9z"/>
					<path class="st0" d="M847.3,881.5c1.4,0.8,1.9,2.6,0.9,3.8c-2.2,2.6-5.2,4.5-8.6,5.4c-3.4,0.9-6.9,0.8-10.1-0.4
						c-1.5-0.5-2-2.4-1.2-3.7l0,0c0.8-1.4,2.6-1.9,4.2-1.4c1.9,0.4,3.7,0.4,5.6,0c1.9-0.4,3.5-1.4,4.8-2.7
						C844.2,881.1,845.9,880.7,847.3,881.5L847.3,881.5z"/>
				</g>
			</g>
			<g id="Wordmark_1_">
				<path class="st2" d="M699.3,955.8c-5.5-2.7-11.9-2.5-17.2,0.5c-2.8,1.6-5,3.9-6.6,6.6c-3.2,5.8-3.2,12.8,0,18.5
					c1.6,2.8,3.8,5.1,6.6,6.7c2.8,1.6,6,2.5,9.2,2.4c2.7,0,5.3-0.6,7.8-1.7c2.6-1.1,4.9-2.7,6.9-4.7l6.1,6.8
					c-2.8,2.9-6.2,5.2-9.9,6.8c-3.6,1.6-7.5,2.5-11.5,2.5c-5,0-10-1.2-14.3-3.7c-4.2-2.4-7.8-5.9-10.2-10.1
					c-2.5-4.3-3.8-9.2-3.7-14.1c-0.1-5,1.3-9.8,3.8-14.1c2.5-4.2,6.1-7.6,10.3-10c8-4.3,17.5-4.8,25.9-1.3c3.6,1.5,6.8,3.6,9.5,6.4
					l-6,7.6C704.3,958.8,701.9,957.1,699.3,955.8z"/>
				<path class="st2" d="M758.6,958.2v41.4h-10.1v-7.7c-2.8,5.4-7.6,8-14.4,8c-4.7,0-8.3-1.4-11-4.3c-2.7-2.8-4-6.7-4-11.6v-25.9
					h10.1v23c-0.1,2.5,0.7,4.9,2.4,6.8c1.7,1.7,4.1,2.6,6.5,2.5c2.9,0.1,5.7-1.2,7.6-3.4c1.9-2.4,2.9-5.4,2.8-8.4v-20.4H758.6z"/>
				<path class="st2" d="M789.4,966.6c-1.9-0.6-3.9-1-5.9-1c-1.4-0.1-2.8,0.2-4.1,0.9c-1,0.6-1.6,1.6-1.5,2.7c0,1.3,0.7,2.5,1.9,3
					c1.9,0.9,3.9,1.7,6,2.2c2.4,0.7,4.8,1.6,7.2,2.6c1.9,0.9,3.5,2.2,4.8,3.8c1.4,1.9,2.2,4.2,2,6.6c0.2,3.7-1.6,7.2-4.6,9.3
					c-3.5,2.3-7.6,3.4-11.7,3.3c-3.2,0-6.3-0.5-9.4-1.5c-2.8-0.9-5.5-2.4-7.7-4.3l3.5-7c2,1.7,4.2,2.9,6.7,3.8
					c2.4,0.9,4.8,1.3,7.3,1.4c1.5,0.1,3.1-0.3,4.5-1c1.1-0.6,1.7-1.7,1.7-2.9c0-1.4-0.7-2.6-1.9-3.3c-2-1-4.1-1.8-6.3-2.4
					c-2.3-0.7-4.6-1.5-6.8-2.4c-1.8-0.8-3.4-2.1-4.6-3.6c-1.4-1.8-2-4.1-1.9-6.4c0-4.1,1.5-7.2,4.5-9.3c3.3-2.2,7.2-3.4,11.2-3.2
					c2.7,0,5.5,0.4,8.1,1.2c2.5,0.7,4.9,1.8,7.1,3.3l-3.6,7.3C793.7,968.2,791.6,967.3,789.4,966.6z"/>
				<path class="st2" d="M832.7,997c-3.1,1.9-6.7,3-10.4,3c-3.2,0.1-6.3-1-8.8-3.1c-2.3-2.1-3.4-5.2-3.4-9.3v-20.4h-5.8l-0.1-7.3
					h5.9v-11.4h10v11.4H832v7.3h-11.9v18.7c-0.1,1.4,0.2,2.9,1.1,4.1c0.9,0.9,2,1.3,3.3,1.2c2.1-0.1,4.1-0.7,5.9-1.7L832.7,997z"/>
				<path class="st2" d="M869.6,960.5c3.2,1.7,5.9,4.2,7.7,7.4c1.9,3.4,2.8,7.2,2.7,11c0.1,3.9-0.9,7.7-2.7,11.1
					c-1.8,3.2-4.5,5.7-7.7,7.4c-3.5,1.8-7.4,2.7-11.3,2.6c-4,0.1-7.9-0.8-11.5-2.6c-3.2-1.7-5.9-4.3-7.7-7.4
					c-1.9-3.4-2.8-7.2-2.8-11.1c-0.1-3.8,0.9-7.6,2.8-11c1.8-3.1,4.5-5.7,7.7-7.4c3.5-1.8,7.5-2.7,11.5-2.6
					C862.2,957.8,866.1,958.7,869.6,960.5z M849.8,969.9c-4.3,5.3-4.3,12.9,0,18.1c2.2,2.3,5.3,3.6,8.5,3.5c3.2,0.1,6.2-1.2,8.4-3.5
					c4.3-5.3,4.3-12.9,0-18.1c-2.2-2.3-5.2-3.6-8.4-3.5C855.1,966.3,852,967.6,849.8,969.9z"/>
				<path class="st2" d="M954.1,962.1c2.7,2.9,4,6.8,4,11.7v25.9H948v-22.9c0.1-2.5-0.7-5-2.4-6.9c-1.8-1.7-4.2-2.6-6.6-2.5
					c-2.9,0-5.7,1.3-7.6,3.5c-1.9,2.4-2.9,5.4-2.8,8.4v20.4h-10.1v-22.9c0.1-2.5-0.7-5-2.4-6.9c-1.7-1.7-4.1-2.7-6.6-2.5
					c-3,0-5.8,1.2-7.7,3.5c-1.9,2.4-2.9,5.4-2.8,8.4v20.4h-10.1v-41.4h10.1v7.7c2.7-5.3,7.6-8,14.5-8c3.2-0.1,6.4,0.8,9.1,2.6
					c2.5,1.8,4.3,4.4,5.1,7.3c2.7-6.5,7.8-9.8,15.4-9.9C947.8,957.8,951.5,959.2,954.1,962.1z"/>
				<path class="st2" d="M993.8,999.6v-5c-1.5,1.8-3.4,3.2-5.6,4.1c-2.5,1-5.1,1.4-7.8,1.4c-2.6,0.1-5.2-0.5-7.6-1.7
					c-2.1-1-3.9-2.6-5.1-4.6c-1.2-2-1.8-4.3-1.8-6.6c-0.2-3.5,1.4-6.9,4.1-9.1c2.7-2.2,6.6-3.3,11.6-3.4h12.1v-1.1
					c0.1-2.2-0.8-4.2-2.4-5.7c-1.6-1.3-3.9-2-7-2c-4.4,0.1-8.6,1.5-12.3,3.9l-3.6-7c2.8-1.6,5.8-2.9,8.9-3.9c3-0.9,6.2-1.3,9.3-1.2
					c5.4,0,9.5,1.3,12.5,3.9c3,2.6,4.5,6.2,4.5,10.8l0.1,27.1L993.8,999.6z M990.3,990.2c1.9-1.1,3.2-2.9,3.5-5.1v-3.7h-10.5
					c-2.7,0-4.6,0.4-5.9,1.2c-1.3,0.9-2,2.4-1.9,3.9c-0.1,1.6,0.7,3.2,2,4.2c1.6,1.1,3.5,1.6,5.4,1.5
					C985.5,992.4,988.1,991.6,990.3,990.2z"/>
			</g>
		</g>
		<g id="Example_1">
			<g id="Logo_Normal_2_">
				<path class="st0" d="M695.3,675.5c0,10.9-3.2,21.5-9.2,30.5c-6,9-14.6,16-24.7,20.2c-10,4.2-21.1,5.3-31.7,3.1
					c-10.6-2.1-20.4-7.4-28.1-15s-12.9-17.4-15-28.1c-2.1-10.5-1-21.6,3.2-31.6c4.2-10.1,11.2-18.7,20.2-24.7c9-6,19.6-9.2,30.5-9.2
					v54.9H695.3z"/>
				<ellipse class="st1" cx="640.4" cy="675.5" rx="35.7" ry="35.7"/>
				<g>
					<path class="st0" d="M633.8,669c0,4.1-3,7.2-6.6,7.2c-3.6,0-6.6-3.3-6.6-7.2c0-4.1,3-7.2,6.6-7.2
						C630.9,661.8,633.8,665,633.8,669z"/>
					<path class="st0" d="M660.2,669c0,4.1-3,7.2-6.6,7.2c-3.6,0-6.6-3.3-6.6-7.2c0-4.1,3-7.2,6.6-7.2
						C657.2,661.7,660.2,665,660.2,669z"/>
					<path class="st0" d="M653.2,682.6c1.4,0.8,1.9,2.6,0.9,3.8c-2.2,2.6-5.2,4.5-8.6,5.4c-3.4,0.9-6.9,0.8-10.1-0.4
						c-1.5-0.5-2-2.4-1.2-3.7l0,0c0.8-1.4,2.6-1.9,4.2-1.4c1.9,0.4,3.7,0.4,5.6,0c1.9-0.4,3.5-1.4,4.8-2.7
						C650.1,682.3,651.8,681.9,653.2,682.6L653.2,682.6z"/>
				</g>
			</g>
			<g id="Wordmark">
				<path class="st2" d="M758.7,653.9c-2.5-1.2-5.2-1.8-7.9-1.8c-3.2,0-6.4,0.8-9.2,2.4c-2.8,1.6-5,3.8-6.6,6.6
					c-3.2,5.8-3.2,12.8,0,18.5c1.6,2.8,3.8,5.1,6.6,6.7c2.8,1.6,6,2.5,9.2,2.4c2.7,0,5.3-0.6,7.8-1.7c2.6-1.1,4.9-2.7,6.9-4.7
					l6.1,6.8c-2.8,2.9-6.2,5.2-9.9,6.8c-3.6,1.6-7.5,2.5-11.5,2.5c-5,0.1-10-1.2-14.3-3.7c-4.2-2.4-7.8-5.9-10.2-10.1
					c-2.5-4.3-3.8-9.2-3.7-14.1c-0.1-5,1.3-9.8,3.8-14.1c2.5-4.2,6.1-7.7,10.3-10c8-4.3,17.5-4.8,25.9-1.3c3.6,1.5,6.8,3.6,9.5,6.4
					l-6,7.6C763.6,656.9,761.3,655.2,758.7,653.9z"/>
				<path class="st2" d="M817.9,656.3v41.4h-10.1V690c-2.8,5.4-7.6,8-14.4,8c-4.7,0-8.3-1.4-11-4.3c-2.7-2.8-4-6.7-4-11.6v-25.9
					h10.1v23c-0.1,2.5,0.7,4.9,2.4,6.8c1.7,1.7,4.1,2.6,6.5,2.5c2.9,0.1,5.7-1.2,7.6-3.4c1.9-2.4,2.9-5.4,2.8-8.4v-20.4H817.9z"/>
				<path class="st2" d="M848.8,664.7c-1.9-0.6-3.9-1-5.9-1c-1.4-0.1-2.8,0.2-4.1,0.9c-1,0.6-1.6,1.6-1.5,2.8c0,1.3,0.7,2.5,1.9,3
					c1.9,0.9,3.9,1.7,6,2.2c2.4,0.7,4.8,1.6,7.1,2.6c1.9,0.9,3.5,2.2,4.8,3.8c1.4,1.9,2.1,4.2,2,6.6c0.2,3.7-1.6,7.2-4.7,9.3
					c-3.5,2.3-7.5,3.4-11.7,3.3c-3.2,0-6.3-0.5-9.4-1.5c-2.8-0.9-5.5-2.4-7.7-4.3l3.5-7c2,1.7,4.2,2.9,6.7,3.8
					c2.4,0.9,4.8,1.3,7.3,1.4c1.5,0.1,3.1-0.3,4.5-1c1.1-0.6,1.7-1.7,1.7-2.9c0-1.4-0.7-2.6-1.9-3.3c-2-1-4.1-1.8-6.3-2.4
					c-2.3-0.7-4.6-1.5-6.8-2.4c-1.8-0.8-3.4-2.1-4.6-3.6c-1.4-1.8-2-4.1-1.9-6.4c0-4.1,1.5-7.2,4.5-9.3c3.3-2.2,7.2-3.4,11.2-3.2
					c2.7,0,5.5,0.4,8.1,1.2c2.5,0.7,4.9,1.8,7.1,3.3l-3.6,7.2C853,666.3,850.9,665.4,848.8,664.7z"/>
				<path class="st2" d="M892,695.1c-3.1,1.9-6.7,3-10.4,3c-3.2,0.1-6.3-1-8.8-3.1c-2.3-2.1-3.4-5.2-3.4-9.3v-20.4h-5.8l-0.1-7.3
					h5.9v-11.4h10V658h11.8v7.3h-11.9V684c-0.1,1.4,0.2,2.9,1.1,4.1c0.9,0.9,2.1,1.3,3.3,1.2c2.1-0.1,4.1-0.7,5.9-1.7L892,695.1z"/>
				<path class="st2" d="M929,658.6c3.2,1.7,5.9,4.2,7.7,7.4c1.9,3.4,2.8,7.2,2.8,11c0.1,3.9-0.9,7.7-2.8,11
					c-1.8,3.2-4.4,5.7-7.7,7.4c-3.5,1.8-7.4,2.7-11.3,2.6c-4,0.1-7.9-0.8-11.5-2.6c-3.2-1.7-5.9-4.3-7.7-7.4
					c-1.9-3.4-2.8-7.2-2.8-11.1c-0.1-3.8,0.9-7.6,2.8-11c1.8-3.1,4.5-5.7,7.7-7.4c3.6-1.8,7.5-2.7,11.5-2.5
					C921.6,655.9,925.5,656.8,929,658.6z M909.1,668c-4.3,5.3-4.3,12.9,0,18.1c2.2,2.3,5.3,3.6,8.5,3.5c3.2,0.1,6.2-1.2,8.4-3.5
					c4.3-5.3,4.3-12.9,0-18.1c-2.2-2.3-5.2-3.6-8.4-3.5C914.4,664.4,911.3,665.7,909.1,668z"/>
				<path class="st2" d="M1013.5,660.2c2.7,2.9,4,6.7,4,11.7v25.8h-10.1v-22.9c0.1-2.5-0.7-5-2.4-6.9c-1.8-1.7-4.2-2.6-6.6-2.5
					c-2.9,0-5.7,1.3-7.6,3.5c-1.9,2.4-2.9,5.4-2.8,8.4v20.4h-10.1v-22.9c0.1-2.5-0.7-5-2.4-6.9c-1.7-1.7-4.1-2.7-6.6-2.5
					c-3,0-5.8,1.2-7.7,3.5c-1.9,2.4-2.9,5.4-2.8,8.4v20.4h-10.1v-41.4h10.1v7.7c2.7-5.3,7.6-7.9,14.6-8c3.2-0.1,6.4,0.8,9.1,2.6
					c2.5,1.8,4.3,4.4,5.2,7.3c2.6-6.5,7.8-9.8,15.4-9.9C1007.1,655.9,1010.8,657.3,1013.5,660.2z"/>
				<path class="st2" d="M1053.2,697.7v-5c-1.5,1.8-3.4,3.2-5.6,4.1c-2.5,1-5.1,1.4-7.8,1.4c-2.6,0.1-5.3-0.5-7.6-1.7
					c-2.1-1-3.9-2.6-5.1-4.6c-1.2-2-1.8-4.3-1.8-6.6c-0.2-3.5,1.4-6.9,4.1-9.1c2.7-2.2,6.6-3.3,11.6-3.4h12.1v-1.1
					c0.1-2.2-0.8-4.2-2.4-5.7c-1.6-1.3-3.9-2-7-2c-4.4,0.1-8.6,1.5-12.3,3.9l-3.6-7c2.8-1.6,5.8-2.9,8.9-3.9c3-0.9,6.2-1.3,9.3-1.2
					c5.4,0,9.5,1.3,12.5,3.9s4.5,6.2,4.5,10.8l0.1,27.1L1053.2,697.7z M1049.6,688.3c1.9-1.1,3.1-2.9,3.5-5.1v-3.7h-10.4
					c-2.7,0-4.7,0.4-5.9,1.2c-1.3,0.9-2,2.4-1.9,3.9c-0.1,1.6,0.7,3.2,2,4.2c1.6,1.1,3.5,1.7,5.4,1.5
					C1044.8,690.5,1047.4,689.8,1049.6,688.3z"/>
			</g>
		</g>
		<g id="Use_with_Logo_1_">
			<path class="st2" d="M679.6,534c1.6,1.5,3.8,2.3,6,2.2c2.2,0.1,4.3-0.7,5.9-2.2c1.5-1.7,2.3-3.9,2.2-6.2v-19.5h6.3v19.5
				c0.1,2.6-0.5,5.2-1.8,7.5c-1.1,2.1-2.9,3.8-5,4.9c-2.4,1.2-5,1.8-7.7,1.7c-2.7,0.1-5.3-0.5-7.8-1.7c-2.1-1.1-3.9-2.8-5-4.9
				c-1.2-2.3-1.8-4.9-1.8-7.5v-19.5h6.3v19.5C677.3,530.1,678.1,532.3,679.6,534z"/>
			<path class="st2" d="M718.5,521.3c-1.2-0.4-2.4-0.6-3.6-0.6c-0.9,0-1.7,0.2-2.5,0.5c-0.6,0.3-1,1-0.9,1.7c0,0.8,0.4,1.5,1.2,1.8
				c1.2,0.6,2.4,1,3.7,1.3c1.5,0.4,2.9,1,4.4,1.6c1.2,0.5,2.2,1.3,3,2.3c0.9,1.2,1.3,2.6,1.3,4c0.1,2.3-1,4.4-2.8,5.7
				c-2.1,1.4-4.6,2.1-7.2,2c-2,0-3.9-0.3-5.7-0.9c-1.7-0.5-3.4-1.4-4.7-2.6l2.1-4.3c1.2,1,2.6,1.8,4.1,2.3c1.4,0.5,3,0.8,4.5,0.8
				c0.9,0,1.9-0.2,2.7-0.6c0.6-0.4,1-1,1-1.8c0-0.8-0.4-1.6-1.2-2c-1.2-0.6-2.5-1.1-3.8-1.5c-1.4-0.4-2.8-0.9-4.2-1.5
				c-1.1-0.5-2.1-1.3-2.8-2.2c-0.8-1.1-1.3-2.5-1.2-3.9c-0.1-2.2,0.9-4.4,2.7-5.7c2-1.4,4.4-2.1,6.8-2c1.7,0,3.3,0.2,5,0.7
				c1.5,0.4,3,1.1,4.3,2l-2.2,4.5C721.1,522.3,719.8,521.7,718.5,521.3z"/>
			<path class="st2" d="M749.8,519.4c2,2.3,3.1,5.6,3.1,9.7c0,0.8,0,1.4,0,1.8h-18.7c0.6,3.5,3.7,5.9,7.3,5.8c1.3,0,2.5-0.2,3.7-0.7
				c1.2-0.5,2.2-1.2,3.1-2.1l3.3,3.5c-1.3,1.4-2.9,2.5-4.6,3.2c-1.9,0.8-4,1.2-6,1.1c-2.4,0-4.7-0.5-6.8-1.6c-1.9-1-3.5-2.6-4.6-4.5
				c-2.2-4.2-2.2-9.2,0-13.5c1.1-1.9,2.6-3.5,4.6-4.6c2.1-1.1,4.4-1.7,6.7-1.6C744.7,516,747.8,517.1,749.8,519.4z M747.2,526.9
				c0-1.7-0.7-3.3-1.8-4.5c-1.3-1.1-2.9-1.7-4.6-1.7c-1.7,0-3.3,0.5-4.5,1.6c-1.3,1.2-2.1,2.8-2.3,4.5H747.2z"/>
			<path class="st2" d="M765.9,516.2l6.4,0l6.2,19.2l6-19.2h6.2l6.1,19.2l6.1-19.2h6.2l-9.2,25.4h-6.3l-6.1-17.9l-6,17.9h-6.3
				L765.9,516.2z"/>
			<path class="st2" d="M818.2,506.3c0.7,0.7,1,1.7,1,2.6c0,1-0.3,1.9-1,2.6c-1.4,1.4-3.6,1.4-5,0c-0.7-0.7-1-1.6-1-2.6
				c0-1,0.3-1.9,1-2.6C814.6,504.9,816.8,504.9,818.2,506.3z M812.7,516.1h6.2v25.4h-6.2V516.1z"/>
			<path class="st2" d="M841.3,539.9c-1.9,1.2-4.1,1.8-6.3,1.8c-2,0.1-3.9-0.6-5.4-1.9c-1.5-1.5-2.2-3.6-2.1-5.7v-12.5H824l0-4.5
				h3.6v-7h6.1v7h7.3v4.5h-7.3v11.4c-0.1,0.9,0.1,1.8,0.7,2.5c0.5,0.5,1.3,0.8,2,0.7c1.3-0.1,2.5-0.4,3.6-1L841.3,539.9z"/>
			<path class="st2" d="M868.6,518.5c1.7,2,2.6,4.5,2.5,7.1v15.8h-6.2v-14c0.1-1.5-0.5-3.1-1.5-4.2c-1.1-1.1-2.6-1.6-4.1-1.5
				c-1.9-0.1-3.6,0.7-4.9,2.1c-1.2,1.5-1.9,3.3-1.8,5.2v12.5h-6.2v-35.2h6.2V521c1.7-3.3,4.8-5,9.2-5.1
				C864.3,515.8,866.8,516.7,868.6,518.5z"/>
			<path class="st2" d="M889.9,508.3h6.3v27.5h14.3v5.7h-20.7V508.3z"/>
			<path class="st2" d="M933.3,517.6c2,1,3.6,2.6,4.7,4.5c1.1,2,1.7,4.4,1.7,6.7c0,2.4-0.5,4.7-1.7,6.8c-1.1,1.9-2.7,3.5-4.7,4.5
				c-2.2,1.1-4.6,1.7-7,1.6c-2.4,0-4.8-0.5-7-1.6c-2-1-3.6-2.6-4.7-4.5c-1.1-2.1-1.7-4.4-1.6-6.8c0-2.3,0.5-4.7,1.7-6.7
				c1.1-1.9,2.7-3.5,4.7-4.5c2.2-1.1,4.6-1.7,7-1.6C928.8,515.9,931.2,516.5,933.3,517.6z M921.2,523.3c-2.7,3.2-2.7,7.9,0,11.1
				c1.3,1.4,3.2,2.2,5.2,2.1c1.9,0.1,3.8-0.7,5.1-2.1c2.7-3.2,2.7-7.9,0-11.1c-1.3-1.4-3.2-2.2-5.1-2.1
				C924.4,521.1,922.5,521.9,921.2,523.3L921.2,523.3z"/>
			<path class="st2" d="M968.3,516.1v23c0.1,2.2-0.5,4.4-1.6,6.3c-1.1,1.8-2.7,3.2-4.6,4.1c-2.2,1-4.6,1.5-7,1.4
				c-3.8,0-7.6-1.2-10.7-3.4l2.5-4.5c2.3,1.7,5.1,2.7,7.9,2.7c2,0.1,3.9-0.5,5.4-1.8c1.4-1.2,2.1-3,2-4.8v-3c-0.8,1.3-2,2.3-3.3,3
				c-1.5,0.7-3.1,1-4.7,1c-2.1,0-4.1-0.5-5.9-1.5c-1.7-1-3.1-2.5-4-4.3c-1-2-1.5-4.2-1.4-6.4c0-2.2,0.4-4.3,1.4-6.3
				c0.9-1.8,2.3-3.2,4-4.2c1.8-1,3.8-1.5,5.9-1.5c1.6,0,3.2,0.3,4.7,1c1.3,0.7,2.5,1.7,3.3,2.9v-3.8H968.3z M960.3,533.4
				c2.5-3,2.5-7.4,0-10.5c-2.7-2.7-7-2.7-9.7-0.1c0,0,0,0-0.1,0.1c-2.6,3-2.6,7.4,0,10.5C953.2,536,957.6,536,960.3,533.4
				L960.3,533.4z"/>
			<path class="st2" d="M993.5,517.6c2,1,3.6,2.6,4.7,4.5c1.1,2,1.7,4.4,1.7,6.7c0,2.4-0.5,4.7-1.7,6.8c-1.1,1.9-2.7,3.5-4.7,4.5
				c-2.1,1.1-4.5,1.7-7,1.6c-2.4,0-4.8-0.5-7-1.6c-2-1-3.6-2.6-4.7-4.5c-1.2-2.1-1.7-4.4-1.7-6.8c0-2.3,0.5-4.7,1.7-6.7
				c1.1-1.9,2.7-3.5,4.7-4.5c2.2-1.1,4.6-1.7,7-1.6C989,515.9,991.4,516.5,993.5,517.6z M981.4,523.3c-2.7,3.2-2.7,7.9,0,11.1
				c1.3,1.4,3.2,2.2,5.2,2.1c1.9,0.1,3.8-0.7,5.1-2.1c2.7-3.2,2.7-7.9,0-11.1c-1.3-1.4-3.2-2.2-5.1-2.1
				C984.6,521.1,982.7,521.9,981.4,523.3z"/>
		</g>
	</g>
	<g id="Wordmark_Details">
		<path class="st2" d="M664,23.5h6.6l-11.3,33.2h-6.6l-7.6-25.2l-7.7,25.2h-6.5l-11.2-33.2h6.8l7.8,26.3l7.8-26.3h6.3l7.8,26.4
			L664,23.5z"/>
		<path class="st2" d="M689.9,32.7c2,1,3.6,2.6,4.7,4.5c1.2,2.1,1.7,4.4,1.7,6.8c0,2.4-0.5,4.7-1.7,6.8c-1.1,1.9-2.7,3.5-4.7,4.5
			c-2.2,1.1-4.6,1.7-7,1.6c-2.4,0-4.8-0.5-7-1.6c-2-1-3.6-2.6-4.7-4.5c-1.1-2.1-1.7-4.4-1.7-6.8c0-2.3,0.5-4.7,1.7-6.7
			c1.1-1.9,2.7-3.5,4.7-4.5c2.2-1.1,4.6-1.7,7-1.6C685.3,31.1,687.7,31.6,689.9,32.7z M677.7,38.5c-1.4,1.5-2.1,3.5-2,5.5
			c-0.1,2,0.6,4,2,5.5c1.3,1.4,3.2,2.2,5.2,2.1c1.9,0.1,3.8-0.7,5.1-2.1c1.4-1.5,2.1-3.5,2-5.6c0.1-2-0.6-4-2-5.5
			c-1.3-1.4-3.2-2.2-5.1-2.1C680.9,36.3,679,37.1,677.7,38.5z"/>
		<path class="st2" d="M711.3,32.4c1.6-0.9,3.3-1.4,5.2-1.4v6c-2.3-0.3-4.5,0.4-6.3,1.8c-1.6,1.4-2.4,3.5-2.3,5.6v12.2h-6.2V31.3
			h6.2v4.9C708.6,34.6,709.8,33.3,711.3,32.4z"/>
		<path class="st2" d="M745.2,21.5v35.2H739v-4.1c-0.9,1.4-2.1,2.5-3.5,3.3c-1.6,0.8-3.3,1.1-5,1.1c-2.2,0-4.4-0.5-6.3-1.6
			c-1.8-1.1-3.3-2.7-4.2-4.6c-1-2.1-1.6-4.5-1.5-6.8c0-2.3,0.5-4.6,1.5-6.7c0.9-1.9,2.4-3.5,4.2-4.5c1.9-1.1,4.1-1.7,6.2-1.6
			c1.8,0,3.5,0.4,5.1,1.1c1.5,0.8,2.7,1.9,3.6,3.3v-14L745.2,21.5z M737,49.6c1.4-1.5,2.1-3.6,2-5.6c0.1-2-0.6-4-2-5.6
			c-2.9-2.9-7.5-2.9-10.4,0c0,0,0,0,0,0c-2.7,3.2-2.7,7.9,0,11.2C729.5,52.4,734.1,52.4,737,49.6C737,49.6,737,49.6,737,49.6
			L737,49.6z"/>
		<path class="st2" d="M793.1,33.7c1.7,2,2.6,4.5,2.5,7.1v15.8h-6.2v-14c0.1-1.6-0.4-3.1-1.5-4.2c-1.1-1.1-2.6-1.6-4.1-1.5
			c-1.8,0-3.5,0.8-4.7,2.1c-1.2,1.5-1.8,3.3-1.7,5.2v12.5h-6.2v-14c0.1-1.6-0.4-3.1-1.5-4.2c-1.1-1.1-2.5-1.6-4-1.5
			c-1.8,0-3.6,0.7-4.8,2.1c-1.2,1.5-1.8,3.3-1.7,5.2v12.5h-6.2V31.3h6.2V36c1.7-3.2,4.7-4.9,8.9-4.9c2-0.1,3.9,0.5,5.6,1.6
			c1.5,1.1,2.6,2.7,3.2,4.5c1.6-4,4.8-6,9.4-6.1C788.9,30.9,791.3,31.9,793.1,33.7z"/>
		<path class="st2" d="M817.5,56.7v-3.1c-0.9,1.1-2.1,2-3.5,2.5c-1.5,0.6-3.2,0.9-4.8,0.8c-1.6,0-3.2-0.3-4.7-1
			c-1.3-0.6-2.4-1.6-3.1-2.8c-0.7-1.2-1.1-2.6-1.1-4c-0.1-2.2,0.8-4.2,2.5-5.6c1.7-1.3,4.1-2,7.1-2.1h7.4v-0.7
			c0.1-1.3-0.5-2.6-1.5-3.5c-1.2-0.9-2.7-1.3-4.3-1.2c-2.7,0.1-5.3,0.9-7.5,2.4l-2.2-4.3c1.7-1,3.5-1.8,5.4-2.4
			c1.9-0.5,3.8-0.8,5.7-0.7c3.3,0,5.8,0.8,7.7,2.4c1.9,1.7,2.9,4.1,2.8,6.6v16.6L817.5,56.7z M815.3,50.9c1.1-0.7,1.9-1.8,2.1-3.1
			v-2.3H811c-1.3-0.1-2.5,0.2-3.6,0.7c-0.8,0.5-1.2,1.4-1.2,2.4c0,1,0.4,2,1.2,2.6c1,0.7,2.1,1.1,3.3,1
			C812.3,52.3,813.9,51.8,815.3,50.9z"/>
		<path class="st2" d="M840.1,32.4c1.6-0.9,3.3-1.4,5.2-1.4v6c-2.2-0.3-4.5,0.4-6.2,1.8c-1.6,1.4-2.4,3.5-2.3,5.6v12.2h-6.2V31.3
			h6.2v4.9C837.4,34.6,838.6,33.3,840.1,32.4z"/>
		<path class="st2" d="M866.7,56.7l-6.9-11.1l-3.8,4.1v7h-6.2V21.5h6.2v20.4l10.4-10.5h7.1l-9.4,9.8l10,15.6H866.7z"/>
		<path class="st2" d="M912.8,25.6c2.6,1.4,4.7,3.4,6.2,5.9c1.5,2.6,2.3,5.6,2.2,8.6c0,3-0.7,6-2.3,8.6c-1.5,2.5-3.6,4.5-6.2,5.9
			c-2.8,1.5-5.9,2.2-9.1,2.1h-13.6V23.5h13.8C907,23.4,910.1,24.1,912.8,25.6z M909.5,49.7c1.6-0.9,2.9-2.3,3.8-3.9
			c1.9-3.6,1.9-7.8,0-11.4c-0.9-1.7-2.3-3-3.9-3.9c-1.7-0.9-3.6-1.4-5.6-1.4h-7.3v22h7.5C905.9,51.1,907.8,50.6,909.5,49.7z"/>
		<path class="st2" d="M946.2,34.6c2,2.3,3,5.5,3,9.7c0,0.8,0,1.4,0,1.8h-18.7c0.6,3.5,3.7,5.9,7.3,5.8c1.3,0,2.5-0.2,3.7-0.7
			c1.2-0.5,2.2-1.2,3.1-2.1l3.3,3.5c-1.3,1.4-2.9,2.5-4.6,3.2c-1.9,0.8-3.9,1.1-6,1.1c-2.4,0.1-4.7-0.5-6.8-1.6
			c-1.9-1-3.5-2.6-4.6-4.5c-1.1-2.1-1.7-4.4-1.7-6.8c0-2.3,0.5-4.7,1.6-6.7c1.1-1.9,2.6-3.5,4.6-4.6c2.1-1.1,4.4-1.7,6.7-1.6
			C941.1,31.1,944.2,32.3,946.2,34.6z M943.6,42c0-1.7-0.7-3.3-1.8-4.5c-2.7-2.2-6.5-2.2-9.2,0c-1.3,1.2-2.1,2.8-2.3,4.5H943.6z"/>
		<path class="st2" d="M969.4,55.1c-1.9,1.2-4.1,1.8-6.4,1.8c-2,0.1-3.9-0.6-5.4-1.9c-1.5-1.5-2.2-3.6-2.1-5.7V36.8h-3.6v-4.5h3.6
			v-7h6.1v7h7.2v4.5h-7.3v11.4c-0.1,0.9,0.2,1.8,0.7,2.5c0.5,0.5,1.3,0.8,2,0.7c1.3-0.1,2.5-0.4,3.6-1L969.4,55.1z"/>
		<path class="st2" d="M989.2,56.7v-3.1c-0.9,1.1-2.1,2-3.4,2.5c-1.5,0.6-3.2,0.9-4.8,0.8c-1.6,0-3.2-0.3-4.7-1
			c-1.3-0.6-2.4-1.6-3.1-2.8c-0.7-1.2-1.1-2.6-1.1-4c-0.1-2.2,0.8-4.2,2.5-5.6c1.7-1.3,4-2,7.1-2.1h7.4v-0.7
			c0.1-1.3-0.5-2.6-1.5-3.5c-1.2-0.9-2.7-1.3-4.3-1.2c-2.7,0.1-5.3,0.9-7.5,2.4l-2.2-4.3c1.7-1,3.5-1.8,5.4-2.4
			c1.9-0.5,3.8-0.8,5.7-0.7c3.3,0,5.8,0.8,7.7,2.4c1.9,1.7,2.9,4.1,2.8,6.6v16.6L989.2,56.7z M987,50.9c1.1-0.7,1.9-1.8,2.1-3.1
			v-2.3h-6.4c-1.3-0.1-2.5,0.2-3.6,0.7c-0.8,0.5-1.2,1.4-1.2,2.4c0,1,0.4,2,1.2,2.6c1,0.7,2.1,1.1,3.3,1
			C984.1,52.3,985.7,51.8,987,50.9z"/>
		<path class="st2" d="M1007.8,21.4c0.7,0.7,1,1.7,1,2.6c0,1-0.3,1.9-1,2.6c-1.4,1.4-3.6,1.4-5,0c-0.7-0.7-1-1.6-1-2.6
			c0-1,0.3-1.9,1-2.6C1004.1,20,1006.4,20,1007.8,21.4C1007.8,21.4,1007.8,21.4,1007.8,21.4z M1002.2,31.3h6.2v25.4h-6.2V31.3z"/>
		<path class="st2" d="M1016.3,21.5h6.2v35.2h-6.2V21.5z"/>
		<path class="st2" d="M1041.6,36.5c-1.2-0.4-2.4-0.6-3.6-0.6c-0.9,0-1.7,0.1-2.5,0.5c-0.6,0.3-1,1-0.9,1.7c0,0.8,0.4,1.5,1.2,1.8
			c1.2,0.6,2.4,1,3.7,1.3c1.5,0.4,2.9,1,4.4,1.6c1.2,0.5,2.2,1.3,3,2.3c0.9,1.2,1.3,2.6,1.3,4c0.1,2.3-1,4.4-2.8,5.7
			c-2.1,1.4-4.6,2.1-7.2,2c-2,0-3.9-0.3-5.7-0.9c-1.7-0.5-3.4-1.4-4.7-2.6l2.1-4.3c1.2,1,2.6,1.8,4.1,2.3c1.4,0.5,3,0.8,4.5,0.8
			c0.9,0,1.9-0.2,2.7-0.6c0.6-0.4,1-1,1-1.8c0-0.8-0.4-1.6-1.2-2c-1.2-0.6-2.5-1.1-3.8-1.5c-1.4-0.4-2.8-0.9-4.2-1.5
			c-1.1-0.5-2-1.3-2.8-2.2c-0.8-1.1-1.3-2.5-1.2-3.9c-0.1-2.2,0.9-4.4,2.7-5.7c2-1.4,4.4-2.1,6.8-2c1.7,0,3.4,0.2,5,0.7
			c1.5,0.4,3,1.1,4.3,2l-2.2,4.5C1044.2,37.4,1042.9,36.9,1041.6,36.5z"/>
		<path class="st2" d="M668.9,176.9c-3-1.5-6.4-2.3-9.7-2.3c-4,0-7.8,1-11.3,2.9c-3.4,1.9-6.2,4.7-8.1,8.1c-3.9,7.1-3.9,15.6,0,22.7
			c1.9,3.4,4.7,6.2,8.1,8.2c3.4,2,7.3,3,11.3,3c3.3,0,6.5-0.7,9.5-2.1c3.2-1.4,6.1-3.3,8.5-5.8l7.5,8.4c-3.5,3.5-7.6,6.4-12.1,8.4
			c-4.4,2-9.2,3.1-14,3.1c-6.2,0.1-12.2-1.5-17.6-4.6c-5.2-2.9-9.5-7.2-12.5-12.4c-3-5.3-4.6-11.2-4.5-17.3
			c-0.1-6.1,1.5-12,4.7-17.3c3.1-5.1,7.4-9.4,12.7-12.2c9.8-5.3,21.5-5.9,31.8-1.6c4.4,1.8,8.3,4.5,11.6,7.9l-7.4,9.3
			C674.9,180.6,672.1,178.4,668.9,176.9z"/>
		<path class="st2" d="M741.5,179.8v50.7h-12.4v-9.4c-3.4,6.6-9.3,9.9-17.6,9.9c-5.7,0-10.2-1.7-13.5-5.2c-3.3-3.5-4.9-8.2-4.9-14.2
			v-31.8h12.4v28.2c0,3.5,1,6.3,2.9,8.4c2.1,2.1,5,3.2,8,3c3.6,0.1,7-1.4,9.3-4.2c2.3-2.9,3.6-6.6,3.4-10.3v-25L741.5,179.8z"/>
		<path class="st2" d="M779.3,190.1c-2.3-0.8-4.8-1.2-7.3-1.2c-1.7-0.1-3.5,0.3-5,1.1c-1.2,0.7-1.9,2-1.8,3.4c0,1.6,0.9,3,2.3,3.6
			c2.4,1.2,4.8,2.1,7.3,2.7c3,0.9,5.9,1.9,8.7,3.2c2.3,1.1,4.3,2.7,5.9,4.6c1.8,2.3,2.7,5.2,2.5,8.1c0.2,4.5-1.9,8.9-5.7,11.4
			c-3.8,2.7-8.6,4-14.3,4c-3.9,0-7.8-0.6-11.5-1.9c-3.5-1.1-6.7-2.9-9.5-5.3l4.3-8.6c2.4,2,5.2,3.6,8.2,4.6c2.9,1.1,5.9,1.6,9,1.7
			c1.9,0.1,3.8-0.3,5.5-1.2c1.3-0.7,2.1-2.1,2-3.6c0.1-1.7-0.9-3.2-2.4-4c-2.5-1.2-5-2.2-7.7-2.9c-2.8-0.8-5.6-1.8-8.3-3
			c-2.2-1-4.1-2.5-5.6-4.4c-1.7-2.3-2.5-5-2.4-7.8c0-5,1.8-8.8,5.5-11.4c3.6-2.6,8.2-3.9,13.7-3.9c3.4,0,6.7,0.5,9.9,1.4
			c3.1,0.9,6,2.2,8.7,4l-4.5,8.9C784.5,192.1,782,190.9,779.3,190.1z"/>
		<path class="st2" d="M832.3,227.4c-3.8,2.4-8.2,3.7-12.7,3.7c-3.9,0.2-7.8-1.2-10.7-3.8c-2.8-2.6-4.2-6.3-4.2-11.3v-25h-7.1
			l-0.1-9h7.2v-14h12.2v13.9h14.5v9h-14.5v22.9c0,2.3,0.4,4,1.3,5c1.1,1.1,2.5,1.6,4,1.5c2.5-0.2,5-0.9,7.2-2.1L832.3,227.4z"/>
		<path class="st2" d="M877.5,182.6c3.9,2.1,7.2,5.2,9.4,9.1c2.3,4.1,3.5,8.7,3.4,13.4c0.1,4.7-1.1,9.4-3.4,13.6
			c-2.2,3.9-5.5,7-9.4,9.1c-4.3,2.2-9.1,3.4-13.9,3.3c-4.9,0.1-9.7-1-14-3.2c-4-2.1-7.2-5.2-9.4-9.1c-2.3-4.1-3.5-8.8-3.4-13.6
			c-0.1-4.7,1.1-9.3,3.4-13.4c2.2-3.9,5.5-7,9.4-9.1c4.3-2.2,9.1-3.3,14-3.2C868.5,179.3,873.3,180.4,877.5,182.6z M853.2,194.2
			c-5.3,6.4-5.3,15.7,0,22.2c2.7,2.9,6.5,4.4,10.4,4.3c3.9,0.1,7.6-1.4,10.2-4.3c5.3-6.4,5.3-15.7,0-22.2c-2.6-2.8-6.4-4.4-10.2-4.3
			C859.7,189.7,855.9,191.3,853.2,194.2z"/>
		<path class="st2" d="M981.1,184.5c3.3,3.5,4.9,8.3,4.9,14.3v31.7h-12.4v-28.1c0-3.6-1-6.4-3-8.5c-2.2-2.1-5.1-3.2-8.1-3.1
			c-3.6,0-7,1.5-9.3,4.3c-2.4,2.9-3.6,6.6-3.5,10.3v25h-12.4v-28c0-3.6-1-6.4-2.9-8.5c-2.1-2.1-5.1-3.2-8.1-3.1
			c-3.6,0-7.1,1.5-9.4,4.3c-2.4,2.9-3.6,6.6-3.5,10.3v25H901v-50.7h12.3v9.4c3.3-6.4,9.3-9.7,17.8-9.9c4-0.1,7.9,1,11.2,3.2
			c3.1,2.2,5.3,5.4,6.3,9c3.2-8,9.5-12,18.9-12.1C973.2,179.3,977.8,181,981.1,184.5z"/>
		<path class="st2" d="M1029.7,230.5v-6.2c-1.8,2.2-4.2,4-6.8,5c-3.1,1.2-6.3,1.8-9.6,1.7c-3.2,0.1-6.4-0.6-9.3-2
			c-2.6-1.2-4.7-3.2-6.2-5.6c-1.5-2.4-2.2-5.2-2.2-8.1c0-4.7,1.7-8.5,5-11.1c3.3-2.7,8.1-4.1,14.2-4.1h14.8v-1.3
			c0.1-2.6-0.9-5.2-2.9-6.9c-2-1.6-4.8-2.5-8.5-2.5c-4.8,0-9.8,1.6-15.1,4.7l-4.5-8.5c3.4-2,7.1-3.6,10.9-4.8
			c3.7-1,7.6-1.5,11.4-1.5c6.6,0,11.7,1.6,15.3,4.7s5.5,7.6,5.6,13.3l0.1,33.2L1029.7,230.5z M1025.3,219.1c2.3-1.3,3.9-3.6,4.3-6.2
			v-4.6h-12.8c-3.3,0-5.7,0.5-7.3,1.5c-1.6,1.1-2.5,2.9-2.3,4.8c-0.1,2,0.8,3.9,2.4,5.1c1.9,1.4,4.2,2,6.6,1.9
			C1019.5,221.7,1022.6,220.8,1025.3,219.1z"/>
		<path class="st2" d="M574.8,258.3h11.5v2.8H578v4.5h7.5v2.8H578v6.6h-3.2L574.8,258.3z"/>
		<path class="st2" d="M597.6,262.9c1,0.5,1.8,1.3,2.3,2.3c0.6,1,0.9,2.2,0.8,3.4c0,1.2-0.3,2.4-0.8,3.4c-0.5,1-1.4,1.8-2.3,2.3
			c-1.1,0.6-2.3,0.8-3.5,0.8c-1.2,0-2.4-0.3-3.5-0.8c-1-0.5-1.8-1.3-2.4-2.3c-0.6-1-0.9-2.2-0.8-3.4c0-1.2,0.3-2.3,0.8-3.4
			c0.6-1,1.4-1.7,2.4-2.3c1.1-0.6,2.3-0.8,3.5-0.8C595.3,262.1,596.5,262.4,597.6,262.9z M591.5,265.8c-0.7,0.8-1,1.8-1,2.8
			c0,1,0.3,2,1,2.8c0.7,0.7,1.6,1.1,2.6,1.1c1,0,1.9-0.4,2.6-1.1c0.7-0.8,1-1.8,1-2.8c0-1-0.3-2-1-2.8c-0.7-0.7-1.6-1.1-2.6-1.1
			C593.1,264.7,592.2,265.1,591.5,265.8z"/>
		<path class="st2" d="M614.5,263.4c0.9,1,1.3,2.3,1.3,3.6v7.9h-3.1v-7c0-0.8-0.2-1.5-0.8-2.1c-0.6-0.5-1.3-0.8-2.1-0.8
			c-0.9,0-1.8,0.4-2.4,1c-0.6,0.7-0.9,1.7-0.9,2.6v6.2h-3.1v-12.7h3.1v2.4c0.9-1.7,2.7-2.6,4.6-2.5
			C612.4,262,613.6,262.5,614.5,263.4z"/>
		<path class="st2" d="M626.7,274.1c-1,0.6-2.1,0.9-3.2,0.9c-1,0-1.9-0.3-2.7-1c-0.7-0.8-1.1-1.8-1-2.8V265H618v-2.3h1.8v-3.5h3.1
			v3.5h3.6v2.3h-3.6v5.7c0,0.4,0.1,0.9,0.3,1.3c0.3,0.3,0.6,0.4,1,0.4c0.6,0,1.2-0.2,1.8-0.5L626.7,274.1z"/>
		<path class="st2" d="M631,265.1c0.3,0.3,0.5,0.8,0.5,1.2c0,0.5-0.1,0.9-0.5,1.2c-0.3,0.3-0.7,0.5-1.2,0.5c-0.4,0-0.9-0.2-1.1-0.5
			c-0.3-0.3-0.5-0.8-0.5-1.2c0-0.5,0.2-0.9,0.5-1.2c0.3-0.3,0.7-0.5,1.1-0.5C630.3,264.6,630.7,264.8,631,265.1z M631,272.1
			c0.3,0.3,0.5,0.8,0.5,1.2c0,0.5-0.1,0.9-0.5,1.3c-0.3,0.3-0.7,0.5-1.2,0.5c-0.4,0-0.9-0.2-1.1-0.5c-0.3-0.3-0.5-0.8-0.5-1.2
			c0-0.5,0.2-0.9,0.5-1.2c0.3-0.3,0.7-0.5,1.1-0.5C630.3,271.7,630.7,271.8,631,272.1L631,272.1z"/>
		<path class="st2" d="M685.8,258.3h3.6l5.5,10.7l5.5-10.7h3.6v16.6h-2.9V263l-5.2,10.2h-2l-5.2-10.2v11.9h-2.9V258.3z"/>
		<path class="st2" d="M717,262.9c1,0.5,1.8,1.3,2.3,2.3c0.6,1,0.9,2.2,0.8,3.4c0,1.2-0.3,2.4-0.8,3.4c-0.5,1-1.4,1.8-2.3,2.3
			c-1.1,0.6-2.3,0.8-3.5,0.8c-1.2,0-2.4-0.3-3.5-0.8c-1-0.5-1.8-1.3-2.4-2.3c-0.6-1-0.9-2.2-0.8-3.4c0-1.2,0.3-2.3,0.8-3.4
			c0.6-1,1.4-1.7,2.4-2.3c1.1-0.6,2.3-0.8,3.5-0.8C714.7,262.1,715.9,262.4,717,262.9z M710.9,265.8c-0.7,0.8-1,1.8-1,2.8
			c0,1,0.3,2,1,2.8c0.7,0.7,1.6,1.1,2.6,1.1c1,0,1.9-0.4,2.6-1.1c0.7-0.8,1-1.8,1-2.8c0-1-0.3-2-1-2.8c-0.7-0.7-1.6-1.1-2.6-1.1
			C712.5,264.7,711.6,265.1,710.9,265.8L710.9,265.8z"/>
		<path class="st2" d="M733.9,263.4c0.9,1,1.3,2.3,1.3,3.6v7.9h-3.1v-7c0-0.8-0.2-1.5-0.8-2.1c-0.6-0.5-1.3-0.8-2.1-0.8
			c-0.9,0-1.8,0.4-2.4,1c-0.6,0.7-0.9,1.7-0.9,2.6v6.2h-3.1v-12.7h3.1v2.4c0.9-1.6,2.7-2.6,4.5-2.5C731.8,262,733,262.5,733.9,263.4
			z"/>
		<path class="st2" d="M746.1,274.1c-1,0.6-2.1,0.9-3.2,0.9c-1,0-2-0.3-2.7-1c-0.7-0.8-1.1-1.8-1-2.8V265h-1.8v-2.3h1.8v-3.5h3.1
			v3.5h3.6v2.3h-3.6v5.7c0,0.4,0.1,0.9,0.3,1.3c0.3,0.3,0.6,0.4,1,0.4c0.6,0,1.2-0.2,1.8-0.5L746.1,274.1z"/>
		<path class="st2" d="M754.1,264.8c-0.6-0.2-1.2-0.3-1.8-0.3c-0.4,0-0.9,0.1-1.2,0.3c-0.3,0.2-0.5,0.5-0.5,0.8
			c0,0.4,0.2,0.8,0.6,0.9c0.6,0.3,1.2,0.5,1.8,0.7c0.7,0.2,1.5,0.5,2.2,0.8c0.6,0.3,1.1,0.7,1.5,1.2c0.4,0.6,0.7,1.3,0.6,2
			c0.1,1.1-0.5,2.2-1.4,2.8c-1.1,0.7-2.3,1.1-3.6,1c-1,0-1.9-0.2-2.9-0.5c-0.9-0.3-1.7-0.7-2.4-1.3l1.1-2.2c0.6,0.5,1.3,0.9,2,1.1
			c0.7,0.3,1.5,0.4,2.3,0.4c0.5,0,0.9-0.1,1.4-0.3c0.3-0.2,0.5-0.5,0.5-0.9c0-0.4-0.2-0.8-0.6-1c-0.6-0.3-1.3-0.5-1.9-0.7
			c-0.7-0.2-1.4-0.5-2.1-0.8c-0.6-0.3-1-0.6-1.4-1.1c-0.4-0.6-0.6-1.3-0.6-2c-0.1-1.1,0.5-2.2,1.4-2.9c1-0.7,2.2-1,3.4-1
			c0.8,0,1.7,0.1,2.5,0.4c0.8,0.2,1.5,0.6,2.2,1l-1.1,2.3C755.4,265.3,754.8,265,754.1,264.8z"/>
		<path class="st2" d="M769.8,263.9c1.1,1.4,1.6,3.1,1.5,4.9c0,0.4,0,0.7,0,0.9h-9.4c0.3,1.7,1.9,3,3.6,2.9c0.6,0,1.3-0.1,1.9-0.4
			c0.6-0.2,1.1-0.6,1.6-1l1.7,1.7c-0.6,0.7-1.4,1.2-2.3,1.6c-1,0.4-2,0.6-3,0.6c-1.2,0-2.4-0.3-3.4-0.8c-1-0.5-1.8-1.3-2.3-2.3
			c-0.6-1-0.8-2.2-0.8-3.4c0-1.2,0.3-2.3,0.8-3.4c0.5-1,1.3-1.8,2.3-2.3c1-0.6,2.2-0.8,3.3-0.8C766.9,262,768.6,262.6,769.8,263.9z
			 M768.5,267.6c0-0.8-0.3-1.6-0.9-2.2c-1.3-1.1-3.3-1.1-4.6,0c-0.6,0.6-1,1.4-1.1,2.2L768.5,267.6z"/>
		<path class="st2" d="M778.8,262.8c0.8-0.4,1.7-0.7,2.6-0.7v3c-1.1-0.1-2.3,0.2-3.2,0.9c-0.8,0.7-1.2,1.7-1.2,2.8v6.1h-3v-12.7h3
			v2.5C777.4,263.9,778,263.2,778.8,262.8z"/>
		<path class="st2" d="M788.3,262.8c0.8-0.4,1.7-0.7,2.6-0.7v3c-1.1-0.1-2.3,0.2-3.1,0.9c-0.8,0.7-1.2,1.7-1.2,2.8v6.1h-3.1v-12.7
			h3.1v2.5C787,263.9,787.6,263.2,788.3,262.8z"/>
		<path class="st2" d="M800.1,274.9v-1.5c-0.5,0.6-1,1-1.7,1.3c-0.8,0.3-1.6,0.4-2.4,0.4c-0.8,0-1.6-0.2-2.3-0.5
			c-0.6-0.3-1.2-0.8-1.5-1.4c-0.4-0.6-0.6-1.3-0.5-2c-0.1-1.1,0.4-2.1,1.3-2.8c1-0.7,2.3-1.1,3.6-1h3.7V267c0-0.7-0.2-1.3-0.7-1.7
			c-0.6-0.5-1.4-0.7-2.1-0.6c-1.3,0-2.6,0.4-3.8,1.2l-1.1-2.1c0.9-0.5,1.8-0.9,2.7-1.2c0.9-0.3,1.9-0.4,2.8-0.4
			c1.4-0.1,2.7,0.3,3.8,1.2c0.9,0.8,1.4,2.1,1.4,3.3v8.3L800.1,274.9z M799,272c0.6-0.3,1-0.9,1.1-1.5v-1.1h-3.2
			c-0.6,0-1.3,0.1-1.8,0.4c-0.4,0.3-0.6,0.7-0.6,1.2c0,0.5,0.2,1,0.6,1.3c0.5,0.3,1.1,0.5,1.6,0.5C797.5,272.7,798.3,272.4,799,272z
			"/>
		<path class="st2" d="M814,274.1c-1,0.6-2.1,0.9-3.2,0.9c-1,0-2-0.3-2.7-1c-0.7-0.8-1.1-1.8-1-2.8V265h-1.8v-2.3h1.8v-3.5h3v3.5
			h3.6v2.3h-3.6v5.7c0,0.4,0.1,0.9,0.3,1.3c0.3,0.3,0.6,0.4,1,0.4c0.6,0,1.2-0.2,1.8-0.5L814,274.1z"/>
		<path class="st2" d="M595,286.8h3.3l-5.6,16.6h-3.3l-3.8-12.6l-3.9,12.6h-3.3l-5.6-16.6h3.4l3.9,13.2l3.9-13.2h3.1l3.9,13.3
			L595,286.8z"/>
		<path class="st2" d="M608.8,292.3c1.1,1.4,1.6,3.1,1.5,4.9c0,0.4,0,0.7,0,0.9h-9.4c0.3,1.7,1.9,3,3.6,2.9c0.6,0,1.3-0.1,1.9-0.4
			c0.6-0.2,1.1-0.6,1.6-1.1l1.7,1.7c-0.6,0.7-1.4,1.2-2.3,1.6c-1,0.4-2,0.6-3,0.6c-1.2,0-2.4-0.3-3.4-0.8c-1-0.5-1.8-1.3-2.3-2.3
			c-0.6-1-0.8-2.2-0.8-3.4c0-1.2,0.3-2.3,0.8-3.4c0.5-1,1.3-1.8,2.3-2.3c1-0.6,2.2-0.8,3.3-0.8C605.9,290.5,607.6,291.1,608.8,292.3
			z M607.5,296c0-0.8-0.3-1.6-0.9-2.2c-1.3-1.1-3.3-1.1-4.6,0c-0.6,0.6-1,1.4-1.1,2.2L607.5,296z"/>
		<path class="st2" d="M615.7,285.7c0.3,0.4,0.5,0.8,0.5,1.3c0,0.5-0.2,1-0.5,1.3c-0.7,0.7-1.8,0.7-2.5,0c0,0,0,0,0,0
			c-0.3-0.3-0.5-0.8-0.5-1.3c0-0.5,0.2-1,0.5-1.3C613.9,285,615,285,615.7,285.7C615.7,285.7,615.7,285.7,615.7,285.7z M613,290.7h3
			v12.7h-3V290.7z"/>
		<path class="st2" d="M631.4,290.7v11.5c0,1.1-0.3,2.2-0.8,3.1c-0.6,0.9-1.4,1.6-2.3,2.1c-1.1,0.5-2.3,0.8-3.5,0.7
			c-1.9,0-3.8-0.6-5.3-1.7l1.2-2.2c1.1,0.9,2.6,1.3,4,1.3c1,0,1.9-0.3,2.7-0.9c0.7-0.6,1-1.5,1-2.4v-1.5c-0.4,0.6-1,1.1-1.7,1.5
			c-0.7,0.4-1.6,0.5-2.4,0.5c-1,0-2-0.2-2.9-0.8c-0.9-0.5-1.5-1.3-2-2.2c-0.5-1-0.7-2.1-0.7-3.2c0-1.1,0.2-2.2,0.7-3.1
			c0.4-0.9,1.1-1.6,2-2.1c0.9-0.5,1.9-0.8,2.9-0.8c0.8,0,1.6,0.2,2.4,0.5c0.7,0.3,1.2,0.8,1.7,1.5v-1.9H631.4z M627.4,299.3
			c1.3-1.5,1.3-3.7,0-5.2c-1.3-1.3-3.5-1.3-4.9,0c-1.3,1.5-1.3,3.7,0,5.2C623.9,300.6,626.1,300.6,627.4,299.3
			C627.4,299.3,627.4,299.3,627.4,299.3L627.4,299.3z"/>
		<path class="st2" d="M646.3,291.9c0.9,1,1.3,2.3,1.3,3.6v7.9h-3.1v-7c0-0.8-0.2-1.5-0.8-2.1c-0.6-0.5-1.3-0.8-2.1-0.8
			c-0.9,0-1.8,0.3-2.4,1c-0.6,0.7-0.9,1.7-0.9,2.6v6.2h-3.1v-17.6h3.1v7.3c0.9-1.7,2.7-2.7,4.6-2.5
			C644.1,290.5,645.4,291,646.3,291.9z"/>
		<path class="st2" d="M658.4,302.6c-1,0.6-2.1,0.9-3.2,0.9c-1,0-1.9-0.3-2.7-1c-0.7-0.7-1.1-1.8-1-2.8v-6.3h-1.8v-2.3h1.8v-3.5h3.1
			v3.5h3.6v2.3h-3.6v5.7c0,0.4,0.1,0.9,0.3,1.3c0.3,0.3,0.6,0.4,1,0.4c0.6,0,1.2-0.2,1.8-0.5L658.4,302.6z"/>
		<path class="st2" d="M662.8,293.6c0.3,0.3,0.5,0.8,0.5,1.2c0,0.5-0.1,0.9-0.5,1.2c-0.6,0.6-1.6,0.7-2.3,0c0,0,0,0,0,0
			c-0.3-0.3-0.5-0.8-0.5-1.2c0-0.4,0.2-0.9,0.5-1.2c0.3-0.3,0.7-0.5,1.2-0.5C662,293.1,662.4,293.3,662.8,293.6z M662.8,300.6
			c0.3,0.3,0.5,0.8,0.5,1.2c0,0.5-0.1,0.9-0.5,1.3c-0.3,0.3-0.7,0.5-1.2,0.5c-0.4,0-0.9-0.2-1.2-0.5c-0.3-0.3-0.5-0.8-0.5-1.2
			c0-0.4,0.2-0.9,0.5-1.2c0.3-0.3,0.7-0.5,1.2-0.5C662,300.1,662.4,300.3,662.8,300.6L662.8,300.6z"/>
		<path class="st2" d="M685.8,286.8h3.6l5.5,10.7l5.5-10.7h3.6v16.6h-2.9v-11.9l-5.2,10.2h-2l-5.2-10.2v11.9h-2.9L685.8,286.8z"/>
		<path class="st2" d="M717.8,292.3c1.1,1.4,1.6,3.1,1.5,4.9c0,0.4,0,0.7,0,0.9H710c0.3,1.7,1.9,3,3.6,2.9c0.6,0,1.3-0.1,1.9-0.4
			c0.6-0.2,1.1-0.6,1.5-1.1l1.7,1.7c-0.6,0.7-1.4,1.3-2.3,1.6c-1,0.4-2,0.6-3,0.6c-1.2,0-2.4-0.3-3.4-0.8c-1-0.5-1.8-1.3-2.3-2.3
			c-1.1-2.1-1.1-4.6,0-6.7c0.5-1,1.3-1.8,2.3-2.3c1-0.6,2.2-0.8,3.3-0.8C715,290.5,716.6,291.1,717.8,292.3z M716.5,296
			c0-0.8-0.3-1.6-0.9-2.2c-1.3-1.1-3.3-1.1-4.6,0c-0.6,0.6-1,1.4-1.1,2.2L716.5,296z"/>
		<path class="st2" d="M734.2,285.8v17.6h-3.1v-2c-0.4,0.7-1,1.2-1.8,1.6c-0.8,0.4-1.6,0.6-2.5,0.6c-1.1,0-2.2-0.3-3.2-0.8
			c-0.9-0.6-1.6-1.3-2.1-2.3c-0.5-1.1-0.8-2.2-0.8-3.4c0-1.2,0.2-2.3,0.8-3.4c0.5-0.9,1.2-1.7,2.1-2.3c0.9-0.5,2-0.8,3.1-0.8
			c0.9,0,1.7,0.2,2.5,0.6c0.7,0.4,1.3,1,1.8,1.6v-7L734.2,285.8z M730.1,299.8c0.7-0.8,1-1.8,1-2.8c0-1-0.3-2-1-2.8
			c-0.7-0.7-1.6-1.1-2.6-1.1c-1,0-1.9,0.4-2.6,1.1c-0.7,0.8-1,1.8-1,2.8c0,1,0.3,2,1,2.8c0.7,0.7,1.6,1.1,2.6,1.1
			C728.5,300.9,729.5,300.5,730.1,299.8L730.1,299.8z"/>
		<path class="st2" d="M741,285.7c0.3,0.4,0.5,0.8,0.5,1.3c0,0.5-0.2,1-0.5,1.3c-0.7,0.7-1.8,0.7-2.5,0c0,0,0,0,0,0
			c-0.3-0.3-0.5-0.8-0.5-1.3c0-0.5,0.2-1,0.5-1.3C739.2,285,740.3,285,741,285.7C741,285.7,741,285.7,741,285.7z M738.2,290.7h3.1
			v12.7h-3.1L738.2,290.7z"/>
		<path class="st2" d="M756.8,290.7v12.7h-3.1V301c-0.8,1.6-2.6,2.6-4.4,2.5c-1.3,0.1-2.5-0.4-3.4-1.3c-0.9-1-1.3-2.2-1.2-3.5v-8
			h3.1v7c0,0.8,0.2,1.5,0.7,2.1c0.5,0.5,1.3,0.8,2,0.8c0.9,0,1.7-0.3,2.3-1c0.6-0.7,0.9-1.7,0.8-2.6v-6.3L756.8,290.7z"/>
		<path class="st2" d="M780.7,291.9c0.9,1,1.3,2.3,1.2,3.6v7.9h-3.1v-7c0-0.8-0.2-1.5-0.8-2.1c-0.5-0.5-1.3-0.8-2-0.8
			c-0.9,0-1.8,0.4-2.3,1.1c-0.6,0.7-0.9,1.6-0.9,2.6v6.3h-3.1v-7c0-0.8-0.2-1.5-0.7-2.1c-0.5-0.5-1.3-0.8-2-0.8
			c-0.9,0-1.8,0.4-2.4,1.1c-0.6,0.7-0.9,1.6-0.9,2.6v6.3h-3.1v-12.7h3.1v2.3c1.5-2.4,4.8-3.2,7.2-1.7c0.8,0.5,1.3,1.3,1.6,2.2
			c0.7-1.9,2.7-3.1,4.7-3C778.6,290.5,779.8,291,780.7,291.9z"/>
		<path class="st2" d="M582.7,318.3c-0.8-0.3-1.6-0.4-2.4-0.4c-0.6,0-1.3,0.1-1.8,0.4c-0.4,0.2-0.7,0.7-0.7,1.2
			c0,0.4,0.2,0.8,0.5,1.1c0.3,0.3,0.7,0.6,1.2,0.8c0.6,0.3,1.3,0.5,1.9,0.7c0.9,0.3,1.9,0.6,2.8,1c0.7,0.3,1.4,0.8,1.8,1.5
			c0.5,0.7,0.8,1.6,0.8,2.6c0,0.9-0.3,1.9-0.8,2.6c-0.6,0.8-1.3,1.4-2.3,1.7c-1,0.4-2.2,0.6-3.3,0.6c-1.3,0-2.6-0.2-3.8-0.7
			c-1.2-0.4-2.3-1.1-3.2-1.9l1.3-2.7c0.8,0.8,1.8,1.4,2.8,1.8c0.9,0.4,1.9,0.6,2.9,0.7c0.7,0,1.5-0.1,2.1-0.5c0.8-0.5,1-1.5,0.5-2.3
			c-0.1-0.1-0.1-0.2-0.2-0.2c-0.3-0.3-0.7-0.6-1.2-0.8c-0.5-0.2-1.1-0.4-1.9-0.6c-0.9-0.3-1.9-0.6-2.8-1c-0.7-0.3-1.3-0.8-1.8-1.4
			c-0.5-0.7-0.8-1.6-0.8-2.5c0-0.9,0.3-1.8,0.8-2.5c0.6-0.8,1.3-1.3,2.2-1.7c1-0.4,2.1-0.6,3.3-0.6c1.1,0,2.2,0.2,3.2,0.5
			c1,0.3,1.9,0.7,2.8,1.3l-1.3,2.8C584.5,318.9,583.6,318.5,582.7,318.3z"/>
		<path class="st2" d="M592.4,314.2c0.3,0.4,0.5,0.8,0.5,1.3c0,0.5-0.2,1-0.5,1.3c-0.7,0.7-1.8,0.7-2.5,0c0,0,0,0,0,0
			c-0.3-0.3-0.5-0.8-0.5-1.3c0-0.5,0.2-1,0.5-1.3C590.6,313.5,591.7,313.5,592.4,314.2C592.4,314.2,592.4,314.2,592.4,314.2z
			 M589.6,319.1h3.1v12.7h-3.1V319.1z"/>
		<path class="st2" d="M595.8,319.1h10.6v2l-7,8.1h7.2v2.5h-11v-2l7-8.1h-6.7L595.8,319.1z"/>
		<path class="st2" d="M619.1,320.8c1.1,1.4,1.6,3.1,1.5,4.9c0,0.4,0,0.7,0,0.9h-9.4c0.3,1.7,1.9,3,3.6,2.9c0.6,0,1.3-0.1,1.9-0.4
			c0.6-0.2,1.1-0.6,1.5-1.1l1.7,1.7c-0.6,0.7-1.4,1.3-2.3,1.6c-1,0.4-2,0.6-3,0.6c-1.2,0-2.4-0.3-3.4-0.8c-1-0.5-1.8-1.3-2.3-2.3
			c-1.1-2.1-1.1-4.6,0-6.7c0.5-1,1.3-1.8,2.3-2.3c1-0.6,2.2-0.8,3.3-0.8C616.2,318.9,617.9,319.5,619.1,320.8z M617.8,324.5
			c0-0.8-0.3-1.6-0.9-2.2c-0.6-0.6-1.5-0.9-2.3-0.8c-0.8,0-1.6,0.3-2.3,0.8c-0.6,0.6-1,1.4-1.1,2.2H617.8z"/>
		<path class="st2" d="M625.2,322c0.3,0.3,0.5,0.8,0.5,1.2c0,0.5-0.1,0.9-0.5,1.2c-0.3,0.3-0.7,0.5-1.2,0.6c-0.4,0-0.9-0.2-1.2-0.5
			c-0.3-0.3-0.5-0.8-0.5-1.2c0-0.5,0.2-0.9,0.5-1.2c0.3-0.3,0.7-0.5,1.2-0.5C624.4,321.6,624.9,321.7,625.2,322z M625.2,329
			c0.3,0.3,0.5,0.8,0.5,1.2c0,0.5-0.1,0.9-0.5,1.2c-0.3,0.3-0.7,0.5-1.2,0.6c-0.4,0-0.9-0.2-1.2-0.5c-0.3-0.3-0.5-0.8-0.5-1.2
			c0-0.5,0.2-0.9,0.5-1.2c0.3-0.3,0.7-0.5,1.2-0.5C624.4,328.6,624.9,328.8,625.2,329L625.2,329z"/>
		<path class="st2" d="M683.8,315.2h6.7v16.6h-3.2V318h-3.5V315.2z"/>
		<path class="st2" d="M699.8,312.5h2.6l-7.5,22h-2.6L699.8,312.5z"/>
		<path class="st2" d="M714,329v2.8h-12.3v-2.3l6.3-6.5c0.5-0.5,1-1.1,1.5-1.8c0.3-0.4,0.5-1,0.5-1.5c0-0.6-0.2-1.1-0.7-1.4
			c-0.6-0.4-1.3-0.6-2-0.5c-0.8,0-1.6,0.2-2.3,0.5c-0.9,0.4-1.6,0.9-2.3,1.5l-1.3-2.5c0.9-0.7,2-1.3,3.1-1.8c1-0.4,2.1-0.6,3.3-0.6
			c1,0,2,0.2,2.9,0.5c0.8,0.3,1.5,0.8,2,1.5c0.5,0.6,0.7,1.4,0.7,2.2c0,0.9-0.3,1.8-0.8,2.6c-0.7,1-1.4,2-2.3,2.9l-4.2,4.3H714z"/>
		<path class="st2" d="M731.5,319.8c1,0.5,1.8,1.3,2.3,2.3c0.6,1,0.9,2.2,0.8,3.4c0,1.2-0.3,2.4-0.8,3.4c-0.5,1-1.4,1.8-2.3,2.3
			c-1.1,0.6-2.3,0.8-3.5,0.8c-1.2,0-2.4-0.3-3.5-0.8c-1-0.5-1.8-1.3-2.3-2.3c-0.6-1-0.9-2.2-0.8-3.4c0-1.2,0.3-2.3,0.8-3.4
			c0.6-1,1.4-1.8,2.3-2.3c1.1-0.5,2.3-0.8,3.5-0.8C729.3,319,730.5,319.3,731.5,319.8z M725.5,322.7c-1.3,1.6-1.3,3.9,0,5.5
			c0.7,0.7,1.6,1.1,2.6,1.1c1,0,1.9-0.4,2.6-1.1c1.3-1.6,1.3-3.9,0-5.5c-0.7-0.7-1.6-1.1-2.6-1.1C727.1,321.6,726.1,322,725.5,322.7
			z"/>
		<path class="st2" d="M741.4,317.1c-0.3,0.3-0.5,0.8-0.5,1.2v1.3h3.2v2.3h-3.2v9.9h-3.1v-9.9h-1.7v-2.3h1.7v-1.2
			c0-0.8,0.2-1.7,0.6-2.4c0.4-0.6,1-1.2,1.7-1.5c0.7-0.3,1.5-0.5,2.2-0.5c0.8,0,1.6,0.2,2.3,0.5l-0.5,2.5c-0.5-0.2-1-0.3-1.6-0.4
			C742.1,316.7,741.7,316.8,741.4,317.1z"/>
		<path class="st2" d="M759.2,331c-0.9,0.6-2,0.9-3.2,0.9c-1,0-2-0.3-2.7-1c-0.7-0.8-1.1-1.8-1-2.8v-6.3h-1.8v-2.3h1.8v-3.5h3v3.5
			h3.6v2.3h-3.6v5.7c0,0.4,0.1,0.9,0.3,1.3c0.3,0.3,0.6,0.4,1,0.4c0.6,0,1.2-0.2,1.8-0.5L759.2,331z"/>
		<path class="st2" d="M772.8,320.3c0.9,1,1.3,2.3,1.3,3.6v7.9h-3.1v-7c0-0.8-0.2-1.5-0.8-2.1c-0.6-0.5-1.3-0.8-2.1-0.8
			c-0.9,0-1.8,0.3-2.5,1c-0.6,0.7-0.9,1.7-0.9,2.6v6.2h-3.1v-17.6h3.1v7.3c0.9-1.7,2.7-2.7,4.6-2.5
			C770.6,318.9,771.9,319.4,772.8,320.3z"/>
		<path class="st2" d="M787.3,320.8c1.1,1.4,1.6,3.1,1.5,4.9c0,0.4,0,0.7,0,0.9h-9.4c0.3,1.7,1.9,3,3.6,2.9c0.6,0,1.3-0.1,1.9-0.4
			c0.6-0.2,1.1-0.6,1.6-1.1l1.7,1.7c-0.6,0.7-1.4,1.3-2.3,1.6c-1,0.4-2,0.6-3,0.6c-1.2,0-2.4-0.3-3.4-0.8c-1-0.5-1.8-1.3-2.3-2.3
			c-1.1-2.1-1.1-4.6,0-6.7c0.5-1,1.3-1.8,2.3-2.3c1-0.6,2.2-0.8,3.3-0.8C784.5,318.9,786.2,319.5,787.3,320.8z M786.1,324.5
			c0-0.8-0.3-1.6-0.9-2.2c-1.3-1.1-3.3-1.1-4.6,0c-0.6,0.6-1,1.4-1.1,2.2L786.1,324.5z"/>
		<path class="st2" d="M797.5,315.2h3.2v13.7h7.2v2.9h-10.3V315.2z"/>
		<path class="st2" d="M819.2,319.8c1,0.5,1.8,1.3,2.3,2.3c0.6,1,0.9,2.2,0.8,3.4c0,1.2-0.3,2.4-0.8,3.4c-0.5,1-1.4,1.8-2.3,2.3
			c-1.1,0.6-2.3,0.8-3.5,0.8c-1.2,0-2.4-0.3-3.5-0.8c-1-0.5-1.8-1.3-2.4-2.3c-0.6-1-0.9-2.2-0.8-3.4c0-1.2,0.3-2.3,0.8-3.4
			c0.6-1,1.4-1.8,2.4-2.3c1.1-0.5,2.3-0.8,3.5-0.8C816.9,319,818.1,319.3,819.2,319.8z M813.1,322.7c-1.3,1.6-1.3,3.9,0,5.5
			c0.7,0.7,1.6,1.1,2.6,1.1c1,0,1.9-0.4,2.6-1.1c1.3-1.6,1.3-3.9,0-5.5c-0.7-0.7-1.6-1.1-2.6-1.1C814.7,321.6,813.8,322,813.1,322.7
			z"/>
		<path class="st2" d="M836.7,319.1v11.5c0,1.1-0.3,2.2-0.8,3.1c-0.6,0.9-1.4,1.6-2.3,2.1c-1.1,0.5-2.3,0.7-3.5,0.7
			c-1.9,0-3.8-0.6-5.4-1.7l1.2-2.2c1.1,0.9,2.6,1.3,4,1.3c1,0.1,2-0.3,2.7-0.9c0.7-0.6,1-1.5,1-2.4v-1.5c-0.4,0.6-1,1.1-1.7,1.5
			c-0.7,0.4-1.6,0.5-2.4,0.5c-1,0-2-0.3-2.9-0.8c-0.9-0.5-1.5-1.3-2-2.2c-0.5-1-0.7-2.1-0.7-3.2c0-1.1,0.2-2.2,0.7-3.1
			c0.5-0.9,1.1-1.6,2-2.1c0.9-0.5,1.9-0.8,2.9-0.8c0.8,0,1.6,0.2,2.4,0.5c0.7,0.3,1.3,0.8,1.7,1.5v-1.9H836.7z M832.7,327.7
			c1.2-1.5,1.2-3.7,0-5.2c-0.6-0.7-1.5-1-2.4-1c-0.9,0-1.8,0.3-2.4,1c-1.3,1.5-1.3,3.7,0,5.2C829.1,329.1,831.3,329.1,832.7,327.7
			C832.7,327.7,832.7,327.7,832.7,327.7L832.7,327.7z"/>
		<path class="st2" d="M849.3,319.8c1,0.5,1.8,1.3,2.3,2.3c0.6,1,0.9,2.2,0.8,3.4c0,1.2-0.3,2.4-0.8,3.4c-0.5,1-1.4,1.8-2.3,2.3
			c-1.1,0.6-2.3,0.8-3.5,0.8c-1.2,0-2.4-0.3-3.5-0.8c-1-0.5-1.8-1.3-2.4-2.3c-0.6-1-0.9-2.2-0.8-3.4c0-1.2,0.3-2.3,0.8-3.4
			c0.6-1,1.4-1.8,2.4-2.3c1.1-0.5,2.3-0.8,3.5-0.8C847,319,848.2,319.3,849.3,319.8z M843.2,322.7c-1.3,1.6-1.3,3.9,0,5.5
			c0.7,0.7,1.6,1.1,2.6,1.1c1,0,1.9-0.4,2.6-1.1c1.3-1.6,1.3-3.9,0-5.5c-0.7-0.7-1.6-1.1-2.6-1.1C844.8,321.6,843.9,322,843.2,322.7
			z"/>
	</g>
</g>
<g id="Seperator">
	<path class="st2" d="M512,465.3v6.4h-27.5V486h-5.7v-20.7H512z"/>
	<path class="st2" d="M510.2,534c-4.6,8.2-14.9,11.1-23.1,6.5c-0.1-0.1-0.2-0.1-0.3-0.2c-2.6-1.5-4.7-3.7-6.2-6.4
		c-3.1-5.6-3.1-12.4,0-18c1.5-2.6,3.6-4.8,6.2-6.4c8-4.8,18.3-2.2,23.1,5.8c0.1,0.2,0.2,0.4,0.3,0.6
		C513.2,521.6,513.2,528.4,510.2,534z M505.2,519.5c-1-1.7-2.4-3.1-4.1-4.1c-3.5-2-7.9-2-11.5,0c-1.7,1-3.1,2.4-4.1,4.1
		c-1,1.7-1.5,3.6-1.5,5.6c0,2,0.5,3.9,1.5,5.5c1,1.7,2.4,3.1,4.1,4.1c1.7,1,3.7,1.5,5.7,1.5c2,0,4-0.5,5.7-1.5
		c1.7-1,3.1-2.4,4.1-4.1c1-1.7,1.5-3.6,1.5-5.5C506.7,523.1,506.2,521.2,505.2,519.5L505.2,519.5z"/>
	<path class="st2" d="M495.3,588.7v5.5h-12.6c-1.4-1.9-2.4-4-3.1-6.2c-0.8-2.3-1.2-4.6-1.2-7c0-3.1,0.8-6.2,2.3-8.9
		c1.5-2.6,3.6-4.8,6.2-6.3c2.6-1.5,5.6-2.3,8.6-2.3c3,0,6,0.8,8.6,2.4c2.6,1.6,4.7,3.8,6.1,6.5c1.5,2.8,2.3,5.9,2.3,9.1
		c0,2.4-0.4,4.8-1.3,7c-0.8,2.2-2,4.2-3.5,6l-4.7-3.6c2.4-2.5,3.8-5.9,3.8-9.4c0-2-0.5-4-1.5-5.8c-3.1-5.4-10.1-7.3-15.5-4.1
		c0,0,0,0,0,0c-3.5,2.1-5.7,5.8-5.6,9.9c0,1.2,0.2,2.4,0.5,3.6c0.4,1.3,0.9,2.5,1.5,3.6L495.3,588.7z"/>
	<path class="st2" d="M510.2,644.6c-4.6,8.2-14.9,11.1-23.1,6.5c-0.1,0-0.2-0.1-0.3-0.1c-2.6-1.5-4.7-3.7-6.2-6.4
		c-3.1-5.6-3.1-12.4,0-18c1.5-2.6,3.6-4.8,6.2-6.4c8-4.8,18.3-2.2,23,5.8c0.1,0.2,0.2,0.4,0.4,0.6
		C513.2,632.2,513.2,638.9,510.2,644.6z M505.2,630c-3.2-5.4-10.1-7.3-15.5-4.1c-1.7,1-3.1,2.4-4.1,4.1c-1,1.7-1.5,3.6-1.5,5.6
		c0,2,0.5,3.9,1.5,5.5c3.2,5.4,10.2,7.2,15.6,4c1.6-1,3-2.4,4-4c1-1.7,1.5-3.6,1.5-5.5C506.7,633.7,506.2,631.8,505.2,630L505.2,630
		z"/>
	<path class="st2" d="M517.1,708.6v4.7h-43.7v-4.7H517.1z"/>
	<path class="st2" d="M512,811.4v6.6l-33.2-11.2v-6.6l25.2-7.6l-25.2-7.7v-6.5l33.2-11.2v6.9l-26.3,7.8l26.3,7.7v6.3l-26.4,7.8
		L512,811.4z"/>
	<path class="st2" d="M510.2,864.5c-4.6,8.2-14.9,11.1-23.1,6.5c-0.1,0-0.2-0.1-0.3-0.1c-2.6-1.5-4.7-3.7-6.2-6.4
		c-3.1-5.6-3.1-12.4,0-18c1.5-2.6,3.6-4.8,6.2-6.4c8-4.8,18.3-2.2,23,5.8c0.1,0.2,0.2,0.4,0.4,0.6
		C513.2,852.2,513.2,858.9,510.2,864.5z M505.2,850c-3.2-5.4-10.1-7.3-15.5-4.1c-1.7,1-3.1,2.4-4.1,4.1c-1,1.7-1.5,3.6-1.5,5.6
		c0,2,0.5,3.9,1.5,5.5c3.2,5.4,10.2,7.2,15.6,4c1.6-1,3-2.4,4-4c1-1.7,1.5-3.6,1.5-5.5C506.8,853.6,506.2,851.7,505.2,850L505.2,850
		z"/>
	<path class="st2" d="M478.8,918.6l9.8-5.7c0-0.4-0.1-0.8,0-1.2v-7.5h-9.8v-6.4H512v13.8c0,4.3-1,7.6-3,10c-2,2.3-4.8,3.5-8.4,3.5
		c-2.3,0.1-4.6-0.5-6.6-1.7c-1.9-1.2-3.3-2.9-4.1-4.9l-11,7.3L478.8,918.6z M494.2,904.2v7.5c-0.1,2,0.4,3.9,1.6,5.5
		c1.2,1.3,2.9,2,4.6,1.9c1.7,0.1,3.4-0.6,4.5-1.9c1.1-1.6,1.6-3.5,1.5-5.5v-7.5H494.2z"/>
	<path class="st2" d="M509.9,973.8c-1.4,2.6-3.4,4.7-5.9,6.2c-2.6,1.5-5.6,2.3-8.6,2.2c-3,0-6-0.7-8.6-2.3c-2.5-1.5-4.5-3.6-5.9-6.2
		c-1.5-2.8-2.2-5.9-2.1-9.1V951H512v13.8C512.1,967.9,511.3,971,509.9,973.8z M485.8,970.5c0.9,1.6,2.3,2.9,3.9,3.8
		c3.6,1.9,7.8,1.9,11.4,0c1.7-0.9,3-2.3,3.9-3.9c0.9-1.7,1.4-3.6,1.4-5.6v-7.4h-22v7.6C484.4,966.9,484.9,968.8,485.8,970.5z"/>
	<path class="st2" d="M512,1006.7v7.3l-21.4,11l21.4,10.9v7.3h-33.2v-5.8h23.8l-20.4-10.3v-4.1l20.4-10.4h-23.8v-5.8H512z"/>
	<path class="st2" d="M478.8,1094.8l7-2.9v-16.2l-7-2.9v-6.6l33.2,14.5v6.6l-33.2,14.4L478.8,1094.8z M491.3,1077.9v11.7l13.9-5.8
		L491.3,1077.9z"/>
	<path class="st2" d="M478.8,1145.4l9.8-5.7c0-0.4-0.1-0.8,0-1.2v-7.5h-9.8v-6.3H512v13.8c0,4.3-1,7.6-3,10c-2,2.3-4.8,3.5-8.4,3.5
		c-2.3,0.1-4.6-0.5-6.6-1.7c-1.9-1.2-3.3-2.9-4.1-4.9l-11,7.3L478.8,1145.4z M494.2,1130.9v7.5c-0.1,2,0.4,3.9,1.6,5.5
		c1.2,1.3,2.9,2,4.6,1.9c1.7,0.1,3.4-0.6,4.5-1.9c1.1-1.6,1.7-3.5,1.5-5.5v-7.5H494.2z"/>
	<path class="st2" d="M478.8,1207.5v-7.6l14.2-10.4l-5.7-5.2h-8.5v-6.3H512v6.3h-16.5l16.6,15v7.5l-14-12.8L478.8,1207.5z"/>
</g>
<g id="Left">
	<g id="Dimensions">
		<g id="Face">
			<g>
				<path class="st4" d="M378.1,1457.1c0,28.6-8.5,56.5-24.4,80.3c-15.9,23.8-38.4,42.3-64.8,53.2c-26.4,10.9-55.5,13.8-83.5,8.2
					c-28-5.6-53.8-19.3-74-39.5c-20.2-20.2-34-46-39.5-74c-5.6-28-2.7-57.1,8.2-83.5c10.9-26.4,29.5-49,53.2-64.8
					s51.7-24.3,80.3-24.3l0,144.5L378.1,1457.1z"/>
				<ellipse class="st5" cx="233.6" cy="1457.1" rx="93.9" ry="93.9"/>
				<g>
					<path class="st0" d="M216.3,1440c0,10.6-7.8,19.1-17.3,19.1c-9.6,0-17.3-8.6-17.3-19.1s7.8-19.1,17.3-19.1
						C208.5,1420.8,216.3,1429.4,216.3,1440z"/>
					<path class="st0" d="M285.7,1440c0,10.6-7.8,19.1-17.3,19.1s-17.3-8.6-17.3-19.1s7.8-19.1,17.3-19.1S285.7,1429.4,285.7,1440z"
						/>
					<path class="st0" d="M267.3,1475.9c3.7,2.1,5,6.9,2.3,10.2c-5.8,6.9-13.6,11.8-22.5,14.2c-8.8,2.4-18.1,1.9-26.6-1.1
						c-4-1.5-5.3-6.2-3.1-9.9l0,0c2.1-3.7,6.9-4.8,11-3.8c4.8,1.2,9.9,1.2,14.7-0.1c4.9-1.3,9.3-3.8,12.8-7.3
						C259,1475.1,263.6,1473.8,267.3,1475.9L267.3,1475.9z"/>
				</g>
			</g>
			<g id="Scale">
				<g id="Scale-2_1_">
					<line class="st6" x1="180.2" y1="1647.8" x2="287.1" y2="1647.8"/>
					<line class="st6" x1="287.1" y1="1666.2" x2="287.1" y2="1628.9"/>
					<line class="st6" x1="180.2" y1="1666.2" x2="180.2" y2="1628.9"/>
				</g>
				<g>
					<g>
						<path class="st2" d="M222.4,1615.8c1.2,1.5,1.9,3.6,1.9,6.3c0,2.7-0.6,4.8-1.9,6.3s-3,2.2-5.4,2.2c-2.3,0-4.1-0.7-5.4-2.2
							s-1.9-3.6-1.9-6.3c0-2.8,0.6-4.9,1.9-6.3c1.2-1.5,3-2.2,5.4-2.2C219.4,1613.6,221.2,1614.3,222.4,1615.8z M214.1,1617.6
							c-0.6,1-1,2.5-1,4.5c0,2,0.3,3.6,1,4.5c0.6,1,1.6,1.5,3,1.5c1.3,0,2.3-0.5,3-1.5c0.6-1,1-2.5,1-4.5c0-2.1-0.3-3.6-1-4.5
							c-0.6-1-1.6-1.5-3-1.5C215.7,1616.1,214.7,1616.6,214.1,1617.6z"/>
						<path class="st2" d="M229.4,1627.8c0.3,0.3,0.5,0.7,0.5,1.2c0,0.5-0.2,0.9-0.5,1.3c-0.3,0.3-0.7,0.5-1.2,0.5
							c-0.5,0-0.9-0.2-1.2-0.5s-0.5-0.8-0.5-1.2s0.2-0.9,0.5-1.2s0.7-0.5,1.2-0.5C228.7,1627.3,229.1,1627.4,229.4,1627.8z"/>
						<path class="st2" d="M242.7,1622.1c0.9,0.8,1.4,1.8,1.4,3.1c0,1.1-0.3,2-0.8,2.8c-0.5,0.8-1.3,1.4-2.3,1.9
							c-1,0.5-2.2,0.7-3.5,0.7c-1.1,0-2.3-0.2-3.4-0.5c-1.1-0.3-2.1-0.8-2.8-1.4l1.3-2.5c0.7,0.6,1.4,1,2.2,1.3s1.6,0.4,2.5,0.4
							c1.2,0,2.1-0.2,2.7-0.7c0.7-0.5,1-1.1,1-1.9c0-0.8-0.3-1.5-1-1.9c-0.7-0.4-1.6-0.7-2.8-0.7h-2.5v-1.9l4.5-4.4H232l0-2.7h11.2
							v2l-5.1,4.9l0.9,0.1C240.5,1620.9,241.7,1621.3,242.7,1622.1z"/>
						<path class="st2" d="M255.8,1616.5c-0.6-0.2-1.3-0.3-2-0.3c-1.5,0-2.6,0.5-3.4,1.5c-0.8,1-1.1,2.4-1.1,4.1
							c0.4-0.7,1-1.3,1.8-1.7c0.7-0.4,1.6-0.6,2.7-0.6c1.7,0,3,0.5,4,1.5c1,1,1.5,2.3,1.5,3.9c0,1.2-0.2,2.2-0.7,3
							c-0.5,0.9-1.2,1.5-2.1,2c-0.9,0.5-2,0.7-3.2,0.7c-1.4,0-2.7-0.3-3.7-1c-1-0.7-1.8-1.6-2.4-2.8c-0.6-1.2-0.8-2.7-0.8-4.4
							c0-1.8,0.3-3.3,0.9-4.7c0.6-1.3,1.5-2.4,2.6-3.1c1.1-0.7,2.4-1.1,3.9-1.1c0.9,0,1.8,0.1,2.7,0.3c0.9,0.2,1.7,0.5,2.4,0.9
							l-1.2,2.4C257,1616.9,256.4,1616.6,255.8,1616.5z M250.7,1622.9c-0.6,0.6-0.9,1.3-0.9,2.1c0,0.5,0.1,0.9,0.3,1.4
							c0.2,0.4,0.6,0.8,1.1,1.1c0.5,0.3,1.1,0.4,1.8,0.4c1,0,1.7-0.3,2.3-0.8c0.6-0.5,0.9-1.3,0.9-2.2c0-0.9-0.3-1.6-0.8-2.1
							c-0.6-0.5-1.3-0.8-2.2-0.8C252.1,1622.1,251.3,1622.4,250.7,1622.9z"/>
					</g>
				</g>
			</g>
			<g id="Scale_Vert">
				<g id="Scale-2">
					<line class="st6" x1="71.4" y1="1497.8" x2="71.4" y2="1417.3"/>
					<line class="st6" x1="89.8" y1="1417.3" x2="52.5" y2="1417.3"/>
					<line class="st6" x1="89.8" y1="1497.8" x2="52.5" y2="1497.8"/>
				</g>
				<g>
					<g>
						<path class="st2" d="M39.5,1467.7c1.5-1.2,3.6-1.9,6.3-1.9c2.7,0,4.8,0.6,6.3,1.9s2.2,3,2.2,5.4s-0.7,4.1-2.2,5.4
							s-3.6,1.9-6.3,1.9c-2.8,0-4.9-0.6-6.3-1.9c-1.5-1.2-2.2-3-2.2-5.4S38.1,1468.9,39.5,1467.7z M41.3,1476c1,0.6,2.5,1,4.5,1
							c2,0,3.6-0.3,4.5-1c1-0.6,1.5-1.6,1.5-3s-0.5-2.3-1.5-3c-1-0.6-2.5-1-4.5-1c-2.1,0-3.6,0.3-4.5,1c-1,0.6-1.5,1.6-1.5,3
							S40.4,1475.4,41.3,1476z"/>
						<path class="st2" d="M51.5,1460.7c0.3-0.3,0.7-0.5,1.2-0.5c0.5,0,0.9,0.2,1.3,0.5c0.3,0.3,0.5,0.7,0.5,1.2
							c0,0.5-0.2,0.9-0.5,1.2c-0.3,0.3-0.8,0.5-1.2,0.5s-0.9-0.2-1.2-0.5c-0.3-0.3-0.5-0.7-0.5-1.2C51,1461.4,51.2,1461,51.5,1460.7
							z"/>
						<path class="st2" d="M51.5,1445.8h2.8v12.4H52l-6.5-6.3c-0.6-0.6-1.2-1.1-1.8-1.5c-0.6-0.4-1.1-0.6-1.5-0.6
							c-0.6,0-1.1,0.2-1.4,0.7c-0.3,0.5-0.5,1.1-0.5,2c0,0.7,0.2,1.5,0.6,2.4c0.4,0.8,0.9,1.6,1.5,2.4l-2.5,1.3
							c-0.8-1-1.4-2-1.8-3.1c-0.4-1.1-0.6-2.2-0.6-3.3c0-1.1,0.2-2.1,0.5-2.9c0.4-0.8,0.9-1.5,1.5-2c0.6-0.5,1.4-0.7,2.2-0.7
							c0.8,0,1.7,0.3,2.6,0.8c0.9,0.6,1.9,1.3,3,2.4l4.3,4.3V1445.8z"/>
						<path class="st2" d="M38.5,1433.3c0.8-1,1.9-1.5,3.2-1.5c0.8,0,1.5,0.2,2.1,0.6s1.1,1,1.5,1.7c0.4-1,0.9-1.8,1.7-2.3
							s1.6-0.9,2.6-0.9c1,0,1.8,0.3,2.6,0.8c0.7,0.5,1.3,1.3,1.7,2.3c0.4,1,0.6,2.1,0.6,3.4c0,1.3-0.2,2.5-0.6,3.4
							c-0.4,1-0.9,1.7-1.7,2.3c-0.7,0.5-1.6,0.8-2.5,0.8c-1,0-1.9-0.3-2.6-0.9c-0.8-0.6-1.3-1.4-1.7-2.4c-0.4,0.8-0.9,1.4-1.5,1.8
							c-0.6,0.4-1.4,0.7-2.1,0.7c-1.3,0-2.4-0.5-3.1-1.5c-0.8-1-1.2-2.4-1.2-4.1C37.3,1435.7,37.7,1434.3,38.5,1433.3z M40.2,1439.6
							c0.4,0.5,1,0.8,1.7,0.8c0.7,0,1.3-0.3,1.7-0.8c0.4-0.5,0.6-1.2,0.6-2.2c0-0.9-0.2-1.6-0.6-2.2c-0.4-0.5-1-0.8-1.7-0.8
							c-0.7,0-1.3,0.3-1.7,0.8c-0.4,0.5-0.6,1.2-0.6,2.2C39.6,1438.4,39.8,1439.1,40.2,1439.6z M47.4,1440c0.4,0.6,1.1,0.9,1.9,0.9
							c0.8,0,1.5-0.3,1.9-0.9c0.5-0.6,0.7-1.5,0.7-2.6c0-1.1-0.2-1.9-0.7-2.6s-1.1-0.9-1.9-0.9c-0.8,0-1.5,0.3-1.9,0.9
							s-0.7,1.5-0.7,2.6C46.7,1438.6,46.9,1439.4,47.4,1440z"/>
					</g>
				</g>
			</g>
		</g>
		<g id="Inner">
			<g id="Logo_Accent">
				<path class="st4" d="M378.1,1093.5c0,28.6-8.5,56.5-24.4,80.3c-15.9,23.8-38.4,42.3-64.8,53.2c-26.4,10.9-55.5,13.8-83.5,8.2
					s-53.8-19.3-74-39.5s-34-46-39.5-74c-5.6-28-2.7-57.1,8.2-83.5c10.9-26.4,29.5-49,53.2-64.8c23.8-15.9,51.7-24.4,80.3-24.4
					v144.5H378.1z"/>
				<ellipse class="st1" cx="233.6" cy="1093.5" rx="93.9" ry="93.9"/>
				<g class="st7">
					<path class="st0" d="M216.2,1076.3c0,10.5-7.8,19.1-17.3,19.1s-17.3-8.5-17.3-19.1s7.8-19.1,17.3-19.1
						S216.2,1065.8,216.2,1076.3z"/>
					<path class="st0" d="M285.6,1076.3c0,10.5-7.8,19.1-17.3,19.1c-9.5,0-17.3-8.5-17.3-19.1s7.8-19.1,17.3-19.1
						C277.8,1057.1,285.6,1065.8,285.6,1076.3z"/>
					<path class="st0" d="M267.3,1112.3c3.7,2.1,5,6.9,2.3,10.1c-5.8,6.8-13.6,11.8-22.5,14.2c-8.8,2.4-18.1,1.9-26.6-1.1
						c-4-1.5-5.3-6.2-3.1-9.9l0,0c2.1-3.7,6.9-4.9,11-3.8c4.8,1.2,9.9,1.2,14.7-0.1c4.9-1.3,9.3-3.8,12.8-7.2
						C258.9,1111.5,263.6,1110.1,267.3,1112.3L267.3,1112.3z"/>
				</g>
			</g>
			<g id="Scale_2_">
				<g id="Scale-3">
					<line class="st6" x1="71.4" y1="1184.2" x2="71.4" y2="1002.8"/>
					<line class="st6" x1="89.8" y1="1002.8" x2="52.5" y2="1002.8"/>
					<line class="st6" x1="89.8" y1="1184.2" x2="52.5" y2="1184.2"/>
				</g>
				<path class="st2" d="M40.3,1145.1c-0.3,0.8-0.4,1.6-0.4,2.4c0,0.6,0.1,1.3,0.4,1.8c0.2,0.4,0.7,0.7,1.2,0.7
					c0.4,0,0.8-0.2,1.2-0.5c0.3-0.3,0.6-0.7,0.8-1.2c0.3-0.6,0.5-1.3,0.7-1.9c0.3-0.9,0.6-1.9,1-2.8c0.3-0.7,0.8-1.3,1.5-1.8
					c0.7-0.5,1.6-0.8,2.6-0.8c0.9,0,1.9,0.3,2.7,0.8c0.8,0.6,1.4,1.4,1.7,2.3c0.4,1,0.6,2.2,0.6,3.3c0,1.3-0.2,2.6-0.7,3.8
					c-0.5,1.2-1.1,2.3-1.9,3.2l-2.7-1.3c0.8-0.8,1.4-1.8,1.8-2.8c0.4-0.9,0.6-1.9,0.7-2.9c0-0.7-0.1-1.5-0.5-2.1
					c-0.5-0.8-1.5-1-2.3-0.5c-0.1,0.1-0.2,0.1-0.2,0.2c-0.3,0.3-0.6,0.7-0.8,1.2c-0.2,0.5-0.4,1.1-0.6,1.9c-0.3,0.9-0.6,1.9-1,2.8
					c-0.3,0.7-0.8,1.3-1.4,1.8c-0.7,0.5-1.6,0.8-2.5,0.8c-0.9,0-1.8-0.2-2.5-0.8c-0.8-0.6-1.3-1.3-1.7-2.2c-0.4-1-0.6-2.1-0.6-3.3
					c0-1.1,0.2-2.2,0.5-3.2c0.3-1,0.7-1.9,1.3-2.8l2.8,1.3C41,1143.3,40.6,1144.2,40.3,1145.1z"/>
				<path class="st2" d="M43.8,1132.8c0,0.9,0.3,1.9,1,2.5c0.7,0.7,1.7,1,2.7,1c1,0,2-0.3,2.8-1c0.7-0.6,1-1.6,1-2.5
					c0.1-1.3-0.5-2.6-1.5-3.4l1.6-1.9c0.8,0.6,1.5,1.3,1.9,2.3c0.5,1,0.7,2.1,0.7,3.3c0,1.2-0.3,2.3-0.8,3.3c-0.5,1-1.3,1.7-2.3,2.3
					c-1,0.6-2.2,0.8-3.4,0.8c-1.2,0-2.3-0.3-3.4-0.8c-1-0.5-1.7-1.3-2.3-2.3c-0.6-1-0.8-2.2-0.8-3.3c0-1.1,0.2-2.1,0.6-3.1
					c0.4-0.9,1-1.6,1.7-2.2l1.8,1.9C44.2,1130.3,43.7,1131.5,43.8,1132.8z"/>
				<path class="st2" d="M53.9,1117.8h-1.5c0.6,0.5,1,1,1.3,1.7c0.3,0.8,0.4,1.6,0.4,2.4c0,0.8-0.2,1.6-0.5,2.3
					c-0.6,1.3-2,2.1-3.4,2.1c-1.1,0.1-2.1-0.4-2.8-1.3c-0.7-1-1.1-2.3-1-3.6v-3.7h-0.3c-0.7,0-1.3,0.2-1.7,0.7
					c-0.5,0.6-0.7,1.4-0.6,2.1c0,1.3,0.5,2.6,1.2,3.8l-2.1,1.1c-0.5-0.9-0.9-1.8-1.2-2.7c-0.3-0.9-0.4-1.9-0.4-2.9
					c-0.1-1.4,0.3-2.7,1.2-3.8c0.8-0.9,2.1-1.4,3.3-1.4h8.3L53.9,1117.8z M51,1118.8c-0.3-0.6-0.9-1-1.5-1.1h-1.1v3.2
					c0,0.6,0.1,1.3,0.4,1.8c0.3,0.4,0.7,0.6,1.2,0.6c0.5,0,1-0.2,1.3-0.6c0.3-0.5,0.5-1.1,0.5-1.7
					C51.7,1120.3,51.4,1119.5,51,1118.8z"/>
				<path class="st2" d="M36.3,1111.2v-3.1h17.6v3.1H36.3z"/>
				<path class="st2" d="M42.8,1094.3c1.4-1.1,3.1-1.6,4.9-1.5h0.9v9.4c1.7-0.3,3-1.9,2.9-3.6c0-0.6-0.1-1.3-0.4-1.9
					c-0.2-0.6-0.6-1.1-1-1.6l1.7-1.7c0.7,0.6,1.3,1.4,1.6,2.3c0.4,1,0.6,2,0.6,3c0,1.2-0.3,2.4-0.8,3.4c-0.5,1-1.3,1.8-2.3,2.3
					c-2.1,1.1-4.6,1.1-6.7,0c-1-0.5-1.8-1.3-2.3-2.3c-0.6-1-0.8-2.2-0.8-3.3C41,1097.1,41.6,1095.5,42.8,1094.3z M46.5,1095.6
					c-0.8,0-1.6,0.3-2.2,0.9c-0.6,0.6-0.9,1.5-0.8,2.3c0,0.8,0.3,1.6,0.8,2.3c0.6,0.6,1.4,1,2.2,1.1V1095.6z"/>
				<path class="st2" d="M44.1,1088.2c0.3-0.3,0.8-0.5,1.2-0.5c0.5,0,0.9,0.2,1.3,0.5c0.3,0.3,0.5,0.7,0.5,1.2
					c0,0.4-0.2,0.9-0.5,1.2c-0.3,0.3-0.8,0.5-1.2,0.5c-0.4,0-0.9-0.1-1.2-0.5c-0.3-0.3-0.5-0.7-0.5-1.2
					C43.6,1088.9,43.8,1088.5,44.1,1088.2z M51.1,1088.2c0.3-0.3,0.8-0.5,1.2-0.5c0.5,0,0.9,0.2,1.3,0.5c0.3,0.3,0.5,0.7,0.5,1.2
					c0,0.4-0.2,0.9-0.5,1.2c-0.3,0.3-0.8,0.5-1.2,0.5c-0.4,0-0.9-0.1-1.2-0.5c-0.3-0.3-0.5-0.7-0.5-1.2
					C50.6,1088.9,50.8,1088.5,51.1,1088.2L51.1,1088.2z"/>
				<path class="st2" d="M39.3,1067.2c1.8-1.3,4-2,6.3-1.8c2.2-0.1,4.4,0.5,6.2,1.8c2.9,2.9,2.9,7.7,0,10.6c-1.8,1.3-4,2-6.2,1.8
					c-2.2,0.1-4.5-0.5-6.3-1.8C36.4,1074.8,36.4,1070.1,39.3,1067.2z M41.1,1075.4c1.4,0.8,2.9,1.1,4.5,1c1.6,0.1,3.1-0.2,4.5-1
					c1.6-1.2,1.9-3.5,0.7-5.1c-0.2-0.3-0.4-0.5-0.7-0.7c-1.4-0.7-2.9-1.1-4.5-1c-1.6-0.1-3.1,0.3-4.5,1c-1.6,1.2-1.9,3.6-0.7,5.2
					C40.6,1075,40.8,1075.2,41.1,1075.4z"/>
				<path class="st2" d="M51.1,1060.3c0.3-0.3,0.8-0.5,1.2-0.5c0.5,0,0.9,0.2,1.3,0.5c0.3,0.3,0.5,0.7,0.5,1.2
					c0,0.4-0.2,0.9-0.5,1.2c-0.3,0.3-0.8,0.5-1.2,0.5c-0.4,0-0.9-0.1-1.2-0.5c-0.3-0.3-0.5-0.7-0.5-1.2
					C50.6,1061,50.8,1060.6,51.1,1060.3z"/>
				<path class="st2" d="M40,1048.3c-0.2,0.6-0.3,1.3-0.3,1.9c-0.1,1.3,0.5,2.5,1.5,3.3c1.2,0.8,2.6,1.2,4.1,1.1
					c-0.7-0.4-1.3-1-1.7-1.8c-0.4-0.8-0.6-1.7-0.6-2.6c-0.1-1.4,0.5-2.9,1.5-3.9c1-1,2.4-1.5,3.9-1.4c1,0,2.1,0.2,3,0.7
					c0.9,0.5,1.6,1.2,2,2.1c0.5,1,0.7,2,0.7,3.1c0,1.3-0.3,2.6-1,3.7c-0.7,1.1-1.6,1.9-2.8,2.4c-1.4,0.6-2.9,0.9-4.4,0.8
					c-1.6,0-3.2-0.3-4.6-0.9c-1.2-0.5-2.3-1.4-3.1-2.5c-0.7-1.1-1.1-2.5-1.1-3.8c0-0.9,0.1-1.8,0.3-2.7c0.2-0.8,0.5-1.6,0.9-2.4
					l2.4,1.2C40.5,1047.1,40.2,1047.7,40,1048.3z M46.4,1053.3c0.5,0.6,1.3,0.9,2.1,0.9c0.5,0,0.9-0.1,1.4-0.3
					c0.5-0.2,0.8-0.6,1.1-1.1c0.3-0.6,0.4-1.2,0.4-1.8c0-0.8-0.2-1.6-0.8-2.3c-0.6-0.6-1.4-0.9-2.2-0.8c-0.8,0-1.5,0.3-2.1,0.8
					c-0.5,0.6-0.8,1.4-0.8,2.2C45.5,1051.7,45.8,1052.6,46.4,1053.3L46.4,1053.3z"/>
				<path class="st2" d="M44,1033c0.4-0.9,1-1.6,1.8-2.2c0.8-0.5,1.7-0.8,2.6-0.8c1.1,0,2.1,0.3,3,0.8c0.9,0.5,1.6,1.3,2,2.3
					c0.5,1.1,0.7,2.2,0.7,3.4c0,1.1-0.2,2.2-0.5,3.3c-0.3,1.1-0.8,2.1-1.4,3l-2.5-1.3c0.5-0.7,1-1.5,1.3-2.3
					c0.3-0.8,0.5-1.6,0.5-2.4c0-0.9-0.2-1.8-0.7-2.5c-0.5-0.6-1.2-0.9-2-0.9c-0.7,0-1.4,0.3-1.9,0.9c-0.5,0.8-0.7,1.7-0.7,2.7
					c0,0.6,0,1.3,0.1,2.3s0.1,1.7,0.1,2.2h-9v-10.7H40v7.7h3.3v-2.2C43.3,1035.2,43.5,1034,44,1033z"/>
			</g>
		</g>
		<g id="Outer">
			<g id="Scale_1_">
				<g id="Scale-4">
					<line class="st6" x1="71.4" y1="874.8" x2="71.4" y2="584"/>
					<line class="st6" x1="89.8" y1="584" x2="52.5" y2="584"/>
					<line class="st6" x1="89.8" y1="874.8" x2="52.5" y2="874.8"/>
				</g>
				<path class="st2" d="M40.3,759.7c-0.3,0.8-0.4,1.5-0.4,2.3c0,0.6,0.1,1.3,0.4,1.8c0.2,0.4,0.7,0.7,1.2,0.7
					c0.4,0,0.8-0.2,1.2-0.5c0.3-0.3,0.6-0.7,0.8-1.2c0.2-0.6,0.5-1.3,0.7-1.9c0.3-0.9,0.6-1.9,1-2.8c0.3-0.7,0.8-1.4,1.5-1.8
					c0.7-0.5,1.6-0.8,2.6-0.8c0.9,0,1.9,0.3,2.7,0.8c0.8,0.6,1.4,1.4,1.7,2.3c0.4,1,0.6,2.2,0.6,3.3c0,1.3-0.2,2.6-0.7,3.8
					c-0.5,1.2-1.1,2.3-2,3.3l-2.7-1.3c0.8-0.8,1.4-1.8,1.8-2.8c0.4-0.9,0.6-1.9,0.7-2.9c0-0.7-0.1-1.5-0.5-2.1
					c-0.5-0.8-1.5-1-2.3-0.5c-0.1,0.1-0.2,0.1-0.2,0.2c-0.3,0.3-0.6,0.7-0.8,1.2c-0.2,0.5-0.4,1.1-0.6,1.9c-0.3,0.9-0.6,1.9-1,2.8
					c-0.3,0.7-0.8,1.3-1.4,1.8c-0.7,0.5-1.6,0.8-2.5,0.8c-0.9,0-1.8-0.2-2.5-0.8c-0.8-0.6-1.3-1.3-1.6-2.2c-0.4-1-0.6-2.1-0.6-3.3
					c0-1.1,0.2-2.2,0.5-3.2c0.3-1,0.7-1.9,1.3-2.8l2.8,1.3C41,757.8,40.6,758.7,40.3,759.7z"/>
				<path class="st2" d="M43.8,747.3c0,0.9,0.3,1.9,1,2.5c0.7,0.7,1.7,1,2.7,1c1,0,2-0.3,2.8-1c0.7-0.6,1-1.6,1-2.5
					c0.1-1.3-0.5-2.6-1.5-3.4l1.7-1.9c0.8,0.6,1.5,1.3,1.9,2.3c0.5,1,0.7,2.1,0.7,3.3c0,1.2-0.3,2.3-0.8,3.3c-0.5,1-1.3,1.7-2.3,2.3
					c-2.1,1.1-4.6,1.1-6.8,0c-1-0.5-1.7-1.3-2.3-2.3c-0.6-1-0.8-2.2-0.8-3.3c0-1.1,0.2-2.1,0.6-3.1c0.4-0.9,1-1.6,1.7-2.2l1.8,1.8
					C44.3,744.8,43.7,746,43.8,747.3z"/>
				<path class="st2" d="M53.9,732.3h-1.5c0.6,0.5,1,1,1.3,1.7c0.3,0.8,0.4,1.6,0.4,2.4c0,0.8-0.2,1.6-0.5,2.3
					c-0.6,1.3-2,2.1-3.4,2.1c-1.1,0.1-2.1-0.4-2.8-1.3c-0.7-1-1.1-2.3-1-3.5v-3.7h-0.3c-0.7,0-1.3,0.2-1.7,0.7
					c-0.5,0.6-0.7,1.4-0.6,2.1c0,1.4,0.4,2.7,1.2,3.8l-2.1,1.1c-0.5-0.9-0.9-1.8-1.2-2.7c-0.3-0.9-0.4-1.9-0.4-2.9
					c-0.1-1.4,0.3-2.7,1.2-3.8c0.8-0.9,2.1-1.4,3.3-1.4h8.3V732.3z M51,733.4c-0.3-0.6-0.9-1-1.5-1.1h-1.1v3.2
					c0,0.6,0.1,1.3,0.4,1.8c0.3,0.4,0.7,0.6,1.2,0.6c0.5,0,1-0.2,1.3-0.6c0.3-0.5,0.5-1.1,0.5-1.7C51.7,734.9,51.4,734.1,51,733.4z"
					/>
				<path class="st2" d="M36.3,725.7v-3.1h17.6v3.1H36.3z"/>
				<path class="st2" d="M42.8,708.8c1.4-1.1,3.1-1.6,4.9-1.5h0.9v9.4c1.7-0.3,3-1.9,2.9-3.6c0-0.6-0.1-1.3-0.4-1.9
					c-0.2-0.6-0.6-1.1-1-1.5l1.7-1.6c0.7,0.6,1.3,1.4,1.6,2.3c0.4,1,0.6,2,0.6,3c0,1.2-0.3,2.4-0.8,3.4c-0.5,1-1.3,1.7-2.3,2.3
					c-1,0.5-2.2,0.8-3.4,0.8c-1.2,0-2.3-0.3-3.4-0.8c-1-0.5-1.8-1.3-2.3-2.3c-0.6-1-0.8-2.2-0.8-3.3C41,711.6,41.6,710,42.8,708.8z
					 M46.5,710.1c-0.8,0-1.6,0.3-2.2,0.9c-0.6,0.6-0.9,1.5-0.8,2.3c0,0.8,0.3,1.6,0.8,2.3c0.6,0.6,1.4,1,2.2,1.1V710.1z"/>
				<path class="st2" d="M44.1,702.7c0.3-0.3,0.8-0.5,1.2-0.5c0.5,0,0.9,0.2,1.3,0.5c0.3,0.3,0.5,0.7,0.5,1.2c0,0.4-0.2,0.9-0.5,1.2
					c-0.3,0.3-0.8,0.5-1.2,0.5c-0.4,0-0.9-0.1-1.2-0.5C43.5,704.4,43.5,703.3,44.1,702.7z M51.1,702.7c0.3-0.3,0.8-0.5,1.2-0.5
					c0.5,0,0.9,0.2,1.3,0.5c0.3,0.3,0.5,0.7,0.5,1.2c0,0.4-0.2,0.9-0.5,1.2c-0.3,0.3-0.8,0.5-1.2,0.5c-0.4,0-0.9-0.1-1.2-0.5
					C50.5,704.4,50.5,703.3,51.1,702.7z"/>
				<path class="st2" d="M37.3,695.4v-6.7h16.6v3.2H40.1v3.5H37.3z"/>
			</g>
			<g id="Logo_1_">
				<path class="st0" d="M378.1,729.4c0,28.6-8.5,56.5-24.4,80.3c-15.9,23.8-38.4,42.3-64.8,53.2c-26.4,10.9-55.5,13.8-83.5,8.2
					c-28-5.6-53.8-19.3-74-39.5s-34-46-39.5-74c-5.6-28-2.7-57.1,8.2-83.5c10.9-26.4,29.5-49,53.2-64.8
					c23.8-15.9,51.7-24.3,80.3-24.3l0,144.5L378.1,729.4z"/>
				<ellipse class="st5" cx="233.6" cy="729.4" rx="93.9" ry="93.9"/>
				<g class="st7">
					<path class="st0" d="M216.3,712.2c0,10.6-7.8,19.1-17.3,19.1c-9.6,0-17.3-8.6-17.3-19.1s7.8-19.1,17.3-19.1
						C208.5,693.1,216.3,701.6,216.3,712.2z"/>
					<path class="st0" d="M285.6,712.2c0,10.6-7.8,19.1-17.3,19.1s-17.3-8.6-17.3-19.1s7.8-19.1,17.3-19.1S285.6,701.6,285.6,712.2z
						"/>
					<path class="st0" d="M267.3,748.1c3.7,2.1,5,6.9,2.3,10.2c-5.8,6.9-13.6,11.8-22.5,14.2c-8.8,2.4-18.1,1.9-26.6-1.1
						c-4-1.5-5.3-6.2-3.1-9.9l0,0c2.1-3.7,6.9-4.8,11-3.8c4.8,1.2,9.9,1.2,14.7-0.1c4.9-1.3,9.3-3.8,12.8-7.3
						C258.9,747.4,263.6,746,267.3,748.1L267.3,748.1z"/>
				</g>
			</g>
			<path id="BackgroundBG1-8" class="st8" d="M231.2,732.4V587c80.3,0,145.4,65.1,145.4,145.4H231.2z"/>
		</g>
		<g id="Dimensions_1_">
			<path class="st2" d="M120.2,510.4c2.6,1.3,4.7,3.4,6.2,5.9c1.5,2.6,2.3,5.6,2.2,8.6c0.1,3-0.7,6-2.3,8.6
				c-1.5,2.5-3.7,4.6-6.2,5.9c-2.8,1.5-5.9,2.2-9,2.1H97.5v-33.2h13.8C114.4,508.3,117.5,509,120.2,510.4z M116.9,534.5
				c1.6-0.9,2.9-2.3,3.8-3.9c1.9-3.6,1.8-7.8-0.1-11.4c-0.9-1.7-2.3-3-3.9-3.9c-1.7-0.9-3.6-1.4-5.6-1.4h-7.3v22h7.6
				C113.4,535.9,115.3,535.5,116.9,534.5z"/>
			<path class="st2" d="M139.5,506.3c0.7,0.7,1,1.7,1,2.6c0,1-0.3,1.9-1,2.6c-1.4,1.4-3.6,1.4-5,0c-0.7-0.7-1-1.6-1-2.6
				c0-1,0.3-1.9,1-2.6C135.9,504.9,138.1,504.9,139.5,506.3z M133.9,516.1h6.2v25.4h-6.2V516.1z"/>
			<path class="st2" d="M187.8,518.5c1.7,2,2.6,4.5,2.5,7.1v15.8H184v-14c0.1-1.6-0.4-3.1-1.5-4.2c-1.1-1.1-2.6-1.6-4.1-1.5
				c-1.8,0-3.5,0.8-4.7,2.1c-1.2,1.5-1.8,3.3-1.7,5.2v12.5h-6.2v-14c0.1-1.6-0.4-3.1-1.5-4.2c-1.1-1.1-2.5-1.6-4-1.5
				c-1.8,0-3.5,0.8-4.7,2.1c-1.2,1.4-1.8,3.2-1.8,5.1v12.5h-6.2v-25.4h6.2v4.7c1.7-3.2,4.7-4.9,8.9-4.9c2-0.1,3.9,0.5,5.6,1.6
				c1.5,1.1,2.6,2.7,3.1,4.5c1.6-4,4.8-6,9.4-6.1C183.5,515.8,186,516.7,187.8,518.5z"/>
			<path class="st2" d="M216.8,519.4c2,2.3,3.1,5.6,3.1,9.7c0,0.8,0,1.4-0.1,1.8h-18.7c0.6,3.5,3.7,5.9,7.3,5.8
				c1.3,0,2.5-0.3,3.7-0.7c1.2-0.5,2.2-1.2,3.1-2.1l3.3,3.5c-1.3,1.4-2.9,2.5-4.6,3.2c-1.9,0.8-4,1.2-6.1,1.1
				c-2.4,0-4.7-0.5-6.9-1.6c-1.9-1-3.5-2.6-4.6-4.5c-2.2-4.2-2.2-9.2,0-13.5c1.1-1.9,2.6-3.5,4.6-4.6c2-1.1,4.3-1.7,6.7-1.6
				C211.7,516,214.8,517.1,216.8,519.4z M214.2,526.9c0-1.7-0.7-3.3-1.9-4.5c-1.3-1.1-2.9-1.7-4.6-1.7c-1.7,0-3.3,0.5-4.5,1.6
				c-1.3,1.2-2.1,2.8-2.3,4.5H214.2z"/>
			<path class="st2" d="M247.3,518.5c1.7,1.9,2.7,4.5,2.5,7.1v15.8h-6.2v-14c0.1-1.5-0.5-3.1-1.5-4.2c-1.1-1.1-2.6-1.6-4.1-1.5
				c-1.8-0.1-3.6,0.7-4.9,2.1c-1.2,1.5-1.9,3.3-1.8,5.2v12.5h-6.2v-25.4h6.2v4.7c1.7-3.2,4.8-4.9,9.1-5
				C243,515.7,245.5,516.7,247.3,518.5z"/>
			<path class="st2" d="M268,521.3c-1.2-0.4-2.4-0.6-3.6-0.6c-0.9,0-1.7,0.2-2.5,0.5c-0.6,0.3-1,1-0.9,1.7c0,0.8,0.4,1.5,1.2,1.8
				c1.2,0.6,2.4,1,3.7,1.3c1.5,0.4,2.9,1,4.4,1.6c1.2,0.5,2.2,1.3,3,2.3c0.9,1.1,1.3,2.6,1.3,4c0.1,2.3-1,4.4-2.9,5.7
				c-2.1,1.4-4.6,2.1-7.2,2c-2,0-3.9-0.3-5.7-0.9c-1.7-0.5-3.4-1.4-4.7-2.6l2.1-4.3c1.2,1,2.6,1.8,4.1,2.3c1.4,0.5,3,0.8,4.5,0.8
				c0.9,0,1.9-0.2,2.7-0.6c0.6-0.4,1-1,1-1.8c0-0.8-0.4-1.6-1.2-2c-1.2-0.6-2.5-1.1-3.8-1.5c-1.4-0.4-2.8-0.9-4.2-1.5
				c-1.1-0.5-2.1-1.3-2.8-2.2c-0.8-1.1-1.3-2.5-1.2-3.9c-0.1-2.2,0.9-4.4,2.7-5.7c2-1.4,4.4-2.1,6.9-2c1.7,0,3.4,0.2,5,0.7
				c1.5,0.4,3,1.1,4.3,2l-2.3,4.5C270.6,522.3,269.3,521.7,268,521.3z"/>
			<path class="st2" d="M285.1,506.3c0.7,0.7,1,1.7,1,2.6c0,1-0.3,1.9-1,2.6c-1.4,1.4-3.6,1.4-5,0c-0.7-0.7-1-1.6-1-2.6
				c0-1,0.3-1.9,1-2.6C281.5,504.9,283.8,504.9,285.1,506.3z M279.6,516.1h6.2v25.4h-6.2V516.1z"/>
			<path class="st2" d="M311.4,517.6c2,1,3.6,2.6,4.7,4.5c1.1,2,1.7,4.4,1.7,6.7c0,2.4-0.5,4.7-1.7,6.8c-1.1,1.9-2.7,3.5-4.7,4.5
				c-2.1,1.1-4.5,1.7-7,1.6c-2.4,0-4.8-0.5-7-1.6c-2-1-3.6-2.6-4.7-4.5c-1.2-2.1-1.7-4.4-1.7-6.8c0-2.3,0.5-4.7,1.7-6.7
				c1.1-1.9,2.7-3.5,4.7-4.5c2.2-1.1,4.6-1.7,7-1.6C306.9,515.9,309.3,516.5,311.4,517.6z M299.3,523.3c-2.7,3.2-2.7,7.9,0,11.1
				c1.3,1.4,3.2,2.2,5.2,2.1c1.9,0.1,3.8-0.7,5.1-2.1c2.7-3.2,2.7-7.9,0-11.1c-1.3-1.4-3.2-2.2-5.1-2.1
				C302.5,521.1,300.6,521.9,299.3,523.3z"/>
			<path class="st2" d="M345.3,518.5c1.7,2,2.6,4.5,2.5,7.1v15.8h-6.2v-14c0.1-1.5-0.5-3.1-1.5-4.2c-1.1-1.1-2.6-1.6-4.1-1.5
				c-1.8-0.1-3.6,0.7-4.9,2.1c-1.2,1.5-1.9,3.3-1.8,5.2v12.5h-6.2v-25.4h6.2v4.7c1.7-3.2,4.8-4.9,9.1-5
				C341,515.8,343.5,516.7,345.3,518.5z"/>
			<path class="st2" d="M366,521.3c-1.2-0.4-2.4-0.6-3.6-0.6c-0.9,0-1.7,0.2-2.5,0.5c-0.6,0.3-1,1-0.9,1.7c0,0.8,0.5,1.5,1.2,1.8
				c1.2,0.6,2.4,1,3.7,1.3c1.5,0.4,2.9,1,4.4,1.6c1.2,0.5,2.2,1.3,3,2.3c0.9,1.2,1.3,2.6,1.3,4c0.1,2.3-1,4.4-2.8,5.7
				c-2.1,1.4-4.6,2.1-7.2,2c-2,0-3.9-0.3-5.7-0.9c-1.7-0.5-3.4-1.4-4.7-2.6l2.1-4.3c1.2,1,2.6,1.8,4.1,2.3c1.4,0.5,3,0.8,4.5,0.8
				c0.9,0,1.9-0.2,2.7-0.6c0.6-0.4,1-1,1-1.8c0-0.8-0.4-1.6-1.2-2c-1.2-0.6-2.5-1.1-3.9-1.5c-1.4-0.4-2.8-0.9-4.2-1.5
				c-1.1-0.5-2.1-1.3-2.8-2.2c-0.8-1.1-1.3-2.5-1.2-3.9c-0.1-2.2,0.9-4.4,2.7-5.7c2-1.4,4.4-2.1,6.9-2c1.7,0,3.3,0.2,5,0.7
				c1.5,0.4,3,1.1,4.3,2l-2.3,4.5C368.6,522.3,367.3,521.7,366,521.3z"/>
		</g>
	</g>
	<g id="Colors">
		<g id="Logo_Normal">
			<path class="st0" d="M378.1,249c0,28.6-8.5,56.5-24.4,80.3c-15.9,23.8-38.4,42.3-64.8,53.2c-26.4,10.9-55.5,13.8-83.5,8.2
				c-28-5.6-53.8-19.3-74-39.5c-20.2-20.2-34-46-39.5-74c-5.6-28-2.7-57.1,8.2-83.5c10.9-26.4,29.5-49,53.2-64.8
				c23.8-15.9,51.7-24.3,80.3-24.3l0,144.5L378.1,249z"/>
			<ellipse class="st1" cx="233.6" cy="249" rx="93.9" ry="93.9"/>
			<g>
				<path class="st0" d="M216.3,231.8c0,10.6-7.8,19.1-17.3,19.1c-9.6,0-17.3-8.6-17.3-19.1s7.8-19.1,17.3-19.1
					C208.5,212.7,216.3,221.3,216.3,231.8z"/>
				<path class="st0" d="M285.6,231.8c0,10.6-7.8,19.1-17.3,19.1s-17.3-8.6-17.3-19.1s7.8-19.1,17.3-19.1S285.6,221.3,285.6,231.8z"
					/>
				<path class="st0" d="M267.3,267.8c3.7,2.1,5,6.9,2.3,10.2c-5.8,6.9-13.6,11.8-22.5,14.2c-8.8,2.4-18.1,1.9-26.6-1.1
					c-4-1.5-5.3-6.2-3.1-9.9l0,0c2.1-3.7,6.9-4.8,11-3.8c4.8,1.2,9.9,1.2,14.7-0.1c4.9-1.3,9.3-3.8,12.8-7.3
					C258.9,267,263.6,265.6,267.3,267.8L267.3,267.8z"/>
			</g>
		</g>
		<g id="Explanations">
			<g id="Background_1_">
				<g id="Color_1_">
					<path class="st9" d="M367.8,102h-3.3l-0.5,3.9h3.3l-0.2,2.3h-3.3l-0.5,4H361l0.5-4h-4l-0.5,4h-2.3l0.5-4H352l0.2-2.3h3.3
						l0.5-3.9h-3.3l0.2-2.3h3.3l0.5-4.1h2.2l-0.5,4.1h4l0.5-4.1h2.3l-0.5,4.1h3.2L367.8,102z M361.7,105.9l0.5-3.9h-4l-0.5,3.9
						H361.7z"/>
					<path class="st9" d="M368.7,95.5h6.7v16.6h-3.2V98.3h-3.5V95.5z"/>
					<path class="st9" d="M388.2,98.3c-0.6-0.2-1.3-0.3-1.9-0.3c-1.3-0.1-2.5,0.5-3.4,1.5c-0.8,1.2-1.2,2.6-1.1,4.1
						c0.4-0.7,1-1.3,1.7-1.7c0.8-0.4,1.7-0.6,2.6-0.6c1.4-0.1,2.9,0.4,3.9,1.4c1,1,1.5,2.4,1.5,3.9c0,1-0.2,2.1-0.7,3
						c-0.5,0.9-1.2,1.6-2.1,2c-2.2,1-4.7,0.9-6.8-0.3c-1-0.7-1.9-1.7-2.4-2.8c-0.6-1.4-0.8-2.9-0.8-4.4c0-1.6,0.3-3.2,0.9-4.6
						c0.5-1.2,1.4-2.3,2.5-3.1c1.1-0.7,2.5-1.1,3.8-1.1c0.9,0,1.8,0.1,2.6,0.3c0.8,0.2,1.6,0.5,2.4,0.9l-1.2,2.4
						C389.4,98.7,388.8,98.4,388.2,98.3z M383.2,104.7c-0.9,0.9-1.1,2.3-0.5,3.5c0.3,0.5,0.6,0.8,1.1,1.1c0.6,0.3,1.2,0.4,1.8,0.4
						c0.8,0,1.6-0.2,2.3-0.8c0.6-0.6,0.9-1.4,0.9-2.2c0-0.8-0.3-1.5-0.8-2.1c-0.6-0.5-1.4-0.8-2.2-0.8
						C384.7,103.7,383.9,104.1,383.2,104.7L383.2,104.7z"/>
					<path class="st9" d="M392.7,95.5h6.7v16.6h-3.2V98.3h-3.5V95.5z"/>
					<path class="st9" d="M412.3,98.3c-0.6-0.2-1.3-0.3-1.9-0.3c-1.3-0.1-2.5,0.5-3.3,1.5c-0.8,1.2-1.2,2.6-1.1,4.1
						c0.4-0.7,1-1.3,1.8-1.7c0.8-0.4,1.7-0.6,2.6-0.6c1.4-0.1,2.9,0.5,3.9,1.4c1,1,1.5,2.4,1.4,3.9c0,1-0.2,2.1-0.7,3
						c-0.5,0.9-1.2,1.6-2.1,2c-2.2,1-4.7,0.9-6.8-0.3c-1.1-0.7-1.9-1.6-2.4-2.8c-0.6-1.4-0.9-2.9-0.8-4.4c0-1.6,0.3-3.2,0.9-4.6
						c0.5-1.2,1.4-2.3,2.5-3.1c1.1-0.7,2.5-1.1,3.8-1.1c0.9,0,1.8,0.1,2.6,0.3c0.8,0.2,1.6,0.5,2.4,0.9l-1.2,2.3
						C413.5,98.7,412.9,98.4,412.3,98.3z M407.3,104.7c-0.6,0.5-0.9,1.3-0.9,2.1c0,0.5,0.1,0.9,0.3,1.4c0.2,0.5,0.6,0.8,1.1,1.1
						c0.6,0.3,1.2,0.4,1.8,0.4c0.8,0,1.6-0.2,2.3-0.8c0.6-0.6,0.9-1.4,0.9-2.2c0-0.8-0.3-1.5-0.8-2.1c-0.6-0.5-1.4-0.8-2.2-0.8
						C408.8,103.7,407.9,104.1,407.3,104.7L407.3,104.7z"/>
					<path class="st9" d="M416.8,95.5h6.7v16.6h-3.2V98.3h-3.5V95.5z"/>
					<path class="st9" d="M436.3,98.3c-0.6-0.2-1.3-0.3-1.9-0.3c-1.3-0.1-2.6,0.4-3.4,1.5c-0.8,1.2-1.2,2.6-1,4.1
						c0.4-0.7,1-1.3,1.7-1.7c0.8-0.4,1.7-0.6,2.6-0.6c2.8-0.2,5.2,1.9,5.4,4.6c0,0.2,0,0.5,0,0.7c0,1-0.2,2.1-0.7,3
						c-0.5,0.9-1.2,1.6-2.1,2c-2.2,1-4.7,0.9-6.8-0.3c-1-0.7-1.9-1.7-2.4-2.8c-0.6-1.4-0.9-2.9-0.8-4.4c0-1.6,0.3-3.2,0.9-4.6
						c0.5-1.2,1.4-2.3,2.5-3.1c1.1-0.7,2.5-1.1,3.8-1.1c0.9,0,1.8,0.1,2.6,0.3c0.8,0.2,1.6,0.5,2.4,0.9l-1.2,2.3
						C437.5,98.7,436.9,98.4,436.3,98.3z M431.3,104.7c-0.6,0.5-0.9,1.3-0.9,2.1c0,0.5,0.1,0.9,0.3,1.4c0.3,0.5,0.6,0.8,1.1,1.1
						c0.6,0.3,1.2,0.4,1.8,0.4c0.8,0,1.6-0.2,2.3-0.8c0.6-0.6,0.9-1.4,0.9-2.2c0-0.8-0.3-1.5-0.8-2.1c-0.6-0.5-1.4-0.8-2.2-0.8
						C432.9,103.7,432,104.1,431.3,104.7L431.3,104.7z"/>
				</g>
				<line class="st6" x1="242.9" y1="137" x2="367.7" y2="120.7"/>
				<line class="st6" x1="287.7" y1="208.3" x2="367.7" y2="120.7"/>
			</g>
			<g id="Accent">
				<line class="st10" x1="112.6" y1="412.3" x2="181.8" y2="334.9"/>
				<g id="Color">
					<path class="st11" d="M68.9,433.5h-3.3l-0.5,3.9h3.2l-0.2,2.3h-3.3l-0.5,4H62l0.5-4h-4l-0.5,4h-2.2l0.5-4H53l0.2-2.3h3.3
						l0.5-3.9h-3.2l0.2-2.3h3.3l0.5-4.1h2.3l-0.5,4.1h4l0.5-4.1h2.3l-0.5,4.1h3.3L68.9,433.5z M62.8,437.4l0.5-3.9h-4l-0.5,3.9H62.8
						z"/>
					<path class="st11" d="M83.1,428.1c1.3,0.7,2.4,1.7,3.1,3c1.5,2.7,1.5,5.9,0,8.6c-0.7,1.3-1.8,2.3-3.1,3c-1.4,0.7-3,1.1-4.5,1.1
						h-6.8v-16.7h6.9C80.2,427,81.7,427.4,83.1,428.1z M81.5,440.2c0.8-0.5,1.5-1.1,1.9-2c0.5-0.9,0.7-1.8,0.7-2.8
						c0-1-0.2-2-0.7-2.9c-0.5-0.8-1.2-1.5-2-2c-0.8-0.5-1.8-0.7-2.8-0.7h-3.6v11h3.8C79.7,440.9,80.6,440.6,81.5,440.2L81.5,440.2z"
						/>
					<path class="st11" d="M99.6,428.1c1,0.8,1.6,1.9,1.5,3.2c0,0.7-0.2,1.5-0.6,2.1c-0.4,0.6-1,1.1-1.7,1.5
						c0.9,0.3,1.7,0.9,2.3,1.7c0.6,0.7,0.9,1.6,0.8,2.6c0,0.9-0.3,1.8-0.8,2.5c-0.6,0.8-1.3,1.4-2.2,1.7c-2.2,0.8-4.6,0.8-6.8,0
						c-0.9-0.3-1.7-0.9-2.2-1.6c-1.1-1.5-1-3.6,0.1-5.1c0.6-0.8,1.5-1.4,2.4-1.7c-0.7-0.3-1.3-0.9-1.8-1.5c-0.4-0.6-0.7-1.4-0.7-2.1
						c0-1.2,0.5-2.4,1.5-3.1C93.9,426.5,97.1,426.5,99.6,428.1L99.6,428.1z M93,436.8c-0.6,0.4-0.9,1.1-0.9,1.9
						c0,0.8,0.3,1.5,0.9,1.9c0.7,0.5,1.6,0.7,2.5,0.7c0.9,0.1,1.8-0.2,2.5-0.7c0.6-0.4,0.9-1.2,0.9-1.9c0-0.7-0.3-1.4-0.9-1.9
						c-0.8-0.5-1.6-0.7-2.6-0.7C94.6,436.1,93.7,436.3,93,436.8z M93.4,429.8c-0.5,0.4-0.8,1-0.8,1.7c0,0.6,0.3,1.3,0.8,1.7
						c1.3,0.8,3,0.8,4.3,0c0.5-0.4,0.8-1,0.8-1.7c0-0.6-0.2-1.3-0.8-1.7C96.4,429.1,94.7,429.1,93.4,429.8z"/>
					<path class="st11" d="M103.1,427.1h6.7v16.6h-3.2v-13.8h-3.5L103.1,427.1z"/>
					<path class="st11" d="M125.7,428.2c1,0.7,1.6,1.8,1.5,3c0.1,1.8-1.2,3.3-2.9,3.7c1,0.2,1.9,0.7,2.6,1.4c0.6,0.8,1,1.8,0.9,2.8
						c0,1.3-0.6,2.6-1.7,3.4c-1.3,0.9-2.9,1.3-4.5,1.2h-7.6v-16.6h7.4C123,427,124.4,427.4,125.7,428.2z M123.3,433.3
						c0.5-0.4,0.7-0.9,0.7-1.5c0-0.6-0.2-1.1-0.7-1.5c-0.6-0.4-1.2-0.6-1.9-0.5h-4v4h4C122,433.9,122.7,433.7,123.3,433.3z
						 M123.7,440.3c0.6-0.4,0.9-1,0.8-1.6c0-0.6-0.3-1.3-0.8-1.6c-0.7-0.4-1.5-0.6-2.4-0.5h-4v4.4h4
						C122.2,440.9,123,440.8,123.7,440.3L123.7,440.3z"/>
					<path class="st11" d="M139.4,429.8c-0.6-0.2-1.3-0.3-1.9-0.3c-1.3-0.1-2.5,0.5-3.4,1.5c-0.8,1.2-1.2,2.6-1.1,4.1
						c0.4-0.7,1-1.3,1.7-1.6c0.8-0.4,1.7-0.6,2.6-0.5c2.8-0.2,5.2,1.9,5.4,4.6c0,0.2,0,0.5,0,0.7c0,1-0.2,2.1-0.7,3
						c-0.5,0.9-1.2,1.6-2.1,2c-1,0.5-2,0.7-3.1,0.7c-1.3,0-2.6-0.3-3.6-1c-1.1-0.7-1.9-1.6-2.4-2.8c-0.6-1.4-0.9-2.9-0.8-4.4
						c0-1.6,0.3-3.2,0.9-4.6c1-2.6,3.6-4.2,6.4-4.1c0.9,0,1.8,0.1,2.6,0.3c0.8,0.2,1.6,0.5,2.4,0.9l-1.2,2.4
						C140.6,430.2,140,430,139.4,429.8z M134.4,436.2c-0.6,0.5-0.9,1.3-0.9,2.1c0,0.5,0.1,1,0.3,1.4c0.3,0.4,0.6,0.8,1.1,1.1
						c0.5,0.3,1.2,0.4,1.8,0.4c0.8,0,1.6-0.2,2.3-0.8c0.6-0.6,0.9-1.4,0.9-2.2c0-0.8-0.3-1.5-0.8-2.1c-0.6-0.5-1.4-0.8-2.2-0.8
						C135.9,435.3,135.1,435.6,134.4,436.2L134.4,436.2z"/>
					<path class="st11" d="M157.6,429.1c2.5,3.8,2.5,8.7,0,12.5c-2.9,2.9-7.7,2.9-10.6,0c-2.5-3.8-2.5-8.7,0-12.5
						C149.9,426.2,154.7,426.2,157.6,429.1z M149.4,430.9c-1.3,2.9-1.3,6.1,0,9c1.2,1.6,3.5,1.9,5.1,0.7c0.3-0.2,0.5-0.4,0.7-0.7
						c1.3-2.9,1.3-6.1,0-9c-1.2-1.6-3.6-1.9-5.2-0.7C149.8,430.4,149.6,430.6,149.4,430.9z"/>
				</g>
			</g>
		</g>
		<g id="Colors_1_">
			<path class="st2" d="M183.5,29.9c-3.3-1.6-7.3-1.5-10.5,0.3c-1.7,1-3.1,2.4-4,4c-2,3.5-2,7.8,0,11.3c0.9,1.7,2.3,3.1,4,4.1
				c1.7,1,3.7,1.5,5.6,1.5c1.6,0,3.3-0.3,4.8-1c1.6-0.7,3-1.7,4.2-2.9l3.7,4.2c-1.7,1.8-3.8,3.2-6.1,4.2c-2.2,1-4.6,1.5-7,1.5
				c-3.1,0-6.1-0.8-8.8-2.3c-2.6-1.5-4.8-3.6-6.3-6.2c-1.5-2.6-2.3-5.7-2.3-8.7c-0.1-6.1,3.3-11.8,8.6-14.7c4.9-2.7,10.7-3,15.9-0.8
				c2.2,0.9,4.2,2.2,5.8,3.9l-3.7,4.6C186.5,31.7,185.1,30.6,183.5,29.9z"/>
			<path class="st2" d="M213.7,32.7c2,1,3.6,2.6,4.7,4.5c1.2,2.1,1.7,4.4,1.7,6.8c0,2.4-0.5,4.7-1.7,6.8c-1.1,1.9-2.7,3.5-4.7,4.5
				c-2.2,1.1-4.6,1.7-7,1.6c-2.4,0.1-4.8-0.5-7-1.6c-2-1-3.6-2.6-4.7-4.5c-1.1-2.1-1.7-4.4-1.6-6.8c0-2.3,0.5-4.7,1.7-6.7
				c1.1-1.9,2.7-3.5,4.7-4.5c2.2-1.1,4.6-1.7,7-1.6C209.2,31.1,211.6,31.6,213.7,32.7z M201.6,38.5c-1.4,1.5-2.1,3.5-2,5.5
				c-0.1,2,0.6,4,2,5.5c1.3,1.4,3.2,2.2,5.2,2.1c1.9,0.1,3.8-0.7,5.1-2.1c1.4-1.5,2.1-3.5,2-5.5c0.1-2-0.6-4-2-5.5
				c-1.3-1.4-3.2-2.2-5.1-2.1C204.8,36.3,202.9,37.1,201.6,38.5z"/>
			<path class="st2" d="M225.7,21.5h6.2v35.2h-6.2V21.5z"/>
			<path class="st2" d="M257.8,32.7c2,1,3.6,2.6,4.7,4.5c1.2,2.1,1.7,4.4,1.7,6.8c0,2.4-0.5,4.7-1.7,6.8c-1.1,1.9-2.7,3.5-4.7,4.5
				c-2.1,1.1-4.5,1.7-6.9,1.6c-2.4,0-4.8-0.5-7-1.6c-2-1-3.6-2.6-4.7-4.5c-1.2-2.1-1.8-4.4-1.7-6.8c0-2.3,0.5-4.7,1.7-6.7
				c1.1-1.9,2.7-3.5,4.7-4.5c2.2-1.1,4.6-1.7,7-1.6C253.3,31.1,255.7,31.6,257.8,32.7z M245.7,38.5c-1.4,1.5-2.1,3.5-2,5.5
				c-0.1,2,0.6,4,2,5.5c1.4,1.4,3.3,2.2,5.2,2.1c1.9,0.1,3.8-0.7,5.1-2.1c1.4-1.5,2.1-3.5,2-5.6c0.1-2-0.6-4-2-5.5
				c-1.3-1.4-3.2-2.2-5.1-2.1C248.9,36.3,247,37.1,245.7,38.5z"/>
			<path class="st2" d="M279.2,32.4c1.6-0.9,3.3-1.4,5.1-1.4v6c-2.3-0.3-4.5,0.4-6.3,1.8c-1.6,1.4-2.4,3.5-2.3,5.6v12.2h-6.2V31.3
				h6.2v4.9C276.5,34.6,277.7,33.3,279.2,32.4z"/>
			<path class="st2" d="M299.9,36.5c-1.2-0.4-2.4-0.6-3.6-0.6c-0.9,0-1.7,0.1-2.5,0.5c-0.6,0.3-1,1-0.9,1.7c0,0.8,0.4,1.5,1.1,1.8
				c1.2,0.6,2.4,1,3.7,1.3c1.5,0.4,2.9,1,4.4,1.6c1.2,0.5,2.2,1.3,3,2.3c0.9,1.2,1.3,2.6,1.3,4c0.1,2.3-1,4.4-2.8,5.7
				c-2.1,1.4-4.6,2.1-7.2,2c-2,0-3.9-0.3-5.7-0.9c-1.7-0.5-3.4-1.4-4.7-2.6l2.1-4.3c1.2,1,2.6,1.8,4.1,2.3c1.4,0.5,3,0.8,4.5,0.8
				c0.9,0,1.9-0.2,2.7-0.6c0.6-0.4,1-1,1-1.8c0-0.8-0.4-1.6-1.2-2c-1.2-0.6-2.5-1.1-3.8-1.5c-1.4-0.4-2.8-0.9-4.2-1.5
				c-1.1-0.5-2.1-1.3-2.8-2.2c-0.8-1.1-1.2-2.5-1.2-3.9c-0.1-2.2,0.9-4.4,2.7-5.7c2-1.4,4.4-2.1,6.9-2c1.7,0,3.4,0.2,5,0.7
				c1.5,0.4,3,1.1,4.3,2l-2.2,4.5C302.5,37.5,301.2,36.9,299.9,36.5z"/>
		</g>
	</g>
</g>
<rect id="Background" class="st12" width="1133.9" height="1688.4"/>
</svg>
