<svg id="Layer_1" data-name="Layer 1" xmlns="http://www.w3.org/2000/svg" viewBox="0 0 288.97 288.97"><defs><style>.cls-1{fill:#171717;}.cls-2{fill:#d81b61;}</style></defs><title>Logo</title><g id="Logo"><path class="cls-1" d="M935.52,842a93.92,93.92,0,1,1-93.91-93.92V697.51c-79.27,0-144.49,65.23-144.49,144.49s65.22,144.49,144.49,144.49S986.09,921.26,986.09,842Z" transform="translate(-697.12 -697.51)"/><circle id="BackgroundAccent" class="cls-2" cx="144.49" cy="144.49" r="93.92"/><g id="Mouth"><path class="cls-1" d="M874.66,802.39c9.45-1.69,18.7,5.61,20.66,16.36s-4.11,20.85-13.56,22.58S863.1,835.73,861.1,825,865.21,804.16,874.66,802.39Z" transform="translate(-697.12 -697.51)"/><path class="cls-1" d="M788.22,816.6C790.91,806,800.7,799.4,810,801.78s14.63,12.9,11.94,23.46-12.44,17.21-21.74,14.82S785.53,827.16,788.22,816.6Z" transform="translate(-697.12 -697.51)"/><g id="Group"><path class="cls-1" d="M849.89,863.14c-4.38,2.38-8.14,4.92-13.25,3-2.95-1.08-5.76-1.92-8.33-3.84-1.84-1.35-3.92-2.46-5.76-3.81-1-.69-1.88-1.42-2.84-2.11a5,5,0,0,0-2.84-1.34c-1.11-.12-3.3-.19-4.15.73-3.61,4,1.46,10,4.19,12.75,4.07,4,9.87,8.44,15.2,10.75s10.41,5,16,2.23c6.1-3.08,11.4-7.53,16.78-11.64,3.53-2.69,11.44-7.41,10.06-12.67-1-3.84-5.42-3-8.33-2.11-3.69,1.11-7,3-10.41,4.72C854.08,860.88,852,862,849.89,863.14Z" transform="translate(-697.12 -697.51)"/></g></g></g></svg>