<svg width="460" height="200" viewBox="0 0 460 200" fill="none" xmlns="http://www.w3.org/2000/svg">
<rect width="460" height="200" fill="white"/>
<path d="M86.7845 20.5236H100.047V45.0208H126.656V20.5236H139.918V79.2499H126.656V56.095H100.047V79.2499H86.7845V20.5236Z" fill="#161616"/>
<path d="M233.337 33.6951C237.534 33.6951 241.227 34.6738 244.417 36.6314C247.662 38.533 250.153 41.2456 251.887 44.7692C253.678 48.2927 254.573 52.3477 254.573 56.9339C254.573 61.4642 253.706 65.4632 251.971 68.9309C250.236 72.3426 247.774 74.9992 244.585 76.9009C241.451 78.8025 237.785 79.7533 233.588 79.7533C230.455 79.7533 227.657 79.166 225.194 77.9915C222.788 76.761 220.746 74.9992 219.067 72.7061V79.2499H206.14V17H219.067V40.7422C220.69 38.4491 222.704 36.7153 225.111 35.5407C227.573 34.3103 230.315 33.6951 233.337 33.6951ZM230.315 69.0147C233.616 69.0147 236.302 67.8682 238.373 65.5751C240.443 63.226 241.479 60.2058 241.479 56.5144C241.479 52.879 240.443 49.9147 238.373 47.6216C236.302 45.2725 233.616 44.098 230.315 44.098C227.013 44.098 224.299 45.2725 222.173 47.6216C220.102 49.9147 219.067 52.879 219.067 56.5144C219.067 60.2617 220.102 63.2819 222.173 65.5751C224.299 67.8682 227.013 69.0147 230.315 69.0147Z" fill="#161616"/>
<path d="M290.717 33.6951C294.914 33.6951 298.608 34.6738 301.797 36.6314C305.043 38.533 307.533 41.2456 309.268 44.7692C311.059 48.2927 311.954 52.3477 311.954 56.9339C311.954 61.4642 311.087 65.4632 309.352 68.9309C307.617 72.3426 305.155 74.9992 301.965 76.9009C298.831 78.8025 295.166 79.7533 290.969 79.7533C287.835 79.7533 285.037 79.166 282.575 77.9915C280.169 76.761 278.126 74.9992 276.447 72.7061V79.2499H263.521V17H276.447V40.7422C278.07 38.4491 280.085 36.7153 282.491 35.5407C284.953 34.3103 287.695 33.6951 290.717 33.6951ZM287.695 69.0147C290.997 69.0147 293.683 67.8682 295.754 65.5751C297.824 63.226 298.859 60.2058 298.859 56.5144C298.859 52.879 297.824 49.9147 295.754 47.6216C293.683 45.2725 290.997 44.098 287.695 44.098C284.394 44.098 281.68 45.2725 279.553 47.6216C277.483 49.9147 276.447 52.879 276.447 56.5144C276.447 60.2617 277.483 63.2819 279.553 65.5751C281.68 67.8682 284.394 69.0147 287.695 69.0147Z" fill="#161616"/>
<path d="M340.914 84.2836C337.781 92.1697 332.269 96.1127 324.378 96.1127C321.972 96.1127 319.79 95.7492 317.831 95.0221C315.872 94.351 313.97 93.2603 312.123 91.7502L317.579 82.4379C319.538 84.0599 321.496 84.8708 323.455 84.8708C326.197 84.8708 328.184 83.5285 329.415 80.8439L330.674 78.3271L311.955 34.1145H325.302L337.137 65.1556L347.798 34.1145H360.724L340.914 84.2836Z" fill="#161616"/>
<path d="M68 122.77H117.105V134.012H99.1416V181.497H85.8792V134.012H68V122.77Z" fill="#161616"/>
<path d="M149.06 135.858C154.152 135.858 158.181 137.424 161.147 140.556C164.169 143.688 165.68 147.883 165.68 153.14V181.497H152.753V156.915C152.753 154.063 151.941 151.826 150.319 150.204C148.752 148.526 146.597 147.687 143.855 147.687C140.666 147.743 138.119 148.862 136.217 151.043C134.37 153.168 133.447 155.909 133.447 159.265V181.497H120.52V119.247H133.447V144.331C136.58 138.794 141.785 135.97 149.06 135.858Z" fill="#161616"/>
<path d="M196.133 135.942C203.408 135.942 208.92 138.039 212.669 142.234C216.475 146.429 218.377 152.273 218.377 159.768C218.377 161.11 218.349 162.145 218.293 162.872H185.893C186.62 165.724 188.019 167.962 190.09 169.584C192.16 171.15 194.65 171.933 197.56 171.933C199.687 171.933 201.729 171.541 203.688 170.758C205.646 169.919 207.409 168.717 208.976 167.151L215.775 174.03C213.481 176.603 210.683 178.588 207.381 179.986C204.136 181.329 200.498 182 196.469 182C191.712 182 187.543 181.049 183.962 179.148C180.437 177.246 177.695 174.561 175.736 171.094C173.833 167.626 172.882 163.627 172.882 159.097C172.882 154.51 173.861 150.484 175.82 147.016C177.778 143.492 180.521 140.78 184.046 138.878C187.571 136.921 191.601 135.942 196.133 135.942ZM206.206 155.238C206.094 152.273 205.143 149.896 203.352 148.107C201.561 146.317 199.183 145.422 196.217 145.422C193.419 145.422 191.069 146.317 189.166 148.107C187.32 149.84 186.144 152.217 185.641 155.238H206.206Z" fill="#161616"/>
<path d="M286.593 135.858C291.574 135.858 295.519 137.424 298.429 140.556C301.395 143.632 302.878 147.827 302.878 153.14V181.497H290.035V156.915C290.035 154.007 289.251 151.742 287.685 150.12C286.118 148.498 283.991 147.687 281.305 147.687C278.227 147.743 275.793 148.834 274.002 150.959C272.212 153.084 271.316 155.825 271.316 159.181V181.497H258.474V156.915C258.474 154.063 257.69 151.826 256.123 150.204C254.612 148.526 252.514 147.687 249.828 147.687C246.75 147.743 244.288 148.834 242.441 150.959C240.65 153.084 239.755 155.825 239.755 159.181V181.497H226.828V136.361H239.755V144.163C242.889 138.738 247.981 135.97 255.032 135.858C258.837 135.858 262.055 136.781 264.685 138.626C267.315 140.416 269.19 142.961 270.309 146.261C271.764 142.849 273.863 140.276 276.605 138.543C279.403 136.809 282.732 135.914 286.593 135.858Z" fill="#161616"/>
<path d="M333.437 135.942C340.712 135.942 346.224 138.039 349.973 142.234C353.778 146.429 355.681 152.273 355.681 159.768C355.681 161.11 355.653 162.145 355.597 162.872H323.196C323.924 165.724 325.323 167.962 327.393 169.584C329.464 171.15 331.954 171.933 334.864 171.933C336.99 171.933 339.033 171.541 340.992 170.758C342.95 169.919 344.713 168.717 346.28 167.151L353.079 174.03C350.785 176.603 347.987 178.588 344.685 179.986C341.439 181.329 337.802 182 333.773 182C329.016 182 324.847 181.049 321.266 179.148C317.74 177.246 314.998 174.561 313.04 171.094C311.137 167.626 310.186 163.627 310.186 159.097C310.186 154.51 311.165 150.484 313.124 147.016C315.082 143.492 317.824 140.78 321.35 138.878C324.875 136.921 328.904 135.942 333.437 135.942ZM343.51 155.238C343.398 152.273 342.447 149.896 340.656 148.107C338.865 146.317 336.487 145.422 333.521 145.422C330.723 145.422 328.373 146.317 326.47 148.107C324.623 149.84 323.448 152.217 322.945 155.238H343.51Z" fill="#161616"/>
<path d="M377.059 144.499C378.626 141.703 380.668 139.577 383.186 138.123C385.705 136.669 388.642 135.914 392 135.858V148.023C391.552 147.967 390.881 147.939 389.985 147.939C386.012 147.939 382.851 149.029 380.5 151.211C378.206 153.336 377.059 156.188 377.059 159.768V181.497H364.132V136.361H377.059V144.499Z" fill="#161616"/>
<ellipse cx="173.5" cy="56.2" rx="23.5" ry="23" fill="#161616"/>
<path d="M173.275 71.1C181.711 71.1 188.55 64.4067 188.55 56.15C188.55 47.8934 181.711 41.2 173.275 41.2C164.839 41.2 158 47.8934 158 56.15C158 64.4067 164.839 71.1 173.275 71.1Z" fill="#D81B60"/>
<path d="M170.455 53.4161C170.455 55.1028 169.192 56.4598 167.635 56.4598C166.078 56.4598 164.815 55.0966 164.815 53.4161C164.815 51.7356 166.078 50.3724 167.635 50.3724C169.192 50.3724 170.455 51.7356 170.455 53.4161Z" fill="#161616"/>
<path d="M181.735 53.4161C181.735 55.1028 180.472 56.4598 178.915 56.4598C177.358 56.4598 176.095 55.0966 176.095 53.4161C176.095 51.7356 177.358 50.3724 178.915 50.3724C180.472 50.3724 181.735 51.7356 181.735 53.4161Z" fill="#161616"/>
<path d="M178.758 59.137C179.363 59.4758 179.579 60.2348 179.13 60.7546C178.171 61.8544 176.893 62.6424 175.466 63.0139C174.039 63.3853 172.53 63.3225 171.14 62.8338C170.485 62.6023 170.278 61.8402 170.629 61.253C170.977 60.6688 171.748 60.4863 172.423 60.6565C173.209 60.8549 174.033 60.8519 174.817 60.6478C175.602 60.4437 176.319 60.0454 176.9 59.4912C177.395 59.0174 178.154 58.7996 178.76 59.137H178.758Z" fill="#161616"/>
</svg>
