<svg width="108" height="108" viewBox="0 0 108 108" fill="none" xmlns="http://www.w3.org/2000/svg">
<path d="M26.1001 22.5H81.9001C89.1001 22.5 94.9501 27.9 95.4001 35.1L98.5501 76.5C99.0001 81 95.4001 85.05 90.9001 85.5H90.4501C85.0501 85.5 80.5501 81.9 79.2001 76.95L76.5001 67.5H31.5001L29.2501 76.95C27.9001 81.9 23.4001 85.5 18.0001 85.5C13.5001 85.5 9.45007 81.9 9.45007 76.95V76.5L12.6001 35.1C13.0501 27.9 18.9001 22.5 26.1001 22.5ZM65.2501 45C68.8501 45 72.0001 41.85 72.0001 38.25C72.0001 34.65 68.8501 31.5 65.2501 31.5C61.6501 31.5 58.5001 34.65 58.5001 38.25C58.5001 41.85 61.6501 45 65.2501 45ZM83.2501 58.5C86.8501 58.5 90.0001 55.35 90.0001 51.75C90.0001 48.15 86.8501 45 83.2501 45C79.6501 45 76.5001 48.15 76.5001 51.75C76.5001 55.35 79.6501 58.5 83.2501 58.5ZM27.0001 40.5H18.0001V49.5H27.0001V58.5H36.0001V49.5H45.0001V40.5H36.0001V31.5H27.0001V40.5Z" fill="white"/>
</svg>
