<svg width="108" height="108" viewBox="0 0 108 108" fill="none" xmlns="http://www.w3.org/2000/svg">
<path d="M11.385 88.425L17.415 90.945V50.31L6.48002 76.68C4.63502 81.27 6.84002 86.535 11.385 88.425ZM99.135 71.775L76.815 17.91C75.42 14.535 72.135 12.465 68.67 12.375C67.5 12.375 66.285 12.555 65.115 13.05L31.95 26.775C28.575 28.17 26.505 31.41 26.415 34.875C26.37 36.09 26.595 37.305 27.09 38.475L49.41 92.34C50.805 95.76 54.135 97.83 57.645 97.875C58.815 97.875 59.985 97.65 61.11 97.2L94.23 83.475C98.82 81.585 101.025 76.32 99.135 71.775ZM35.46 39.375C32.985 39.375 30.96 37.35 30.96 34.875C30.96 32.4 32.985 30.375 35.46 30.375C37.935 30.375 39.96 32.4 39.96 34.875C39.96 37.35 37.935 39.375 35.46 39.375ZM26.46 88.875C26.46 93.825 30.51 97.875 35.46 97.875H41.985L26.46 60.345V88.875Z" fill="white"/>
</svg>
