<svg width="108" height="108" viewBox="0 0 108 108" fill="none" xmlns="http://www.w3.org/2000/svg">
<g clip-path="url(#clip0)">
<path d="M105.399 30.6456L62.9055 58.5411C62.172 59.0136 61.5825 59.6751 61.191 60.4536L54.7155 73.4451C54.522 73.8816 54.0855 74.1696 53.604 74.1696C53.127 74.1696 52.6905 73.8816 52.497 73.4451L46.0215 60.4536C45.63 59.6751 45.036 59.0136 44.307 58.5411L1.81352 30.6456C1.36802 30.1191 0.580518 30.0516 0.0495182 30.4971C-0.476982 30.9381 -0.544482 31.7301 -0.0989818 32.2566L17.658 66.7986C17.8335 67.1631 17.82 67.5906 17.631 67.9506C17.4375 68.3061 17.0865 68.5536 16.6815 68.6076H6.00752C5.46752 68.6031 4.98602 68.9496 4.81952 69.4626C4.64852 69.9801 4.83302 70.5426 5.26952 70.8576L52.866 104.963C53.3115 105.265 53.901 105.265 54.3465 104.963L101.943 70.8576C102.38 70.5426 102.564 69.9801 102.393 69.4626C102.227 68.9496 101.745 68.6031 101.201 68.6076H90.5265C90.1035 68.5941 89.712 68.3646 89.487 68.0001C89.2665 67.6356 89.2395 67.1856 89.4195 66.7986L107.312 32.2566C107.757 31.7301 107.69 30.9381 107.159 30.4971C106.632 30.0516 105.845 30.1191 105.399 30.6456Z" fill="white"/>
<path d="M54.5445 5.06747L58.9095 13.964C59.067 14.261 59.3505 14.4725 59.6835 14.5355L69.516 15.944C69.9075 16.0025 70.236 16.277 70.3575 16.655C70.479 17.033 70.371 17.447 70.0875 17.7215L62.973 24.638C62.739 24.881 62.6265 25.214 62.667 25.5425L64.3455 35.312C64.422 35.6945 64.269 36.0905 63.9495 36.32C63.6345 36.5495 63.2115 36.5765 62.8695 36.3875L54.0765 31.7885C53.784 31.6175 53.4285 31.6175 53.136 31.7885L44.343 36.3875C44.001 36.5765 43.578 36.5495 43.2585 36.32C42.9435 36.0905 42.7905 35.6945 42.8625 35.312L44.541 25.5425C44.586 25.214 44.4735 24.881 44.2395 24.638L37.125 17.7215C36.837 17.447 36.7335 17.033 36.855 16.655C36.9765 16.277 37.3005 16.0025 37.6965 15.944L47.529 14.567C47.862 14.504 48.1455 14.297 48.303 13.9955L52.668 5.10347C52.83 4.73447 53.1945 4.50047 53.595 4.49147C53.9955 4.48247 54.369 4.70747 54.5445 5.06747Z" fill="white"/>
</g>
<defs>
<clipPath id="clip0">
<rect width="108" height="108" fill="white"/>
</clipPath>
</defs>
</svg>
