<svg width="84" height="108" viewBox="0 0 84 108" fill="none" xmlns="http://www.w3.org/2000/svg">
<g clip-path="url(#clip0)">
<path d="M41.0653 28.3247L32.9125 20.1719L49.797 3.28748C50.8812 2.21222 52.3463 1.60889 53.8733 1.60889C55.4003 1.60889 56.8655 2.21222 57.9497 3.28748V3.28748C59.025 4.3717 59.6283 5.83686 59.6283 7.36386C59.6283 8.89086 59.025 10.356 57.9497 11.4402L41.0653 28.3247Z" fill="#474747"/>
<path d="M39.9317 29.4343L31.7789 21.2815C31.63 21.1352 31.5117 20.9606 31.431 20.768C31.3502 20.5755 31.3087 20.3687 31.3087 20.1599C31.3087 19.9511 31.3502 19.7444 31.431 19.5518C31.5117 19.3592 31.63 19.1847 31.7789 19.0383L48.6633 2.15389C49.342 1.45373 50.1532 0.895569 51.0497 0.511912C51.9461 0.128254 52.91 -0.0732372 53.8851 -0.0808317C54.8601 -0.0884262 55.827 0.0980278 56.7293 0.467675C57.6316 0.837323 58.4514 1.38278 59.1409 2.07228C59.8304 2.76179 60.3759 3.58157 60.7455 4.4839C61.1152 5.38623 61.3016 6.35308 61.294 7.32816C61.2865 8.30325 61.085 9.26707 60.7013 10.1635C60.3177 11.06 59.7595 11.8712 59.0593 12.5499L42.1749 29.4343C42.0285 29.5832 41.854 29.7015 41.6614 29.7822C41.4688 29.863 41.2621 29.9046 41.0533 29.9046C40.8445 29.9046 40.6378 29.863 40.4452 29.7822C40.2526 29.7015 40.0781 29.5832 39.9317 29.4343V29.4343ZM35.1558 20.172L41.0654 26.0815L56.8161 10.3308C57.5998 9.54712 58.04 8.48426 58.04 7.376C58.04 6.26775 57.5998 5.20488 56.8161 4.42123C56.0325 3.63757 54.9696 3.19732 53.8613 3.19732C52.7531 3.19732 51.6902 3.63757 50.9066 4.42123L35.1558 20.172Z" fill="#474747"/>
<path d="M63.1839 50.4433L55.0311 42.2906L71.9155 25.4061C72.9998 24.3309 74.4649 23.7275 75.9919 23.7275C77.5189 23.7275 78.9841 24.3309 80.0683 25.4061V25.4061C81.1436 26.4904 81.7469 27.9555 81.7469 29.4825C81.7469 31.0095 81.1436 32.4747 80.0683 33.5589L63.1839 50.4433Z" fill="#474747"/>
<path d="M62.0502 51.553L53.8975 43.4002C53.7485 43.2538 53.6303 43.0793 53.5495 42.8867C53.4688 42.6941 53.4272 42.4874 53.4272 42.2786C53.4272 42.0698 53.4688 41.863 53.5495 41.6705C53.6303 41.4779 53.7485 41.3033 53.8975 41.157L70.7819 24.2725C71.4606 23.5724 72.2718 23.0142 73.1682 22.6306C74.0647 22.2469 75.0285 22.0454 76.0036 22.0378C76.9787 22.0302 77.9455 22.2167 78.8478 22.5863C79.7502 22.956 80.57 23.5014 81.2595 24.1909C81.949 24.8804 82.4944 25.7002 82.8641 26.6026C83.2337 27.5049 83.4202 28.4717 83.4126 29.4468C83.405 30.4219 83.2035 31.3857 82.8198 32.2822C82.4362 33.1787 81.878 33.9898 81.1779 34.6685L64.2934 51.553C64.1471 51.7019 63.9725 51.8202 63.7799 51.9009C63.5874 51.9816 63.3806 52.0232 63.1718 52.0232C62.963 52.0232 62.7563 51.9816 62.5637 51.9009C62.3712 51.8202 62.1966 51.7019 62.0502 51.553V51.553ZM57.2743 42.2906L63.1839 48.2002L78.9346 32.4494C79.3227 32.0614 79.6305 31.6007 79.8405 31.0938C80.0505 30.5868 80.1586 30.0434 80.1586 29.4947C80.1586 28.9459 80.0505 28.4025 79.8405 27.8955C79.6305 27.3886 79.3227 26.9279 78.9346 26.5399C78.5466 26.1519 78.086 25.8441 77.579 25.6341C77.072 25.4241 76.5286 25.316 75.9799 25.316C75.4311 25.316 74.8877 25.4241 74.3808 25.6341C73.8738 25.8441 73.4131 26.1519 73.0251 26.5399L57.2743 42.2906Z" fill="#474747"/>
<path d="M28.2404 15.5035L22.4244 21.3196L62.011 60.9062L67.827 55.0901L28.2404 15.5035Z" fill="#474747"/>
<path d="M60.8442 62.0696L21.2623 22.4877C21.1075 22.3347 20.9847 22.1525 20.9008 21.9517C20.817 21.7509 20.7738 21.5355 20.7738 21.3178C20.7738 21.1002 20.817 20.8848 20.9008 20.684C20.9847 20.4832 21.1075 20.301 21.2623 20.148L27.0754 14.3349C27.2284 14.1802 27.4105 14.0573 27.6113 13.9735C27.8122 13.8896 28.0276 13.8464 28.2452 13.8464C28.4628 13.8464 28.6783 13.8896 28.8791 13.9735C29.0799 14.0573 29.2621 14.1802 29.4151 14.3349L68.997 53.9168C69.1517 54.0698 69.2746 54.252 69.3585 54.4528C69.4423 54.6536 69.4855 54.8691 69.4855 55.0867C69.4855 55.3043 69.4423 55.5198 69.3585 55.7206C69.2746 55.9214 69.1517 56.1036 68.997 56.2565L63.1839 62.0696C63.0309 62.2244 62.8488 62.3472 62.6479 62.4311C62.4471 62.5149 62.2317 62.5581 62.0141 62.5581C61.7965 62.5581 61.581 62.5149 61.3802 62.4311C61.1794 62.3472 60.9972 62.2244 60.8442 62.0696V62.0696ZM24.7598 21.3299L62.0261 58.5962L65.5236 55.0988L28.2573 17.8324L24.7598 21.3299Z" fill="#474747"/>
<path d="M26.6412 79.0988L4.2332 56.6907C2.57674 55.0288 1.64661 52.7779 1.64661 50.4314C1.64661 48.0849 2.57674 45.8341 4.2332 44.1721L24.7598 23.6455L59.6865 58.5722L39.1598 79.0988C38.3398 79.9242 37.3646 80.5793 36.2903 81.0263C35.2161 81.4733 34.0641 81.7034 32.9005 81.7034C31.737 81.7034 30.585 81.4733 29.5107 81.0263C28.4365 80.5793 27.4613 79.9242 26.6412 79.0988Z" fill="#474747"/>
<path d="M25.4834 80.2566L3.07534 57.8485C1.10632 55.8775 0.000305176 53.2054 0.000305176 50.4194C0.000305176 47.6333 1.10632 44.9613 3.07534 42.9902L23.602 22.4636C23.755 22.3088 23.9371 22.186 24.138 22.1021C24.3388 22.0183 24.5542 21.9751 24.7718 21.9751C24.9894 21.9751 25.2049 22.0183 25.4057 22.1021C25.6065 22.186 25.7887 22.3088 25.9417 22.4636L60.8442 57.4143C60.999 57.5673 61.1218 57.7495 61.2057 57.9503C61.2895 58.1511 61.3327 58.3666 61.3327 58.5842C61.3327 58.8018 61.2895 59.0173 61.2057 59.2181C61.1218 59.4189 60.999 59.601 60.8442 59.754L40.3417 80.2566C38.3707 82.2256 35.6986 83.3316 32.9125 83.3316C30.1265 83.3316 27.4544 82.2256 25.4834 80.2566ZM24.7598 25.9852L5.41504 45.3299C4.74422 45.9994 4.21202 46.7945 3.84889 47.6699C3.48577 48.5453 3.29886 49.4837 3.29886 50.4314C3.29886 51.3791 3.48577 52.3175 3.84889 53.1929C4.21202 54.0683 4.74422 54.8635 5.41504 55.5329L27.8231 77.941C28.4925 78.6118 29.2877 79.144 30.1631 79.5071C31.0385 79.8702 31.9769 80.0572 32.9246 80.0572C33.8723 80.0572 34.8107 79.8702 35.6861 79.5071C36.5615 79.144 37.3567 78.6118 38.0261 77.941L57.3708 58.5963L24.7598 25.9852Z" fill="#474747"/>
<path d="M11.956 64.4024L4.96307 71.3953L11.956 78.3882L18.9489 71.3953L11.956 64.4024Z" fill="#474747"/>
<path d="M10.7698 79.5569L3.77487 72.5619C3.62012 72.4089 3.49726 72.2268 3.41341 72.026C3.32955 71.8252 3.28638 71.6097 3.28638 71.3921C3.28638 71.1745 3.32955 70.959 3.41341 70.7582C3.49726 70.5574 3.62012 70.3752 3.77487 70.2222L10.7698 63.2273C10.9228 63.0725 11.105 62.9497 11.3058 62.8658C11.5066 62.7819 11.7221 62.7388 11.9397 62.7388C12.1573 62.7388 12.3728 62.7819 12.5736 62.8658C12.7744 62.9497 12.9566 63.0725 13.1095 63.2273L20.1045 70.2222C20.2593 70.3752 20.3821 70.5574 20.466 70.7582C20.5498 70.959 20.593 71.1745 20.593 71.3921C20.593 71.6097 20.5498 71.8252 20.466 72.026C20.3821 72.2268 20.2593 72.4089 20.1045 72.5619L13.1095 79.5569C12.7951 79.8591 12.3758 80.0279 11.9397 80.0279C11.5036 80.0279 11.0843 79.8591 10.7698 79.5569V79.5569ZM7.29648 71.4042L11.9518 76.0594L16.607 71.4042L11.9518 66.7489L7.29648 71.4042Z" fill="#474747"/>
<path d="M22.4201 107.489L7.29648 92.3651C4.82902 89.8948 3.44305 86.5461 3.44305 83.0546C3.44305 79.563 4.82902 76.2143 7.29648 73.744C7.60858 73.4427 8.02651 73.276 8.46029 73.2798C8.89408 73.2837 9.30901 73.4577 9.61575 73.7644C9.92249 74.0712 10.0965 74.4861 10.1003 74.9199C10.1041 75.3537 9.93747 75.7716 9.63618 76.0837C8.71855 77.0004 7.9906 78.0889 7.49393 79.2871C6.99726 80.4853 6.74161 81.7696 6.74161 83.0666C6.74161 84.3637 6.99726 85.648 7.49393 86.8462C7.9906 88.0443 8.71855 89.1329 9.63618 90.0495L24.7839 105.197C24.9387 105.35 25.0615 105.532 25.1454 105.733C25.2292 105.934 25.2724 106.15 25.2724 106.367C25.2724 106.585 25.2292 106.8 25.1454 107.001C25.0615 107.202 24.9387 107.384 24.7839 107.537C24.4638 107.844 24.0352 108.011 23.592 108.002C23.1489 107.992 22.7274 107.808 22.4201 107.489V107.489Z" fill="#474747"/>
</g>
<defs>
<clipPath id="clip0">
<rect width="83.3319" height="108" fill="white"/>
</clipPath>
</defs>
</svg>
