<svg width="100" height="130" viewBox="0 0 100 130" fill="none" xmlns="http://www.w3.org/2000/svg">
<path fill-rule="evenodd" clip-rule="evenodd" d="M13 130H87C94.1797 130 100 124.18 100 117V40.3848C100 36.937 98.6304 33.6304 96.1924 31.1924L68.8076 3.80761C66.3696 1.36964 63.063 0 59.6152 0H13C5.8203 0 0 5.8203 0 13V117C0 124.18 5.8203 130 13 130ZM89.2674 44.9048L55.8617 9.90288C55.5503 9.57655 55 9.79699 55 10.2481V45.25C55 45.5261 55.2239 45.75 55.5 45.75H88.9057C89.3455 45.75 89.571 45.223 89.2674 44.9048ZM44.932 104.944L47.462 111.2H55.236L41.482 79H33.984L20 111.2H27.498L30.028 104.944H44.932ZM42.586 99.102H32.42L37.526 86.59L42.586 99.102ZM77.0113 89.672C74.9566 87.372 71.9359 86.222 67.9492 86.222C65.4652 86.222 63.2573 86.7587 61.3253 87.832C59.3933 88.8747 57.8906 90.362 56.8172 92.294C55.7439 94.1953 55.2072 96.4033 55.2072 98.918C55.2072 101.402 55.7286 103.595 56.7713 105.496C57.8446 107.397 59.3473 108.869 61.2793 109.912C63.2419 110.955 65.5266 111.476 68.1333 111.476C70.3412 111.476 72.3346 111.108 74.1133 110.372C75.9226 109.605 77.4559 108.517 78.7133 107.106L74.9873 103.334C74.1286 104.193 73.1626 104.852 72.0892 105.312C71.0159 105.741 69.8966 105.956 68.7312 105.956C67.1366 105.956 65.7719 105.527 64.6373 104.668C63.5026 103.779 62.7359 102.552 62.3372 100.988H80.0932C80.1239 100.589 80.1393 100.022 80.1393 99.286C80.1393 95.1767 79.0966 91.972 77.0113 89.672ZM71.9053 92.892C72.8866 93.8733 73.4079 95.1767 73.4693 96.802H62.1992C62.4753 95.146 63.1193 93.8427 64.1313 92.892C65.1739 91.9107 66.4619 91.42 67.9953 91.42C69.6206 91.42 70.9239 91.9107 71.9053 92.892Z" fill="#474747"/>
</svg>
