<svg width="100" height="130" viewBox="0 0 100 130" fill="none" xmlns="http://www.w3.org/2000/svg">
<path fill-rule="evenodd" clip-rule="evenodd" d="M13 130H87C94.1797 130 100 124.18 100 117V40.3848C100 36.937 98.6304 33.6304 96.1924 31.1924L68.8076 3.80761C66.3696 1.36964 63.063 0 59.6152 0H13C5.8203 0 0 5.8203 0 13V117C0 124.18 5.8203 130 13 130ZM89.2674 44.9048L55.8617 9.90288C55.5503 9.57655 55 9.79699 55 10.2481V45.25C55 45.5261 55.2239 45.75 55.5 45.75H88.9057C89.3455 45.75 89.571 45.223 89.2674 44.9048ZM70.5 71C70.9655 71 71.3428 71.3774 71.3428 71.8428V104.014C71.3428 104.016 71.3413 104.017 71.3393 104.017C71.3374 104.017 71.3358 104.019 71.3359 104.021C71.3405 104.141 71.3429 104.262 71.3429 104.384C71.3429 109.449 67.2367 113.556 62.1715 113.556C57.1062 113.556 53 109.449 53 104.384C53 99.3189 57.1062 95.2127 62.1715 95.2127C63.1257 95.2127 64.0057 94.5039 64.0057 93.5497V79.0051C64.0057 79.0023 64.0034 79 64.0005 79L63.9995 79.0001L51.323 81.641C49.0044 82.1241 47.3428 84.1676 47.3428 86.5359V109.014C47.3428 109.016 47.3412 109.017 47.3393 109.017C47.3377 109.017 47.3364 109.018 47.336 109.02C47.3359 109.02 47.3358 109.02 47.3358 109.021C47.3405 109.141 47.3429 109.262 47.3429 109.384C47.3429 114.449 43.2367 118.556 38.1715 118.556C33.1062 118.556 29 114.449 29 109.384C29 104.319 33.1062 100.213 38.1715 100.213C39.1256 100.213 40.0056 99.5039 40.0056 98.5497V84.0017C40.0056 84.0002 40.0043 83.9991 40.0028 83.9994C40.0014 83.9997 40 83.9986 40 83.9971V79.1841C40 77.3293 41.3013 75.7289 43.1171 75.3506L63.9944 71.0012C63.9981 71.0004 64.0019 71 64.0057 71H70.5Z" fill="#474747"/>
</svg>
