<svg width="100" height="130" viewBox="0 0 100 130" fill="none" xmlns="http://www.w3.org/2000/svg">
<path fill-rule="evenodd" clip-rule="evenodd" d="M13 130H87C94.1797 130 100 124.18 100 117V40.3848C100 36.937 98.6304 33.6304 96.1924 31.1924L68.8076 3.80761C66.3696 1.36964 63.063 0 59.6152 0H13C5.8203 0 0 5.8203 0 13V117C0 124.18 5.8203 130 13 130ZM89.2674 44.9048L55.8617 9.90288C55.5503 9.57655 55 9.79699 55 10.2481V45.25C55 45.5261 55.2239 45.75 55.5 45.75H88.9057C89.3455 45.75 89.571 45.223 89.2674 44.9048ZM76.5603 80H22.5603V77H76.5603V80ZM22.5603 87H76.5603V84H22.5603V87ZM76.5603 94H22.5603V91H76.5603V94ZM24.0733 101.977C24.8043 96.6772 31.5085 94.8052 34.8796 98.9599C38.0177 102.827 42.3211 105.578 47.149 106.802L49.5591 107.413L51.9692 106.802C56.7971 105.578 61.1006 102.827 64.2387 98.9599C67.6097 94.8052 74.314 96.6772 75.045 101.977L76.8831 115.305L77.1183 117.01H75.3971H23.7211H22L22.2351 115.305L24.0733 101.977ZM63.3748 114.01L49.5591 110.508L35.7435 114.01H63.3748ZM43.7558 108.884L25.5113 113.508L27.0451 102.387C27.4175 99.6872 30.8327 98.7336 32.55 100.85C35.5086 104.497 39.3842 107.264 43.7558 108.884ZM55.3625 108.884L73.607 113.508L72.0731 102.387C71.7007 99.6872 68.2855 98.7336 66.5683 100.85C63.6096 104.497 59.7341 107.264 55.3625 108.884Z" fill="#474747"/>
</svg>
