<svg width="100" height="130" viewBox="0 0 100 130" fill="none" xmlns="http://www.w3.org/2000/svg">
<path fill-rule="evenodd" clip-rule="evenodd" d="M13 130H87C94.1797 130 100 124.18 100 117V40.3848C100 36.937 98.6304 33.6304 96.1924 31.1924L68.8076 3.80761C66.3696 1.36964 63.063 0 59.6152 0H13C5.8203 0 0 5.8203 0 13V117C0 124.18 5.8203 130 13 130ZM89.2674 44.9048L55.8617 9.90288C55.5503 9.57655 55 9.79699 55 10.2481V45.25C55 45.5261 55.2239 45.75 55.5 45.75H88.9057C89.3455 45.75 89.571 45.223 89.2674 44.9048ZM33.7654 85.2611L50.5 109.871L67.2346 85.2611L59.3627 76H41.6373L33.7654 85.2611ZM40.25 73L30 85.0588L48.6861 112.538L50.5 115.206L52.3139 112.538L71 85.0588L60.75 73H40.25ZM61.0572 87.3341H40.3524V84.3341H61.0572V87.3341Z" fill="#474747"/>
</svg>
