<svg width="100" height="130" viewBox="0 0 100 130" fill="none" xmlns="http://www.w3.org/2000/svg">
<path fill-rule="evenodd" clip-rule="evenodd" d="M13 130H87C94.1797 130 100 124.18 100 117V40.3848C100 36.937 98.6304 33.6304 96.1924 31.1924L68.8076 3.80761C66.3696 1.36964 63.063 0 59.6152 0H13C5.8203 0 0 5.8203 0 13V117C0 124.18 5.8203 130 13 130ZM89.2674 44.9048L55.8617 9.90288C55.5503 9.57655 55 9.79699 55 10.2481V45.25C55 45.5261 55.2239 45.75 55.5 45.75H88.9057C89.3455 45.75 89.571 45.223 89.2674 44.9048ZM64.3479 82H51.3044V88.5217H64.3479V82ZM51.3044 91.1305H64.3479V97.6522H51.3044V91.1305ZM64.3479 100.261H51.3044V106.783H64.3479V100.261ZM66.9565 91.1305H79.9999V97.6522H66.9565V91.1305ZM79.9999 100.261H66.9565V106.783H79.9999V100.261ZM51.3044 109.391H64.3479V115.913H51.3044V109.391ZM33.0435 82H20V88.5217H33.0435V82ZM20 91.1305H33.0435V97.6522H20V91.1305ZM33.0435 100.261H20V106.783H33.0435V100.261ZM20 109.391H33.0435V115.913H20V109.391ZM48.6957 82H35.6522V88.5217H48.6957V82ZM35.6522 91.1305H48.6957V97.6522H35.6522V91.1305ZM48.6957 100.261H35.6522V106.783H48.6957V100.261ZM35.6522 109.391H48.6957V115.913H35.6522V109.391ZM79.9999 109.391H66.9565V115.913H79.9999V109.391Z" fill="#474747"/>
</svg>
