<svg width="100" height="130" viewBox="0 0 100 130" fill="none" xmlns="http://www.w3.org/2000/svg">
<path fill-rule="evenodd" clip-rule="evenodd" d="M87 130H13C5.8203 130 0 124.18 0 117V13C0 5.8203 5.8203 0 13 0H59.6152C63.063 0 66.3696 1.36964 68.8076 3.80761L96.1924 31.1924C98.6304 33.6304 100 36.937 100 40.3848V117C100 124.18 94.1797 130 87 130ZM55.8617 9.90288L89.2674 44.9048C89.571 45.223 89.3455 45.75 88.9057 45.75H55.5C55.2239 45.75 55 45.5261 55 45.25V10.2481C55 9.79699 55.5503 9.57655 55.8617 9.90288Z" fill="#474747"/>
</svg>
