<svg width="84" height="108" viewBox="0 0 84 108" fill="none" xmlns="http://www.w3.org/2000/svg">
<g clip-path="url(#clip0)">
<path d="M41.0654 28.3247L32.9126 20.1719L49.797 3.28748C50.8812 2.21222 52.3464 1.60889 53.8734 1.60889C55.4004 1.60889 56.8655 2.21222 57.9498 3.28748V3.28748C59.025 4.3717 59.6284 5.83686 59.6284 7.36386C59.6284 8.89086 59.025 10.356 57.9498 11.4402L41.0654 28.3247Z" fill="white"/>
<path d="M39.9316 29.4343L31.7789 21.2815C31.6299 21.1352 31.5117 20.9606 31.4309 20.768C31.3502 20.5755 31.3086 20.3687 31.3086 20.1599C31.3086 19.9511 31.3502 19.7444 31.4309 19.5518C31.5117 19.3592 31.6299 19.1847 31.7789 19.0383L48.6633 2.15389C49.342 1.45373 50.1532 0.895569 51.0496 0.511912C51.9461 0.128254 52.9099 -0.0732372 53.885 -0.0808317C54.8601 -0.0884262 55.8269 0.0980278 56.7293 0.467675C57.6316 0.837323 58.4514 1.38278 59.1409 2.07228C59.8304 2.76179 60.3758 3.58157 60.7455 4.4839C61.1151 5.38623 61.3016 6.35308 61.294 7.32816C61.2864 8.30325 61.0849 9.26707 60.7012 10.1635C60.3176 11.06 59.7594 11.8712 59.0593 12.5499L42.1748 29.4343C42.0285 29.5832 41.8539 29.7015 41.6613 29.7822C41.4688 29.863 41.262 29.9046 41.0532 29.9046C40.8444 29.9046 40.6377 29.863 40.4451 29.7822C40.2526 29.7015 40.078 29.5832 39.9316 29.4343V29.4343ZM35.1558 20.172L41.0653 26.0815L56.816 10.3308C57.5997 9.54712 58.04 8.48426 58.04 7.376C58.04 6.26775 57.5997 5.20488 56.816 4.42123C56.0324 3.63757 54.9695 3.19732 53.8613 3.19732C52.753 3.19732 51.6902 3.63757 50.9065 4.42123L35.1558 20.172Z" fill="white"/>
<path d="M63.1839 50.4433L55.0311 42.2906L71.9155 25.4061C72.9998 24.3309 74.4649 23.7275 75.9919 23.7275C77.5189 23.7275 78.9841 24.3309 80.0683 25.4061V25.4061C81.1436 26.4904 81.7469 27.9555 81.7469 29.4825C81.7469 31.0095 81.1436 32.4747 80.0683 33.5589L63.1839 50.4433Z" fill="white"/>
<path d="M62.0503 51.553L53.8975 43.4002C53.7486 43.2538 53.6303 43.0793 53.5496 42.8867C53.4688 42.6941 53.4272 42.4874 53.4272 42.2786C53.4272 42.0698 53.4688 41.863 53.5496 41.6705C53.6303 41.4779 53.7486 41.3033 53.8975 41.157L70.7819 24.2725C71.4606 23.5724 72.2718 23.0142 73.1683 22.6306C74.0647 22.2469 75.0286 22.0454 76.0036 22.0378C76.9787 22.0302 77.9456 22.2167 78.8479 22.5863C79.7502 22.956 80.57 23.5014 81.2595 24.1909C81.949 24.8804 82.4945 25.7002 82.8641 26.6026C83.2338 27.5049 83.4202 28.4717 83.4126 29.4468C83.4051 30.4219 83.2036 31.3857 82.8199 32.2822C82.4362 33.1787 81.8781 33.9898 81.1779 34.6685L64.2935 51.553C64.1471 51.7019 63.9726 51.8202 63.78 51.9009C63.5874 51.9816 63.3807 52.0232 63.1719 52.0232C62.9631 52.0232 62.7564 51.9816 62.5638 51.9009C62.3712 51.8202 62.1967 51.7019 62.0503 51.553V51.553ZM57.2744 42.2906L63.184 48.2002L78.9347 32.4494C79.3227 32.0614 79.6305 31.6007 79.8405 31.0938C80.0505 30.5868 80.1586 30.0434 80.1586 29.4947C80.1586 28.9459 80.0505 28.4025 79.8405 27.8955C79.6305 27.3886 79.3227 26.9279 78.9347 26.5399C78.5467 26.1519 78.086 25.8441 77.579 25.6341C77.0721 25.4241 76.5287 25.316 75.9799 25.316C75.4312 25.316 74.8878 25.4241 74.3808 25.6341C73.8738 25.8441 73.4132 26.1519 73.0252 26.5399L57.2744 42.2906Z" fill="white"/>
<path d="M28.2404 15.5035L22.4243 21.3196L62.0109 60.9062L67.827 55.0901L28.2404 15.5035Z" fill="white"/>
<path d="M60.8442 62.0696L21.2623 22.4877C21.1075 22.3347 20.9847 22.1525 20.9008 21.9517C20.817 21.7509 20.7738 21.5355 20.7738 21.3178C20.7738 21.1002 20.817 20.8848 20.9008 20.684C20.9847 20.4832 21.1075 20.301 21.2623 20.148L27.0754 14.3349C27.2284 14.1802 27.4105 14.0573 27.6113 13.9735C27.8122 13.8896 28.0276 13.8464 28.2452 13.8464C28.4628 13.8464 28.6783 13.8896 28.8791 13.9735C29.0799 14.0573 29.2621 14.1802 29.4151 14.3349L68.997 53.9168C69.1517 54.0698 69.2746 54.252 69.3585 54.4528C69.4423 54.6536 69.4855 54.8691 69.4855 55.0867C69.4855 55.3043 69.4423 55.5198 69.3585 55.7206C69.2746 55.9214 69.1517 56.1036 68.997 56.2565L63.1839 62.0696C63.0309 62.2244 62.8488 62.3472 62.6479 62.4311C62.4471 62.5149 62.2317 62.5581 62.0141 62.5581C61.7965 62.5581 61.581 62.5149 61.3802 62.4311C61.1794 62.3472 60.9972 62.2244 60.8442 62.0696V62.0696ZM24.7598 21.3299L62.0261 58.5962L65.5236 55.0988L28.2573 17.8324L24.7598 21.3299Z" fill="white"/>
<path d="M26.6412 79.0988L4.2332 56.6907C2.57674 55.0288 1.64661 52.7779 1.64661 50.4314C1.64661 48.0849 2.57674 45.8341 4.2332 44.1721L24.7598 23.6455L59.6865 58.5722L39.1598 79.0988C38.3398 79.9242 37.3646 80.5793 36.2903 81.0263C35.2161 81.4733 34.0641 81.7034 32.9005 81.7034C31.737 81.7034 30.585 81.4733 29.5107 81.0263C28.4365 80.5793 27.4613 79.9242 26.6412 79.0988Z" fill="white"/>
<path d="M25.4834 80.2566L3.0754 57.8485C1.10638 55.8775 0.000366211 53.2054 0.000366211 50.4194C0.000366211 47.6333 1.10638 44.9613 3.0754 42.9902L23.602 22.4636C23.755 22.3088 23.9372 22.186 24.138 22.1021C24.3388 22.0183 24.5543 21.9751 24.7719 21.9751C24.9895 21.9751 25.205 22.0183 25.4058 22.1021C25.6066 22.186 25.7887 22.3088 25.9417 22.4636L60.8443 57.4143C60.999 57.5673 61.1219 57.7495 61.2057 57.9503C61.2896 58.1511 61.3327 58.3666 61.3327 58.5842C61.3327 58.8018 61.2896 59.0173 61.2057 59.2181C61.1219 59.4189 60.999 59.601 60.8443 59.754L40.3417 80.2566C38.3707 82.2256 35.6986 83.3316 32.9126 83.3316C30.1266 83.3316 27.4545 82.2256 25.4834 80.2566ZM24.7598 25.9852L5.4151 45.3299C4.74428 45.9994 4.21208 46.7945 3.84896 47.6699C3.48583 48.5453 3.29892 49.4837 3.29892 50.4314C3.29892 51.3791 3.48583 52.3175 3.84896 53.1929C4.21208 54.0683 4.74428 54.8635 5.4151 55.5329L27.8231 77.941C28.4926 78.6118 29.2878 79.144 30.1632 79.5071C31.0385 79.8702 31.9769 80.0572 32.9247 80.0572C33.8724 80.0572 34.8108 79.8702 35.6862 79.5071C36.5615 79.144 37.3567 78.6118 38.0262 77.941L57.3709 58.5963L24.7598 25.9852Z" fill="white"/>
<path d="M11.9559 64.4024L4.96301 71.3953L11.9559 78.3882L18.9488 71.3953L11.9559 64.4024Z" fill="white"/>
<path d="M10.7698 79.5569L3.77487 72.5619C3.62012 72.4089 3.49726 72.2268 3.41341 72.026C3.32955 71.8252 3.28638 71.6097 3.28638 71.3921C3.28638 71.1745 3.32955 70.959 3.41341 70.7582C3.49726 70.5574 3.62012 70.3752 3.77487 70.2222L10.7698 63.2273C10.9228 63.0725 11.105 62.9497 11.3058 62.8658C11.5066 62.7819 11.7221 62.7388 11.9397 62.7388C12.1573 62.7388 12.3728 62.7819 12.5736 62.8658C12.7744 62.9497 12.9566 63.0725 13.1095 63.2273L20.1045 70.2222C20.2593 70.3752 20.3821 70.5574 20.466 70.7582C20.5498 70.959 20.593 71.1745 20.593 71.3921C20.593 71.6097 20.5498 71.8252 20.466 72.026C20.3821 72.2268 20.2593 72.4089 20.1045 72.5619L13.1095 79.5569C12.7951 79.8591 12.3758 80.0279 11.9397 80.0279C11.5036 80.0279 11.0843 79.8591 10.7698 79.5569V79.5569ZM7.29648 71.4042L11.9518 76.0594L16.607 71.4042L11.9518 66.7489L7.29648 71.4042Z" fill="white"/>
<path d="M22.4202 107.489L7.29654 92.3651C4.82908 89.8948 3.44312 86.5461 3.44312 83.0546C3.44312 79.563 4.82908 76.2143 7.29654 73.744C7.60864 73.4427 8.02657 73.276 8.46035 73.2798C8.89414 73.2837 9.30907 73.4577 9.61581 73.7644C9.92255 74.0712 10.0966 74.4861 10.1004 74.9199C10.1042 75.3537 9.93753 75.7716 9.63624 76.0837C8.71861 77.0004 7.99066 78.0889 7.49399 79.2871C6.99732 80.4853 6.74167 81.7696 6.74167 83.0666C6.74167 84.3637 6.99732 85.648 7.49399 86.8462C7.99066 88.0443 8.71861 89.1329 9.63624 90.0495L24.784 105.197C24.9387 105.35 25.0616 105.532 25.1454 105.733C25.2293 105.934 25.2725 106.15 25.2725 106.367C25.2725 106.585 25.2293 106.8 25.1454 107.001C25.0616 107.202 24.9387 107.384 24.784 107.537C24.4638 107.844 24.0352 108.011 23.5921 108.002C23.149 107.992 22.7275 107.808 22.4202 107.489V107.489Z" fill="white"/>
</g>
<defs>
<clipPath id="clip0">
<rect width="83.3319" height="108" fill="white"/>
</clipPath>
</defs>
</svg>
