<svg width="108" height="108" viewBox="0 0 108 108" fill="none" xmlns="http://www.w3.org/2000/svg">
<g clip-path="url(#clip0)">
<path d="M54.0484 0.178223C24.2258 0.178223 0.0487061 24.3553 0.0487061 54.1785C0.0487061 84.0031 24.2258 108.178 54.0484 108.178C83.8742 108.178 108.049 84.0031 108.049 54.1785C108.049 24.3572 83.8742 0.180802 54.0477 0.180802L54.0484 0.178223ZM78.8123 78.0622C77.8451 79.6485 75.7687 80.1515 74.1824 79.1778C61.5039 71.4332 45.5431 69.6792 26.7464 73.9739C24.9351 74.3866 23.1296 73.2517 22.7169 71.4397C22.3023 69.6277 23.4327 67.8221 25.2485 67.4094C45.8185 62.7098 63.4629 64.7333 77.6967 73.4322C79.283 74.4059 79.786 76.4759 78.8123 78.0622ZM85.4218 63.3585C84.203 65.3395 81.6108 65.9649 79.6312 64.7462C65.1162 55.8242 42.9903 53.2403 25.8218 58.4519C23.5952 59.1245 21.2435 57.8696 20.5677 55.6468C19.8971 53.4202 21.1526 51.073 23.3753 50.3959C42.9864 44.4453 67.3666 47.3277 84.0354 57.571C86.015 58.7898 86.6405 61.3814 85.4218 63.3585ZM85.9892 48.0474C68.5853 37.7099 39.8712 36.7594 23.2547 41.8027C20.5864 42.612 17.7647 41.1057 16.956 38.4373C16.1474 35.7677 17.6525 32.9478 20.3227 32.1366C39.3973 26.3459 71.1066 27.4647 91.144 39.3601C93.5492 40.7845 94.3358 43.8843 92.9108 46.2812C91.4922 48.6813 88.3841 49.4725 85.9918 48.0474H85.9892Z" fill="white"/>
</g>
<defs>
<clipPath id="clip0">
<rect width="108" height="108" fill="white"/>
</clipPath>
</defs>
</svg>
