<svg width="108" height="108" viewBox="0 0 108 108" fill="none" xmlns="http://www.w3.org/2000/svg">
<path d="M94.5 45.54H63.99L76.32 32.85C64.035 20.7 44.145 20.25 31.86 32.4C19.575 44.595 19.575 64.26 31.86 76.455C44.145 88.65 64.035 88.65 76.32 76.455C82.44 70.425 85.5 63.36 85.5 54.45H94.5C94.5 63.36 90.54 74.925 82.62 82.755C66.825 98.415 41.175 98.415 25.38 82.755C9.63002 67.14 9.49502 41.76 25.29 26.145C41.085 10.53 66.42 10.53 82.215 26.145L94.5 13.5V45.54ZM56.25 36V55.125L72 64.485L68.76 69.93L49.5 58.5V36H56.25Z" fill="white"/>
</svg>
