<svg width="460" height="200" viewBox="0 0 460 200" fill="none" xmlns="http://www.w3.org/2000/svg">
<rect width="460" height="200" fill="white"/>
<path d="M177.385 82.0465L168.251 65.5609H167.016H155.002V82.0465H142V24.3469H167.016C174.532 24.3469 180.347 26.1054 184.462 29.6223C188.576 33.0843 190.634 38.0025 190.634 44.3769C190.634 48.828 189.701 52.6472 187.836 55.8344C186.025 58.9667 183.365 61.3571 179.854 63.0056L192.115 82.0465H177.385ZM155.002 54.6804H167.016C170.637 54.6804 173.407 53.8561 175.328 52.2076C177.303 50.5041 178.29 48.0312 178.29 44.7891C178.29 41.6018 177.303 39.2114 175.328 37.6178C173.407 35.9693 170.637 35.145 167.016 35.145H155.002V54.6804Z" fill="#161616"/>
<path d="M201.301 37.7003H213.974V82.0465H201.301V37.7003ZM207.555 18C209.585 18 211.231 18.6594 212.493 19.9783C213.809 21.2971 214.468 23.0006 214.468 25.0888C214.468 27.177 213.809 28.8805 212.493 30.1993C211.231 31.5182 209.585 32.1776 207.555 32.1776C205.58 32.1776 203.934 31.5182 202.618 30.1993C201.356 28.8255 200.725 27.122 200.725 25.0888C200.725 23.0006 201.356 21.2971 202.618 19.9783C203.934 18.6594 205.58 18 207.555 18Z" fill="#161616"/>
<path d="M255.675 52.7846C253.152 49.6523 249.86 48.0862 245.8 48.0862C242.618 48.0862 240.013 49.1852 237.983 51.3833C236.008 53.5264 235.02 56.3839 235.02 59.9558C235.02 63.5277 236.008 66.4401 237.983 68.6931C239.958 70.8912 242.481 71.9903 245.553 71.9903C250.162 71.9903 253.59 70.2593 255.84 66.7973L264.562 72.7321C262.697 75.8644 260.064 78.2822 256.663 79.9858C253.316 81.6893 249.394 82.541 244.895 82.541C240.451 82.541 236.529 81.6068 233.128 79.7385C229.726 77.8701 227.065 75.2324 225.145 71.8254C223.28 68.4184 222.348 64.4893 222.348 60.0382C222.348 55.5322 223.28 51.5756 225.145 48.1686C227.065 44.7066 229.726 42.0415 233.128 40.1731C236.584 38.2498 240.561 37.2881 245.06 37.2881C249.284 37.2881 253.042 38.1124 256.333 39.761C259.625 41.3546 262.258 43.6351 264.233 46.6025L255.675 52.7846Z" fill="#161616"/>
<path d="M300.892 37.2057C305.884 37.2057 309.834 38.7443 312.742 41.8217C315.704 44.899 317.185 49.0204 317.185 54.1858V82.0465H304.512V57.8951C304.512 55.0925 303.717 52.8945 302.126 51.3009C300.59 49.6523 298.478 48.828 295.79 48.828C292.663 48.883 290.167 49.982 288.301 52.1251C286.491 54.2133 285.586 56.906 285.586 60.2031V82.0465H272.913V20.885H285.586V45.5309C288.658 40.0907 293.76 37.3156 300.892 37.2057Z" fill="#161616"/>
<path d="M217.626 182.505H202.074L185.451 158.849L177.222 167.998V182.505H164.22V124.806H177.222V151.677L201.086 124.806H216.227L194.503 148.792L217.626 182.505Z" fill="#161616"/>
<path d="M224.646 138.159H237.319V182.505H224.646V138.159ZM230.9 118.459C232.93 118.459 234.576 119.118 235.838 120.437C237.154 121.756 237.813 123.46 237.813 125.548C237.813 127.636 237.154 129.339 235.838 130.658C234.576 131.977 232.93 132.637 230.9 132.637C228.925 132.637 227.279 131.977 225.963 130.658C224.701 129.284 224.07 127.581 224.07 125.548C224.07 123.46 224.701 121.756 225.963 120.437C227.279 119.118 228.925 118.459 230.9 118.459Z" fill="#161616"/>
<path d="M293.174 121.344V182.505H280.584V175.994C278.993 178.302 277.018 180.06 274.659 181.269C272.3 182.423 269.612 183 266.594 183C262.425 183 258.749 182.066 255.567 180.197C252.44 178.274 249.999 175.581 248.244 172.12C246.543 168.658 245.693 164.674 245.693 160.167C245.693 155.716 246.543 151.787 248.244 148.38C249.944 144.973 252.358 142.336 255.485 140.467C258.612 138.599 262.205 137.665 266.265 137.665C272.519 137.665 277.292 140 280.584 144.671V121.344H293.174ZM269.557 172.779C272.794 172.779 275.427 171.652 277.457 169.399C279.541 167.091 280.584 164.124 280.584 160.497C280.584 156.87 279.541 153.93 277.457 151.677C275.427 149.369 272.794 148.215 269.557 148.215C266.265 148.215 263.577 149.369 261.492 151.677C259.462 153.93 258.42 156.87 258.365 160.497C258.42 164.124 259.462 167.091 261.492 169.399C263.577 171.652 266.265 172.779 269.557 172.779Z" fill="#161616"/>
<path d="M264.27 72.9266C261.503 76.8066 257.592 79.7245 253.084 81.2722C248.576 82.8199 243.698 82.9199 239.13 81.5584C234.563 80.1968 230.536 77.4417 227.611 73.6785C224.687 69.9152 223.012 65.332 222.821 60.57C222.63 55.8079 223.932 51.1051 226.545 47.1195C229.158 43.1338 232.951 40.0646 237.395 38.3412C241.838 36.6177 246.709 36.3262 251.326 37.5074C255.943 38.6886 260.076 41.2834 263.146 44.929L245.661 59.6526L264.27 72.9266Z" fill="#161616"/>
<path d="M245.661 74.5106C253.867 74.5106 260.519 67.8584 260.519 59.6526C260.519 51.4468 253.867 44.7946 245.661 44.7946C237.455 44.7946 230.803 51.4468 230.803 59.6526C230.803 67.8584 237.455 74.5106 245.661 74.5106Z" fill="#D81B60"/>
<path d="M242.918 56.9355C242.918 58.6118 241.69 59.9604 240.175 59.9604C238.66 59.9604 237.432 58.6057 237.432 56.9355C237.432 55.2653 238.66 53.9106 240.175 53.9106C241.69 53.9106 242.918 55.2653 242.918 56.9355Z" fill="#161616"/>
<path d="M253.89 56.9355C253.89 58.6118 252.662 59.9604 251.147 59.9604C249.632 59.9604 248.404 58.6057 248.404 56.9355C248.404 55.2653 249.632 53.9106 251.147 53.9106C252.662 53.9106 253.89 55.2653 253.89 56.9355Z" fill="#161616"/>
<path d="M250.995 62.6212C251.583 62.958 251.793 63.7123 251.356 64.2289C250.423 65.3219 249.18 66.1051 247.792 66.4742C246.404 66.8434 244.936 66.781 243.584 66.2953C242.947 66.0652 242.746 65.3078 243.087 64.7242C243.425 64.1436 244.175 63.9622 244.832 64.1314C245.596 64.3286 246.398 64.3256 247.161 64.1227C247.924 63.9199 248.622 63.524 249.187 62.9732C249.669 62.5023 250.406 62.2859 250.996 62.6212H250.995Z" fill="#161616"/>
</svg>
