<?xml version="1.0" encoding="utf-8"?>
<svg version="1.1" id="Layer_1" 
    xmlns="http://www.w3.org/2000/svg" 
    xmlns:xlink="http://www.w3.org/1999/xlink" x="0px" y="0px" viewBox="0 0 18 18" style="enable-background:new 0 0 18 18;" xml:space="preserve">
    <path d="M14.8,7.5h1.7v3h-1.7c-0.2,0.7-0.5,1.3-0.9,1.9l1.1,1.1L13.5,15l-1.1-1.1c-0.6,0.4-1.2,0.7-1.9,0.9v1.7h-3v-1.7
	c-0.7-0.2-1.3-0.5-1.9-0.9L4.5,15L3,13.5l1.1-1.1c-0.4-0.6-0.7-1.2-0.9-1.9H1.5v-3h1.7c0.2-0.7,0.5-1.3,0.9-1.9L3,4.5L4.5,3l1.1,1.1
	c0.6-0.4,1.2-0.7,1.9-0.9V1.5h3v1.7c0.7,0.2,1.3,0.5,1.9,0.9L13.5,3L15,4.5l-1.1,1.1C14.3,6.2,14.6,6.8,14.8,7.5z M9,12
	c1.7,0,3-1.3,3-3c0-1.7-1.3-3-3-3C7.3,6,6,7.3,6,9C6,10.7,7.3,12,9,12z"/>
</svg>
