<?xml version="1.0" encoding="utf-8"?>
<svg version="1.1" id="Layer_1" 
    xmlns="http://www.w3.org/2000/svg" 
    xmlns:xlink="http://www.w3.org/1999/xlink" x="0px" y="0px" viewBox="0 0 24 24" style="enable-background:new 0 0 24 24;" xml:space="preserve">
    <g>
        <path d="M5.8,5h12.4c1.6,0,2.9,1.2,3,2.8l0.7,9.2c0.1,1-0.7,1.9-1.7,2c0,0-0.1,0-0.1,0c-1.2,0-2.2-0.8-2.5-1.9L17,15H7l-0.5,2.1
		C6.2,18.2,5.2,19,4,19c-1,0-1.9-0.8-1.9-1.9c0,0,0-0.1,0-0.1l0.7-9.2C2.9,6.2,4.2,5,5.8,5z M14.5,10c0.8,0,1.5-0.7,1.5-1.5
		S15.3,7,14.5,7S13,7.7,13,8.5S13.7,10,14.5,10z M18.5,13c0.8,0,1.5-0.7,1.5-1.5S19.3,10,18.5,10S17,10.7,17,11.5S17.7,13,18.5,13z
		 M6,9H4v2h2v2h2v-2h2V9H8V7H6V9z"/>
    </g>
</svg>
