<svg id="Layer_1" data-name="Layer 1" xmlns="http://www.w3.org/2000/svg" viewBox="0 0 345.48 447.75"><title>SPC1Core</title><path d="M221,117.1,187.2,83.3l70-70a24,24,0,0,1,33.8,0h0a24,24,0,0,1,0,33.8l-70,70Z" transform="translate(-50.75 0.33)"/><path d="M216.3,121.7,182.5,87.9a6.52,6.52,0,0,1,0-9.3l70-70a30.48,30.48,0,1,1,43.1,43.1l-70,70A6.52,6.52,0,0,1,216.3,121.7ZM196.5,83.3,221,107.8l65.3-65.3A17.32,17.32,0,0,0,261.8,18L196.5,83.3Z" transform="translate(-50.75 0.33)"/><path d="M312.7,208.8,278.9,175l70-70a24,24,0,0,1,33.8,0h0a24,24,0,0,1,0,33.8l-70,70Z" transform="translate(-50.75 0.33)"/><path d="M308,213.4l-33.8-33.8a6.52,6.52,0,0,1,0-9.3l70-70a30.48,30.48,0,1,1,43.1,43.1l-70,70A6.52,6.52,0,0,1,308,213.4ZM288.2,175l24.5,24.5L378,134.2a17.32,17.32,0,1,0-24.5-24.5L288.2,175Z" transform="translate(-50.75 0.33)"/><rect x="220.78" y="42.02" width="34.1" height="232.1" transform="translate(-92.86 214.79) rotate(-45)"/><path d="M303,257,138.9,92.9a6.82,6.82,0,0,1,0-9.7L163,59.1a6.82,6.82,0,0,1,9.7,0L336.8,223.2a6.82,6.82,0,0,1,0,9.7L312.7,257A6.82,6.82,0,0,1,303,257ZM153.4,88.1,307.9,242.6l14.5-14.5L167.9,73.6Z" transform="translate(-50.75 0.33)"/><path d="M161.2,327.6,68.3,234.7a36.76,36.76,0,0,1,0-51.9l85.1-85.1L298.2,242.5l-85.1,85.1A36.58,36.58,0,0,1,161.2,327.6Z" transform="translate(-50.75 0.33)"/><path d="M156.4,332.4,63.5,239.5a43.58,43.58,0,0,1,0-61.6l85.1-85.1a6.82,6.82,0,0,1,9.7,0L303,237.7a6.82,6.82,0,0,1,0,9.7l-85,85A43.58,43.58,0,0,1,156.4,332.4Zm-3-225L73.2,187.6a29.88,29.88,0,0,0,0,42.3l92.9,92.9a29.88,29.88,0,0,0,42.3,0l80.2-80.2Z" transform="translate(-50.75 0.33)"/><rect x="79.82" y="275.17" width="41" height="41" transform="translate(-230.44 157.86) rotate(-45)"/><path d="M95.4,329.5l-29-29a6.82,6.82,0,0,1,0-9.7l29-29a6.82,6.82,0,0,1,9.7,0l29,29a6.82,6.82,0,0,1,0,9.7l-29,29A7,7,0,0,1,95.4,329.5ZM81,295.7,100.3,315l19.3-19.3-19.3-19.3Z" transform="translate(-50.75 0.33)"/><path d="M143.7,445.3,81,382.6a54.62,54.62,0,0,1,0-77.2,6.86,6.86,0,0,1,9.7,9.7,40.92,40.92,0,0,0,0,57.9l62.8,62.8a6.82,6.82,0,0,1,0,9.7A6.94,6.94,0,0,1,143.7,445.3Z" transform="translate(-50.75 0.33)"/></svg>