<svg width="100" height="130" viewBox="0 0 100 130" fill="none" xmlns="http://www.w3.org/2000/svg">
<path fill-rule="evenodd" clip-rule="evenodd" d="M13 130H87C94.1797 130 100 124.18 100 117V40.3848C100 36.937 98.6304 33.6304 96.1924 31.1924L68.8076 3.80762C66.3696 1.36964 63.063 0 59.6152 0H13C5.82031 0 0 5.8203 0 13V115.154L50.1543 65L61.468 76.3137L8.55981 129.222C9.94531 129.725 11.4406 130 13 130ZM2.21191 124.256L4.19238 122.276L7.72791 125.811L11.2634 122.276L7.72791 118.74L11.2634 115.205L14.799 118.74L18.3345 115.205L14.799 111.669L18.3345 108.134L21.87 111.669L25.4055 108.134L21.87 104.598L25.4055 101.062L28.941 104.598L32.4767 101.062L28.941 97.5269L32.4767 93.9914L36.0122 97.5269L39.5477 93.9914L36.0122 90.4558L39.5477 86.9203L43.0833 90.4558L46.6188 86.9203L43.0833 83.3848L46.6188 79.8492L50.1543 83.3848L53.6898 79.8492L50.1543 76.3137L53.6898 72.7782L50.1543 69.2426L46.6188 72.7782L50.1543 76.3137L46.6188 79.8492L43.0833 76.3137L39.5477 79.8492L43.0833 83.3848L39.5477 86.9203L36.0122 83.3848L32.4767 86.9203L36.0122 90.4558L32.4767 93.9914L28.941 90.4558L25.4055 93.9914L28.941 97.5269L25.4055 101.062L21.87 97.5269L18.3345 101.062L21.87 104.598L18.3345 108.134L14.799 104.598L11.2634 108.134L14.799 111.669L11.2634 115.205L7.72791 111.669L4.19238 115.205L7.72791 118.74L4.19238 122.276L0.656799 118.74L0.187073 119.21C0.502808 121.054 1.20679 122.765 2.21191 124.256ZM89.2673 44.9048L55.8617 9.90288C55.5503 9.57655 55 9.797 55 10.2481V45.25C55 45.5261 55.2239 45.75 55.5 45.75H88.9056C89.3455 45.75 89.571 45.223 89.2673 44.9048Z" fill="white"/>
</svg>
