<svg width="100" height="130" viewBox="0 0 100 130" fill="none" xmlns="http://www.w3.org/2000/svg">
<path fill-rule="evenodd" clip-rule="evenodd" d="M13 130H87C94.1797 130 100 124.18 100 117V40.3848C100 36.937 98.6304 33.6304 96.1924 31.1924L68.8076 3.80762C66.3696 1.36964 63.063 0 59.6152 0H13C5.82031 0 0 5.8203 0 13V117C0 124.18 5.82031 130 13 130ZM89.2673 44.9048L55.8617 9.90288C55.5502 9.57655 55 9.797 55 10.2481V45.25C55 45.5261 55.2239 45.75 55.5 45.75H88.9056C89.3455 45.75 89.571 45.223 89.2673 44.9048ZM35.0959 86.551C34.4745 81 37.3746 79 44.9979 79V83.4898C42.4291 83.4898 40.9376 84.0204 41.1448 86.0612L41.7662 92.1021C42.2634 96.6735 39.529 98.3878 35.3445 99C39.7776 99.6531 42.2634 101.286 41.7662 105.898L41.1448 111.939C40.9376 113.98 42.4706 114.51 44.9979 114.51V119C37.3746 119 34.5159 116.959 35.0959 111.49L35.7174 105.612C36.0488 102.551 33.563 101.612 30 101.612V96.3878C33.5216 96.3878 36.0488 95.449 35.7174 92.3878L35.0959 86.551ZM56.0021 83.4898V79C63.6254 79 66.4841 81.0408 65.9041 86.5102L65.2826 92.3878C64.9512 95.449 67.4784 96.3878 71 96.3878V101.612C67.5198 101.612 64.9512 102.551 65.2826 105.612L65.9041 111.449C66.5255 117 63.6254 119 56.0021 119V114.51C58.5709 114.51 60.0624 113.98 59.8552 111.939L59.2338 105.898C58.7366 101.327 61.471 99.6122 65.6969 99C61.2639 98.3469 58.7366 96.7143 59.2338 92.1021L59.8552 86.0612C60.0624 84.0204 58.5294 83.4898 56.0021 83.4898Z" fill="white"/>
</svg>
