<svg width="100" height="130" viewBox="0 0 100 130" fill="none" xmlns="http://www.w3.org/2000/svg">
<path fill-rule="evenodd" clip-rule="evenodd" d="M13 130H87C94.1797 130 100 124.18 100 117V40.3848C100 36.937 98.6304 33.6304 96.1924 31.1924L68.8076 3.80761C66.3696 1.36964 63.063 0 59.6152 0H13C5.8203 0 0 5.8203 0 13V117C0 124.18 5.8203 130 13 130ZM89.2674 44.9048L55.8617 9.90288C55.5503 9.57655 55 9.79699 55 10.2481V45.25C55 45.5261 55.2239 45.75 55.5 45.75H88.9057C89.3455 45.75 89.571 45.223 89.2674 44.9048ZM71.8399 86.8273H64.8633V111.2H71.8399V86.8273ZM71.0244 77.0873C70.3298 76.3624 69.4237 76 68.3063 76C67.219 76 66.313 76.3624 65.5881 77.0873C64.8935 77.8121 64.5462 78.7483 64.5462 79.896C64.5462 81.0135 64.8935 81.9497 65.5881 82.7048C66.313 83.4296 67.219 83.792 68.3063 83.792C69.4237 83.792 70.3298 83.4296 71.0244 82.7048C71.7493 81.9799 72.1117 81.0437 72.1117 79.896C72.1117 78.7483 71.7493 77.8121 71.0244 77.0873ZM51.5539 105.039L54.0456 111.2H61.7017L48.1562 79.4883H40.7719L27 111.2H34.3843L36.8759 105.039H51.5539ZM49.2435 99.2855H39.2317L44.2602 86.9632L49.2435 99.2855Z" fill="white"/>
</svg>
