<svg width="100" height="130" viewBox="0 0 100 130" fill="none" xmlns="http://www.w3.org/2000/svg">
<path fill-rule="evenodd" clip-rule="evenodd" d="M13 130H87C94.1797 130 100 124.18 100 117V40.3848C100 36.937 98.6304 33.6304 96.1924 31.1924L68.8076 3.80761C66.3696 1.36964 63.063 0 59.6152 0H13C5.8203 0 0 5.8203 0 13V117C0 124.18 5.8203 130 13 130ZM89.2674 44.9048L55.8617 9.90288C55.5503 9.57655 55 9.79699 55 10.2481V45.25C55 45.5261 55.2239 45.75 55.5 45.75H88.9057C89.3455 45.75 89.571 45.223 89.2674 44.9048ZM48.184 81.944C45.9453 79.9813 42.7713 79 38.662 79H25V111.2H32.268V102H38.662C42.7407 102 45.8993 100.973 48.138 98.918C50.4073 96.8327 51.542 93.9193 51.542 90.178C51.542 86.6207 50.4227 83.876 48.184 81.944ZM42.986 94.548C41.9127 95.468 40.3487 95.928 38.294 95.928H32.268V85.026H38.294C40.3487 85.026 41.9127 85.486 42.986 86.406C44.09 87.2953 44.642 88.6293 44.642 90.408C44.642 92.2173 44.09 93.5973 42.986 94.548ZM67.6298 91.972C68.9484 92.3707 70.2824 92.9533 71.6318 93.72L74.0698 88.89C72.6898 88.0007 71.1564 87.326 69.4698 86.866C67.7831 86.3753 66.0965 86.13 64.4098 86.13C61.5884 86.13 59.2578 86.8047 57.4178 88.154C55.5778 89.5033 54.6578 91.4047 54.6578 93.858C54.6578 95.4527 55.0564 96.756 55.8538 97.768C56.6511 98.7493 57.6018 99.4853 58.7058 99.976C59.8404 100.467 61.2511 100.957 62.9378 101.448C64.5324 101.908 65.6824 102.337 66.3878 102.736C67.1238 103.135 67.4918 103.687 67.4918 104.392C67.4918 105.036 67.2004 105.527 66.6178 105.864C66.0658 106.171 65.3144 106.324 64.3638 106.324C62.9838 106.324 61.5118 106.063 59.9478 105.542C58.4144 104.99 57.0191 104.223 55.7618 103.242L53.4618 108.026C54.8418 109.13 56.4671 109.989 58.3378 110.602C60.2084 111.185 62.1558 111.476 64.1798 111.476C67.1238 111.476 69.5311 110.801 71.4018 109.452C73.3031 108.072 74.2538 106.155 74.2538 103.702C74.2538 102.077 73.8398 100.773 73.0118 99.792C72.1838 98.78 71.2025 98.0287 70.0678 97.538C68.9331 97.0167 67.4918 96.4953 65.7438 95.974C64.1491 95.514 62.9991 95.1 62.2938 94.732C61.5884 94.364 61.2358 93.8427 61.2358 93.168C61.2358 92.5547 61.4964 92.0947 62.0178 91.788C62.5391 91.4813 63.2291 91.328 64.0878 91.328C65.1304 91.328 66.3111 91.5427 67.6298 91.972Z" fill="white"/>
</svg>
