<svg width="100" height="130" viewBox="0 0 100 130" fill="none" xmlns="http://www.w3.org/2000/svg">
<path fill-rule="evenodd" clip-rule="evenodd" d="M13 130H87C94.1797 130 100 124.18 100 117V40.3848C100 36.937 98.6304 33.6304 96.1924 31.1924L68.8076 3.80761C66.3696 1.36964 63.063 0 59.6152 0H13C5.8203 0 0 5.8203 0 13V117C0 124.18 5.8203 130 13 130ZM89.2674 44.9048L55.8617 9.90288C55.5503 9.57655 55 9.79699 55 10.2481V45.25C55 45.5261 55.2239 45.75 55.5 45.75H88.9057C89.3455 45.75 89.571 45.223 89.2674 44.9048ZM69 88.1906L73 90.5L69 92.8094L43.25 107.676L39.25 109.986V105.367V75.6332V71.0144L43.25 73.3238L69 88.1906ZM43.25 77.9426L65 90.5L43.25 103.057V77.9426Z" fill="white"/>
</svg>
