<svg xmlns="http://www.w3.org/2000/svg" viewBox="0 0 341.17 181.38"><defs><style>.cls-1,.cls-3{fill:#171717;}.cls-1{stroke:#231f20;stroke-miterlimit:10;}.cls-2{fill:#d81b61;}.cls-4{fill:#231f20;}</style></defs><title>Asset 8</title><g id="Layer_2" data-name="Layer 2"><g id="Layer_1-2" data-name="Layer 1"><g id="Right"><g id="Use_with_Logo" data-name="Use with Logo"><g id="Example_2" data-name="Example 2"><g id="Logo"><path id="BackgroundBG1" class="cls-1" d="M171.9,55.36h54.86A54.86,54.86,0,1,1,171.9.5Z"/><circle id="BackgroundAccent" class="cls-2" cx="171.9" cy="55.36" r="35.66"/><g id="Mouth"><path class="cls-3" d="M184.45,40.32c3.59-.64,7.1,2.13,7.84,6.21s-1.56,7.92-5.14,8.58-7.09-2.13-7.85-6.2S180.86,41,184.45,40.32Z"/><path class="cls-3" d="M151.63,45.72c1-4,4.74-6.53,8.25-5.63s5.56,4.9,4.54,8.91-4.73,6.53-8.26,5.63S150.61,49.73,151.63,45.72Z"/><g id="Group"><path class="cls-3" d="M175,63.39c-1.66.9-3.09,1.87-5,1.15a11.63,11.63,0,0,1-3.16-1.46c-.7-.51-1.49-.93-2.19-1.44-.36-.26-.71-.54-1.08-.8a1.8,1.8,0,0,0-1.07-.51c-.43,0-1.26-.08-1.58.27-1.37,1.54.56,3.81,1.59,4.85a21.55,21.55,0,0,0,5.77,4.08c2,.86,4,1.89,6.07.84A41.07,41.07,0,0,0,180.73,66c1.34-1,4.35-2.82,3.82-4.82-.36-1.45-2.05-1.15-3.16-.8a23.84,23.84,0,0,0-3.95,1.8C176.63,62.53,175.85,63,175,63.39Z"/></g></g></g><path class="cls-4" d="M36.73,136.87a18.38,18.38,0,0,0-17.14.54A17.43,17.43,0,0,0,13,144a19,19,0,0,0,0,18.5,17.61,17.61,0,0,0,6.58,6.66,17.87,17.87,0,0,0,9.21,2.44,19.45,19.45,0,0,0,7.78-1.7,22.35,22.35,0,0,0,6.93-4.73L49.62,172a31.91,31.91,0,0,1-9.91,6.85,27.82,27.82,0,0,1-11.45,2.51,28.29,28.29,0,0,1-14.32-3.71,27.22,27.22,0,0,1-10.22-10.1A27.57,27.57,0,0,1,0,153.44a26.93,26.93,0,0,1,3.79-14.09,27.33,27.33,0,0,1,10.34-10A30,30,0,0,1,40,128a28.13,28.13,0,0,1,9.53,6.43l-6,7.59A20.42,20.42,0,0,0,36.73,136.87Z"/><path class="cls-4" d="M96,139.19v41.42H85.85V173q-4.17,8-14.39,8.05-7,0-11-4.26t-4-11.61V139.19H66.58v23A9.44,9.44,0,0,0,68.94,169a8.6,8.6,0,0,0,6.54,2.48,9.63,9.63,0,0,0,7.59-3.41,12.73,12.73,0,0,0,2.78-8.44V139.19Z"/><path class="cls-4" d="M126.84,147.63a19.93,19.93,0,0,0-5.92-1,7.91,7.91,0,0,0-4.06.9,3,3,0,0,0-1.51,2.74,3.25,3.25,0,0,0,1.9,3,29.82,29.82,0,0,0,6,2.21,59.21,59.21,0,0,1,7.12,2.59,13.5,13.5,0,0,1,4.84,3.8,10.17,10.17,0,0,1,2,6.62,10.66,10.66,0,0,1-4.65,9.29A19.94,19.94,0,0,1,120.92,181a29.78,29.78,0,0,1-9.36-1.51,22.12,22.12,0,0,1-7.75-4.3l3.49-7A20.28,20.28,0,0,0,114,171.9a22.35,22.35,0,0,0,7.35,1.36,8.87,8.87,0,0,0,4.45-1,3.16,3.16,0,0,0,1.67-2.91,3.52,3.52,0,0,0-1.94-3.25,34.57,34.57,0,0,0-6.27-2.4,50.63,50.63,0,0,1-6.81-2.44,12.22,12.22,0,0,1-4.57-3.63,10,10,0,0,1-1.94-6.39q0-6.12,4.46-9.33a18.6,18.6,0,0,1,11.18-3.21,28.56,28.56,0,0,1,8.09,1.16,25.18,25.18,0,0,1,7.09,3.25l-3.64,7.28A29.6,29.6,0,0,0,126.84,147.63Z"/><path class="cls-4" d="M170.08,178.06a19.64,19.64,0,0,1-10.37,3,12.41,12.41,0,0,1-8.75-3.13q-3.41-3.13-3.41-9.25V148.25h-5.8l-.08-7.35h5.88V129.52h10V140.9h11.84v7.35H157.54v18.66a6,6,0,0,0,1.08,4.06,4.18,4.18,0,0,0,3.26,1.2,14.54,14.54,0,0,0,5.88-1.7Z"/><path class="cls-4" d="M207.05,141.52a19,19,0,0,1,7.66,7.39,21.51,21.51,0,0,1,2.75,11,21.91,21.91,0,0,1-2.75,11.07,19,19,0,0,1-7.66,7.43A23.62,23.62,0,0,1,195.71,181a24,24,0,0,1-11.46-2.64,18.9,18.9,0,0,1-7.71-7.43,21.9,21.9,0,0,1-2.74-11.07,21.5,21.5,0,0,1,2.74-11,18.93,18.93,0,0,1,7.71-7.39,24,24,0,0,1,11.46-2.64A23.62,23.62,0,0,1,207.05,141.52ZM187.19,151a14.24,14.24,0,0,0,0,18.11,11.1,11.1,0,0,0,8.52,3.49,10.91,10.91,0,0,0,8.36-3.49,14.24,14.24,0,0,0,0-18.11,10.94,10.94,0,0,0-8.36-3.48A11.13,11.13,0,0,0,187.19,151Z"/><path class="cls-4" d="M291.54,143.1q4,4.31,4,11.65v25.86H285.43V157.69a9.49,9.49,0,0,0-2.44-6.92,8.79,8.79,0,0,0-6.62-2.52,9.93,9.93,0,0,0-7.62,3.48,12.57,12.57,0,0,0-2.83,8.44v20.44H255.78V157.69a9.6,9.6,0,0,0-2.4-6.92,8.65,8.65,0,0,0-6.58-2.52,10,10,0,0,0-7.7,3.48,12.57,12.57,0,0,0-2.83,8.44v20.44H226.21V139.19h10.06v7.67q4.09-7.91,14.55-8.05a15.37,15.37,0,0,1,9.1,2.59,13.6,13.6,0,0,1,5.15,7.31q3.94-9.75,15.4-9.9Q287.52,138.81,291.54,143.1Z"/><path class="cls-4" d="M331.26,180.61v-5a13.53,13.53,0,0,1-5.58,4.1,20.46,20.46,0,0,1-7.81,1.39,16.65,16.65,0,0,1-7.63-1.66,12.2,12.2,0,0,1-5.07-4.61,12.42,12.42,0,0,1-1.78-6.58,11,11,0,0,1,4.1-9.09q4.11-3.3,11.61-3.37h12.08v-1.08a7,7,0,0,0-2.4-5.66q-2.4-2-7-2a24,24,0,0,0-12.31,3.87l-3.63-7a46,46,0,0,1,8.86-3.9,32.52,32.52,0,0,1,9.33-1.2q8.06,0,12.5,3.87t4.53,10.83l.08,27.1Zm-3.56-9.33a7.15,7.15,0,0,0,3.48-5.07v-3.72H320.73a11.45,11.45,0,0,0-5.92,1.2,4.28,4.28,0,0,0-1.9,3.91,5,5,0,0,0,2,4.18,8.47,8.47,0,0,0,5.39,1.55A13.14,13.14,0,0,0,327.7,171.28Z"/></g></g></g></g></g></svg>