<svg xmlns="http://www.w3.org/2000/svg" viewBox="0 0 500 500"><defs><style>.cls-1{fill:#171717;}.cls-2{fill:#d81a61;}.cls-3{fill:none;}</style></defs><title>Logo Avatar Transparent_3</title><g id="Layer_2" data-name="Layer 2"><g id="Layer_1-2" data-name="Layer 1"><g id="Layer_2-2" data-name="Layer 2"><g id="Layer_1-2-2" data-name="Layer 1-2"><path class="cls-1" d="M400,250.05A150,150,0,1,1,250,100V250.05Z"/><circle class="cls-2" cx="249.95" cy="250.05" r="97.53"/><path class="cls-1" d="M231.94,232.24c0,11-8.1,19.81-18,19.81s-18-8.9-18-19.81,8.1-19.8,18-19.8S231.94,221.24,231.94,232.24Z"/><path class="cls-1" d="M304,232.24c0,11-8.1,19.81-18,19.81s-18-8.9-18-19.81,8.1-19.8,18-19.8S304,221.24,304,232.24Z"/><path class="cls-1" d="M285,269.58c3.9,2.2,5.2,7.2,2.4,10.5A45.81,45.81,0,0,1,264,294.78a46.28,46.28,0,0,1-27.6-1.2c-4.21-1.5-5.51-6.5-3.31-10.3h0c2.21-3.8,7.11-5,11.41-3.9a29.41,29.41,0,0,0,15.3-.1,30.39,30.39,0,0,0,13.31-7.5c3.2-3,8-4.4,11.9-2.2Z"/><rect class="cls-3" width="500" height="500"/></g></g></g></g></svg>