<svg width="150" height="150" viewBox="0 0 150 150" fill="none" xmlns="http://www.w3.org/2000/svg"><circle cx="75" cy="75" r="75" fill="#D81B60"/><path d="M149.82 70C147.36 32.56 117.44 2.63 80 0.17V0H75H70V0.17C32.56 2.63 2.63 32.56 0.17 70H0V75V80H0.17C2.63 117.44 32.56 147.36 70 149.82V150H75H80V149.82C117.44 147.36 147.36 117.44 149.82 80H150V75V70H149.82ZM46.95 16.35C42.12 22.77 38.11 30.82 35.19 40H20.21C26.73 29.83 35.99 21.6 46.95 16.35ZM14.98 50H32.56C31.22 56.32 30.37 63.03 30.1 70H10.19C10.72 62.96 12.38 56.23 14.98 50ZM10.19 80H30.1C30.37 86.97 31.22 93.68 32.56 100H14.98C12.38 93.77 10.72 87.04 10.19 80ZM20.21 110H35.18C38.1 119.18 42.11 127.23 46.95 133.65C35.99 128.4 26.73 120.18 20.21 110ZM70 139.36C59.72 136.61 50.87 125.57 45.5 110H70V139.36ZM70 100H42.69C41.28 93.77 40.39 87.04 40.1 80H70V100ZM70 70H40.1C40.39 62.96 41.28 56.23 42.69 50H70V70ZM70 40H45.5C50.87 24.43 59.72 13.39 70 10.65V40ZM129.79 40H114.83C111.9 30.82 107.9 22.77 103.05 16.35C114 21.6 123.27 29.83 129.79 40ZM80 10.65C90.27 13.39 99.13 24.43 104.5 40H80V10.65ZM80 50H107.3C108.72 56.23 109.59 62.96 109.9 70H80V50ZM80 80H109.9C109.61 87.04 108.72 93.77 107.3 100H80V80ZM80 139.36V110H104.5C99.13 125.57 90.27 136.61 80 139.36ZM103.05 133.65C107.88 127.22 111.9 119.18 114.83 110H129.79C123.27 120.18 114 128.4 103.05 133.65ZM135.02 100H117.44C118.78 93.68 119.63 86.97 119.9 80H139.8C139.28 87.04 137.62 93.77 135.02 100ZM119.9 70C119.63 63.03 118.78 56.32 117.44 50H135.02C137.62 56.23 139.28 62.96 139.81 70H119.9Z" fill="#161616"/></svg>
