<svg xmlns="http://www.w3.org/2000/svg" viewBox="0 0 300 300"><defs><style>.cls-1{fill:none;}.cls-2{fill:#161616;}.cls-3{fill:#d81a61;}.cls-4{fill:#171717;}</style></defs><title>Asset 2</title><g id="Layer_2" data-name="Layer 2"><g id="Layer_1-2" data-name="Layer 1"><rect class="cls-1" width="300" height="300"/><path class="cls-2" d="M217,50H83A20.55,20.55,0,0,0,62.5,70.6V205.8A20.55,20.55,0,0,0,83,226.4H196.4l-5.3-18.5,12.8,11.9L216,231l21.5,19V70.6A20.55,20.55,0,0,0,217,50Z"/><circle class="cls-3" cx="150" cy="138.2" r="57.67"/><path class="cls-4" d="M139.35,127.67c0,6.5-4.79,11.71-10.64,11.71s-10.65-5.26-10.65-11.71S122.85,116,128.71,116,139.35,121.17,139.35,127.67Z"/><path class="cls-4" d="M182,127.67c0,6.5-4.79,11.71-10.64,11.71s-10.65-5.26-10.65-11.71S165.46,116,171.32,116,182,121.17,182,127.67Z"/><path class="cls-4" d="M170.72,149.75a4.12,4.12,0,0,1,1.42,6.21,27.44,27.44,0,0,1-30.15,8,4.14,4.14,0,0,1-2-6.09h0c1.31-2.25,4.21-3,6.75-2.31a17.33,17.33,0,0,0,9-.06,17.94,17.94,0,0,0,7.87-4.43c1.9-1.78,4.73-2.6,7-1.3Z"/></g></g></svg>