<svg xmlns="http://www.w3.org/2000/svg" viewBox="0 0 300 300"><defs><style>.cls-1{fill:none;}.cls-2{fill:#161616;}.cls-3{fill:#d81b60;}</style></defs><title>Customa-Injector-BD</title><g id="Layer_2" data-name="Layer 2"><g id="Layer_1-2" data-name="Layer 1"><rect class="cls-1" width="300" height="300"/><polygon class="cls-2" points="78.22 134.32 134.66 77.77 247.53 190.86 191.09 247.41 78.22 134.32"/><path class="cls-3" d="M250,193,194.55,137.4s-12,25.89-28.22,28.28S138.12,194,138.12,194l55.44,55.55H250Z"/><polygon class="cls-2" points="70.88 85.12 84.99 70.99 113.21 99.26 99.1 113.39 70.88 85.12"/><polygon class="cls-2" points="50 106.05 106.44 49.5 120.55 63.64 64.11 120.18 50 106.05"/><path class="cls-2" d="M113.81,228.27c-.26-9.48-7.68-13.31-17.24-13.31H78v19.17l11.86,10.68V224.49h6.9c7.36,0,7.36,9.26,0,9.26H92.22v8.84h4.56c7.36,0,7.36,9.25,0,9.25H78v9.52H96.57c9.56,0,17-3.82,17.24-13.31,0-4.36-1.19-7.62-3.3-9.89C112.62,235.9,113.81,232.64,113.81,228.27Z"/><path class="cls-3" d="M110.06,215H108a15.2,15.2,0,0,1,2,1.19,13.75,13.75,0,0,1,4.42,5,16.35,16.35,0,0,1,1.73,7.1v19.91a16.28,16.28,0,0,1-1.73,7.1,13.67,13.67,0,0,1-4.42,5,14.85,14.85,0,0,1-1.94,1.16H110c9.29,0,18-4.59,18-15.24V230.55C128.07,219.7,119.35,215,110.06,215Z"/></g></g></svg>