<svg xmlns="http://www.w3.org/2000/svg" xmlns:xlink="http://www.w3.org/1999/xlink" viewBox="0 0 550 175"><defs><style>.cls-1{fill:none;}.cls-2{fill:#171717;}.cls-3{fill:#d81a61;}.cls-4{fill:url(#linear-gradient);}.cls-5{fill:#212121;}.cls-6{font-size:78px;fill:#010101;font-family:Montserrat-Medium, Montserrat;font-weight:500;}.cls-7{letter-spacing:0em;}.cls-8{font-size:26px;}.cls-9{letter-spacing:-0.01em;}.cls-10{letter-spacing:-0.01em;}.cls-11{letter-spacing:-0.03em;}</style><linearGradient id="linear-gradient" x1="96.39" y1="837.33" x2="74.46" y2="909.06" gradientTransform="matrix(1, 0, 0, -1, 0, 952)" gradientUnits="userSpaceOnUse"><stop offset="0" stop-color="#121643" stop-opacity="0.4"/><stop offset="0.48" stop-color="#20275e" stop-opacity="0.17"/><stop offset="1" stop-color="#263171" stop-opacity="0"/></linearGradient></defs><title>Customa-Firefox</title><g id="Layer_2" data-name="Layer 2"><g id="Layer_1-2" data-name="Layer 1"><rect class="cls-1" width="550" height="175"/><g id="Firefox_-_Large" data-name="Firefox - Large"><path class="cls-2" d="M122.7,41.63c-2.74,3.2-4,10.38-1.24,17.67s7,5.7,9.7,13.14c3.51,9.8,1.87,23,1.87,23s4.21,12.21,7.15-.76C146.7,70.29,122.7,47.64,122.7,41.63Z"/><path id="_Path_" data-name=" Path " class="cls-3" d="M89.23,142.78A51.09,51.09,0,1,0,38.44,91.69,51,51,0,0,0,89.23,142.78Z"/><path class="cls-4" d="M127.32,123.19a27.54,27.54,0,0,1-3.45,2.09,81.69,81.69,0,0,0,4.39-7.22,27.07,27.07,0,0,0,2.88-3.62c.39-.62.84-1.38,1.31-2.26a49.08,49.08,0,0,0,6.09-22v-.66a30.43,30.43,0,0,0-.65-6.38,4.36,4.36,0,0,0,.06.49c0-.13,0-.26-.07-.38,0,.23.07.46.11.69.56,4.95.17,9.77-1.91,13.34l-.1.15a44.49,44.49,0,0,0,.24-17.36s-.48-2.91-4.05-11.74A36.25,36.25,0,0,0,123.23,56q-3.23-3.84-6.81-7.33c-3-3.11-4.19-5.45-4.7-7-.44-.22-6.09-5.7-6.53-5.91C102.72,39.64,95,51.61,98.66,62.76A27.92,27.92,0,0,0,109,76c.2.22,2.64,2.86,3.8,8.84,1.19,6.16.56,11-1.9,18.09-2.89,6.25-10.32,12.4-17.26,13-14.86,1.34-20.29-7.46-20.29-7.46,5.3,2.12,11.17,1.69,14.74-.52s5.77-3.87,7.54-3.23,3.13-1.23,1.88-3.18a9,9,0,0,0-9.1-3.94c-3.6.56-6.9,3.43-11.61.67a10.23,10.23,0,0,1-.89-.56c-.31-.2,1,.31.71.08a23.52,23.52,0,0,1-3-2c-.07-.07.71.25.64.18-4.41-3.63-3.85-6.08-3.72-7.62A4.43,4.43,0,0,1,72.8,85c.64.35,1,.63,1,.63l-.43-.87a.23.23,0,0,0,.16,0c.8.41,1.58.85,2.34,1.34A3.38,3.38,0,0,1,77,87.13s.22-.11.06-.61A3.26,3.26,0,0,0,75.91,85h0a8.5,8.5,0,0,1,1.36.95,8.26,8.26,0,0,0,.56-3.22A4.58,4.58,0,0,0,77.66,81c-.18-.41.09-.5.39-.13A3.53,3.53,0,0,0,77.8,80h0c.37-1.29,7.82-4.64,8.36-5a7.66,7.66,0,0,0,2.19-2.38,6,6,0,0,0,.8-3c0-1-.42-1.69-8-2.48A5,5,0,0,1,77.25,64c-.13-.3-.26-.56-.39-.83a6.74,6.74,0,0,1-.29-1,18,18,0,0,1,6.34-8.78c.17-.16-.66,0-.5-.12a15.47,15.47,0,0,1,1.7-.8c.28-.14-1.25-.79-2.61-.63a6.57,6.57,0,0,0-2.42.63c.31-.31,1.28-.7,1.06-.7a14.7,14.7,0,0,0-4.93,2.07,1.16,1.16,0,0,1,.1-.49,7.82,7.82,0,0,0-3.08,2.65,3.21,3.21,0,0,0,0-.62A10.27,10.27,0,0,0,70.72,57h0A18.25,18.25,0,0,0,59.49,56c-.69-.69-1-.18-2.62-3.66-.11-.22.08.2,0,0-.27-.68.16.9,0,0-2.67,2.1-6.2,4.5-7.89,6.17,0,.06,2-.57,0,0-.69.19-.64.6-.75,4.29v.85a23.61,23.61,0,0,0-2.61,3.94c-1.74,3-3.66,7.68-5.51,15.07a37.22,37.22,0,0,1,3-5.83C41.54,80.74,40,86.88,39.74,96.37a58.79,58.79,0,0,1,1.43-5.82,54,54,0,0,0,4,23A56.53,56.53,0,0,0,51,124.51a51.77,51.77,0,0,0,73.19,1.92c1.09-1,2.14-2.11,3.13-3.24Z"/><path class="cls-5" d="M115.92,130.42c18.66-2.16,26.92-21.39,16.31-21.76C122.65,108.35,107.1,131.46,115.92,130.42Z"/><path class="cls-2" d="M133.59,104.73c12.83-7.47,9.48-23.6,9.48-23.6a52.41,52.41,0,0,0-8.35,14.92C131.41,105.14,125.85,109.24,133.59,104.73Z"/><path class="cls-5" d="M92.82,140c17.9,5.7,33.28-8.39,23.8-13.1C108,122.63,84.33,137.27,92.82,140Z"/><path class="cls-2" d="M134.9,111.58c.44-.61,1-2.58,1.55-3.46a19.24,19.24,0,0,0,3.18-9.26c1.91-9.53,1.74-13.42.56-20.62-.94-5.8-5.07-14.09-8.65-18.1s-1.09-2.78-4.66-5.78c-3.13-3.47-6.17-6.91-7.82-8.29-12-10-11.67-12.11-11.45-12.47l-.17.19c-.14-.56-.24-1-.24-1a32,32,0,0,0-7.88,17.41A26.5,26.5,0,0,0,105,69.4,43.75,43.75,0,0,0,111.71,76h0a25.92,25.92,0,0,1,4.51,14.89A25.18,25.18,0,0,1,91,116.07a24.76,24.76,0,0,1-5.56-.63,20.71,20.71,0,0,1-12.23-6.8,12.29,12.29,0,0,1-1.54-2.23c5.87,2.1,12.4,1.66,16.34-.52s6.39-3.83,8.35-3.19,3.46-1.22,2.08-3.16A10.39,10.39,0,0,0,88.37,95.6c-4,.56-7.64,3.38-12.86.67-.34-.18-.66-.37-1-.56s1.12.3.77.07a25.37,25.37,0,0,1-3.28-2c-.07-.06.79.25.71.19-4.88-3.6-4.27-6-4.12-7.56A4.37,4.37,0,0,1,71.12,83c.72.35,1.17.62,1.17.62l-.48-.86a.25.25,0,0,0,.17,0c.6.26,1.9.92,2.59,1.33a3.56,3.56,0,0,1,1.18,1.07s.24-.12.07-.61A3.24,3.24,0,0,0,74.59,83h.06a10.18,10.18,0,0,1,1.5.94,7.31,7.31,0,0,0,.6-3.19A4.25,4.25,0,0,0,76.51,79c-.21-.41.11-.49.43-.12a3.19,3.19,0,0,0-.28-.84v0c.41-1.28,8.66-4.6,9.25-5a8,8,0,0,0,2.43-2.37,5.55,5.55,0,0,0,.89-3c0-.63-.17-1.13-2.35-1.61a58.73,58.73,0,0,0-6.47-.85A5.53,5.53,0,0,1,76,62.21c-.14-.29-.28-.57-.42-.82a6.4,6.4,0,0,1-.33-1,18.13,18.13,0,0,1,7-8.7c.18-.16-.73,0-.56-.12a18.05,18.05,0,0,1,1.87-.79c.33-.14-1.37-.78-2.88-.63a7.72,7.72,0,0,0-2.67.63c.35-.3,1.42-.7,1.16-.69a17.24,17.24,0,0,0-5.45,2.06,1.1,1.1,0,0,1,.11-.5,8.26,8.26,0,0,0-3.38,2.63,4.42,4.42,0,0,0,0-.63,10.4,10.4,0,0,0-1.69,1.56v0a22.27,22.27,0,0,0-12.4-1.05A15.07,15.07,0,0,1,52.62,49c-.12-.21-.19.43-.28.23a16.37,16.37,0,0,1-1-6s-1.41.64-2.58,3.33c-.21.48-.35.75-.49,1a7.53,7.53,0,0,1,.11-.83,7.93,7.93,0,0,0-1,1.46,12.21,12.21,0,0,0-.53,1.3l0,.05c0-.17.05-.7,0-.56a27,27,0,0,0-1.4,3.38A31.52,31.52,0,0,0,43.91,61c0,.28,0,.57,0,.84A23,23,0,0,0,41,65.74c-1.92,3-4,7.61-6.09,14.94A35.22,35.22,0,0,1,38.17,75c-1.69,3.88-3.39,10-3.7,19.41a51.47,51.47,0,0,1,1.59-5.75,48.58,48.58,0,0,0,4.41,22.84,53.1,53.1,0,0,0,21,23.83h0a45.89,45.89,0,0,0,12.25,5.88c.56.2,1.12.41,1.74.6l-.56-.23a55.41,55.41,0,0,0,15.93,2.31c20.06,0,26-8,26-8l-.06.05c.28-.27.56-.57.82-.84-3.17,3-10.4,3.19-13.09,3,4.6-1.35,7.63-2.49,13.52-4.75.69-.26,1.39-.57,2.11-.88l.23-.1c.15-.07.29-.13.43-.21a39.66,39.66,0,0,0,8-5c5.92-4.74,7.22-9.35,7.89-12.4a14.26,14.26,0,0,1-.56,1.41c-1.53,3.26-4.91,5.27-8.58,7a82.52,82.52,0,0,0,4.85-7.16C133.63,114.69,134,112.86,134.9,111.58Z"/><path class="cls-5" d="M127.69,122.89a37.55,37.55,0,0,0,6.23-9.16c4.23-8.88,10.77-23.67,5.64-39.1-4.07-12.19-9.66-18.86-16.75-25.35C111.27,38.68,108.06,34,108.06,31.15c0,0-13.3,14.82-7.53,30.28s17.58,14.89,25.39,31c9.2,19-7.44,39.7-21.19,45.5.84-.18,30.58-6.91,32.12-23.92C136.83,114.34,136.16,119.06,127.69,122.89Z"/><path class="cls-2" d="M89.17,67.73c0-1-.47-1.7-8.78-2.46C77,65,75.66,61.8,75.26,60.47a23.66,23.66,0,0,0-1.44,10.47c.18,2.63,1.94,5.45,2.81,7.1l.27-.33c1.59-1.65,8.24-4.17,8.87-4.51A7.28,7.28,0,0,0,89.17,67.73Z"/><path class="cls-5" d="M52.6,49.07c-.11-.21-.18.43-.27.23a15.19,15.19,0,0,1-1-6s-1.41.64-2.58,3.33c-.21.48-.35.75-.49,1a7.53,7.53,0,0,1,.11-.83,7.11,7.11,0,0,0-1.48,2.76c0,.17,0-.72,0-.62-2.72,5.25-3.24,13.19-2.95,12.84a26.78,26.78,0,0,1,12.4-7.63,13.7,13.7,0,0,1-3.74-5.14Z"/><path class="cls-2" d="M74.54,113.63c-8-3.41-17.07-8.22-16.72-19.16.46-14.39,13.41-11.55,13.41-11.55A4.7,4.7,0,0,0,69,85a6.2,6.2,0,0,0,1.32,7c4.25,4.6-8.72,10.92,11.3,22.86.5.27-4.7-.17-7.06-1.19Z"/><path class="cls-5" d="M71.7,106.46c5.64,2,12.26,1.62,16.21-.57,2.65-1.47,6-3.82,8.13-3.24a14.08,14.08,0,0,0-4.82-1.13c-.31,0-.62,0-.93,0a15.5,15.5,0,0,0-1.8.09c-1,.1-2.15.74-3.18.64-.06,0,1-.43.91-.41-.56.11-1.12.13-1.76.21-.39,0-.74.1-1.13.12-11.79,1-21.76-6.4-21.76-6.4-.85,2.87,3.8,8.51,10.14,10.71Z"/><path class="cls-2" d="M127.68,123c11.93-11.72,18-26,15.41-41.92a33.78,33.78,0,0,1-2.85,16.56,43.88,43.88,0,0,0-2.86-28.86c-6.58-14-17.41-21.42-21.55-24.52-6.26-4.68-8.86-9.43-8.91-10.41-1.87,3.83-7.53,17-.61,28.29,6.49,10.6,16.71,13.74,23.87,23.48C143.36,103.5,127.68,123,127.68,123Z"/><path class="cls-5" d="M126,92.49c-4.17-8.61-9.37-12.37-14.29-16.45.37.52.71,1.06,1,1.61a30.45,30.45,0,0,1,6.09,30c-8.74,26.61-43.66,14.09-47.34,10.57C72.93,133.64,98.71,141,115.5,131,125.07,122,132.8,106.6,126,92.49Z"/></g><text class="cls-6" transform="translate(169.2 99.6)">Cus<tspan class="cls-7" x="143.05" y="0">t</tspan><tspan x="175.03" y="0">oma</tspan><tspan class="cls-8"><tspan x="0" y="31.2">Fir</tspan><tspan class="cls-9" x="33.2" y="31.2">e</tspan><tspan class="cls-10" x="48.44" y="31.2">f</tspan><tspan class="cls-11" x="57.67" y="31.2">o</tspan><tspan x="73.21" y="31.2">x</tspan></tspan></text></g></g></svg>