<svg xmlns="http://www.w3.org/2000/svg" viewBox="0 0 550 175"><defs><style>.cls-1{fill:none;}.cls-2{fill:#181818;}.cls-3{fill:#d81a63;}.cls-4{fill:#191918;}.cls-5{font-size:78px;fill:#010101;font-family:Montserrat-Medium, Montserrat;font-weight:500;}.cls-6{letter-spacing:0em;}.cls-7{font-size:26px;}</style></defs><title>Customa-Misc</title><g id="Layer_2" data-name="Layer 2"><g id="Layer_1-2" data-name="Layer 1"><rect class="cls-1" width="550" height="175"/><g id="Layer_1-2-2" data-name="Layer 1-2"><circle class="cls-2" cx="89.38" cy="87.5" r="42.43"/><path class="cls-2" d="M141.89,80.51l-12.27-1.83a2.09,2.09,0,0,0-2.37,1.75c0,.1,0,.2,0,.3v11a2.07,2.07,0,0,0,2.09,2.08l.3,0L141.89,92a2.1,2.1,0,0,0,1.78-2.06V82.58A2.1,2.1,0,0,0,141.89,80.51Z"/><path class="cls-2" d="M83.18,34.6l-2,13.3a2.25,2.25,0,0,0,1.9,2.57,1.84,1.84,0,0,0,.33,0H95.34a2.27,2.27,0,0,0,2.26-2.27c0-.11,0-.22,0-.33l-2-13.3a2.27,2.27,0,0,0-2.24-1.93H85.42A2.24,2.24,0,0,0,83.18,34.6Z"/><path class="cls-2" d="M36.25,92l12.26,1.83A2.08,2.08,0,0,0,50.88,92a1.53,1.53,0,0,0,0-.3v-11a2.09,2.09,0,0,0-2.1-2.07l-.3,0L36.25,80.51a2.1,2.1,0,0,0-1.78,2.06v7.32A2.08,2.08,0,0,0,36.25,92Z"/><path class="cls-2" d="M95.59,140.4l2-13.3a2.25,2.25,0,0,0-1.9-2.57,1.87,1.87,0,0,0-.34,0H83.42a2.26,2.26,0,0,0-2.26,2.26,2,2,0,0,0,0,.34l2,13.3a2.26,2.26,0,0,0,2.24,1.93h7.94A2.25,2.25,0,0,0,95.59,140.4Z"/><path class="cls-2" d="M121.48,45.21l-10,7.38a2.09,2.09,0,0,0-.44,2.91,1.21,1.21,0,0,0,.21.24L119,63.51a2.08,2.08,0,0,0,2.95,0,2.2,2.2,0,0,0,.2-.23l7.38-10a2.07,2.07,0,0,0-.2-2.71l-5.18-5.18A2.08,2.08,0,0,0,121.48,45.21Z"/><path class="cls-2" d="M47.49,54.25l8,10.82a2.25,2.25,0,0,0,3.16.47,1.78,1.78,0,0,0,.26-.22l8.43-8.42a2.27,2.27,0,0,0,0-3.2,2.75,2.75,0,0,0-.26-.22l-10.81-8a2.27,2.27,0,0,0-2.94.22l-5.62,5.62A2.25,2.25,0,0,0,47.49,54.25Z"/><path class="cls-2" d="M54.87,128l10-7.39a2.07,2.07,0,0,0,.44-2.91l-.2-.24-7.77-7.77a2.08,2.08,0,0,0-2.94,0,1.21,1.21,0,0,0-.21.24l-7.38,10a2.09,2.09,0,0,0,.2,2.72l5.18,5.17A2.08,2.08,0,0,0,54.87,128Z"/><path class="cls-2" d="M131.09,120.3l-8-10.82a2.25,2.25,0,0,0-3.15-.48,2.75,2.75,0,0,0-.26.22l-8.43,8.43a2.27,2.27,0,0,0,0,3.2l.25.22,10.82,8a2.28,2.28,0,0,0,3-.22l5.61-5.62A2.25,2.25,0,0,0,131.09,120.3Z"/><circle class="cls-3" cx="89.07" cy="87.5" r="27.51"/><path class="cls-4" d="M84,82.47a5.1,5.1,0,1,1-5.07-5.58A5.36,5.36,0,0,1,84,82.47Z"/><path class="cls-4" d="M104.31,82.47a5.1,5.1,0,1,1-5.07-5.58A5.36,5.36,0,0,1,104.31,82.47Z"/><path class="cls-4" d="M99,93a2,2,0,0,1,.88,2.63,1.38,1.38,0,0,1-.2.33,12.93,12.93,0,0,1-6.6,4.15,13.11,13.11,0,0,1-7.79-.34,2,2,0,0,1-1.1-2.57,2.16,2.16,0,0,1,.17-.34h0a2.86,2.86,0,0,1,3.22-1.1,8.29,8.29,0,0,0,4.31,0,8.52,8.52,0,0,0,3.76-2.11A2.9,2.9,0,0,1,99,93Z"/></g><text class="cls-5" transform="translate(169.2 99.6)">Cus<tspan class="cls-6" x="143.05" y="0">t</tspan><tspan x="175.03" y="0">oma</tspan><tspan class="cls-7"><tspan x="0" y="31.2">Misc</tspan></tspan></text></g></g></svg>