<svg xmlns="http://www.w3.org/2000/svg" viewBox="0 0 550 175"><defs><style>.cls-1{fill:none;}.cls-2{fill:#d81a61;}.cls-3{fill:#171717;}.cls-4{font-size:78px;fill:#010101;font-family:Montserrat-Medium, Montserrat;font-weight:500;}.cls-5{letter-spacing:0em;}.cls-6{font-size:26px;}.cls-7{letter-spacing:-0.06em;}.cls-8{letter-spacing:0em;}</style></defs><title>Customa-Website</title><g id="Layer_2" data-name="Layer 2"><g id="Layer_1-2" data-name="Layer 1"><rect class="cls-1" width="550" height="175"/><g id="Layer_2-2" data-name="Layer 2"><g id="Layer_1-2-2" data-name="Layer 1-2"><circle class="cls-2" cx="89.07" cy="87.5" r="54.6"/><path class="cls-3" d="M143.54,83.86A54.6,54.6,0,0,0,92.71,33V32.9H85.43V33A54.61,54.61,0,0,0,34.59,83.86h-.12v7.28h.12A54.61,54.61,0,0,0,85.43,142v.13h7.28V142a54.61,54.61,0,0,0,50.83-50.83h.13V83.86ZM68.65,44.8A57.78,57.78,0,0,0,60.09,62H49.21A47.64,47.64,0,0,1,68.65,44.8ZM45.39,69.3H58.17a86.86,86.86,0,0,0-1.79,14.56H41.89A46.92,46.92,0,0,1,45.39,69.3ZM41.91,91.14H56.38a86.86,86.86,0,0,0,1.79,14.56H45.39a46.92,46.92,0,0,1-3.5-14.56ZM49.2,113H60.12a57.55,57.55,0,0,0,8.57,17.22A47.54,47.54,0,0,1,49.21,113Zm36.24,21.37c-7.48-2-13.92-10-17.83-21.37H85.44Zm0-28.65H65.55a81.19,81.19,0,0,1-1.89-14.56H85.43Zm0-21.84H63.66A81.19,81.19,0,0,1,65.55,69.3H85.43Zm0-21.84H67.59C71.5,50.68,78,42.65,85.43,40.65ZM129,62h-10.9a57.8,57.8,0,0,0-8.58-17.22A47.56,47.56,0,0,1,129,62ZM92.71,40.65c7.48,2,13.92,10,17.83,21.37H92.71Zm0,28.65h19.88a82.09,82.09,0,0,1,1.88,14.56H92.71Zm0,21.84h21.76a80.28,80.28,0,0,1-1.88,14.56H92.71Zm0,43.21V113h17.83C106.63,124.32,100.19,132.35,92.71,134.35Zm16.78-4.15A58.48,58.48,0,0,0,118.07,113H129A47.49,47.49,0,0,1,109.49,130.2Zm23.26-24.5H120a87.91,87.91,0,0,0,1.79-14.56h14.48A46.56,46.56,0,0,1,132.75,105.7Zm-11-21.84A85.84,85.84,0,0,0,120,69.3h12.8a46.89,46.89,0,0,1,3.48,14.56Z"/></g></g><text class="cls-4" transform="translate(169.2 99.6)">Cus<tspan class="cls-5" x="143.05" y="0">t</tspan><tspan x="175.03" y="0">oma</tspan><tspan class="cls-6"><tspan class="cls-7" x="0" y="31.2">W</tspan><tspan x="26.52" y="31.2">ebsi</tspan><tspan class="cls-8" x="79.71" y="31.2">t</tspan><tspan x="90.38" y="31.2">e</tspan></tspan></text></g></g></svg>