<svg xmlns="http://www.w3.org/2000/svg" viewBox="0 0 550 175"><defs><style>.cls-1{fill:none;}.cls-2{fill:#181818;}.cls-3{fill:#d81a62;}.cls-4{font-size:78px;fill:#010101;font-family:Montserrat-Medium, Montserrat;font-weight:500;}.cls-5{letter-spacing:0em;}.cls-6{font-size:26px;}.cls-7{letter-spacing:0em;}.cls-8{letter-spacing:-0.02em;}.cls-9{letter-spacing:0em;}</style></defs><title>Customa-Injector-Powercord_1</title><g id="Layer_2" data-name="Layer 2"><g id="Layer_1-2" data-name="Layer 1"><rect class="cls-1" width="550" height="175"/><g id="Layer_1-2-2" data-name="Layer 1-2"><polygon class="cls-2" points="49.88 75.23 80.69 44.36 142.32 106.1 111.5 136.98 49.88 75.23"/><path class="cls-3" d="M143.67,107.27,113.39,76.91S106.84,91.05,98,92.36s-15.41,15.46-15.41,15.46l30.27,30.33h30.82Z"/><polygon class="cls-2" points="45.87 48.37 53.57 40.66 68.98 56.09 61.28 63.8 45.87 48.37"/><polygon class="cls-2" points="34.47 59.8 65.28 28.92 72.99 36.64 42.17 67.51 34.47 59.8"/><path class="cls-3" d="M63.22,127.76,60.49,125l5.65-5.6a1.92,1.92,0,0,1,2.73,0h0a1.91,1.91,0,0,1,0,2.71v0l-5.62,5.61Z"/><path class="cls-3" d="M62.86,128.13l-2.73-2.73a.54.54,0,0,1,0-.75L65.75,119a2.45,2.45,0,0,1,3.46,3.46h0l-5.62,5.64A.56.56,0,0,1,62.86,128.13Zm-1.59-3.08,2,2,5.24-5.25a1.39,1.39,0,0,0-2-2Z"/><path class="cls-3" d="M70.58,135.12l-2.73-2.73,5.61-5.62a1.93,1.93,0,0,1,2.72,0h0a1.92,1.92,0,0,1,0,2.73Z"/><path class="cls-3" d="M70.2,135.49l-2.73-2.73a.55.55,0,0,1,0-.74l5.62-5.63a2.45,2.45,0,0,1,3.51,3.41l0,0-5.62,5.62A.54.54,0,0,1,70.2,135.49Zm-1.59-3.1,2,2,5.24-5.24a1.39,1.39,0,0,0-2-2Z"/><rect class="cls-2" x="63.2" y="121.74" width="2.74" height="18.63" transform="translate(-73.75 84.04) rotate(-45)"/><path class="cls-2" d="M69.8,139,56.63,125.84a.55.55,0,0,1,0-.78h0l1.93-2a.54.54,0,0,1,.77,0h0l13.17,13.17a.54.54,0,0,1,0,.77h0L70.58,139a.56.56,0,0,1-.78,0Zm-12-13.56,12.4,12.42,1.17-1.17L59,124.27Z"/><path class="cls-2" d="M58.42,144.66,51,137.2A3,3,0,0,1,51,133l6.83-6.83,11.62,11.65-6.83,6.83a2.93,2.93,0,0,1-4.14,0Z"/><path class="cls-2" d="M58,145l-7.45-7.45a3.49,3.49,0,0,1,0-5l6.82-6.8a.54.54,0,0,1,.77,0h0L69.8,137.47a.55.55,0,0,1,0,.77h0L63,145.07A3.49,3.49,0,0,1,58,145ZM57.79,127l-6.44,6.44a2.4,2.4,0,0,0,0,3.39h0l7.46,7.45a2.39,2.39,0,0,0,3.39,0h0l6.43-6.42Z"/></g><text class="cls-4" transform="translate(169.2 99.6)">Cus<tspan class="cls-5" x="143.05" y="0">t</tspan><tspan x="175.03" y="0">oma</tspan><tspan class="cls-6"><tspan x="0" y="31.2">Injec</tspan><tspan class="cls-7" x="62.71" y="31.2">t</tspan><tspan x="73.37" y="31.2">or - P</tspan><tspan class="cls-8" x="140.09" y="31.2">ow</tspan><tspan class="cls-9" x="178.96" y="31.2">er</tspan><tspan class="cls-8" x="204.83" y="31.2">c</tspan><tspan x="219" y="31.2">ord</tspan></tspan></text></g></g></svg>