<svg xmlns="http://www.w3.org/2000/svg" viewBox="0 0 550 175"><defs><style>.cls-1{fill:none;}.cls-2{fill:#171717;}.cls-3{fill:#d81a61;}.cls-4{font-size:78px;fill:#010101;font-family:Montserrat-Medium, Montserrat;font-weight:500;}.cls-5{letter-spacing:0em;}.cls-6{font-size:26px;}.cls-7{letter-spacing:0em;}.cls-8{letter-spacing:-0.02em;}.cls-9{letter-spacing:0em;}</style></defs><title>Asset 1</title><g id="Layer_2" data-name="Layer 2"><g id="Layer_1-2" data-name="Layer 1"><rect class="cls-1" width="550" height="175"/><g id="Layer_1-2-2" data-name="Layer 1-2"><polygon class="cls-2" points="49.88 75.95 80.69 45.07 142.32 106.82 111.5 137.69 49.88 75.95"/><path class="cls-3" d="M143.67,108,113.39,77.63S106.84,91.76,98,93.07s-15.41,15.46-15.41,15.46l30.27,30.33h30.82Z"/><polygon class="cls-2" points="45.87 49.08 53.57 41.37 68.98 56.8 61.28 64.52 45.87 49.08"/><polygon class="cls-2" points="34.47 60.51 65.28 29.64 72.99 37.35 42.17 68.23 34.47 60.51"/><path class="cls-2" d="M69.31,127.24c-.14-5.17-4.19-7.26-9.41-7.26H49.76v10.46l6.47,5.83V125.18H60c4,0,4,5.06,0,5.06H57.52v4.82H60c4,0,4,5.05,0,5.05H49.76v5.2H59.9c5.22,0,9.28-2.09,9.41-7.27a7.65,7.65,0,0,0-1.8-5.4A7.62,7.62,0,0,0,69.31,127.24Z"/><path class="cls-3" d="M67.26,120H66.14a8,8,0,0,1,1.09.65,7.45,7.45,0,0,1,2.41,2.73,8.84,8.84,0,0,1,1,3.87v10.88a8.84,8.84,0,0,1-1,3.87,7.29,7.29,0,0,1-2.41,2.73,8.78,8.78,0,0,1-1.06.64h1.06c5.07,0,9.83-2.51,9.83-8.33v-8.55C77.1,122.56,72.33,120,67.26,120Z"/></g><text class="cls-4" transform="translate(169.2 99.6)">Cus<tspan class="cls-5" x="143.05" y="0">t</tspan><tspan x="175.03" y="0">oma</tspan><tspan class="cls-6"><tspan x="0" y="31.2">Injec</tspan><tspan class="cls-7" x="62.71" y="31.2">t</tspan><tspan x="73.37" y="31.2">or - Bet</tspan><tspan class="cls-7" x="167.15" y="31.2">t</tspan><tspan x="177.81" y="31.2">erDis</tspan><tspan class="cls-8" x="243.88" y="31.2">c</tspan><tspan class="cls-9" x="258.05" y="31.2">ord</tspan></tspan></text></g></g></svg>