<svg xmlns="http://www.w3.org/2000/svg" viewBox="0 0 550 175"><defs><style>.cls-1{fill:none;}.cls-2{fill:#181818;}.cls-3{fill:#3a3b3a;}.cls-4{fill:#191918;}.cls-5{font-size:78px;fill:#010101;font-family:Montserrat-Medium, Montserrat;font-weight:500;}.cls-6{letter-spacing:0em;}.cls-7{font-size:26px;}.cls-8{letter-spacing:-0.02em;}</style></defs><title>Customa-Discord-Legacy</title><g id="Layer_2" data-name="Layer 2"><g id="Layer_1-2" data-name="Layer 1"><rect class="cls-1" width="550" height="175"/><g id="Layer_1-2-2" data-name="Layer 1-2"><path class="cls-2" d="M130.88,24.6H47.26A12.83,12.83,0,0,0,34.47,37.46h0v84.36a12.82,12.82,0,0,0,12.79,12.86H118l-3.3-11.55,8,7.43,7.55,7,13.42,11.85V37.46A12.83,12.83,0,0,0,130.88,24.6Z"/><circle class="cls-3" cx="89.07" cy="79.64" r="35.99"/><path class="cls-4" d="M82.42,73.07c0,4.06-3,7.31-6.64,7.31s-6.64-3.29-6.64-7.31,3-7.28,6.64-7.28S82.42,69,82.42,73.07Z"/><path class="cls-4" d="M109,73.07c0,4.06-3,7.31-6.64,7.31s-6.65-3.29-6.65-7.31,3-7.28,6.62-7.28S109,69,109,73.07Z"/><path class="cls-4" d="M102,86.85a2.56,2.56,0,0,1,1.15,3.45,1.88,1.88,0,0,1-.27.42,17.12,17.12,0,0,1-18.81,5,2.59,2.59,0,0,1-1.48-3.34,2.56,2.56,0,0,1,.23-.47h0A3.72,3.72,0,0,1,87,90.47a10.78,10.78,0,0,0,5.61,0,11.13,11.13,0,0,0,4.91-2.77,3.77,3.77,0,0,1,4.37-.81Z"/></g><text class="cls-5" transform="translate(169.2 99.6)">Cus<tspan class="cls-6" x="143.05" y="0">t</tspan><tspan x="175.03" y="0">oma</tspan><tspan class="cls-7"><tspan x="0" y="31.2">Dis</tspan><tspan class="cls-8" x="40.2" y="31.2">c</tspan><tspan x="54.37" y="31.2">ord - Legacy</tspan></tspan></text></g></g></svg>