<svg xmlns="http://www.w3.org/2000/svg" viewBox="0 0 550 175"><defs><style>.cls-1{fill:none;}.cls-2{font-size:78px;font-family:Montserrat-Medium, Montserrat;font-weight:500;}.cls-3{letter-spacing:0em;}.cls-4{font-size:26px;}.cls-5{letter-spacing:-0.02em;}.cls-6{fill:#171717;}.cls-7{fill:#d81a62;}.cls-8{fill:#181818;}</style></defs><title>Customa-Discord_1</title><g id="Layer_2" data-name="Layer 2"><g id="Layer_1-2" data-name="Layer 1"><rect class="cls-1" width="550" height="175"/><text class="cls-2" transform="translate(169.2 99.6)">Cus<tspan class="cls-3" x="143.05" y="0">t</tspan><tspan x="175.03" y="0">oma</tspan><tspan class="cls-4"><tspan x="0" y="31.2">Dis</tspan><tspan class="cls-5" x="40.2" y="31.2">c</tspan><tspan x="54.37" y="31.2">ord</tspan></tspan></text><g id="Layer_1-2-2" data-name="Layer 1-2"><path class="cls-6" d="M130.88,25.1H47.26A12.82,12.82,0,0,0,34.47,38h0v84.37a12.81,12.81,0,0,0,12.79,12.85H118l-3.3-11.54,8,7.43,7.55,7,13.42,11.86V38A12.82,12.82,0,0,0,130.88,25.1Z"/><circle class="cls-7" cx="89.07" cy="80.14" r="35.99"/><path class="cls-8" d="M82.42,73.57c0,4.05-3,7.3-6.64,7.3s-6.64-3.28-6.64-7.3,3-7.29,6.64-7.29S82.42,69.51,82.42,73.57Z"/><path class="cls-8" d="M109,73.57c0,4.05-3,7.3-6.64,7.3s-6.65-3.28-6.65-7.3,3-7.29,6.62-7.29S109,69.51,109,73.57Z"/><path class="cls-8" d="M102,87.34a2.57,2.57,0,0,1,1.15,3.45,1.94,1.94,0,0,1-.27.43,17.12,17.12,0,0,1-18.81,5,2.59,2.59,0,0,1-1.48-3.34,2.82,2.82,0,0,1,.23-.46h0A3.72,3.72,0,0,1,87,91a10.78,10.78,0,0,0,5.61,0,11.21,11.21,0,0,0,4.91-2.76,3.77,3.77,0,0,1,4.37-.81Z"/></g></g></g></svg>