<svg width="460" height="200" viewBox="0 0 460 200" fill="none" xmlns="http://www.w3.org/2000/svg">
<rect width="460" height="200" fill="white"/>
<path d="M71.0852 80.2499L66.471 68.8402H39.2891L34.6748 80.2499H21L46.504 21.5236H60.1788L85.2634 80.2499H71.0852ZM43.6516 58.1856H62.1923L52.9639 35.3662L43.6516 58.1856Z" fill="#161616"/>
<path d="M133.618 18V80.2499H120.782V73.6222C119.16 75.9713 117.147 77.761 114.742 78.9915C112.337 80.166 109.596 80.7533 106.52 80.7533C102.27 80.7533 98.5222 79.8025 95.2783 77.9009C92.0903 75.9433 89.6014 73.2027 87.8117 69.6792C86.0779 66.1556 85.2109 62.1007 85.2109 57.5144C85.2109 52.9841 86.0779 48.9851 87.8117 45.5175C89.5455 42.0498 92.0064 39.3652 95.1944 37.4636C98.3824 35.562 102.046 34.6112 106.185 34.6112C112.561 34.6112 117.427 36.9882 120.782 41.7422V18H133.618ZM109.54 70.3503C112.84 70.3503 115.525 69.2038 117.594 66.9106C119.72 64.5616 120.782 61.5414 120.782 57.85C120.782 54.1586 119.72 51.1664 117.594 48.8733C115.525 46.5242 112.84 45.3497 109.54 45.3497C106.185 45.3497 103.444 46.5242 101.319 48.8733C99.2493 51.1664 98.1867 54.1586 98.1307 57.85C98.1867 61.5414 99.2493 64.5616 101.319 66.9106C103.444 69.2038 106.185 70.3503 109.54 70.3503Z" fill="#161616"/>
<path d="M140.042 35.1984L153.381 35.1145L164.036 68.0013L174.607 35.1145H187.443L170.412 80.2499H157.157L140.042 35.1984Z" fill="#161616"/>
<path d="M218.065 80.2499V74.9645C216.555 76.8661 214.598 78.3203 212.193 79.3271C209.788 80.3338 207.019 80.8372 203.887 80.8372C199.133 80.8372 195.358 79.5508 192.561 76.978C189.765 74.3493 188.367 70.9376 188.367 66.7428C188.367 62.4922 189.849 59.1923 192.813 56.8433C195.833 54.4383 200.084 53.2078 205.565 53.1519H217.982V52.313C217.982 49.908 217.171 48.0623 215.549 46.7759C213.983 45.4336 211.662 44.7624 208.585 44.7624C204.391 44.7624 199.916 46.0768 195.162 48.7055L191.135 39.8126C194.715 38.0229 198.071 36.7085 201.203 35.8696C204.335 35.0306 207.774 34.6112 211.522 34.6112C217.562 34.6112 222.232 36.0374 225.532 38.8898C228.888 41.7422 230.594 45.7132 230.65 50.8028L230.734 80.2499H218.065ZM207.495 71.6087C210.179 71.6087 212.5 70.9656 214.458 69.6792C216.416 68.3928 217.59 66.7708 217.982 64.8133V60.7863H207.83C205.313 60.7863 203.44 61.2058 202.209 62.0447C201.035 62.8278 200.448 64.1141 200.448 65.9039C200.448 67.6377 201.063 69.036 202.293 70.0986C203.58 71.1054 205.313 71.6087 207.495 71.6087Z" fill="#161616"/>
<path d="M270.391 34.6112C275.425 34.6112 279.424 36.1772 282.388 39.3093C285.408 42.4413 286.918 46.6361 286.918 51.8935V80.2499H273.998V55.6687C273.998 52.8163 273.187 50.5791 271.565 48.9572C269.999 47.2793 267.846 46.4403 265.106 46.4403C261.918 46.4962 259.401 47.6148 257.555 49.7961C255.709 51.9214 254.786 54.662 254.786 58.0178V80.2499H241.867V35.1145H254.786V43.0006C257.919 37.5195 263.12 34.723 270.391 34.6112Z" fill="#161616"/>
<path d="M328.188 50.4673C325.615 47.2793 322.259 45.6853 318.12 45.6853C314.877 45.6853 312.22 46.8039 310.15 49.0411C308.137 51.2223 307.13 54.1307 307.13 57.7661C307.13 61.4015 308.137 64.3658 310.15 66.659C312.164 68.8961 314.737 70.0147 317.869 70.0147C322.567 70.0147 326.062 68.253 328.356 64.7294L337.248 70.7698C335.347 73.9578 332.662 76.4187 329.195 78.1525C325.783 79.8864 321.784 80.7533 317.198 80.7533C312.667 80.7533 308.668 79.8025 305.201 77.9009C301.733 75.9992 299.02 73.3146 297.063 69.847C295.161 66.3793 294.21 62.3803 294.21 57.85C294.21 53.2638 295.161 49.2368 297.063 45.7692C299.02 42.2456 301.733 39.533 305.201 37.6314C308.724 35.6738 312.779 34.6951 317.365 34.6951C321.672 34.6951 325.503 35.534 328.859 37.2119C332.215 38.8339 334.899 41.155 336.913 44.1752L328.188 50.4673Z" fill="#161616"/>
<path d="M364.722 34.6951C371.993 34.6951 377.502 36.7924 381.249 40.9872C385.053 45.1819 386.954 51.0266 386.954 58.5212C386.954 59.8635 386.926 60.8982 386.87 61.6253H354.487C355.214 64.4777 356.612 66.7149 358.682 68.3369C360.751 69.9029 363.24 70.6859 366.148 70.6859C368.274 70.6859 370.315 70.2944 372.273 69.5114C374.23 68.6724 375.992 67.4699 377.558 65.9039L384.353 72.7833C382.06 75.356 379.264 77.3416 375.964 78.7398C372.72 80.0821 369.085 80.7533 365.058 80.7533C360.304 80.7533 356.137 79.8025 352.557 77.9009C349.034 75.9992 346.293 73.3146 344.336 69.847C342.434 66.3793 341.483 62.3803 341.483 57.85C341.483 53.2638 342.462 49.2368 344.419 45.7692C346.377 42.2456 349.118 39.533 352.641 37.6314C356.165 35.6738 360.192 34.6951 364.722 34.6951ZM374.789 53.9908C374.678 51.0266 373.727 48.6495 371.937 46.8598C370.147 45.07 367.77 44.1752 364.806 44.1752C362.009 44.1752 359.66 45.07 357.759 46.8598C355.913 48.5936 354.739 50.9706 354.235 53.9908H374.789Z" fill="#161616"/>
<path d="M439.949 18V80.2499H427.113V73.6222C425.491 75.9713 423.477 77.761 421.072 78.9915C418.667 80.166 415.927 80.7533 412.851 80.7533C408.6 80.7533 404.853 79.8025 401.609 77.9009C398.421 75.9433 395.932 73.2027 394.142 69.6792C392.408 66.1556 391.541 62.1007 391.541 57.5144C391.541 52.9841 392.408 48.9851 394.142 45.5175C395.876 42.0498 398.337 39.3652 401.525 37.4636C404.713 35.562 408.376 34.6112 412.515 34.6112C418.891 34.6112 423.757 36.9882 427.113 41.7422V18H439.949ZM415.871 70.3503C419.171 70.3503 421.855 69.2038 423.925 66.9106C426.05 64.5616 427.113 61.5414 427.113 57.85C427.113 54.1586 426.05 51.1664 423.925 48.8733C421.855 46.5242 419.171 45.3497 415.871 45.3497C412.515 45.3497 409.775 46.5242 407.649 48.8733C405.58 51.1664 404.517 54.1586 404.461 57.85C404.517 61.5414 405.58 64.5616 407.649 66.9106C409.775 69.2038 412.515 70.3503 415.871 70.3503Z" fill="#161616"/>
<path d="M71.9402 123.77H121.019V135.012H103.065V182.497H89.8097V135.012H71.9402V123.77Z" fill="#161616"/>
<path d="M152.956 136.858C158.046 136.858 162.073 138.424 165.037 141.556C168.057 144.688 169.567 148.883 169.567 154.14V182.497H156.648V157.915C156.648 155.063 155.837 152.826 154.215 151.204C152.649 149.526 150.495 148.687 147.755 148.687C144.567 148.743 142.022 149.862 140.12 152.043C138.275 154.168 137.352 156.909 137.352 160.265V182.497H124.432V120.247H137.352V145.331C140.484 139.794 145.685 136.97 152.956 136.858Z" fill="#161616"/>
<path d="M200.005 136.942C207.276 136.942 212.785 139.039 216.532 143.234C220.335 147.429 222.237 153.273 222.237 160.768C222.237 162.11 222.209 163.145 222.153 163.872H189.77C190.497 166.724 191.895 168.962 193.964 170.584C196.034 172.15 198.523 172.933 201.431 172.933C203.556 172.933 205.598 172.541 207.555 171.758C209.513 170.919 211.275 169.717 212.841 168.151L219.636 175.03C217.343 177.603 214.547 179.588 211.247 180.987C208.003 182.329 204.367 183 200.34 183C195.586 183 191.42 182.049 187.84 180.148C184.317 178.246 181.576 175.561 179.618 172.094C177.717 168.626 176.766 164.627 176.766 160.097C176.766 155.51 177.745 151.484 179.702 148.016C181.66 144.492 184.4 141.78 187.924 139.878C191.448 137.921 195.475 136.942 200.005 136.942ZM210.072 156.238C209.96 153.273 209.01 150.896 207.22 149.107C205.43 147.317 203.053 146.422 200.089 146.422C197.292 146.422 194.943 147.317 193.042 149.107C191.196 150.84 190.021 153.217 189.518 156.238H210.072Z" fill="#161616"/>
<path d="M290.416 136.858C295.394 136.858 299.337 138.424 302.246 141.556C305.21 144.632 306.692 148.827 306.692 154.14V182.497H293.856V157.915C293.856 155.007 293.073 152.742 291.507 151.12C289.941 149.498 287.816 148.687 285.131 148.687C282.055 148.743 279.622 149.834 277.832 151.959C276.043 154.084 275.148 156.825 275.148 160.181V182.497H262.312V157.915C262.312 155.063 261.529 152.826 259.963 151.204C258.453 149.526 256.355 148.687 253.671 148.687C250.594 148.743 248.134 149.834 246.288 151.959C244.498 154.084 243.603 156.825 243.603 160.181V182.497H230.683V137.361H243.603V145.163C246.735 139.738 251.825 136.97 258.872 136.858C262.675 136.858 265.891 137.781 268.52 139.626C271.149 141.416 273.022 143.961 274.141 147.261C275.595 143.849 277.692 141.276 280.433 139.543C283.23 137.809 286.557 136.914 290.416 136.858Z" fill="#161616"/>
<path d="M337.235 136.942C344.506 136.942 350.015 139.039 353.762 143.234C357.566 147.429 359.467 153.273 359.467 160.768C359.467 162.11 359.439 163.145 359.383 163.872H327C327.727 166.724 329.125 168.962 331.195 170.584C333.264 172.15 335.753 172.933 338.661 172.933C340.787 172.933 342.828 172.541 344.786 171.758C346.743 170.919 348.505 169.717 350.071 168.151L356.866 175.03C354.573 177.603 351.777 179.588 348.477 180.987C345.233 182.329 341.598 183 337.571 183C332.817 183 328.65 182.049 325.07 180.148C321.547 178.246 318.806 175.561 316.849 172.094C314.947 168.626 313.996 164.627 313.996 160.097C313.996 155.51 314.975 151.484 316.932 148.016C318.89 144.492 321.631 141.78 325.154 139.878C328.678 137.921 332.705 136.942 337.235 136.942ZM347.302 156.238C347.191 153.273 346.24 150.896 344.45 149.107C342.66 147.317 340.283 146.422 337.319 146.422C334.522 146.422 332.173 147.317 330.272 149.107C328.426 150.84 327.252 153.217 326.748 156.238H347.302Z" fill="#161616"/>
<path d="M380.833 145.499C382.399 142.703 384.441 140.577 386.958 139.123C389.475 137.669 392.411 136.914 395.767 136.858V149.023C395.319 148.967 394.648 148.939 393.753 148.939C389.782 148.939 386.622 150.029 384.273 152.211C381.98 154.336 380.833 157.188 380.833 160.768V182.497H367.914V137.361H380.833V145.499Z" fill="#161616"/>
<path d="M336.368 71.3525C333.546 75.3081 329.559 78.2829 324.964 79.8608C320.368 81.4387 315.394 81.5407 310.738 80.1526C306.082 78.7645 301.976 75.9556 298.994 72.119C296.013 68.2824 294.305 63.6099 294.11 58.7549C293.915 53.9 295.243 49.1056 297.907 45.0422C300.571 40.9789 304.438 37.8498 308.968 36.0928C313.498 34.3357 318.464 34.0385 323.172 35.2427C327.879 36.447 332.092 39.0924 335.222 42.809L317.396 57.8197L336.368 71.3525Z" fill="#161616"/>
<path d="M317.396 72.9674C325.762 72.9674 332.543 66.1855 332.543 57.8197C332.543 49.4539 325.762 42.6721 317.396 42.6721C309.03 42.6721 302.248 49.4539 302.248 57.8197C302.248 66.1855 309.03 72.9674 317.396 72.9674Z" fill="#D81B60"/>
<path d="M314.599 55.0496C314.599 56.7586 313.347 58.1335 311.803 58.1335C310.258 58.1335 309.006 56.7524 309.006 55.0496C309.006 53.3469 310.258 51.9657 311.803 51.9657C313.347 51.9657 314.599 53.3469 314.599 55.0496Z" fill="#161616"/>
<path d="M325.785 55.0496C325.785 56.7586 324.533 58.1335 322.989 58.1335C321.444 58.1335 320.192 56.7524 320.192 55.0496C320.192 53.3469 321.444 51.9657 322.989 51.9657C324.533 51.9657 325.785 53.3469 325.785 55.0496Z" fill="#161616"/>
<path d="M322.833 60.8461C323.433 61.1895 323.647 61.9585 323.202 62.4852C322.251 63.5995 320.984 64.398 319.568 64.7743C318.153 65.1507 316.657 65.087 315.278 64.5919C314.629 64.3573 314.424 63.5852 314.772 62.9901C315.117 62.3982 315.881 62.2133 316.551 62.3858C317.33 62.5868 318.148 62.5838 318.925 62.377C319.703 62.1702 320.414 61.7666 320.991 61.205C321.482 60.725 322.234 60.5044 322.835 60.8461H322.833Z" fill="#161616"/>
</svg>
