<svg width="108" height="108" viewBox="0 0 108 108" fill="none" xmlns="http://www.w3.org/2000/svg">
<path d="M26.1 22.5H81.9C89.1 22.5 94.95 27.9 95.4 35.1L98.55 76.5C99 81 95.4 85.05 90.9 85.5H90.45C85.05 85.5 80.55 81.9 79.2 76.95L76.5 67.5H31.5L29.25 76.95C27.9 81.9 23.4 85.5 18 85.5C13.5 85.5 9.45001 81.9 9.45001 76.95V76.5L12.6 35.1C13.05 27.9 18.9 22.5 26.1 22.5ZM65.25 45C68.85 45 72 41.85 72 38.25C72 34.65 68.85 31.5 65.25 31.5C61.65 31.5 58.5 34.65 58.5 38.25C58.5 41.85 61.65 45 65.25 45ZM83.25 58.5C86.85 58.5 90 55.35 90 51.75C90 48.15 86.85 45 83.25 45C79.65 45 76.5 48.15 76.5 51.75C76.5 55.35 79.65 58.5 83.25 58.5ZM27 40.5H18V49.5H27V58.5H36V49.5H45V40.5H36V31.5H27V40.5Z" fill="#474747"/>
</svg>
