<svg width="108" height="108" viewBox="0 0 108 108" fill="none" xmlns="http://www.w3.org/2000/svg">
<g clip-path="url(#clip0)">
<path d="M105.399 30.6456L62.9056 58.5411C62.1721 59.0136 61.5826 59.6751 61.1911 60.4536L54.7156 73.4451C54.5221 73.8816 54.0856 74.1696 53.6041 74.1696C53.1271 74.1696 52.6906 73.8816 52.4971 73.4451L46.0216 60.4536C45.6301 59.6751 45.0361 59.0136 44.3071 58.5411L1.81356 30.6456C1.36806 30.1191 0.580564 30.0516 0.049564 30.4971C-0.476936 30.9381 -0.544436 31.7301 -0.098936 32.2566L17.6581 66.7986C17.8336 67.1631 17.8201 67.5906 17.6311 67.9506C17.4376 68.3061 17.0866 68.5536 16.6816 68.6076H6.00756C5.46756 68.6031 4.98606 68.9496 4.81956 69.4626C4.64856 69.9801 4.83306 70.5426 5.26956 70.8576L52.8661 104.963C53.3116 105.265 53.9011 105.265 54.3466 104.963L101.943 70.8576C102.38 70.5426 102.564 69.9801 102.393 69.4626C102.227 68.9496 101.745 68.6031 101.201 68.6076H90.5266C90.1036 68.5941 89.7121 68.3646 89.4871 68.0001C89.2666 67.6356 89.2396 67.1856 89.4196 66.7986L107.312 32.2566C107.757 31.7301 107.69 30.9381 107.159 30.4971C106.632 30.0516 105.845 30.1191 105.399 30.6456Z" fill="#474747"/>
<path d="M54.5446 5.06747L58.9096 13.964C59.0671 14.261 59.3506 14.4725 59.6836 14.5355L69.5161 15.944C69.9076 16.0025 70.2361 16.277 70.3576 16.655C70.4791 17.033 70.3711 17.447 70.0876 17.7215L62.9731 24.638C62.7391 24.881 62.6266 25.214 62.6671 25.5425L64.3456 35.312C64.4221 35.6945 64.2691 36.0905 63.9496 36.32C63.6346 36.5495 63.2116 36.5765 62.8696 36.3875L54.0766 31.7885C53.7841 31.6175 53.4286 31.6175 53.1361 31.7885L44.3431 36.3875C44.0011 36.5765 43.5781 36.5495 43.2586 36.32C42.9436 36.0905 42.7906 35.6945 42.8626 35.312L44.5411 25.5425C44.5861 25.214 44.4736 24.881 44.2396 24.638L37.1251 17.7215C36.8371 17.447 36.7336 17.033 36.8551 16.655C36.9766 16.277 37.3006 16.0025 37.6966 15.944L47.5291 14.567C47.8621 14.504 48.1456 14.297 48.3031 13.9955L52.6681 5.10347C52.8301 4.73447 53.1946 4.50047 53.5951 4.49147C53.9956 4.48247 54.3691 4.70747 54.5446 5.06747Z" fill="#474747"/>
</g>
<defs>
<clipPath id="clip0">
<rect width="108" height="108" fill="white"/>
</clipPath>
</defs>
</svg>
