<svg xmlns="http://www.w3.org/2000/svg" viewBox="0 0 477.58 109.72"><defs><style>.cls-1{fill:#231f20;}.cls-2{fill:#161616;}.cls-3{fill:#d81b60;}</style></defs><title>Asset 1</title><g id="Layer_2" data-name="Layer 2"><g id="Layer_1-2" data-name="Layer 1"><path class="cls-1" d="M173.12,33.29a18.37,18.37,0,0,0-17.14.54,17.38,17.38,0,0,0-6.59,6.67,19.08,19.08,0,0,0,0,18.5A17.77,17.77,0,0,0,156,65.66a18,18,0,0,0,9.21,2.44A19.36,19.36,0,0,0,173,66.39a22.37,22.37,0,0,0,6.93-4.72L186,68.48a31.88,31.88,0,0,1-9.91,6.85,27.92,27.92,0,0,1-11.45,2.52,28.33,28.33,0,0,1-14.33-3.72A27.12,27.12,0,0,1,140.11,64a27.58,27.58,0,0,1-3.72-14.13,27.19,27.19,0,0,1,14.13-24.09,30,30,0,0,1,25.89-1.31,27.84,27.84,0,0,1,9.52,6.43l-6,7.58A20.47,20.47,0,0,0,173.12,33.29Z"/><path class="cls-1" d="M232.38,35.61V77H222.24V69.36q-4.17,8.06-14.4,8-7,0-11-4.26t-4-11.61V35.61H203v23a9.45,9.45,0,0,0,2.36,6.81,8.58,8.58,0,0,0,6.54,2.48,9.63,9.63,0,0,0,7.61-3.4,12.71,12.71,0,0,0,2.78-8.44V35.61Z"/><path class="cls-1" d="M263.23,44.05a19.87,19.87,0,0,0-5.92-1,8,8,0,0,0-4.06.89,3,3,0,0,0-1.51,2.75,3.24,3.24,0,0,0,1.89,3,31.3,31.3,0,0,0,6,2.21,58.43,58.43,0,0,1,7.13,2.6,13.43,13.43,0,0,1,4.83,3.79,10.18,10.18,0,0,1,2.06,6.62A10.64,10.64,0,0,1,269,74.2a19.92,19.92,0,0,1-11.69,3.25,29.84,29.84,0,0,1-9.37-1.51,22.07,22.07,0,0,1-7.74-4.29l3.49-7a20.39,20.39,0,0,0,6.65,3.76,22.29,22.29,0,0,0,7.36,1.35,8.71,8.71,0,0,0,4.45-1,3.13,3.13,0,0,0,1.66-2.9,3.5,3.5,0,0,0-1.93-3.25,34.5,34.5,0,0,0-6.27-2.4,53.09,53.09,0,0,1-6.81-2.44,12.38,12.38,0,0,1-4.57-3.64,10,10,0,0,1-1.94-6.38q0-6.12,4.45-9.33a18.63,18.63,0,0,1,11.19-3.22A28.42,28.42,0,0,1,266,36.37a24.6,24.6,0,0,1,7.08,3.25l-3.6,7.21A30,30,0,0,0,263.23,44.05Z"/><path class="cls-1" d="M306.5,74.5a19.62,19.62,0,0,1-10.37,3,12.44,12.44,0,0,1-8.75-3.13Q284,71.24,284,65.11V44.67h-5.8l-.08-7.36H284V25.93h10V37.31h11.84v7.36H293.93V63.32A6.07,6.07,0,0,0,295,67.39a4.18,4.18,0,0,0,3.25,1.2,14.36,14.36,0,0,0,5.89-1.71Z"/><path class="cls-1" d="M343.44,37.93a19.11,19.11,0,0,1,7.66,7.39,21.59,21.59,0,0,1,2.75,11,21.85,21.85,0,0,1-2.75,11.07,19,19,0,0,1-7.66,7.43,23.68,23.68,0,0,1-11.35,2.63,24,24,0,0,1-11.45-2.63,18.89,18.89,0,0,1-7.71-7.43,21.94,21.94,0,0,1-2.74-11.07,21.58,21.58,0,0,1,2.74-11,19,19,0,0,1,7.71-7.39,24.07,24.07,0,0,1,11.45-2.63A23.71,23.71,0,0,1,343.44,37.93Zm-19.86,9.45a12.73,12.73,0,0,0-3.25,9,12.73,12.73,0,0,0,3.25,9.12,12,12,0,0,0,16.92,0,12.78,12.78,0,0,0,3.25-9.06,12.73,12.73,0,0,0-3.25-9A11,11,0,0,0,332.13,44a11.09,11.09,0,0,0-8.55,3.43Z"/><path class="cls-1" d="M427.93,39.5q4,4.29,4,11.65V77H421.82V54.11a9.5,9.5,0,0,0-2.44-6.93,8.86,8.86,0,0,0-6.62-2.51,10,10,0,0,0-7.63,3.48,12.57,12.57,0,0,0-2.82,8.44V77H392.17V54.11a9.65,9.65,0,0,0-2.4-6.93,8.68,8.68,0,0,0-6.58-2.51,10,10,0,0,0-7.69,3.48,12.57,12.57,0,0,0-2.82,8.44V77H362.59V35.61h10.07v7.66q4.09-7.89,14.55-8.05a15.39,15.39,0,0,1,9.1,2.6,13.54,13.54,0,0,1,5.19,7.31q3.94-9.75,15.4-9.91Q423.91,35.22,427.93,39.5Z"/><path class="cls-1" d="M467.65,77V72a13.63,13.63,0,0,1-5.58,4.11,20.47,20.47,0,0,1-7.82,1.36,16.59,16.59,0,0,1-7.62-1.66,12.14,12.14,0,0,1-5.07-4.61,12.38,12.38,0,0,1-1.78-6.58,11,11,0,0,1,4.1-9.1q4.11-3.28,11.61-3.36h12.08v-1.1a7,7,0,0,0-2.4-5.65q-2.4-2-7-2a24,24,0,0,0-12.31,3.87l-3.63-7a46.36,46.36,0,0,1,8.86-3.91,32.7,32.7,0,0,1,9.33-1.2q8,0,12.5,3.87t4.58,10.86l.08,27.1Zm-3.56-9.33a7.17,7.17,0,0,0,3.48-5.07V58.91H457.12a11.42,11.42,0,0,0-5.92,1.2A4.27,4.27,0,0,0,449.3,64a5,5,0,0,0,2,4.18,8.53,8.53,0,0,0,5.38,1.55A13.12,13.12,0,0,0,464.09,67.7Z"/><path class="cls-2" d="M109.72,54.86A54.87,54.87,0,1,1,54.86,0V54.86Z"/><circle class="cls-3" cx="54.86" cy="54.86" r="35.66"/><path class="cls-2" d="M48.28,48.34c0,4-3,7.26-6.59,7.26s-6.58-3.25-6.58-7.26,3-7.26,6.58-7.26S48.28,44.33,48.28,48.34Z"/><path class="cls-2" d="M74.61,48.34c0,4-3,7.26-6.58,7.26s-6.59-3.25-6.59-7.26,3-7.26,6.59-7.26S74.61,44.33,74.61,48.34Z"/><path class="cls-2" d="M67.66,62a2.55,2.55,0,0,1,.86,3.85A16.82,16.82,0,0,1,60,71.23a17,17,0,0,1-10.11-.43A2.55,2.55,0,0,1,48.67,67h0a3.71,3.71,0,0,1,4.19-1.42,11,11,0,0,0,10.45-2.78A3.72,3.72,0,0,1,67.66,62Z"/></g></g></svg>