<svg xmlns="http://www.w3.org/2000/svg" viewBox="0 0 300 300"><defs><style>.cls-1{fill:#161616;}.cls-2{fill:#d81b60;}</style></defs><title>Asset 1</title><g id="Layer_2" data-name="Layer 2"><g id="Layer_1-2" data-name="Layer 1"><path class="cls-1" d="M300,150A150,150,0,1,1,150,0V150Z"/><circle class="cls-2" cx="150" cy="150" r="97.5"/><path class="cls-1" d="M132,132.17c0,11-8.06,19.85-18,19.85s-18-8.89-18-19.85,8.06-19.85,18-19.85S132,121.21,132,132.17Z"/><path class="cls-1" d="M204,132.17c0,11-8.06,19.85-18,19.85s-18-8.89-18-19.85,8.06-19.85,18-19.85S204,121.21,204,132.17Z"/><path class="cls-1" d="M185,169.48c3.86,2.21,5.24,7.16,2.37,10.55a46.41,46.41,0,0,1-51,13.56c-4.18-1.51-5.5-6.48-3.26-10.31h0c2.22-3.81,7.14-5,11.45-3.89a30.16,30.16,0,0,0,28.58-7.6c3.16-3.09,8-4.51,11.87-2.31Z"/></g></g></svg>