<svg xmlns="http://www.w3.org/2000/svg" viewBox="0 0 341.14 180.86"><defs><style>.cls-1{fill:#161616;}.cls-2{fill:#d81b60;}.cls-3{fill:#231f20;}</style></defs><title>Asset 1</title><g id="Layer_2" data-name="Layer 2"><g id="Layer_1-2" data-name="Layer 1"><path class="cls-1" d="M226.76,54.86A54.87,54.87,0,1,1,171.9,0V54.86Z"/><circle class="cls-2" cx="171.9" cy="54.86" r="35.66"/><path class="cls-1" d="M165.32,48.34c0,4-2.95,7.26-6.58,7.26s-6.59-3.25-6.59-7.26,2.95-7.26,6.59-7.26S165.32,44.33,165.32,48.34Z"/><path class="cls-1" d="M191.65,48.34c0,4-3,7.26-6.58,7.26s-6.59-3.25-6.59-7.26,3-7.26,6.59-7.26S191.65,44.33,191.65,48.34Z"/><path class="cls-1" d="M184.7,62a2.55,2.55,0,0,1,.86,3.85A16.82,16.82,0,0,1,177,71.23a17,17,0,0,1-10.11-.43,2.56,2.56,0,0,1-1.2-3.77h0a3.72,3.72,0,0,1,4.19-1.42,11,11,0,0,0,10.45-2.78A3.72,3.72,0,0,1,184.7,62Z"/><path class="cls-3" d="M36.73,136.37a18.37,18.37,0,0,0-17.14.54A17.52,17.52,0,0,0,13,143.5,19,19,0,0,0,13,162a17.95,17.95,0,0,0,15.79,9.1,19.35,19.35,0,0,0,7.78-1.7,22.23,22.23,0,0,0,6.93-4.73l6.12,6.83a31.88,31.88,0,0,1-9.91,6.85,27.75,27.75,0,0,1-11.45,2.51,28.29,28.29,0,0,1-14.32-3.71,27.22,27.22,0,0,1-10.22-10.1A27.61,27.61,0,0,1,0,152.94a27,27,0,0,1,3.79-14.09,27.28,27.28,0,0,1,10.34-10A30,30,0,0,1,40,127.5a28,28,0,0,1,9.53,6.43l-6,7.59A20.34,20.34,0,0,0,36.73,136.37Z"/><path class="cls-3" d="M96,138.69v41.42H85.85V172.5q-4.17,8-14.39,8.05-7,0-11-4.26t-4-11.61v-26H66.58v23a9.5,9.5,0,0,0,2.36,6.81A8.58,8.58,0,0,0,75.48,171a9.62,9.62,0,0,0,7.59-3.41,12.71,12.71,0,0,0,2.78-8.44V138.69Z"/><path class="cls-3" d="M126.84,147.13a19.87,19.87,0,0,0-5.92-1,7.85,7.85,0,0,0-4.06.9,3,3,0,0,0-1.51,2.74,3.24,3.24,0,0,0,1.9,3,30,30,0,0,0,6,2.21,59.31,59.31,0,0,1,7.12,2.59,13.51,13.51,0,0,1,4.84,3.8,10.16,10.16,0,0,1,2,6.62,10.64,10.64,0,0,1-4.65,9.29,19.91,19.91,0,0,1-11.64,3.22,29.78,29.78,0,0,1-9.36-1.51,22.21,22.21,0,0,1-7.75-4.3l3.49-7a20.31,20.31,0,0,0,6.7,3.71,22.5,22.5,0,0,0,7.35,1.36,8.81,8.81,0,0,0,4.45-1,3.15,3.15,0,0,0,1.67-2.91,3.5,3.5,0,0,0-1.94-3.25,34.5,34.5,0,0,0-6.27-2.4,51.62,51.62,0,0,1-6.81-2.44,12.25,12.25,0,0,1-4.57-3.63,10,10,0,0,1-1.94-6.39q0-6.12,4.46-9.33a18.62,18.62,0,0,1,11.18-3.21,28.77,28.77,0,0,1,8.09,1.16,25.33,25.33,0,0,1,7.09,3.25l-3.64,7.28A29.3,29.3,0,0,0,126.84,147.13Z"/><path class="cls-3" d="M170.08,177.56a19.62,19.62,0,0,1-10.37,3,12.4,12.4,0,0,1-8.75-3.13q-3.41-3.13-3.41-9.25V147.75h-5.8l-.08-7.35h5.88V129h10V140.4h11.84v7.35H157.54v18.66a6,6,0,0,0,1.08,4.06,4.2,4.2,0,0,0,3.26,1.2,14.46,14.46,0,0,0,5.88-1.7Z"/><path class="cls-3" d="M207.05,141a19,19,0,0,1,7.66,7.39,21.37,21.37,0,0,1,2.75,11,21.85,21.85,0,0,1-2.75,11.07,19,19,0,0,1-7.66,7.43,23.49,23.49,0,0,1-11.34,2.59,24,24,0,0,1-11.46-2.64,18.89,18.89,0,0,1-7.71-7.43,21.94,21.94,0,0,1-2.74-11.07,21.48,21.48,0,0,1,2.74-11,19,19,0,0,1,7.71-7.39,24,24,0,0,1,11.46-2.64A23.64,23.64,0,0,1,207.05,141Zm-19.86,9.48a14.25,14.25,0,0,0,0,18.11,11.12,11.12,0,0,0,8.52,3.49,10.92,10.92,0,0,0,8.36-3.49,14.25,14.25,0,0,0,0-18.11,11,11,0,0,0-8.36-3.48A11.17,11.17,0,0,0,187.19,150.5Z"/><path class="cls-3" d="M291.54,142.6q4,4.31,4,11.65v25.86H285.43V157.19a9.48,9.48,0,0,0-2.44-6.92,8.77,8.77,0,0,0-6.62-2.52,9.92,9.92,0,0,0-7.62,3.48,12.57,12.57,0,0,0-2.83,8.44v20.44H255.78V157.19a9.6,9.6,0,0,0-2.4-6.92,8.63,8.63,0,0,0-6.58-2.52,10,10,0,0,0-7.7,3.48,12.57,12.57,0,0,0-2.83,8.44v20.44H226.21V138.69h10.06v7.67q4.09-7.91,14.55-8.05a15.39,15.39,0,0,1,9.1,2.59,13.59,13.59,0,0,1,5.15,7.31q3.94-9.75,15.4-9.9Q287.52,138.31,291.54,142.6Z"/><path class="cls-3" d="M331.26,180.11v-5a13.46,13.46,0,0,1-5.58,4.1,20.45,20.45,0,0,1-7.81,1.39,16.65,16.65,0,0,1-7.63-1.66,12.26,12.26,0,0,1-5.07-4.61,12.47,12.47,0,0,1-1.78-6.58,11,11,0,0,1,4.1-9.09q4.11-3.3,11.61-3.37h12.08v-1.08a7,7,0,0,0-2.4-5.66q-2.4-2-7-2a24,24,0,0,0-12.31,3.87l-3.63-7a45.7,45.7,0,0,1,8.86-3.9,32.7,32.7,0,0,1,9.33-1.2q8.07,0,12.5,3.87T341.06,153l.08,27.1Zm-3.56-9.33a7.14,7.14,0,0,0,3.48-5.07V162H320.73a11.46,11.46,0,0,0-5.92,1.2,4.29,4.29,0,0,0-1.9,3.91,5,5,0,0,0,2,4.18,8.5,8.5,0,0,0,5.39,1.55A13.16,13.16,0,0,0,327.7,170.78Z"/></g></g></svg>