<svg width="145" height="145" viewBox="0 0 145 145" fill="none" xmlns="http://www.w3.org/2000/svg">
<path fill-rule="evenodd" clip-rule="evenodd" d="M24.1667 126.875C20.8317 126.875 18.125 124.168 18.125 120.833C18.125 64.1081 64.1081 18.125 120.833 18.125C122.434 18.125 123.975 18.7594 125.105 19.8952C126.241 21.025 126.875 22.5656 126.875 24.1667V45.3125C126.875 48.6475 124.168 51.3542 120.833 51.3542C113.342 51.3542 106.031 52.5625 99.2646 54.7979C97.15 55.4625 94.7937 54.9792 93.1021 53.2875L79.8104 39.9958C62.7125 48.6958 48.7562 62.7125 39.9958 79.8104L53.2875 93.1625C54.9792 94.7937 55.4625 97.15 54.7979 99.2646C52.5625 106.031 51.3542 113.342 51.3542 120.833C51.3542 124.168 48.6475 126.875 45.3125 126.875H24.1667Z" fill="#474747"/>
<path d="M102.713 111.256L115.528 124.077L124.077 115.528L111.256 102.713L124.077 89.8991L115.528 81.3501L102.713 94.1705L89.8989 81.3501L81.35 89.8991L94.1704 102.713L81.35 115.528L89.8989 124.077L102.713 111.256Z" fill="#F04747"/>
</svg>
