<svg width="145" height="145" viewBox="0 0 145 145" fill="none" xmlns="http://www.w3.org/2000/svg">
<path fill-rule="evenodd" clip-rule="evenodd" d="M72.5 18.125C82.511 18.125 90.625 26.239 90.625 36.25V72.5C90.625 82.511 82.511 90.625 72.5 90.625C62.4889 90.625 54.375 82.511 54.375 72.5V36.25C54.375 26.239 62.4889 18.125 72.5 18.125ZM114.792 72.5C114.792 93.8271 99.0229 111.408 78.5417 114.369V132.917H66.4583V114.369C45.9771 111.408 30.2083 93.8271 30.2083 72.5H42.2916C42.2916 89.181 55.8189 102.708 72.5 102.708C89.181 102.708 102.708 89.181 102.708 72.5H114.792Z" fill="#474747"/>
</svg>
