<svg width="145" height="145" viewBox="0 0 145 145" fill="none" xmlns="http://www.w3.org/2000/svg">
<path fill-rule="evenodd" clip-rule="evenodd" d="M114.792 72.5C114.792 79.6896 112.738 86.3958 109.354 92.3167L101.923 84.8854C103.554 81.1396 104.521 76.9708 104.521 72.5H114.792ZM90.625 73.4667L54.375 37.3375V36.25C54.375 26.239 62.489 18.125 72.5 18.125C82.5111 18.125 90.625 26.239 90.625 36.25V72.5V73.4667ZM93.8875 107.602C89.2355 110.381 84.0396 112.254 78.5417 113.1V132.917H66.4584V113.1C46.6417 110.14 30.2084 93.1021 30.2084 72.5H40.4792C40.4792 90.625 55.825 103.313 72.5 103.313C77.3938 103.313 82.1667 102.165 86.4563 100.171L76.4271 90.1417L72.5 90.625C62.489 90.625 54.375 82.511 54.375 72.5V68.15L93.8875 107.602Z" fill="#474747"/>
<path fill-rule="evenodd" clip-rule="evenodd" d="M25.7979 24.1667L126.875 125.244L119.202 132.917L18.125 31.8397L25.7979 24.1667Z" fill="#F04747"/>
</svg>
