<svg width="145" height="145" viewBox="0 0 145 145" fill="none" xmlns="http://www.w3.org/2000/svg">
<path fill-rule="evenodd" clip-rule="evenodd" d="M21.5687 47.3666C19.3333 53.2874 18.125 59.752 18.125 66.4583V114.792C18.125 124.803 30.2083 126.875 30.2083 126.875H54.375V80.1728L90.625 116.423V126.875H101.077L116.181 141.979L21.5687 47.3666ZM72.5 12.0833C57.2146 12.0833 43.3792 18.3666 33.5313 28.5166L42.05 37.0958C49.7229 29.1208 60.4167 24.1666 72.5 24.1666C95.8571 24.1666 114.792 43.1012 114.792 66.4583V78.5416H90.625V85.6708L123.854 118.84C125.727 115.94 126.875 112.496 126.875 108.75V66.4583C126.875 36.4251 102.533 12.0833 72.5 12.0833ZM30.2083 78.5416V66.4583C30.2083 63.1958 30.5708 60.0541 31.2354 57.0333L52.7437 78.5416H30.2083Z" fill="#474747"/>
<path fill-rule="evenodd" clip-rule="evenodd" d="M113.16 141.979L120.833 134.246L13.775 27.1875L6.04163 34.8604L113.16 141.979Z" fill="#F04747"/>
</svg>
