<svg xmlns="http://www.w3.org/2000/svg" xmlns:xlink="http://www.w3.org/1999/xlink" viewBox="0 0 1816.34 1688.39"><defs><style>.cls-1,.cls-20,.cls-22,.cls-24,.cls-5{fill:none;}.cls-18,.cls-2,.cls-32{fill:#161616;}.cls-19,.cls-3{fill:#d81b60;}.cls-4{fill:#231f20;}.cls-20,.cls-22,.cls-29,.cls-5{stroke:#171717;}.cls-20,.cls-22,.cls-24,.cls-29,.cls-30,.cls-31,.cls-32,.cls-37,.cls-5{stroke-miterlimit:10;}.cls-5{stroke-width:5px;}.cls-48,.cls-6{font-size:26px;}.cls-15,.cls-26,.cls-41,.cls-43,.cls-46,.cls-6{font-family:Montserrat-Medium, Montserrat;font-weight:500;}.cls-7{letter-spacing:0.01em;}.cls-8{letter-spacing:1.14em;}.cls-9{letter-spacing:-0.02em;}.cls-10{letter-spacing:-0.06em;}.cls-11{letter-spacing:0.05em;}.cls-12{letter-spacing:0em;}.cls-13{letter-spacing:0.25em;}.cls-14{letter-spacing:-0.01em;}.cls-15,.cls-26{font-size:49px;}.cls-15,.cls-27{letter-spacing:0.37em;}.cls-16{letter-spacing:0.34em;}.cls-17,.cls-26{letter-spacing:0.36em;}.cls-18,.cls-19,.cls-21{opacity:0.1;}.cls-20,.cls-24{stroke-linecap:round;stroke-width:6px;}.cls-22{stroke-width:4px;stroke-dasharray:17;}.cls-23,.cls-29,.cls-37{fill:#171717;}.cls-24{stroke:#d81b61;}.cls-25{fill:#d81b61;}.cls-28{letter-spacing:0.34em;}.cls-30,.cls-36{fill:#212120;}.cls-30{stroke:#212120;}.cls-31{fill:#d71a61;stroke:#d71a61;}.cls-32,.cls-37{stroke:#fff;stroke-width:2px;}.cls-33{fill:#d71a62;}.cls-34{fill:#d71a60;}.cls-35{fill:url(#linear-gradient);}.cls-38{fill:#3a3a3a;}.cls-39{fill:#181818;}.cls-40{fill:#d71a63;}.cls-41{font-size:48px;}.cls-42{letter-spacing:-0.06em;}.cls-43{font-size:73px;}.cls-44{letter-spacing:0em;}.cls-45{letter-spacing:0em;}.cls-46{font-size:78px;}.cls-47{letter-spacing:0em;}.cls-49{fill:#d81a61;}</style><linearGradient id="linear-gradient" x1="1405.39" y1="872.07" x2="1383.46" y2="943.8" gradientTransform="matrix(1, 0, 0, -1, 0, 2464)" gradientUnits="userSpaceOnUse"><stop offset="0" stop-color="#121642" stop-opacity="0.4"/><stop offset="0.48" stop-color="#20265d" stop-opacity="0.17"/><stop offset="1" stop-color="#273071" stop-opacity="0"/></linearGradient></defs><title>Customa-Design Spreadsheet</title><g id="Layer_2" data-name="Layer 2"><g id="Layer_1-2" data-name="Layer 1"><rect id="Background" class="cls-1" width="1816.34" height="1688.39"/><g id="Middle"><g id="Other_Usecases" data-name="Other Usecases"><g id="Usecase_2" data-name="Usecase 2"><g id="Logo_Loading" data-name="Logo Loading"><path class="cls-2" d="M932.17,1485.7A69.62,69.62,0,1,1,880,1569.19l67.83-15.65Z"/><circle class="cls-3" cx="948.72" cy="1553.54" r="45.25"/><path class="cls-2" d="M940.37,1545.26c0,5.09-3.74,9.21-8.36,9.21s-8.35-4.12-8.35-9.21,3.74-9.21,8.35-9.21S940.37,1540.17,940.37,1545.26Z"/><path class="cls-2" d="M973.78,1545.26c0,5.09-3.74,9.21-8.35,9.21s-8.35-4.12-8.35-9.21,3.74-9.21,8.35-9.21S973.78,1540.17,973.78,1545.26Z"/><path class="cls-2" d="M965,1562.58a3.23,3.23,0,0,1,1.09,4.89,21.5,21.5,0,0,1-23.67,6.29,3.24,3.24,0,0,1-1.51-4.78h0a4.71,4.71,0,0,1,5.31-1.81,14,14,0,0,0,13.27-3.52,4.69,4.69,0,0,1,5.51-1.07Z"/></g><g id="Loading_Icon" data-name="Loading Icon"><g id="Explanation"><path class="cls-4" d="M589,1568.56a15.52,15.52,0,0,0,0,8.28,13.62,13.62,0,0,0,1.56,3.56h-2.1a11.68,11.68,0,0,1-1.62-3.51,16.09,16.09,0,0,1,0-8.38,11.68,11.68,0,0,1,1.62-3.51h2.1A13.77,13.77,0,0,0,589,1568.56Z"/><path class="cls-4" d="M590.8,1568.7h2.38l2.33,7.19,2.26-7.19h2.32l2.3,7.19,2.28-7.19H607l-3.45,9.52h-2.36l-2.28-6.71-2.25,6.71h-2.37Z"/><path class="cls-4" d="M610.43,1565a1.5,1.5,0,0,1,0,2,1.26,1.26,0,0,1-.95.39,1.24,1.24,0,0,1-.94-.39,1.5,1.5,0,0,1,0-2,1.23,1.23,0,0,1,.94-.4A1.25,1.25,0,0,1,610.43,1565Zm-2.08,3.69h2.31v9.52h-2.31Z"/><path class="cls-4" d="M619.09,1577.61a4.49,4.49,0,0,1-2.39.69,2.84,2.84,0,0,1-2-.72,2.73,2.73,0,0,1-.78-2.12v-4.7h-1.33v-1.69h1.35v-2.61h2.29v2.61H619v1.69H616.2v4.29a1.4,1.4,0,0,0,.25.93,1,1,0,0,0,.75.28,3.23,3.23,0,0,0,1.35-.39Z"/><path class="cls-4" d="M629.31,1569.58a3.71,3.71,0,0,1,.94,2.68v5.94h-2.33v-5.27a2.17,2.17,0,0,0-.57-1.57,2,2,0,0,0-1.54-.58,2.38,2.38,0,0,0-1.84.78,2.86,2.86,0,0,0-.67,2v4.68H621V1565h2.31v5.5a3.6,3.6,0,0,1,3.43-1.91A3.38,3.38,0,0,1,629.31,1569.58Z"/><path class="cls-4" d="M640.82,1569.1a4,4,0,0,1,1.93-.51v2.24a3.13,3.13,0,0,0-2.35.69,2.64,2.64,0,0,0-.88,2.09v4.59H637.2v-9.52h2.32v1.83A3.46,3.46,0,0,1,640.82,1569.1Z"/><path class="cls-4" d="M651.13,1569.22a4.24,4.24,0,0,1,1.76,1.7,4.79,4.79,0,0,1,.64,2.51,4.9,4.9,0,0,1-.64,2.54,4.33,4.33,0,0,1-1.76,1.71,5.35,5.35,0,0,1-2.6.61,5.47,5.47,0,0,1-2.63-.61,4.29,4.29,0,0,1-1.77-1.71,5,5,0,0,1-.63-2.54,4.91,4.91,0,0,1,.63-2.51,4.26,4.26,0,0,1,1.77-1.7,5.47,5.47,0,0,1,2.63-.61A5.35,5.35,0,0,1,651.13,1569.22Zm-4.56,2.17a3,3,0,0,0-.74,2.08,3,3,0,0,0,.74,2.08,2.56,2.56,0,0,0,2,.8,2.53,2.53,0,0,0,1.92-.8,3.26,3.26,0,0,0,0-4.16,2.48,2.48,0,0,0-1.92-.8A2.55,2.55,0,0,0,646.57,1571.39Z"/><path class="cls-4" d="M661.1,1577.61a4.46,4.46,0,0,1-2.38.69,2.84,2.84,0,0,1-2-.72,2.73,2.73,0,0,1-.78-2.12v-4.7H654.6v-1.69H656v-2.61h2.29v2.61H661v1.69h-2.72v4.29a1.4,1.4,0,0,0,.25.93.91.91,0,0,0,.75.28,3.39,3.39,0,0,0,1.35-.39Z"/><path class="cls-4" d="M668.53,1578.2V1577a3,3,0,0,1-1.28.94,4.58,4.58,0,0,1-1.79.32,3.64,3.64,0,0,1-1.75-.38,2.73,2.73,0,0,1-1.17-1.06,2.88,2.88,0,0,1-.41-1.51,2.58,2.58,0,0,1,.94-2.09,4.24,4.24,0,0,1,2.67-.77h2.77v-.25a1.57,1.57,0,0,0-.55-1.3,2.41,2.41,0,0,0-1.6-.46,5.46,5.46,0,0,0-2.82.89l-.84-1.6a10.28,10.28,0,0,1,2-.9,7.4,7.4,0,0,1,2.14-.28,4.26,4.26,0,0,1,2.87.89,3.19,3.19,0,0,1,1,2.49v6.23Zm-.82-2.15a1.59,1.59,0,0,0,.8-1.16V1574h-2.4a2.66,2.66,0,0,0-1.36.27,1,1,0,0,0-.43.9,1.15,1.15,0,0,0,.45,1,2,2,0,0,0,1.24.35,3,3,0,0,0,1.7-.47Z"/><path class="cls-4" d="M679,1577.61a4.46,4.46,0,0,1-2.38.69,2.84,2.84,0,0,1-2-.72,2.73,2.73,0,0,1-.78-2.12v-4.7H672.5v-1.69h1.35v-2.61h2.29v2.61h2.72v1.69h-2.72v4.29a1.4,1.4,0,0,0,.25.93.91.91,0,0,0,.75.28,3.39,3.39,0,0,0,1.35-.39Z"/><path class="cls-4" d="M682.86,1565a1.48,1.48,0,0,1,0,2,1.33,1.33,0,0,1-1.88,0,1.5,1.5,0,0,1,0-2,1.23,1.23,0,0,1,.94-.4A1.2,1.2,0,0,1,682.86,1565Zm-2.08,3.69h2.32v9.52h-2.32Z"/><path class="cls-4" d="M694.26,1569.58a3.71,3.71,0,0,1,.94,2.68v5.94h-2.32v-5.27a2.21,2.21,0,0,0-.57-1.57,2.08,2.08,0,0,0-1.55-.58,2.34,2.34,0,0,0-1.82.78,2.86,2.86,0,0,0-.67,2v4.68H686v-9.52h2.31v1.78a3.64,3.64,0,0,1,3.41-1.87A3.38,3.38,0,0,1,694.26,1569.58Z"/><path class="cls-4" d="M706.49,1568.68v8.61a4.43,4.43,0,0,1-.61,2.36,4,4,0,0,1-1.74,1.54,6.07,6.07,0,0,1-2.62.54,7,7,0,0,1-4-1.26l.92-1.67a4.92,4.92,0,0,0,3,1,3,3,0,0,0,2-.66,2.28,2.28,0,0,0,.75-1.8v-1.12a3,3,0,0,1-1.24,1.11,3.89,3.89,0,0,1-1.78.39,4.26,4.26,0,0,1-2.2-.58,4,4,0,0,1-1.5-1.62,5.19,5.19,0,0,1-.53-2.39,5.07,5.07,0,0,1,.53-2.36,4,4,0,0,1,1.5-1.59,4.25,4.25,0,0,1,2.2-.57,3.88,3.88,0,0,1,1.77.39,3.19,3.19,0,0,1,1.25,1.11v-1.43Zm-3,6.47a3.12,3.12,0,0,0,0-3.93,2.55,2.55,0,0,0-3.61,0l0,0a3,3,0,0,0,0,3.92,2.58,2.58,0,0,0,3.64,0Z"/><path class="cls-4" d="M720.34,1569.22a4.36,4.36,0,0,1,1.76,1.7,4.91,4.91,0,0,1,.63,2.51,5,5,0,0,1-.63,2.54,4.33,4.33,0,0,1-1.76,1.71,5.51,5.51,0,0,1-2.61.61,5.59,5.59,0,0,1-2.63-.61,4.29,4.29,0,0,1-1.77-1.71,5,5,0,0,1-.63-2.54,4.91,4.91,0,0,1,.63-2.51,4.26,4.26,0,0,1,1.77-1.7,5.47,5.47,0,0,1,2.63-.61A5.37,5.37,0,0,1,720.34,1569.22Zm-4.56,2.17a3.26,3.26,0,0,0,0,4.16,2.73,2.73,0,0,0,3.87,0,3.26,3.26,0,0,0,0-4.16A2.73,2.73,0,0,0,715.78,1571.39Z"/><path class="cls-4" d="M733.52,1568.68v9.52h-2.33v-1.76a3.41,3.41,0,0,1-3.31,1.85,3.32,3.32,0,0,1-2.52-1,3.72,3.72,0,0,1-.93-2.67v-6h2.33V1574a2.15,2.15,0,0,0,.55,1.57,2,2,0,0,0,1.5.57,2.19,2.19,0,0,0,1.74-.78,2.91,2.91,0,0,0,.64-1.94v-4.7Z"/><path class="cls-4" d="M742,1577.61a4.49,4.49,0,0,1-2.39.69,2.84,2.84,0,0,1-2-.72,2.7,2.7,0,0,1-.79-2.12v-4.7h-1.33v-1.69h1.35v-2.61h2.3v2.61h2.72v1.69h-2.72v4.29a1.4,1.4,0,0,0,.25.93.92.92,0,0,0,.74.28,3.23,3.23,0,0,0,1.35-.39Z"/><path class="cls-4" d="M751.08,1569.91a5.34,5.34,0,0,1,1.15,3.65v.69h-7a2.78,2.78,0,0,0,1,1.59,2.7,2.7,0,0,0,1.77.58,3.6,3.6,0,0,0,2.56-1.07l1.24,1.3a4.88,4.88,0,0,1-1.73,1.21,6.06,6.06,0,0,1-2.27.43,5.24,5.24,0,0,1-2.57-.61,4.26,4.26,0,0,1-1.72-1.7,5.57,5.57,0,0,1,0-5,4.29,4.29,0,0,1,1.72-1.71,5,5,0,0,1,2.51-.62A4.34,4.34,0,0,1,751.08,1569.91Zm-1,2.79a2.28,2.28,0,0,0-.69-1.67,2.71,2.71,0,0,0-3.44,0,2.73,2.73,0,0,0-.85,1.68Z"/><path class="cls-4" d="M757.84,1569.1a4,4,0,0,1,1.93-.51v2.24a3.14,3.14,0,0,0-2.36.69,2.64,2.64,0,0,0-.88,2.09v4.59h-2.31v-9.52h2.31v1.83A3.56,3.56,0,0,1,757.84,1569.1Z"/><path class="cls-4" d="M769.79,1570.64a2.41,2.41,0,0,0-1.87.78,3.22,3.22,0,0,0,0,4.06,2.41,2.41,0,0,0,1.87.78,3,3,0,0,0,2.56-1.12l1.44,1.2a4.28,4.28,0,0,1-1.68,1.42,5.71,5.71,0,0,1-2.44.5,5.19,5.19,0,0,1-2.5-.61,4.22,4.22,0,0,1-1.7-1.7,5.59,5.59,0,0,1,0-5.06,4.3,4.3,0,0,1,1.71-1.7,5,5,0,0,1,2.52-.61,5.59,5.59,0,0,1,2.32.46,4.25,4.25,0,0,1,1.66,1.28l-1.41,1.34A3.21,3.21,0,0,0,769.79,1570.64Z"/><path class="cls-4" d="M777.85,1565a1.5,1.5,0,0,1,0,2,1.24,1.24,0,0,1-.94.39,1.26,1.26,0,0,1-.95-.39,1.5,1.5,0,0,1,0-2,1.25,1.25,0,0,1,.95-.4A1.23,1.23,0,0,1,777.85,1565Zm-2.08,3.69h2.31v9.52h-2.31Z"/><path class="cls-4" d="M784.56,1569.1a4,4,0,0,1,1.93-.51v2.24a3.14,3.14,0,0,0-2.36.69,2.68,2.68,0,0,0-.88,2.09v4.59h-2.31v-9.52h2.31v1.83A3.56,3.56,0,0,1,784.56,1569.1Z"/><path class="cls-4" d="M792.16,1570.64a2.41,2.41,0,0,0-1.87.78,3.22,3.22,0,0,0,0,4.06,2.41,2.41,0,0,0,1.87.78,3,3,0,0,0,2.56-1.12l1.44,1.2a4.15,4.15,0,0,1-1.69,1.42,5.49,5.49,0,0,1-2.43.5,5.19,5.19,0,0,1-2.5-.61,4.22,4.22,0,0,1-1.7-1.7,5.59,5.59,0,0,1,0-5.06,4.3,4.3,0,0,1,1.71-1.7,5,5,0,0,1,2.51-.61,5.44,5.44,0,0,1,2.32.46,4.28,4.28,0,0,1,1.67,1.28l-1.41,1.34A3.21,3.21,0,0,0,792.16,1570.64Z"/><path class="cls-4" d="M798.22,1565h2.32v13.2h-2.32Z"/><path class="cls-4" d="M810.89,1569.91a5.34,5.34,0,0,1,1.15,3.65v.69h-7a2.65,2.65,0,0,0,2.72,2.17,3.54,3.54,0,0,0,1.4-.28,3.42,3.42,0,0,0,1.16-.79l1.24,1.3a4.88,4.88,0,0,1-1.73,1.21,5.87,5.87,0,0,1-2.27.43,5.2,5.2,0,0,1-2.56-.61,4.14,4.14,0,0,1-1.72-1.7,5.45,5.45,0,0,1,0-5,4.39,4.39,0,0,1,1.71-1.71,5.1,5.1,0,0,1,2.51-.62A4.29,4.29,0,0,1,810.89,1569.91Zm-1,2.79a2.28,2.28,0,0,0-.69-1.67,2.57,2.57,0,0,0-4.28,1.68Z"/><path class="cls-4" d="M814.9,1565a11.46,11.46,0,0,1,1.63,3.51,16.09,16.09,0,0,1,0,8.38,11.46,11.46,0,0,1-1.63,3.51h-2.1a12.86,12.86,0,0,0,1.56-3.56,15.52,15.52,0,0,0,0-8.28,13.16,13.16,0,0,0-1.56-3.56Z"/></g><g id="Loading_Icon-2" data-name="Loading Icon"><path class="cls-4" d="M590.42,1532h4.76v20.59h10.74v4.3h-15.5Z"/><path class="cls-4" d="M623,1538.9a8.86,8.86,0,0,1,3.52,3.4,9.84,9.84,0,0,1,1.26,5,10,10,0,0,1-1.26,5.08,8.78,8.78,0,0,1-3.52,3.42,11,11,0,0,1-5.21,1.21,11.2,11.2,0,0,1-5.27-1.21,8.8,8.8,0,0,1-3.53-3.42,10.64,10.64,0,0,1,0-10.08,8.69,8.69,0,0,1,3.53-3.4,11,11,0,0,1,5.27-1.21A10.85,10.85,0,0,1,623,1538.9Zm-9.13,4.34a6.54,6.54,0,0,0,0,8.32,5.08,5.08,0,0,0,3.92,1.6,5,5,0,0,0,3.84-1.6,6.54,6.54,0,0,0,0-8.32,5,5,0,0,0-3.84-1.6,5.11,5.11,0,0,0-3.91,1.6Z"/><path class="cls-4" d="M643.05,1556.86v-2.31a6.19,6.19,0,0,1-2.56,1.88,9.44,9.44,0,0,1-3.6.64,7.57,7.57,0,0,1-3.5-.76,5.67,5.67,0,0,1-2.33-2.12,5.76,5.76,0,0,1-.82-3,5.07,5.07,0,0,1,1.89-4.18,8.45,8.45,0,0,1,5.33-1.55H643V1545a3.22,3.22,0,0,0-1.1-2.6,4.87,4.87,0,0,0-3.2-.92,11.07,11.07,0,0,0-5.66,1.77l-1.67-3.2a20.8,20.8,0,0,1,4.07-1.79,14.82,14.82,0,0,1,4.29-.55,8.47,8.47,0,0,1,5.74,1.77,6.36,6.36,0,0,1,2.08,5v12.45Zm-1.64-4.29a3.23,3.23,0,0,0,1.6-2.32v-1.71h-4.8a5.13,5.13,0,0,0-2.72.55,2,2,0,0,0-.87,1.79,2.34,2.34,0,0,0,.9,1.93,4.06,4.06,0,0,0,2.48.71A6,6,0,0,0,641.41,1552.57Z"/><path class="cls-4" d="M671.14,1530.47v26.39h-4.62v-3.06a7.06,7.06,0,0,1-2.65,2.44,8.17,8.17,0,0,1-3.76.83,9.16,9.16,0,0,1-4.74-1.22,8.36,8.36,0,0,1-3.19-3.45,11,11,0,0,1-1.13-5.11,10.83,10.83,0,0,1,1.12-5,8.13,8.13,0,0,1,3.16-3.39,9,9,0,0,1,4.68-1.21,8.07,8.07,0,0,1,3.8.85,7.42,7.42,0,0,1,2.71,2.45V1530.5ZM665,1551.58a6.5,6.5,0,0,0,0-8.36,5.47,5.47,0,0,0-7.74,0l0,0a6.5,6.5,0,0,0,0,8.36,5.47,5.47,0,0,0,7.74,0Z"/><path class="cls-4" d="M681.24,1530.44a2.75,2.75,0,0,1,.75,2,2.71,2.71,0,0,1-.75,2,2.64,2.64,0,0,1-3.73,0l0,0a2.71,2.71,0,0,1-.75-2,2.75,2.75,0,0,1,.75-2,2.64,2.64,0,0,1,3.73,0Zm-4.16,7.39h4.62v19h-4.62Z"/><path class="cls-4" d="M704,1539.63a7.45,7.45,0,0,1,1.89,5.35v11.88h-4.66v-10.53a4.28,4.28,0,0,0-1.14-3.14A4.14,4.14,0,0,0,697,1542a4.73,4.73,0,0,0-3.65,1.56,5.77,5.77,0,0,0-1.33,3.92v9.35H687.4v-19H692v3.56c1.3-2.44,3.58-3.69,6.83-3.73A6.74,6.74,0,0,1,704,1539.63Z"/><path class="cls-4" d="M728.5,1537.83v17.22a8.85,8.85,0,0,1-1.23,4.71,8.07,8.07,0,0,1-3.48,3.09,12.19,12.19,0,0,1-5.25,1.09,14.06,14.06,0,0,1-8-2.53l1.85-3.34a9.8,9.8,0,0,0,5.94,2,6,6,0,0,0,4.07-1.32,4.49,4.49,0,0,0,1.52-3.59v-2.24a6.34,6.34,0,0,1-2.49,2.22,7.83,7.83,0,0,1-3.56.77,8.32,8.32,0,0,1-4.41-1.16,7.85,7.85,0,0,1-3-3.23,10.32,10.32,0,0,1-1.06-4.79,10.12,10.12,0,0,1,1.06-4.71,7.85,7.85,0,0,1,3-3.18,8.42,8.42,0,0,1,4.41-1.14,7.73,7.73,0,0,1,3.54.78,6.6,6.6,0,0,1,2.51,2.21v-2.85Zm-6,12.93a6.18,6.18,0,0,0,0-7.86,5.13,5.13,0,0,0-7.25,0l0,0a6.06,6.06,0,0,0,0,7.84,5.15,5.15,0,0,0,7.28,0h0Z"/><path class="cls-4" d="M742.83,1532h4.76v24.89h-4.76Z"/><path class="cls-4" d="M761.64,1541.75a4.87,4.87,0,0,0-3.75,1.56,5.76,5.76,0,0,0-1.44,4,5.84,5.84,0,0,0,1.44,4.13,4.87,4.87,0,0,0,3.75,1.56,6,6,0,0,0,5.12-2.24l2.88,2.39a8.4,8.4,0,0,1-3.38,2.84,11.05,11.05,0,0,1-4.87,1,10.27,10.27,0,0,1-5-1.21,8.62,8.62,0,0,1-3.4-3.4,10.16,10.16,0,0,1-1.21-5,10.38,10.38,0,0,1,1.23-5.09,8.61,8.61,0,0,1,3.41-3.41,10.27,10.27,0,0,1,5-1.21,11.21,11.21,0,0,1,4.64.91,8.35,8.35,0,0,1,3.33,2.58l-2.81,2.66A6.46,6.46,0,0,0,761.64,1541.75Z"/><path class="cls-4" d="M786.45,1538.9a8.86,8.86,0,0,1,3.52,3.4,9.84,9.84,0,0,1,1.26,5,10,10,0,0,1-1.26,5.08,8.78,8.78,0,0,1-3.52,3.42,11,11,0,0,1-5.21,1.21,11.2,11.2,0,0,1-5.27-1.21,8.8,8.8,0,0,1-3.53-3.42,10.64,10.64,0,0,1,0-10.08,8.69,8.69,0,0,1,3.53-3.4,11,11,0,0,1,5.27-1.21A10.85,10.85,0,0,1,786.45,1538.9Zm-9.12,4.34a6.52,6.52,0,0,0,0,8.32,5.07,5.07,0,0,0,3.91,1.6,5,5,0,0,0,3.84-1.6,6.54,6.54,0,0,0,0-8.32,5,5,0,0,0-3.84-1.6A5.07,5.07,0,0,0,777.33,1543.24Z"/><path class="cls-4" d="M811.86,1539.63a7.46,7.46,0,0,1,1.88,5.35v11.88h-4.66v-10.53a4.28,4.28,0,0,0-1.14-3.14,4.13,4.13,0,0,0-3.09-1.16,4.73,4.73,0,0,0-3.65,1.56,5.82,5.82,0,0,0-1.33,3.92v9.35h-4.62v-19h4.62v3.56c1.3-2.44,3.58-3.69,6.83-3.73A6.79,6.79,0,0,1,811.86,1539.63Z"/></g></g></g><g id="Usecase_1" data-name="Usecase 1"><g id="Server_Icon-2" data-name="Server Icon-2"><circle class="cls-5" cx="692.4" cy="1318.35" r="101.69"/><g id="Logo_Normal" data-name="Logo Normal"><path class="cls-2" d="M762,1318.35a69.61,69.61,0,1,1-69.61-69.62v69.62Z"/><circle class="cls-3" cx="692.39" cy="1318.35" r="45.25"/><path class="cls-2" d="M684,1310.08c0,5.08-3.74,9.21-8.35,9.21s-8.36-4.13-8.36-9.21,3.74-9.22,8.36-9.22S684,1305,684,1310.08Z"/><path class="cls-2" d="M717.45,1310.08c0,5.08-3.74,9.21-8.36,9.21s-8.35-4.13-8.35-9.21,3.74-9.22,8.35-9.22S717.45,1305,717.45,1310.08Z"/><path class="cls-2" d="M708.62,1327.39a3.25,3.25,0,0,1,1.1,4.9,21.55,21.55,0,0,1-23.67,6.29,3.24,3.24,0,0,1-1.52-4.78h0a4.71,4.71,0,0,1,5.31-1.81,14,14,0,0,0,13.27-3.53,4.72,4.72,0,0,1,5.51-1.07Z"/></g></g><g id="Discord_Server_Icon" data-name="Discord Server Icon"><path class="cls-4" d="M861,1294.34a11.68,11.68,0,0,1,4.63,4.43,12.54,12.54,0,0,1,1.67,6.44,12.39,12.39,0,0,1-1.69,6.42,11.78,11.78,0,0,1-4.68,4.42,14.18,14.18,0,0,1-6.79,1.6H844v-24.89h10.3A14,14,0,0,1,861,1294.34Zm-2.47,18.07a7.53,7.53,0,0,0,2.87-2.92,8.73,8.73,0,0,0,1-4.25,8.64,8.64,0,0,0-1.07-4.28,7.49,7.49,0,0,0-2.93-3,8.44,8.44,0,0,0-4.18-1H848.7v16.5h5.7a8.09,8.09,0,0,0,4.11-1Z"/><path class="cls-4" d="M875.42,1291.23a3,3,0,0,1,0,4,2.67,2.67,0,0,1-3.77,0,2.7,2.7,0,0,1-.74-2,2.78,2.78,0,0,1,.74-2A2.67,2.67,0,0,1,875.42,1291.23Zm-4.16,7.4h4.62v19h-4.62Z"/><path class="cls-4" d="M890,1302.5a9.35,9.35,0,0,0-2.72-.46,3.68,3.68,0,0,0-1.87.41,1.35,1.35,0,0,0-.69,1.26,1.47,1.47,0,0,0,.87,1.37,14.22,14.22,0,0,0,2.76,1,27.18,27.18,0,0,1,3.27,1.19,6.28,6.28,0,0,1,2.22,1.74,4.63,4.63,0,0,1,.94,3,4.9,4.9,0,0,1-2.13,4.27,9.2,9.2,0,0,1-5.37,1.49,13.67,13.67,0,0,1-4.3-.69,10,10,0,0,1-3.56-2l1.6-3.23a9.26,9.26,0,0,0,3.06,1.72,10.27,10.27,0,0,0,3.38.63,4,4,0,0,0,2-.45,1.45,1.45,0,0,0,.77-1.33,1.63,1.63,0,0,0-.89-1.5,15.69,15.69,0,0,0-2.88-1.1,23.33,23.33,0,0,1-3.13-1.12,5.61,5.61,0,0,1-2.1-1.67,4.6,4.6,0,0,1-.89-2.93,5,5,0,0,1,2-4.29,8.61,8.61,0,0,1,5.14-1.48,13,13,0,0,1,3.72.54,11.14,11.14,0,0,1,3.25,1.49l-1.67,3.34A14,14,0,0,0,890,1302.5Z"/><path class="cls-4" d="M906.86,1302.54a4.87,4.87,0,0,0-3.75,1.56,6.53,6.53,0,0,0,0,8.18,4.84,4.84,0,0,0,3.75,1.57,6,6,0,0,0,5.12-2.24l2.88,2.38a8.4,8.4,0,0,1-3.38,2.84,11.05,11.05,0,0,1-4.87,1,10.13,10.13,0,0,1-5-1.21,8.51,8.51,0,0,1-3.39-3.39,10.27,10.27,0,0,1-1.21-5,10.44,10.44,0,0,1,1.22-5.08,8.66,8.66,0,0,1,3.42-3.42,10.26,10.26,0,0,1,5-1.2,11.39,11.39,0,0,1,4.64.9,8.6,8.6,0,0,1,3.33,2.58l-2.81,2.67A6.44,6.44,0,0,0,906.86,1302.54Z"/><path class="cls-4" d="M931.66,1299.69a8.73,8.73,0,0,1,3.52,3.4,9.94,9.94,0,0,1,1.26,5,10.07,10.07,0,0,1-1.26,5.09,8.63,8.63,0,0,1-3.52,3.41,10.85,10.85,0,0,1-5.21,1.21,11,11,0,0,1-5.26-1.21,8.55,8.55,0,0,1-3.54-3.41,10.07,10.07,0,0,1-1.26-5.09,9.94,9.94,0,0,1,1.26-5,8.71,8.71,0,0,1,3.54-3.4,11,11,0,0,1,5.26-1.2A10.84,10.84,0,0,1,931.66,1299.69Zm-9.12,4.34a6.54,6.54,0,0,0,0,8.32,5.11,5.11,0,0,0,3.91,1.61,5,5,0,0,0,3.84-1.61,6.52,6.52,0,0,0,0-8.32,5,5,0,0,0-3.84-1.6,5.13,5.13,0,0,0-3.91,1.57Z"/><path class="cls-4" d="M947.7,1299.46a7.69,7.69,0,0,1,3.86-1v4.48a6.27,6.27,0,0,0-4.71,1.37,5.23,5.23,0,0,0-1.76,4.18v9.17h-4.63v-19h4.63v3.66A7,7,0,0,1,947.7,1299.46Z"/><path class="cls-4" d="M973.14,1291.27v26.38h-4.62v-3.06a6.91,6.91,0,0,1-2.65,2.44,8,8,0,0,1-3.75.84,9.09,9.09,0,0,1-4.75-1.23,8.39,8.39,0,0,1-3.18-3.45,11.89,11.89,0,0,1,0-10.13,8.12,8.12,0,0,1,3.17-3.4,9,9,0,0,1,4.67-1.21,8.11,8.11,0,0,1,3.81.85,7.18,7.18,0,0,1,2.7,2.46v-10.49Zm-6.13,21.1a6.54,6.54,0,0,0,0-8.35,5.07,5.07,0,0,0-3.89-1.62,5,5,0,0,0-3.88,1.62,6.46,6.46,0,0,0,0,8.35,5,5,0,0,0,3.88,1.62,5.11,5.11,0,0,0,3.88-1.62Z"/><path class="cls-4" d="M855.67,1340a11.83,11.83,0,0,0-3.54-.64,4.91,4.91,0,0,0-2.7.64,2,2,0,0,0-1,1.78,2.31,2.31,0,0,0,.69,1.72,5.35,5.35,0,0,0,1.75,1.14,26.17,26.17,0,0,0,2.86,1,32.45,32.45,0,0,1,4.14,1.49,7.42,7.42,0,0,1,2.76,2.21,6.06,6.06,0,0,1,1.14,3.84,6.51,6.51,0,0,1-1.23,4,7.63,7.63,0,0,1-3.38,2.58,12.73,12.73,0,0,1-4.92.89,15.59,15.59,0,0,1-5.69-1.08,16.32,16.32,0,0,1-4.84-2.9l2-4.06a14.58,14.58,0,0,0,4.23,2.74,11.08,11.08,0,0,0,4.38,1,5.53,5.53,0,0,0,3.13-.77,2.53,2.53,0,0,0,.7-3.51,1.64,1.64,0,0,0-.26-.33,5.18,5.18,0,0,0-1.76-1.12c-.71-.28-1.68-.6-2.92-1a35.31,35.31,0,0,1-4.12-1.45,7.25,7.25,0,0,1-2.74-2.16,6,6,0,0,1-1.14-3.78,6.36,6.36,0,0,1,1.16-3.79,7.37,7.37,0,0,1,3.27-2.51,12.58,12.58,0,0,1,4.89-.89,17,17,0,0,1,9,2.63l-1.92,4.16A18.56,18.56,0,0,0,855.67,1340Z"/><path class="cls-4" d="M880.88,1343.76q2.29,2.6,2.29,7.29v1.38h-14a5.55,5.55,0,0,0,1.9,3.19,5.45,5.45,0,0,0,3.54,1.15,7.19,7.19,0,0,0,2.79-.55,6.88,6.88,0,0,0,2.33-1.58l2.49,2.59a9.55,9.55,0,0,1-3.47,2.42,11.72,11.72,0,0,1-4.53.85,10.68,10.68,0,0,1-5.14-1.2,8.5,8.5,0,0,1-3.43-3.4,11,11,0,0,1,0-10.08,8.58,8.58,0,0,1,3.43-3.43,10.15,10.15,0,0,1,5-1.23C877.09,1341.16,879.35,1342,880.88,1343.76Zm-1.94,5.58a4.61,4.61,0,0,0-1.39-3.34,5.39,5.39,0,0,0-6.88,0,5.52,5.52,0,0,0-1.69,3.36Z"/><path class="cls-4" d="M894.39,1342.14a7.8,7.8,0,0,1,3.86-1v4.48a6.31,6.31,0,0,0-4.71,1.37,5.3,5.3,0,0,0-1.76,4.18v9.18h-4.62v-19h4.62V1345A6.86,6.86,0,0,1,894.39,1342.14Z"/><path class="cls-4" d="M899.46,1341.34h4.84l5,14.48,4.87-14.48h4.66l-7.26,19h-4.76Z"/><path class="cls-4" d="M935.57,1343.76c1.53,1.73,2.29,4.16,2.3,7.29v1.38h-14a5.28,5.28,0,0,0,5.44,4.34,7.19,7.19,0,0,0,2.79-.55,6.88,6.88,0,0,0,2.33-1.58l2.49,2.59a9.67,9.67,0,0,1-3.47,2.42,11.77,11.77,0,0,1-4.54.85,10.64,10.64,0,0,1-5.13-1.2,8.47,8.47,0,0,1-3.44-3.4,10.27,10.27,0,0,1-1.21-5,10.15,10.15,0,0,1,1.23-5,8.58,8.58,0,0,1,3.43-3.43,10.15,10.15,0,0,1,5-1.23Q933.28,1341.17,935.57,1343.76Zm-1.93,5.58a4.61,4.61,0,0,0-1.39-3.34,5.15,5.15,0,0,0-8.57,3.36Z"/><path class="cls-4" d="M949.09,1342.14a7.8,7.8,0,0,1,3.86-1v4.48a6.35,6.35,0,0,0-4.72,1.37,5.3,5.3,0,0,0-1.76,4.18v9.18h-4.62v-19h4.62V1345A6.83,6.83,0,0,1,949.09,1342.14Z"/><path class="cls-4" d="M965.07,1335.43h4.77v24.9h-4.77Z"/><path class="cls-4" d="M983.88,1345.21a4.88,4.88,0,0,0-3.75,1.57,5.76,5.76,0,0,0-1.44,4,5.89,5.89,0,0,0,1.44,4.13,4.87,4.87,0,0,0,3.75,1.56,6,6,0,0,0,5.12-2.24l2.89,2.38a8.34,8.34,0,0,1-3.38,2.85,11.38,11.38,0,0,1-4.88,1,10.26,10.26,0,0,1-5-1.2,8.68,8.68,0,0,1-3.4-3.4,11.08,11.08,0,0,1,0-10.12,8.61,8.61,0,0,1,3.41-3.41,10.27,10.27,0,0,1,5-1.21,11.21,11.21,0,0,1,4.64.91,8.3,8.3,0,0,1,3.32,2.57l-2.81,2.67A6.45,6.45,0,0,0,983.88,1345.21Z"/><path class="cls-4" d="M1008.69,1342.37a8.77,8.77,0,0,1,3.52,3.39,10.71,10.71,0,0,1,0,10.08,8.78,8.78,0,0,1-3.52,3.42,11,11,0,0,1-5.21,1.2,11.08,11.08,0,0,1-5.27-1.2,8.8,8.8,0,0,1-3.53-3.42,10.12,10.12,0,0,1-1.27-5.08,10,10,0,0,1,1.27-5,8.73,8.73,0,0,1,3.53-3.39,11,11,0,0,1,5.27-1.21A10.85,10.85,0,0,1,1008.69,1342.37Zm-9.12,4.34a6.52,6.52,0,0,0,0,8.32,5.07,5.07,0,0,0,3.91,1.6,5,5,0,0,0,3.84-1.6,6.54,6.54,0,0,0,0-8.32,5,5,0,0,0-3.84-1.6A5.07,5.07,0,0,0,999.57,1346.71Z"/><path class="cls-4" d="M1034.1,1343.1a7.46,7.46,0,0,1,1.88,5.35v11.88h-4.66V1349.8a4.3,4.3,0,0,0-1.14-3.15,4.14,4.14,0,0,0-3.09-1.15,4.64,4.64,0,0,0-3.64,1.56,5.75,5.75,0,0,0-1.34,3.91v9.36h-4.62v-19h4.62v3.56c1.31-2.44,3.58-3.69,6.83-3.74A6.79,6.79,0,0,1,1034.1,1343.1Z"/></g></g><g id="Other_Usecases-2" data-name="Other Usecases"><path class="cls-4" d="M673.44,1121.86A17,17,0,0,1,680,1145l-.15.26a17,17,0,0,1-6.38,6.19,18.9,18.9,0,0,1-18,0,17,17,0,0,1-6.38-6.19,16.8,16.8,0,0,1,5.77-23c.2-.12.4-.24.61-.35A19.24,19.24,0,0,1,673.44,1121.86Zm-14.53,5a11.37,11.37,0,0,0-4.11,15.53,11.51,11.51,0,0,0,4.13,4.13,10.88,10.88,0,0,0,5.62,1.52,10.75,10.75,0,0,0,5.55-1.52,11.43,11.43,0,0,0,0-19.66,10.92,10.92,0,0,0-5.55-1.49,11.15,11.15,0,0,0-5.64,1.44Z"/><path class="cls-4" d="M702.34,1151.68a12,12,0,0,1-6.36,1.85,7.58,7.58,0,0,1-5.35-1.92,7.31,7.31,0,0,1-2.09-5.66v-12.52H685v-4.51h3.6v-7h6.12v7H702v4.51h-7.25v11.43a3.73,3.73,0,0,0,.66,2.49,2.57,2.57,0,0,0,2,.73,9.11,9.11,0,0,0,3.61-1Z"/><path class="cls-4" d="M729.6,1130.28a9.88,9.88,0,0,1,2.52,7.13v15.84H725.9v-14a5.68,5.68,0,0,0-1.51-4.19,5.54,5.54,0,0,0-4.13-1.54,6.29,6.29,0,0,0-4.88,2.08,7.6,7.6,0,0,0-1.8,5.22v12.47h-6.17v-35.18h6.17v14.65c1.73-3.32,4.79-5,9.15-5.08A9,9,0,0,1,729.6,1130.28Z"/><path class="cls-4" d="M758.74,1131.15q3.06,3.46,3.06,9.72v1.85H743a7.07,7.07,0,0,0,7.26,5.79,9.68,9.68,0,0,0,3.72-.74,9,9,0,0,0,3.1-2.11l3.32,3.46a12.76,12.76,0,0,1-4.62,3.23,15.58,15.58,0,0,1-6,1.14,14.09,14.09,0,0,1-6.85-1.62,11.24,11.24,0,0,1-4.57-4.52,14.71,14.71,0,0,1,0-13.45,11.57,11.57,0,0,1,4.58-4.57,13.55,13.55,0,0,1,6.68-1.64Q755.7,1127.69,758.74,1131.15Zm-2.58,7.45a6.22,6.22,0,0,0-1.85-4.46,6.47,6.47,0,0,0-4.65-1.66,6.57,6.57,0,0,0-4.53,1.64,7.19,7.19,0,0,0-2.25,4.48Z"/><path class="cls-4" d="M776.76,1129a10.42,10.42,0,0,1,5.14-1.36v6a8.39,8.39,0,0,0-6.28,1.82,7,7,0,0,0-2.35,5.58v12.23h-6.16V1127.9h6.16v4.89A9.18,9.18,0,0,1,776.76,1129Z"/><path class="cls-4" d="M806,1145.76a8.05,8.05,0,0,0,6,2.23,7.85,7.85,0,0,0,5.9-2.23,8.53,8.53,0,0,0,2.16-6.17v-19.53h6.35v19.53a15.5,15.5,0,0,1-1.75,7.52,12,12,0,0,1-5,4.91,16.41,16.41,0,0,1-7.66,1.7,16.77,16.77,0,0,1-7.75-1.7,11.9,11.9,0,0,1-5-4.91,15.37,15.37,0,0,1-1.76-7.52v-19.53h6.36v19.53A8.34,8.34,0,0,0,806,1145.76Z"/><path class="cls-4" d="M844.89,1133.05a12.13,12.13,0,0,0-3.63-.62,4.85,4.85,0,0,0-2.48.55,1.8,1.8,0,0,0-.93,1.68,2,2,0,0,0,1.16,1.83,18.67,18.67,0,0,0,3.68,1.35,37.22,37.22,0,0,1,4.36,1.59,8,8,0,0,1,3,2.32,6.2,6.2,0,0,1,1.26,4,6.55,6.55,0,0,1-2.85,5.7,12.26,12.26,0,0,1-7.16,2,18,18,0,0,1-5.73-.93,13.32,13.32,0,0,1-4.74-2.63l2.13-4.31a12.87,12.87,0,0,0,4.08,2.3,13.77,13.77,0,0,0,4.5.82,5.37,5.37,0,0,0,2.73-.59,1.92,1.92,0,0,0,1-1.78,2.16,2.16,0,0,0-1.19-2,21.26,21.26,0,0,0-3.84-1.47,32.32,32.32,0,0,1-4.17-1.49,7.52,7.52,0,0,1-2.8-2.23,6.09,6.09,0,0,1-1.18-3.91,6.62,6.62,0,0,1,2.72-5.72,11.44,11.44,0,0,1,6.85-2,17.27,17.27,0,0,1,5,.71,15.42,15.42,0,0,1,4.34,2l-2.23,4.46A18.33,18.33,0,0,0,844.89,1133.05Z"/><path class="cls-4" d="M876.23,1131.15q3.06,3.46,3.06,9.72v1.85H860.52a7,7,0,0,0,7.25,5.79,9.68,9.68,0,0,0,3.72-.74,9.17,9.17,0,0,0,3.11-2.11l3.32,3.46a12.8,12.8,0,0,1-4.63,3.23,15.58,15.58,0,0,1-6,1.14,14.09,14.09,0,0,1-6.85-1.62,11.26,11.26,0,0,1-4.58-4.52,13.74,13.74,0,0,1-1.61-6.71,13.56,13.56,0,0,1,1.64-6.74,11.55,11.55,0,0,1,4.57-4.57,13.58,13.58,0,0,1,6.69-1.64C871.15,1127.69,874.2,1128.85,876.23,1131.15Zm-2.58,7.45a6.13,6.13,0,0,0-1.85-4.46,6.88,6.88,0,0,0-11.43,4.48Z"/><path class="cls-4" d="M895.41,1133.1a6.47,6.47,0,0,0-5,2.08,8.71,8.71,0,0,0,0,10.91,6.48,6.48,0,0,0,5,2.09,8.08,8.08,0,0,0,6.83-3l3.84,3.18a11.25,11.25,0,0,1-4.5,3.79,15.15,15.15,0,0,1-6.5,1.33,13.45,13.45,0,0,1-6.66-1.62,11.39,11.39,0,0,1-4.53-4.52,14.79,14.79,0,0,1,0-13.49,11.47,11.47,0,0,1,4.55-4.56,13.63,13.63,0,0,1,6.71-1.61,14.92,14.92,0,0,1,6.18,1.21,11.11,11.11,0,0,1,4.44,3.44l-3.75,3.55A8.62,8.62,0,0,0,895.41,1133.1Z"/><path class="cls-4" d="M925.43,1153.25v-3.08a8.44,8.44,0,0,1-3.42,2.51,12.65,12.65,0,0,1-4.79.85,10.21,10.21,0,0,1-4.67-1,7.4,7.4,0,0,1-3.1-2.82,7.62,7.62,0,0,1-1.09-4,6.77,6.77,0,0,1,2.51-5.57,11.46,11.46,0,0,1,7.11-2.06h7.4v-.66a4.3,4.3,0,0,0-1.47-3.47,6.46,6.46,0,0,0-4.27-1.23,14.77,14.77,0,0,0-7.54,2.37l-2.22-4.27a29.09,29.09,0,0,1,5.42-2.39,20.1,20.1,0,0,1,5.72-.74c3.28,0,5.84.8,7.66,2.38a8.47,8.47,0,0,1,2.77,6.63v16.6Zm-2.18-5.71a4.41,4.41,0,0,0,2.13-3.11v-2.28H919a7,7,0,0,0-3.63.74,2.64,2.64,0,0,0-1.16,2.39,3,3,0,0,0,1.21,2.56,5.17,5.17,0,0,0,3.29,1A8.19,8.19,0,0,0,923.25,1147.54Z"/><path class="cls-4" d="M949.63,1133.05a12.13,12.13,0,0,0-3.63-.62,4.85,4.85,0,0,0-2.48.55,1.8,1.8,0,0,0-.93,1.68,2,2,0,0,0,1.16,1.83,18.67,18.67,0,0,0,3.68,1.35,37.22,37.22,0,0,1,4.36,1.59,8,8,0,0,1,3,2.32,6.2,6.2,0,0,1,1.26,4,6.56,6.56,0,0,1-2.84,5.7,12.31,12.31,0,0,1-7.17,2,18,18,0,0,1-5.73-.93,13.32,13.32,0,0,1-4.74-2.63l2.13-4.31a12.87,12.87,0,0,0,4.08,2.3,13.77,13.77,0,0,0,4.5.82,5.37,5.37,0,0,0,2.73-.59,1.92,1.92,0,0,0,1-1.78,2.16,2.16,0,0,0-1.19-2,21.26,21.26,0,0,0-3.84-1.47,32.32,32.32,0,0,1-4.17-1.49,7.52,7.52,0,0,1-2.8-2.23,6.09,6.09,0,0,1-1.18-3.91,6.62,6.62,0,0,1,2.72-5.72,11.44,11.44,0,0,1,6.85-2,17.27,17.27,0,0,1,5,.71,15.42,15.42,0,0,1,4.34,2l-2.23,4.46A18.33,18.33,0,0,0,949.63,1133.05Z"/><path class="cls-4" d="M981,1131.15q3.06,3.46,3.06,9.72v1.85h-18.8a7,7,0,0,0,7.25,5.79,9.68,9.68,0,0,0,3.72-.74,9.17,9.17,0,0,0,3.11-2.11l3.32,3.46a12.76,12.76,0,0,1-4.62,3.23,15.61,15.61,0,0,1-6,1.14,14.09,14.09,0,0,1-6.85-1.62,11.26,11.26,0,0,1-4.58-4.52,14.71,14.71,0,0,1,0-13.45,11.55,11.55,0,0,1,4.57-4.57,13.58,13.58,0,0,1,6.69-1.64Q977.9,1127.69,981,1131.15Zm-2.58,7.45a6.13,6.13,0,0,0-1.85-4.46,6.88,6.88,0,0,0-11.43,4.48Z"/><path class="cls-4" d="M1000.56,1133.05a12.13,12.13,0,0,0-3.63-.62,4.91,4.91,0,0,0-2.49.55,1.81,1.81,0,0,0-.92,1.68,2,2,0,0,0,1.16,1.83,18.35,18.35,0,0,0,3.67,1.35,35.49,35.49,0,0,1,4.36,1.59,8.13,8.13,0,0,1,3,2.32,6.25,6.25,0,0,1,1.25,4,6.53,6.53,0,0,1-2.84,5.7,12.26,12.26,0,0,1-7.16,2,18.06,18.06,0,0,1-5.74-.93,13.56,13.56,0,0,1-4.74-2.63l2.13-4.31a12.87,12.87,0,0,0,4.08,2.3,13.88,13.88,0,0,0,4.51.82,5.36,5.36,0,0,0,2.72-.59,1.92,1.92,0,0,0,1-1.78,2.15,2.15,0,0,0-1.18-2,21.26,21.26,0,0,0-3.84-1.47,32.46,32.46,0,0,1-4.18-1.49,7.49,7.49,0,0,1-2.79-2.23,6.16,6.16,0,0,1-1.19-3.91,6.63,6.63,0,0,1,2.73-5.72,11.44,11.44,0,0,1,6.85-2,17.27,17.27,0,0,1,5,.71,15.15,15.15,0,0,1,4.34,2l-2.23,4.46A18,18,0,0,0,1000.56,1133.05Z"/></g></g><g id="Use_with_Logo" data-name="Use with Logo"><g id="Example_2" data-name="Example 2"><g id="Logo_Normal-2" data-name="Logo Normal"><path class="cls-2" d="M889.36,874.33A54.63,54.63,0,0,1,855.46,925a54,54,0,0,1-31.7,3.07,54.84,54.84,0,0,1,10.75-108.63v54.87Z"/><ellipse class="cls-3" cx="834.51" cy="874.33" rx="35.65" ry="35.66"/><path class="cls-2" d="M827.93,867.85c0,4.06-3,7.24-6.58,7.24s-6.59-3.29-6.59-7.24,3-7.24,6.59-7.24S827.93,863.79,827.93,867.85Z"/><path class="cls-2" d="M854.26,867.85c0,4.06-3,7.24-6.59,7.24s-6.58-3.29-6.58-7.24,3-7.24,6.58-7.24S854.26,863.79,854.26,867.85Z"/><path class="cls-2" d="M847.35,881.46a2.57,2.57,0,0,1,.87,3.84,16.4,16.4,0,0,1-8.55,5.38,16.79,16.79,0,0,1-10.1-.44,2.57,2.57,0,0,1-1.2-3.73h0a3.59,3.59,0,0,1,4.17-1.43,12,12,0,0,0,5.59,0,10.19,10.19,0,0,0,4.83-2.74,3.73,3.73,0,0,1,4.39-.88Z"/></g><g id="Wordmark"><path class="cls-4" d="M699.33,955.83a18.39,18.39,0,0,0-17.15.54A17.39,17.39,0,0,0,675.6,963a19,19,0,0,0,0,18.51,17.65,17.65,0,0,0,6.58,6.65,17.94,17.94,0,0,0,9.21,2.44,19.35,19.35,0,0,0,7.78-1.7,22.2,22.2,0,0,0,6.93-4.72l6.12,6.81a32.05,32.05,0,0,1-9.91,6.85,28,28,0,0,1-11.46,2.52,28.3,28.3,0,0,1-14.32-3.72,27.22,27.22,0,0,1-10.22-10.1,27.58,27.58,0,0,1-3.72-14.13,27,27,0,0,1,3.8-14.09,27.32,27.32,0,0,1,10.33-10,30,30,0,0,1,25.9-1.31,27.81,27.81,0,0,1,9.52,6.42l-6,7.59A20.49,20.49,0,0,0,699.33,955.83Z"/><path class="cls-4" d="M758.59,958.15v41.42H748.45v-7.66q-4.19,8.05-14.4,8.05-7,0-11-4.26t-4-11.61V958.15h10.14v23a9.5,9.5,0,0,0,2.36,6.81,8.64,8.64,0,0,0,6.55,2.48,9.61,9.61,0,0,0,7.58-3.41,12.65,12.65,0,0,0,2.79-8.44V958.15Z"/><path class="cls-4" d="M789.44,966.59a19.87,19.87,0,0,0-5.92-1,8,8,0,0,0-4.07.89,3,3,0,0,0-1.51,2.74,3.29,3.29,0,0,0,1.9,3,30.61,30.61,0,0,0,6,2.2A58.76,58.76,0,0,1,793,977a13.6,13.6,0,0,1,4.84,3.8,10.11,10.11,0,0,1,2,6.62,10.69,10.69,0,0,1-4.64,9.29,20,20,0,0,1-11.69,3.25,29.84,29.84,0,0,1-9.37-1.51,22,22,0,0,1-7.74-4.3l3.48-7a20.31,20.31,0,0,0,6.66,3.75,21.94,21.94,0,0,0,7.35,1.36,8.85,8.85,0,0,0,4.46-1,3.17,3.17,0,0,0,1.66-2.9,3.54,3.54,0,0,0-1.93-3.26,35.06,35.06,0,0,0-6.28-2.4,54.6,54.6,0,0,1-6.81-2.43,12.38,12.38,0,0,1-4.57-3.64,10,10,0,0,1-1.93-6.39q0-6.12,4.45-9.33a18.63,18.63,0,0,1,11.19-3.21,28.77,28.77,0,0,1,8.09,1.16,25.12,25.12,0,0,1,7.08,3.25l-3.64,7.28A29.87,29.87,0,0,0,789.44,966.59Z"/><path class="cls-4" d="M832.68,997a19.65,19.65,0,0,1-10.38,3,12.4,12.4,0,0,1-8.75-3.14q-3.4-3.14-3.4-9.25v-20.4h-5.81l-.08-7.35h5.89V948.48h10v11.38H832v7.35H820.13v18.66a6,6,0,0,0,1.09,4.06,4.18,4.18,0,0,0,3.25,1.2,14.41,14.41,0,0,0,5.88-1.7Z"/><path class="cls-4" d="M869.64,960.48a19.08,19.08,0,0,1,7.67,7.39,21.48,21.48,0,0,1,2.74,11,21.84,21.84,0,0,1-2.74,11.07,19.13,19.13,0,0,1-7.67,7.44A23.75,23.75,0,0,1,858.3,1000a24.11,24.11,0,0,1-11.46-2.63,19,19,0,0,1-7.7-7.44,21.85,21.85,0,0,1-2.75-11.07,21.59,21.59,0,0,1,2.75-11,19,19,0,0,1,7.7-7.39,24,24,0,0,1,11.46-2.64A23.54,23.54,0,0,1,869.64,960.48Zm-19.86,9.44a14.26,14.26,0,0,0,0,18.12,11.15,11.15,0,0,0,8.52,3.48,11,11,0,0,0,8.36-3.48,14.26,14.26,0,0,0,0-18.12,11,11,0,0,0-8.36-3.48A11.15,11.15,0,0,0,849.78,969.92Z"/><path class="cls-4" d="M954.14,962.06q4,4.31,4,11.65v25.86H948V976.66a9.54,9.54,0,0,0-2.43-6.93,8.83,8.83,0,0,0-6.62-2.52,10,10,0,0,0-7.63,3.49,12.59,12.59,0,0,0-2.83,8.43v20.44H918.37V976.66a9.61,9.61,0,0,0-2.4-6.93,8.65,8.65,0,0,0-6.58-2.52,10,10,0,0,0-7.7,3.49,12.58,12.58,0,0,0-2.82,8.43v20.44H888.8V958.15h10.07v7.67q4.1-7.91,14.55-8.05a15.41,15.41,0,0,1,9.1,2.59,13.6,13.6,0,0,1,5.14,7.32q4-9.76,15.41-9.91C947.76,957.77,951.46,959.2,954.14,962.06Z"/><path class="cls-4" d="M993.85,999.57v-5a13.49,13.49,0,0,1-5.57,4.1,20.51,20.51,0,0,1-7.82,1.4,16.59,16.59,0,0,1-7.62-1.67,12.22,12.22,0,0,1-5.08-4.61,12.49,12.49,0,0,1-1.78-6.58,11,11,0,0,1,4.11-9.09q4.1-3.29,11.61-3.37h12.08v-1.08a7,7,0,0,0-2.4-5.65c-1.6-1.35-3.93-2-7-2a24,24,0,0,0-12.31,3.87l-3.64-7A45,45,0,0,1,977.3,959a32.24,32.24,0,0,1,9.32-1.2q8.05,0,12.51,3.87t4.52,10.84l.08,27.09Zm-3.56-9.33a7.13,7.13,0,0,0,3.49-5.07v-3.71H983.32a11.42,11.42,0,0,0-5.92,1.2,4.28,4.28,0,0,0-1.89,3.91,5,5,0,0,0,2,4.18,8.52,8.52,0,0,0,5.38,1.54A13.09,13.09,0,0,0,990.29,990.24Z"/></g></g><g id="Example_1" data-name="Example 1"><g id="Logo_Normal-3" data-name="Logo Normal"><path class="cls-2" d="M695.26,675.52a54.63,54.63,0,0,1-33.9,50.69,54,54,0,0,1-31.7,3.07,54.84,54.84,0,0,1,10.75-108.63v54.87Z"/><ellipse class="cls-3" cx="640.41" cy="675.52" rx="35.65" ry="35.66"/><path class="cls-2" d="M633.83,669c0,4.06-3,7.24-6.58,7.24s-6.59-3.29-6.59-7.24,3-7.24,6.59-7.24S633.83,665,633.83,669Z"/><path class="cls-2" d="M660.16,669c0,4.06-3,7.24-6.59,7.24S647,673,647,669s3-7.24,6.58-7.24S660.16,665,660.16,669Z"/><path class="cls-2" d="M653.25,682.65a2.57,2.57,0,0,1,.87,3.84,16.4,16.4,0,0,1-8.55,5.38,16.79,16.79,0,0,1-10.1-.44,2.57,2.57,0,0,1-1.2-3.73h0a3.59,3.59,0,0,1,4.17-1.43,12,12,0,0,0,5.59,0,10.19,10.19,0,0,0,4.83-2.74,3.73,3.73,0,0,1,4.39-.88Z"/></g><g id="Wordmark-2" data-name="Wordmark"><path class="cls-4" d="M758.66,653.93a18.53,18.53,0,0,0-7.94-1.85,18.23,18.23,0,0,0-9.21,2.4,17.4,17.4,0,0,0-6.58,6.61,19,19,0,0,0,0,18.51,17.65,17.65,0,0,0,6.58,6.65,17.94,17.94,0,0,0,9.21,2.44,19.35,19.35,0,0,0,7.78-1.7,22.2,22.2,0,0,0,6.93-4.72l6.12,6.81a32.05,32.05,0,0,1-9.91,6.85,28,28,0,0,1-11.46,2.52,28.3,28.3,0,0,1-14.32-3.72,27.22,27.22,0,0,1-10.22-10.1,27.58,27.58,0,0,1-3.72-14.13,27,27,0,0,1,3.8-14.09,27.25,27.25,0,0,1,10.33-10A30.06,30.06,0,0,1,762,645.1a28.14,28.14,0,0,1,9.52,6.42l-6,7.59A20.46,20.46,0,0,0,758.66,653.93Z"/><path class="cls-4" d="M817.92,656.26v41.41H807.78V690q-4.18,8.06-14.4,8-7,0-11-4.26t-4-11.61V656.26H788.5v23a9.5,9.5,0,0,0,2.36,6.81,8.62,8.62,0,0,0,6.54,2.48,9.59,9.59,0,0,0,7.59-3.41,12.65,12.65,0,0,0,2.79-8.44V656.26Z"/><path class="cls-4" d="M848.77,664.7a19.57,19.57,0,0,0-5.93-1,8,8,0,0,0-4.06.89,3,3,0,0,0-1.51,2.75,3.27,3.27,0,0,0,1.9,3,30.61,30.61,0,0,0,6,2.2,57.69,57.69,0,0,1,7.12,2.6,13.38,13.38,0,0,1,4.84,3.79,10.22,10.22,0,0,1,2,6.62,10.64,10.64,0,0,1-4.65,9.29,19.85,19.85,0,0,1-11.69,3.25,29.78,29.78,0,0,1-9.36-1.51,22,22,0,0,1-7.74-4.3l3.48-7a20.31,20.31,0,0,0,6.66,3.75,21.94,21.94,0,0,0,7.35,1.36,8.81,8.81,0,0,0,4.45-1,3.13,3.13,0,0,0,1.67-2.9,3.49,3.49,0,0,0-1.94-3.25,33.78,33.78,0,0,0-6.27-2.4,53.09,53.09,0,0,1-6.81-2.44,12.38,12.38,0,0,1-4.57-3.64,10,10,0,0,1-1.93-6.39q0-6.11,4.45-9.33a18.62,18.62,0,0,1,11.18-3.21A28.77,28.77,0,0,1,851.5,657a25.08,25.08,0,0,1,7.09,3.26L855,667.48A29.48,29.48,0,0,0,848.77,664.7Z"/><path class="cls-4" d="M892,695.12a19.62,19.62,0,0,1-10.37,3,12.4,12.4,0,0,1-8.75-3.14q-3.4-3.13-3.41-9.25V665.31h-5.8l-.08-7.35h5.88V646.58h10V658h11.85v7.35H879.46V684a6.07,6.07,0,0,0,1.08,4.07,4.2,4.2,0,0,0,3.26,1.2,14.27,14.27,0,0,0,5.88-1.71Z"/><path class="cls-4" d="M929,658.58a19,19,0,0,1,7.66,7.39,21.59,21.59,0,0,1,2.75,11,21.93,21.93,0,0,1-2.78,11,19,19,0,0,1-7.66,7.43,23.76,23.76,0,0,1-11.34,2.63,24.11,24.11,0,0,1-11.46-2.63,18.93,18.93,0,0,1-7.7-7.43,21.85,21.85,0,0,1-2.75-11.07,21.37,21.37,0,0,1,2.75-11,19,19,0,0,1,7.7-7.39A24.08,24.08,0,0,1,917.63,656,23.74,23.74,0,0,1,929,658.58ZM909.11,668a14.26,14.26,0,0,0,0,18.12,11.15,11.15,0,0,0,8.52,3.48,11,11,0,0,0,8.36-3.48A14.25,14.25,0,0,0,926,668a11,11,0,0,0-8.36-3.48A11.12,11.12,0,0,0,909.11,668Z"/><path class="cls-4" d="M1013.47,660.17q4,4.29,4,11.65v25.85h-10.14V674.76a9.5,9.5,0,0,0-2.44-6.93,8.77,8.77,0,0,0-6.62-2.52,9.93,9.93,0,0,0-7.62,3.49,12.57,12.57,0,0,0-2.83,8.44v20.43H977.7V674.76a9.65,9.65,0,0,0-2.4-6.93,8.65,8.65,0,0,0-6.58-2.52,10,10,0,0,0-7.7,3.49,12.57,12.57,0,0,0-2.83,8.44v20.43H948.13V656.26h10.06v7.66q4.11-7.89,14.56-8a15.35,15.35,0,0,1,9.09,2.59,13.62,13.62,0,0,1,5.15,7.32q3.94-9.75,15.41-9.91Q1009.44,655.88,1013.47,660.17Z"/><path class="cls-4" d="M1053.18,697.67v-5a13.6,13.6,0,0,1-5.57,4.11,20.69,20.69,0,0,1-7.82,1.39,16.66,16.66,0,0,1-7.63-1.67,12.3,12.3,0,0,1-5.07-4.6,12.47,12.47,0,0,1-1.78-6.58,11,11,0,0,1,4.1-9.1q4.11-3.29,11.62-3.37h12.07v-1.08a7,7,0,0,0-2.4-5.65q-2.4-2-7-2a24,24,0,0,0-12.31,3.87l-3.64-7a45.74,45.74,0,0,1,8.86-3.91,32.7,32.7,0,0,1,9.33-1.2q8.05,0,12.5,3.87t4.53,10.84l.08,27.09Zm-3.56-9.32a7.13,7.13,0,0,0,3.48-5.08v-3.71h-10.45c-2.68,0-4.66.4-5.92,1.2a4.27,4.27,0,0,0-1.9,3.91,5,5,0,0,0,2,4.18,8.47,8.47,0,0,0,5.38,1.55A13.2,13.2,0,0,0,1049.62,688.35Z"/></g></g><g id="Use_with_Logo-2" data-name="Use with Logo"><path class="cls-4" d="M679.59,534a8.09,8.09,0,0,0,6,2.23A7.88,7.88,0,0,0,691.5,534a8.53,8.53,0,0,0,2.16-6.17V508.32H700v19.53a15.37,15.37,0,0,1-1.76,7.52,12,12,0,0,1-5,4.91,16.41,16.41,0,0,1-7.66,1.7,16.77,16.77,0,0,1-7.75-1.7,11.9,11.9,0,0,1-5-4.91,15.5,15.5,0,0,1-1.75-7.52V508.32h6.35v19.53A8.29,8.29,0,0,0,679.59,534Z"/><path class="cls-4" d="M718.45,521.31a12.13,12.13,0,0,0-3.63-.62,4.91,4.91,0,0,0-2.49.55,1.81,1.81,0,0,0-.92,1.68,2,2,0,0,0,1.16,1.83,19.93,19.93,0,0,0,3.67,1.35,35.49,35.49,0,0,1,4.36,1.59,8.13,8.13,0,0,1,3,2.32,6.25,6.25,0,0,1,1.25,4A6.5,6.5,0,0,1,722,539.7a12.12,12.12,0,0,1-7.16,2,18.06,18.06,0,0,1-5.74-.93,13.56,13.56,0,0,1-4.74-2.63l2.13-4.32a12.39,12.39,0,0,0,4.08,2.3,13.59,13.59,0,0,0,4.51.83,5.36,5.36,0,0,0,2.72-.59,1.92,1.92,0,0,0,1-1.78,2.15,2.15,0,0,0-1.18-2,22,22,0,0,0-3.84-1.47,32.46,32.46,0,0,1-4.18-1.49,7.49,7.49,0,0,1-2.79-2.23,6,6,0,0,1-1.19-3.91,6.63,6.63,0,0,1,2.73-5.72,11.44,11.44,0,0,1,6.85-2,17.63,17.63,0,0,1,4.95.71,15.42,15.42,0,0,1,4.34,2L722.26,523A17.77,17.77,0,0,0,718.45,521.31Z"/><path class="cls-4" d="M749.79,519.41q3.06,3.47,3.06,9.72a18.09,18.09,0,0,1-.05,1.85H734.07a7.07,7.07,0,0,0,7.25,5.79,9.73,9.73,0,0,0,3.73-.74,9,9,0,0,0,3.1-2.11l3.32,3.46a12.76,12.76,0,0,1-4.62,3.23,15.49,15.49,0,0,1-6.05,1.14,14.09,14.09,0,0,1-6.85-1.62,11.24,11.24,0,0,1-4.57-4.52,14.71,14.71,0,0,1,0-13.45,11.55,11.55,0,0,1,4.57-4.57,13.58,13.58,0,0,1,6.69-1.64Q746.75,516,749.79,519.41Zm-2.59,7.45a6.13,6.13,0,0,0-1.85-4.46,6.44,6.44,0,0,0-4.64-1.66,6.57,6.57,0,0,0-4.53,1.64,7.19,7.19,0,0,0-2.25,4.48Z"/><path class="cls-4" d="M765.88,516.19l6.36-.05,6.21,19.16,6-19.16h6.21l6.12,19.16,6.07-19.16h6.21l-9.2,25.37h-6.3l-6.07-17.88-6,17.88h-6.31Z"/><path class="cls-4" d="M818.23,506.28a4,4,0,0,1,0,5.26,3.56,3.56,0,0,1-5,0,4,4,0,0,1,0-5.26A3.56,3.56,0,0,1,818.23,506.28Zm-5.55,9.86h6.17v25.37h-6.17Z"/><path class="cls-4" d="M841.32,539.94a12,12,0,0,1-6.35,1.85,7.59,7.59,0,0,1-5.36-1.92,7.31,7.31,0,0,1-2.09-5.66V521.69H824l0-4.51h3.6v-7h6.12v7h7.26v4.51h-7.26v11.43a3.73,3.73,0,0,0,.66,2.49,2.57,2.57,0,0,0,2,.73,8.74,8.74,0,0,0,3.6-1Z"/><path class="cls-4" d="M868.59,518.54a9.89,9.89,0,0,1,2.51,7.13v15.84h-6.21v-14a5.72,5.72,0,0,0-1.52-4.19,5.52,5.52,0,0,0-4.12-1.54,6.31,6.31,0,0,0-4.89,2.08,7.6,7.6,0,0,0-1.8,5.22v12.47H846.4V506.33h6.16V521q2.61-5,9.15-5.08A9.05,9.05,0,0,1,868.59,518.54Z"/><path class="cls-4" d="M889.88,508.32h6.35v27.45h14.32v5.74H889.88Z"/><path class="cls-4" d="M933.33,517.56a11.84,11.84,0,0,1,4.7,4.53,13.13,13.13,0,0,1,1.68,6.71,13.38,13.38,0,0,1-1.68,6.78,11.63,11.63,0,0,1-4.7,4.55,14.44,14.44,0,0,1-7,1.62,14.67,14.67,0,0,1-7-1.62,11.55,11.55,0,0,1-4.72-4.55A13.47,13.47,0,0,1,913,528.8a13.13,13.13,0,0,1,1.68-6.71,11.69,11.69,0,0,1,4.72-4.53,14.81,14.81,0,0,1,7-1.61A14.5,14.5,0,0,1,933.33,517.56Zm-12.16,5.79a8.73,8.73,0,0,0,0,11.09,6.83,6.83,0,0,0,5.21,2.14,6.72,6.72,0,0,0,5.13-2.14,8.73,8.73,0,0,0,0-11.09,6.72,6.72,0,0,0-5.13-2.14,6.83,6.83,0,0,0-5.21,2.14Z"/><path class="cls-4" d="M968.25,516.14v23a11.84,11.84,0,0,1-1.63,6.28A10.8,10.8,0,0,1,962,549.5a16.07,16.07,0,0,1-7,1.44,18.68,18.68,0,0,1-10.72-3.36l2.47-4.46a13,13,0,0,0,7.91,2.66,8,8,0,0,0,5.43-1.76,6,6,0,0,0,2-4.79v-3a8.42,8.42,0,0,1-3.32,3,10.47,10.47,0,0,1-4.74,1,11.25,11.25,0,0,1-5.88-1.54,10.48,10.48,0,0,1-4-4.32,13.78,13.78,0,0,1-1.43-6.37,13.46,13.46,0,0,1,1.43-6.29,10.34,10.34,0,0,1,4-4.24A11.29,11.29,0,0,1,954,516a10.26,10.26,0,0,1,4.72,1,8.66,8.66,0,0,1,3.34,2.93v-3.79Zm-8,17.24a8.29,8.29,0,0,0,0-10.48,6.84,6.84,0,0,0-9.66-.06l-.06.06a8.08,8.08,0,0,0,0,10.46,6.88,6.88,0,0,0,9.72,0Z"/><path class="cls-4" d="M993.55,517.56a11.68,11.68,0,0,1,4.69,4.53,13.24,13.24,0,0,1,1.69,6.71,13.49,13.49,0,0,1-1.69,6.78,11.48,11.48,0,0,1-4.69,4.55,14.45,14.45,0,0,1-6.95,1.62,14.67,14.67,0,0,1-7-1.62,11.53,11.53,0,0,1-4.71-4.55,13.29,13.29,0,0,1-1.69-6.78,13.13,13.13,0,0,1,1.69-6.71,11.67,11.67,0,0,1,4.71-4.53,14.93,14.93,0,0,1,7-1.61A14.49,14.49,0,0,1,993.55,517.56Zm-12.16,5.79a8.68,8.68,0,0,0,0,11.09,6.74,6.74,0,0,0,5.21,2.14,6.61,6.61,0,0,0,5.12-2.14,8.73,8.73,0,0,0,0-11.09,6.7,6.7,0,0,0-5.12-2.14A6.82,6.82,0,0,0,981.39,523.35Z"/></g></g><g id="Wordmark_Details" data-name="Wordmark Details"><g id="Wordmark_Details-2" data-name="Wordmark Details"><path class="cls-4" d="M664,23.47h6.59L659.32,56.66h-6.59l-7.59-25.18-7.73,25.18h-6.49L619.73,23.47h6.83l7.82,26.31,7.78-26.31h6.25l7.83,26.41Z"/><path class="cls-4" d="M689.88,32.71a11.68,11.68,0,0,1,4.69,4.53A13.22,13.22,0,0,1,696.26,44a13.49,13.49,0,0,1-1.69,6.78,11.48,11.48,0,0,1-4.69,4.55,14.43,14.43,0,0,1-7,1.61,14.66,14.66,0,0,1-7-1.61,11.53,11.53,0,0,1-4.71-4.55A13.26,13.26,0,0,1,669.51,44a13,13,0,0,1,1.69-6.71,11.67,11.67,0,0,1,4.71-4.53,14.93,14.93,0,0,1,7-1.61A14.53,14.53,0,0,1,689.88,32.71ZM677.72,38.5a7.78,7.78,0,0,0-2,5.54,7.78,7.78,0,0,0,2,5.55,6.82,6.82,0,0,0,5.21,2.14,6.7,6.7,0,0,0,5.12-2.14A7.79,7.79,0,0,0,690,44a7.74,7.74,0,0,0-2-5.54,6.61,6.61,0,0,0-5.12-2.14A6.77,6.77,0,0,0,677.72,38.5Z"/><path class="cls-4" d="M711.26,32.4a10.32,10.32,0,0,1,5.15-1.35v6a8.4,8.4,0,0,0-6.29,1.82,7,7,0,0,0-2.34,5.57V56.66h-6.17V31.29h6.17v4.88A9.17,9.17,0,0,1,711.26,32.4Z"/><path class="cls-4" d="M745.19,21.47V56.66H739V52.58a9.15,9.15,0,0,1-3.54,3.25,10.69,10.69,0,0,1-5,1.11,12.11,12.11,0,0,1-6.33-1.63,11.26,11.26,0,0,1-4.24-4.6,14.6,14.6,0,0,1-1.52-6.81,14.72,14.72,0,0,1,1.49-6.71,11,11,0,0,1,4.22-4.52,12,12,0,0,1,6.24-1.62,10.73,10.73,0,0,1,5.07,1.14A9.62,9.62,0,0,1,739,35.46v-14ZM737,49.62A7.86,7.86,0,0,0,739,44a7.87,7.87,0,0,0-2-5.57,7.32,7.32,0,0,0-10.35,0h0a8.64,8.64,0,0,0,0,11.15,7.32,7.32,0,0,0,10.35,0h0Z"/><path class="cls-4" d="M793.13,33.68a10,10,0,0,1,2.46,7.14V56.66h-6.21v-14a5.84,5.84,0,0,0-1.49-4.24,5.39,5.39,0,0,0-4.06-1.54A6.08,6.08,0,0,0,779.16,39a7.71,7.71,0,0,0-1.73,5.17V56.66h-6.21v-14a5.88,5.88,0,0,0-1.47-4.24,5.33,5.33,0,0,0-4-1.54A6.13,6.13,0,0,0,761,39a7.71,7.71,0,0,0-1.73,5.17V56.66h-6.16V31.29h6.16V36q2.52-4.83,8.92-4.93a9.41,9.41,0,0,1,5.57,1.59,8.24,8.24,0,0,1,3.15,4.48q2.42-6,9.44-6.07A8.85,8.85,0,0,1,793.13,33.68Z"/><path class="cls-4" d="M817.45,56.66V53.58A8.38,8.38,0,0,1,814,56.09a12.65,12.65,0,0,1-4.79.85,10.21,10.21,0,0,1-4.67-1,7.49,7.49,0,0,1-3.11-2.82,7.62,7.62,0,0,1-1.09-4,6.74,6.74,0,0,1,2.51-5.57A11.46,11.46,0,0,1,810,41.49h7.4v-.67a4.26,4.26,0,0,0-1.47-3.46,6.46,6.46,0,0,0-4.27-1.23,14.64,14.64,0,0,0-7.53,2.37l-2.23-4.27a28.26,28.26,0,0,1,5.43-2.39A20,20,0,0,1,813,31.1c3.29,0,5.85.79,7.66,2.37a8.49,8.49,0,0,1,2.77,6.64v16.6Zm-2.18-5.72a4.36,4.36,0,0,0,2.13-3.1V45.56H811a7,7,0,0,0-3.63.74,2.62,2.62,0,0,0-1.16,2.39,3,3,0,0,0,1.21,2.56,5.22,5.22,0,0,0,3.3,1A8,8,0,0,0,815.27,50.94Z"/><path class="cls-4" d="M840.09,32.4a10.32,10.32,0,0,1,5.15-1.35v6a8.4,8.4,0,0,0-6.24,1.8,7,7,0,0,0-2.34,5.57V56.66h-6.17V31.29h6.17v4.88A9.11,9.11,0,0,1,840.09,32.4Z"/><path class="cls-4" d="M866.71,56.66l-6.87-11.1L856,49.64v7h-6.16V21.47H856V41.86l10.43-10.52h7.11l-9.38,9.76,10,15.56Z"/><path class="cls-4" d="M912.8,25.58a15.43,15.43,0,0,1,6.17,5.9,16.66,16.66,0,0,1,2.22,8.58,16.37,16.37,0,0,1-2.25,8.56,15.79,15.79,0,0,1-6.23,5.9,18.79,18.79,0,0,1-9.06,2.14H890.09V23.47h13.8A18.55,18.55,0,0,1,912.8,25.58Zm-3.29,24.08a9.87,9.87,0,0,0,3.81-3.88,12.24,12.24,0,0,0,0-11.38,10.1,10.1,0,0,0-3.92-3.94,11.16,11.16,0,0,0-5.57-1.4h-7.35v22H904A10.74,10.74,0,0,0,909.51,49.66Z"/><path class="cls-4" d="M946.21,34.56q3.06,3.46,3,9.72v1.85H930.49a7.07,7.07,0,0,0,7.25,5.79,9.68,9.68,0,0,0,3.72-.74,9.17,9.17,0,0,0,3.11-2.11l3.32,3.46a12.88,12.88,0,0,1-4.62,3.23,15.83,15.83,0,0,1-6,1.13,14,14,0,0,1-6.85-1.61,11.23,11.23,0,0,1-4.58-4.53A13.59,13.59,0,0,1,924.18,44a13.6,13.6,0,0,1,1.64-6.73,11.55,11.55,0,0,1,4.57-4.57,13.58,13.58,0,0,1,6.69-1.64Q943.14,31.11,946.21,34.56ZM943.62,42a6.13,6.13,0,0,0-1.85-4.46A6.87,6.87,0,0,0,930.35,42Z"/><path class="cls-4" d="M969.42,55.09a12,12,0,0,1-6.36,1.85A7.61,7.61,0,0,1,957.7,55a7.34,7.34,0,0,1-2.08-5.66V36.84h-3.56V32.33h3.61v-7h6.11v7H969v4.51h-7.26V48.26a3.74,3.74,0,0,0,.67,2.49,2.54,2.54,0,0,0,2,.74,8.74,8.74,0,0,0,3.6-1Z"/><path class="cls-4" d="M989.24,56.66V53.58a8.44,8.44,0,0,1-3.42,2.51,12.65,12.65,0,0,1-4.79.85,10.21,10.21,0,0,1-4.67-1,7.4,7.4,0,0,1-3.1-2.82,7.62,7.62,0,0,1-1.09-4,6.74,6.74,0,0,1,2.51-5.57q2.51-2,7.11-2.06h7.4v-.67a4.26,4.26,0,0,0-1.47-3.46,6.46,6.46,0,0,0-4.27-1.23,14.77,14.77,0,0,0-7.54,2.37l-2.23-4.27a28.26,28.26,0,0,1,5.43-2.39,20.1,20.1,0,0,1,5.72-.74c3.28,0,5.84.79,7.65,2.37a8.51,8.51,0,0,1,2.78,6.64v16.6Zm-2.19-5.72a4.35,4.35,0,0,0,2.14-3.1V45.56h-6.4a6.93,6.93,0,0,0-3.63.74A2.59,2.59,0,0,0,978,48.69a3,3,0,0,0,1.21,2.56,5.17,5.17,0,0,0,3.29,1A8,8,0,0,0,987.05,50.94Z"/><path class="cls-4" d="M1007.77,21.43a3.62,3.62,0,0,1,1,2.65,3.61,3.61,0,0,1-1,2.61,3.56,3.56,0,0,1-5,0,3.61,3.61,0,0,1-1-2.61,3.62,3.62,0,0,1,1-2.65,3.53,3.53,0,0,1,5,0Zm-5.54,9.86h6.16V56.66h-6.16Z"/><path class="cls-4" d="M1016.26,21.47h6.16V56.66h-6.16Z"/><path class="cls-4" d="M1041.56,36.46a12.13,12.13,0,0,0-3.63-.62,4.91,4.91,0,0,0-2.49.55,1.81,1.81,0,0,0-.92,1.68,2,2,0,0,0,1.16,1.83,19.93,19.93,0,0,0,3.67,1.35,33.92,33.92,0,0,1,4.36,1.59,8.13,8.13,0,0,1,3,2.32,6.27,6.27,0,0,1,1.25,4.05,6.5,6.5,0,0,1-2.84,5.69,12.12,12.12,0,0,1-7.16,2,18.34,18.34,0,0,1-5.74-.92,13.56,13.56,0,0,1-4.74-2.63l2.13-4.32a12.39,12.39,0,0,0,4.08,2.3,13.59,13.59,0,0,0,4.51.83,5.36,5.36,0,0,0,2.72-.59,1.92,1.92,0,0,0,1-1.78,2.15,2.15,0,0,0-1.18-2,22,22,0,0,0-3.84-1.47,32.46,32.46,0,0,1-4.18-1.49,7.67,7.67,0,0,1-2.79-2.23,6.16,6.16,0,0,1-1.19-3.91,6.63,6.63,0,0,1,2.73-5.72,11.44,11.44,0,0,1,6.85-2,17.63,17.63,0,0,1,5,.72,15.15,15.15,0,0,1,4.34,2l-2.23,4.46A18.24,18.24,0,0,0,1041.56,36.46Z"/></g><g id="Wordmark-3" data-name="Wordmark"><path class="cls-4" d="M668.92,176.9a22.58,22.58,0,0,0-9.72-2.27,22.21,22.21,0,0,0-11.28,2.94,21.35,21.35,0,0,0-8.07,8.1,23.37,23.37,0,0,0,0,22.67A22.06,22.06,0,0,0,659.2,219.5a23.72,23.72,0,0,0,9.53-2.08,27.42,27.42,0,0,0,8.49-5.79l7.49,8.35a39.18,39.18,0,0,1-12.14,8.39,34.35,34.35,0,0,1-14,3.08A34.79,34.79,0,0,1,641,226.88a33.43,33.43,0,0,1-12.52-12.38,33.87,33.87,0,0,1-4.55-17.3,33,33,0,0,1,4.65-17.26,33.44,33.44,0,0,1,12.66-12.24A36.8,36.8,0,0,1,673,166.09,34.38,34.38,0,0,1,684.62,174l-7.4,9.3A25.08,25.08,0,0,0,668.92,176.9Z"/><path class="cls-4" d="M741.51,179.75v50.73H729.09v-9.39Q724,231,711.45,231q-8.54,0-13.46-5.22t-4.93-14.22V179.75h12.42v28.16a11.78,11.78,0,0,0,2.89,8.35,10.57,10.57,0,0,0,8,3,11.74,11.74,0,0,0,9.3-4.17,15.62,15.62,0,0,0,3.41-10.34v-25Z"/><path class="cls-4" d="M779.3,190.08a24.5,24.5,0,0,0-7.25-1.23,9.87,9.87,0,0,0-5,1.09,3.65,3.65,0,0,0-1.85,3.37,4,4,0,0,0,2.32,3.65,37.65,37.65,0,0,0,7.35,2.7,71.74,71.74,0,0,1,8.73,3.18,16.3,16.3,0,0,1,5.92,4.65,12.37,12.37,0,0,1,2.52,8.1A13,13,0,0,1,786.37,227q-5.68,4-14.32,4a36.4,36.4,0,0,1-11.48-1.85,27.07,27.07,0,0,1-9.48-5.27l4.27-8.63a24.74,24.74,0,0,0,8.15,4.6,27.1,27.1,0,0,0,9,1.66,10.9,10.9,0,0,0,5.46-1.18,3.88,3.88,0,0,0,2-3.56,4.29,4.29,0,0,0-2.37-4,41.52,41.52,0,0,0-7.68-2.94,65.28,65.28,0,0,1-8.34-3,15,15,0,0,1-5.6-4.45,12.28,12.28,0,0,1-2.37-7.83q0-7.49,5.45-11.43t13.71-3.93a35.38,35.38,0,0,1,9.91,1.42,31.2,31.2,0,0,1,8.67,4l-4.45,8.92A36.42,36.42,0,0,0,779.3,190.08Z"/><path class="cls-4" d="M832.27,227.35a24,24,0,0,1-12.71,3.7,15.18,15.18,0,0,1-10.72-3.84q-4.17-3.84-4.17-11.33v-25h-7.11l-.1-9h7.21v-14H816.9v13.94h14.51v9H816.9V213.7q0,3.51,1.33,5a5.09,5.09,0,0,0,4,1.47,17.71,17.71,0,0,0,7.21-2.09Z"/><path class="cls-4" d="M877.55,182.59a23.39,23.39,0,0,1,9.39,9.06,26.48,26.48,0,0,1,3.36,13.42,26.76,26.76,0,0,1-3.36,13.56,23.3,23.3,0,0,1-9.39,9.1A29.06,29.06,0,0,1,863.66,231a29.6,29.6,0,0,1-14-3.23,23.09,23.09,0,0,1-9.43-9.1,26.77,26.77,0,0,1-3.37-13.56,26.36,26.36,0,0,1,3.37-13.42,23.17,23.17,0,0,1,9.43-9.06,29.47,29.47,0,0,1,14-3.22A29,29,0,0,1,877.55,182.59Zm-24.33,11.57a17.45,17.45,0,0,0,0,22.19,13.62,13.62,0,0,0,10.44,4.27,13.35,13.35,0,0,0,10.24-4.27,17.45,17.45,0,0,0,0-22.19,13.44,13.44,0,0,0-10.24-4.27A13.65,13.65,0,0,0,853.22,194.16Z"/><path class="cls-4" d="M981.06,184.54q4.92,5.25,4.93,14.27v31.67H973.56V202.41q0-5.4-3-8.49a10.78,10.78,0,0,0-8.11-3.08,12.19,12.19,0,0,0-9.34,4.27,15.37,15.37,0,0,0-3.46,10.34v25H937.24v-28q0-5.4-2.94-8.49a10.63,10.63,0,0,0-8.06-3.08,12.24,12.24,0,0,0-9.43,4.27,15.37,15.37,0,0,0-3.46,10.34v25H901v-50.7h12.33v9.39q5-9.67,17.82-9.87a18.87,18.87,0,0,1,11.15,3.18,16.62,16.62,0,0,1,6.3,9q4.85-11.94,18.88-12.14Q976.14,179.27,981.06,184.54Z"/><path class="cls-4" d="M1029.7,230.48v-6.16a16.53,16.53,0,0,1-6.82,5,25.11,25.11,0,0,1-9.58,1.71,20.37,20.37,0,0,1-9.34-2,15,15,0,0,1-6.22-5.64,15.24,15.24,0,0,1-2.18-8.06q0-7.11,5-11.14t14.22-4.13h14.8v-1.33a8.54,8.54,0,0,0-2.94-6.92q-2.94-2.46-8.54-2.46-7.2,0-15.08,4.74l-4.45-8.54a56,56,0,0,1,10.86-4.79,39.71,39.71,0,0,1,11.42-1.47q9.87,0,15.32,4.74t5.55,13.28l.09,33.19Zm-4.36-11.42a8.75,8.75,0,0,0,4.27-6.22v-4.55h-12.8q-4.93,0-7.26,1.47a5.23,5.23,0,0,0-2.32,4.79,6.13,6.13,0,0,0,2.42,5.12,10.4,10.4,0,0,0,6.59,1.9A16.17,16.17,0,0,0,1025.34,219.06Z"/></g></g><text class="cls-6" transform="translate(572.88 275.07)">Font:<tspan class="cls-7" x="65.44" y="0">	</tspan><tspan class="cls-8" x="72" y="0" xml:space="preserve">		</tspan><tspan x="144" y="0">Montser</tspan><tspan class="cls-9" x="251.28" y="0">r</tspan><tspan x="261.26" y="0">at</tspan><tspan class="cls-10" x="0" y="31.2">W</tspan><tspan x="26.52" y="31.2">eight:</tspan><tspan class="cls-11" x="100.28" y="31.2">	</tspan><tspan class="cls-8" x="108" y="31.2">	</tspan><tspan x="144" y="31.2">Medium</tspan><tspan x="0" y="62.4">Si</tspan><tspan class="cls-12" x="23.89" y="62.4">z</tspan><tspan x="37.83" y="62.4">e:</tspan><tspan class="cls-13" x="59.07" y="62.4">	</tspan><tspan class="cls-8" x="72" y="62.4" xml:space="preserve">		</tspan><tspan x="144" y="62.4">1/2 </tspan><tspan class="cls-14" x="184.4" y="62.4">o</tspan><tspan x="200.58" y="62.4">f Logo</tspan></text></g><text class="cls-15" transform="translate(478.71 460.21) rotate(90)">L<tspan class="cls-16" x="44.54" y="0">O</tspan><tspan x="101.04" y="0">GO | </tspan><tspan class="cls-17" x="305.02" y="0">W</tspan><tspan x="375.14" y="0">ORDMARK</tspan></text><g id="Left"><g id="Dimensions"><g id="Face"><path class="cls-18" d="M378.13,1457.14a144.48,144.48,0,1,1-144.48-144.49v144.48Z"/><circle class="cls-19" cx="233.65" cy="1457.14" r="93.92"/><path class="cls-2" d="M216.31,1440c0,10.56-7.77,19.12-17.34,19.12s-17.34-8.56-17.34-19.12,7.76-19.12,17.34-19.12S216.31,1429.4,216.31,1440Z"/><path class="cls-2" d="M285.66,1440c0,10.56-7.76,19.12-17.34,19.12S251,1450.52,251,1440s7.77-19.12,17.34-19.12S285.66,1429.4,285.66,1440Z"/><path class="cls-2" d="M267.34,1475.9c3.72,2.13,5,6.9,2.28,10.16a44.69,44.69,0,0,1-49.13,13.06c-4-1.45-5.3-6.24-3.15-9.92h0c2.15-3.68,6.89-4.82,11-3.76a29,29,0,0,0,27.53-7.32c3-3,7.73-4.34,11.44-2.22Z"/><g id="Scale"><g id="Scale-2"><line class="cls-20" x1="180.18" y1="1647.76" x2="287.11" y2="1647.76"/><line class="cls-20" x1="287.11" y1="1666.22" x2="287.11" y2="1628.9"/><line class="cls-20" x1="180.18" y1="1666.22" x2="180.18" y2="1628.9"/></g><path class="cls-4" d="M222.4,1615.77a11.63,11.63,0,0,1,0,12.65,7.58,7.58,0,0,1-10.7,0,11.58,11.58,0,0,1,0-12.65,7.61,7.61,0,0,1,10.7,0Zm-8.3,1.79a11.24,11.24,0,0,0,0,9.09,3.71,3.71,0,0,0,5.9,0,11.24,11.24,0,0,0,0-9.09,3.73,3.73,0,0,0-5.9,0Z"/><path class="cls-4" d="M229.37,1627.75a1.69,1.69,0,0,1,.47,1.22,1.74,1.74,0,0,1-.47,1.26,1.57,1.57,0,0,1-1.19.5,1.51,1.51,0,0,1-1.16-.51,1.76,1.76,0,0,1-.47-1.25,1.69,1.69,0,0,1,.47-1.22,1.55,1.55,0,0,1,1.16-.48A1.59,1.59,0,0,1,229.37,1627.75Z"/><path class="cls-4" d="M242.67,1622.13a4,4,0,0,1,1.38,3.15,4.88,4.88,0,0,1-.82,2.8,5.45,5.45,0,0,1-2.33,1.89,8.38,8.38,0,0,1-3.52.68,11.55,11.55,0,0,1-3.38-.51,9.76,9.76,0,0,1-2.84-1.38l1.27-2.5a7.55,7.55,0,0,0,2.23,1.29,7.44,7.44,0,0,0,2.5.44,4.63,4.63,0,0,0,2.75-.72,2.28,2.28,0,0,0,1-1.94,2.15,2.15,0,0,0-1-1.91,5,5,0,0,0-2.81-.66h-2.54v-2l4.51-4.36H232l0-2.74h11.23v2l-5.14,4.92.89.1A6.38,6.38,0,0,1,242.67,1622.13Z"/><path class="cls-4" d="M255.77,1616.46a7.29,7.29,0,0,0-2-.28,4,4,0,0,0-3.4,1.51,6.41,6.41,0,0,0-1.07,4.13,4.25,4.25,0,0,1,1.77-1.67,5.86,5.86,0,0,1,2.65-.56,5.39,5.39,0,0,1,4,1.46,5.32,5.32,0,0,1,1.46,3.92,6,6,0,0,1-.74,3,5.08,5.08,0,0,1-2.1,2,6.9,6.9,0,0,1-3.16.69,6.74,6.74,0,0,1-3.69-1,6.3,6.3,0,0,1-2.39-2.83,10.79,10.79,0,0,1-.83-4.42,11.34,11.34,0,0,1,.9-4.67,7.06,7.06,0,0,1,2.56-3.09,6.87,6.87,0,0,1,3.88-1.09,10.56,10.56,0,0,1,2.68.35,9.25,9.25,0,0,1,2.41.94l-1.22,2.4A5.55,5.55,0,0,0,255.77,1616.46Zm-5.07,6.47a2.71,2.71,0,0,0-.89,2.13,2.61,2.61,0,0,0,.33,1.38,2.79,2.79,0,0,0,1.1,1.08,3.56,3.56,0,0,0,1.81.42,3.25,3.25,0,0,0,2.3-.79,2.83,2.83,0,0,0,.87-2.21,2.76,2.76,0,0,0-.83-2.1,3.14,3.14,0,0,0-2.25-.78A3.37,3.37,0,0,0,250.7,1622.93Z"/></g><g id="Scale_Vert" data-name="Scale Vert"><g id="Scale-2-2" data-name="Scale-2"><line class="cls-20" x1="71.36" y1="1497.84" x2="71.36" y2="1417.29"/><line class="cls-20" x1="89.82" y1="1417.29" x2="52.5" y2="1417.29"/><line class="cls-20" x1="89.82" y1="1497.84" x2="52.5" y2="1497.84"/></g><path class="cls-4" d="M39.55,1467.69a9.51,9.51,0,0,1,6.33-1.87,9.51,9.51,0,0,1,6.32,1.87,7.61,7.61,0,0,1,0,10.7,9.51,9.51,0,0,1-6.32,1.87,9.51,9.51,0,0,1-6.33-1.87,7.58,7.58,0,0,1,0-10.7Zm1.79,8.3a8.38,8.38,0,0,0,4.54,1,8.45,8.45,0,0,0,4.54-1,3.71,3.71,0,0,0,0-5.9,8.45,8.45,0,0,0-4.54-1,8.38,8.38,0,0,0-4.54,1,3.71,3.71,0,0,0,0,5.9Z"/><path class="cls-4" d="M51.52,1460.72a1.66,1.66,0,0,1,1.23-.47,1.73,1.73,0,0,1,1.26.47,1.64,1.64,0,0,1,0,2.35,1.8,1.8,0,0,1-1.25.47,1.7,1.7,0,0,1-1.23-.47,1.68,1.68,0,0,1,0-2.35Z"/><path class="cls-4" d="M51.48,1445.85h2.8v12.43H52L45.43,1452a10.39,10.39,0,0,0-1.8-1.47,3,3,0,0,0-1.54-.55,1.67,1.67,0,0,0-1.43.72,3.39,3.39,0,0,0-.51,2,5.76,5.76,0,0,0,.55,2.35,8.74,8.74,0,0,0,1.54,2.35l-2.48,1.28a12.47,12.47,0,0,1-1.78-3.14,8.91,8.91,0,0,1-.64-3.29,7.62,7.62,0,0,1,.53-2.93,4.47,4.47,0,0,1,1.5-2,3.65,3.65,0,0,1,2.24-.71,5,5,0,0,1,2.59.84,17.88,17.88,0,0,1,3,2.35l4.32,4.27Z"/><path class="cls-4" d="M38.53,1433.33a3.89,3.89,0,0,1,3.23-1.52,3.71,3.71,0,0,1,2.08.62,4.22,4.22,0,0,1,1.47,1.73,5.1,5.1,0,0,1,1.68-2.34,4.15,4.15,0,0,1,2.59-.85,4.28,4.28,0,0,1,2.57.79,5,5,0,0,1,1.69,2.27,10.35,10.35,0,0,1,0,6.89,5.06,5.06,0,0,1-1.67,2.27,4.24,4.24,0,0,1-2.54.79,4.18,4.18,0,0,1-2.63-.89,5.22,5.22,0,0,1-1.69-2.45,4.68,4.68,0,0,1-1.54,1.84,3.68,3.68,0,0,1-2.13.66,3.74,3.74,0,0,1-3.14-1.53,7.88,7.88,0,0,1,0-8.28Zm1.71,6.31a2.18,2.18,0,0,0,3.36,0,4.21,4.21,0,0,0,0-4.33,2.22,2.22,0,0,0-3.36,0,4.21,4.21,0,0,0,0,4.33Zm7.13.4a2.22,2.22,0,0,0,1.9.91,2.29,2.29,0,0,0,1.94-.91,5.06,5.06,0,0,0,0-5.12,2.45,2.45,0,0,0-3.84,0,4.28,4.28,0,0,0-.68,2.58A4.19,4.19,0,0,0,47.37,1440Z"/></g></g><g id="Inner"><g id="Logo_Accent" data-name="Logo Accent"><path class="cls-18" d="M378.09,1093.49A144.45,144.45,0,1,1,233.6,949v144.49Z"/><circle class="cls-3" cx="233.6" cy="1093.49" r="93.91"/><g class="cls-21"><path class="cls-2" d="M216.19,1076.28c0,10.51-7.8,19.13-17.3,19.13s-17.31-8.52-17.31-19.13,7.81-19.13,17.31-19.13S216.19,1065.77,216.19,1076.28Z"/><path class="cls-2" d="M285.61,1076.28c0,10.51-7.8,19.13-17.3,19.13S251,1086.89,251,1076.28s7.8-19.13,17.31-19.13S285.61,1065.77,285.61,1076.28Z"/><path class="cls-2" d="M267.31,1112.26c3.7,2.09,5,6.94,2.3,10.12a44.48,44.48,0,0,1-22.51,14.17,45.06,45.06,0,0,1-26.61-1.09c-4-1.49-5.3-6.24-3.1-9.91h0c2.1-3.67,6.9-4.86,11-3.77a29.51,29.51,0,0,0,14.7-.1,28.43,28.43,0,0,0,12.8-7.23c3-3,7.71-4.37,11.41-2.19Z"/></g></g><g id="Scale-2-3" data-name="Scale"><g id="Scale-3"><line class="cls-20" x1="71.36" y1="1184.2" x2="71.36" y2="1002.76"/><line class="cls-20" x1="89.82" y1="1002.76" x2="52.5" y2="1002.76"/><line class="cls-20" x1="89.82" y1="1184.2" x2="52.5" y2="1184.2"/></g><path class="cls-4" d="M40.32,1145.13a7.92,7.92,0,0,0-.42,2.36,3.33,3.33,0,0,0,.42,1.8,1.34,1.34,0,0,0,1.19.67,1.6,1.6,0,0,0,1.15-.46,3.63,3.63,0,0,0,.76-1.17,18.5,18.5,0,0,0,.65-1.9,20.79,20.79,0,0,1,1-2.77,5,5,0,0,1,1.47-1.83,4,4,0,0,1,2.56-.76,4.34,4.34,0,0,1,2.65.82,5.11,5.11,0,0,1,1.72,2.25,8.55,8.55,0,0,1,.59,3.28,10.25,10.25,0,0,1-.72,3.79,10.86,10.86,0,0,1-1.94,3.23l-2.7-1.33a9.7,9.7,0,0,0,1.83-2.82,7.54,7.54,0,0,0,.66-2.92,3.7,3.7,0,0,0-.51-2.08,1.68,1.68,0,0,0-2.33-.48,1.3,1.3,0,0,0-.23.18,3.49,3.49,0,0,0-.75,1.18c-.19.47-.4,1.12-.64,1.94a22,22,0,0,1-1,2.75,4.72,4.72,0,0,1-1.43,1.82,3.89,3.89,0,0,1-2.53.76,4.22,4.22,0,0,1-2.52-.77,4.93,4.93,0,0,1-1.67-2.18,8.27,8.27,0,0,1-.6-3.26,11.39,11.39,0,0,1,1.76-6l2.77,1.28A12.39,12.39,0,0,0,40.32,1145.13Z"/><path class="cls-4" d="M43.78,1132.77a3.22,3.22,0,0,0,1,2.5,3.82,3.82,0,0,0,2.7,1,3.87,3.87,0,0,0,2.75-1,3.22,3.22,0,0,0,1-2.5,4,4,0,0,0-1.49-3.41l1.59-1.92a5.61,5.61,0,0,1,1.9,2.25,7.57,7.57,0,0,1,.66,3.25,6.78,6.78,0,0,1-.81,3.33,5.59,5.59,0,0,1-2.26,2.26,6.79,6.79,0,0,1-3.36.81,6.91,6.91,0,0,1-3.39-.82,5.79,5.79,0,0,1-2.27-2.28,6.86,6.86,0,0,1-.81-3.35,7.52,7.52,0,0,1,.61-3.1,5.65,5.65,0,0,1,1.72-2.21l1.77,1.87A4.31,4.31,0,0,0,43.78,1132.77Z"/><path class="cls-4" d="M53.86,1117.76H52.32a4.27,4.27,0,0,1,1.26,1.71,6.36,6.36,0,0,1,.42,2.4,5.08,5.08,0,0,1-.51,2.33,3.76,3.76,0,0,1-3.42,2.1,3.37,3.37,0,0,1-2.79-1.26,5.68,5.68,0,0,1-1-3.55v-3.7H46a2.11,2.11,0,0,0-1.73.73,3.28,3.28,0,0,0-.62,2.14,7.42,7.42,0,0,0,1.19,3.77l-2.14,1.11a14.2,14.2,0,0,1-1.19-2.71,9.85,9.85,0,0,1-.37-2.86,5.63,5.63,0,0,1,1.18-3.83,4.26,4.26,0,0,1,3.32-1.39h8.3ZM51,1118.85a2.17,2.17,0,0,0-1.55-1.06H48.31v3.2a3.53,3.53,0,0,0,.37,1.81,1.3,1.3,0,0,0,1.2.58,1.56,1.56,0,0,0,1.28-.6,2.61,2.61,0,0,0,.47-1.65A4.07,4.07,0,0,0,51,1118.85Z"/><path class="cls-4" d="M36.27,1111.15v-3.08H53.86v3.08Z"/><path class="cls-4" d="M42.81,1094.26a7.13,7.13,0,0,1,4.86-1.53h.93v9.37a3.55,3.55,0,0,0,2.89-3.63,4.75,4.75,0,0,0-.37-1.86,4.4,4.4,0,0,0-1-1.55l1.73-1.66a6.43,6.43,0,0,1,1.61,2.31,7.7,7.7,0,0,1,.57,3,7,7,0,0,1-.81,3.43,5.58,5.58,0,0,1-2.26,2.28,7.31,7.31,0,0,1-6.72,0,5.74,5.74,0,0,1-2.29-2.29,6.69,6.69,0,0,1-.82-3.34A5.79,5.79,0,0,1,42.81,1094.26Zm3.72,1.29a3,3,0,0,0-2.22.92,3.27,3.27,0,0,0-.83,2.33,3.23,3.23,0,0,0,.81,2.26,3.64,3.64,0,0,0,2.24,1.13Z"/><path class="cls-4" d="M44.09,1088.16a1.7,1.7,0,0,1,1.21-.46,1.79,1.79,0,0,1,1.25.46,1.59,1.59,0,0,1,.48,1.18,1.48,1.48,0,0,1-.5,1.15,1.7,1.7,0,0,1-1.23.46,1.64,1.64,0,0,1-1.21-.46,1.55,1.55,0,0,1-.47-1.15A1.62,1.62,0,0,1,44.09,1088.16Zm7,0a1.7,1.7,0,0,1,1.21-.46,1.79,1.79,0,0,1,1.25.46,1.59,1.59,0,0,1,.48,1.18,1.51,1.51,0,0,1-.49,1.15,1.77,1.77,0,0,1-1.24.46,1.64,1.64,0,0,1-1.21-.46,1.55,1.55,0,0,1-.47-1.15,1.59,1.59,0,0,1,.51-1.18Z"/><path class="cls-4" d="M39.3,1067.17a9.43,9.43,0,0,1,6.26-1.85,9.38,9.38,0,0,1,6.24,1.85,7.5,7.5,0,0,1,0,10.58,9.39,9.39,0,0,1-6.24,1.84,9.43,9.43,0,0,1-6.26-1.84A7.5,7.5,0,0,1,39.3,1067.17Zm1.77,8.2a8.26,8.26,0,0,0,4.49,1,8.23,8.23,0,0,0,4.48-1,3.66,3.66,0,0,0,.7-5.13,3.87,3.87,0,0,0-.7-.7,8.32,8.32,0,0,0-4.48-1,8.35,8.35,0,0,0-4.49,1,3.69,3.69,0,0,0-.65,5.18A4,4,0,0,0,41.07,1075.37Z"/><path class="cls-4" d="M51.13,1060.28a1.7,1.7,0,0,1,1.21-.46,1.79,1.79,0,0,1,1.25.46,1.59,1.59,0,0,1,.48,1.18,1.51,1.51,0,0,1-.49,1.15,1.77,1.77,0,0,1-1.24.46,1.64,1.64,0,0,1-1.21-.46,1.55,1.55,0,0,1-.47-1.15A1.62,1.62,0,0,1,51.13,1060.28Z"/><path class="cls-4" d="M40,1048.26a7,7,0,0,0-.27,1.94,4,4,0,0,0,1.49,3.35,6.41,6.41,0,0,0,4.08,1.06,4.22,4.22,0,0,1-1.65-1.75,5.78,5.78,0,0,1-.56-2.62,5.29,5.29,0,0,1,1.45-3.91,5.21,5.21,0,0,1,3.86-1.44,5.83,5.83,0,0,1,3,.73,4.89,4.89,0,0,1,2,2.08,6.82,6.82,0,0,1,.68,3.11,6.61,6.61,0,0,1-1,3.65,6.14,6.14,0,0,1-2.8,2.36,10.51,10.51,0,0,1-4.36.82,11.24,11.24,0,0,1-4.61-.89,7,7,0,0,1-3.06-2.52,6.77,6.77,0,0,1-1.08-3.84,10.83,10.83,0,0,1,.35-2.65,9.34,9.34,0,0,1,.93-2.38l2.37,1.21A5.52,5.52,0,0,0,40,1048.26Zm6.39,5a2.72,2.72,0,0,0,2.11.88,2.67,2.67,0,0,0,1.36-.34,2.75,2.75,0,0,0,1.07-1.07,3.6,3.6,0,0,0,.41-1.79,3.27,3.27,0,0,0-.78-2.28,2.78,2.78,0,0,0-2.18-.85,2.72,2.72,0,0,0-2.07.81,3.07,3.07,0,0,0-.77,2.22,3.36,3.36,0,0,0,.83,2.44Z"/><path class="cls-4" d="M44,1033a5.13,5.13,0,0,1,1.79-2.2,4.63,4.63,0,0,1,2.6-.77,5.38,5.38,0,0,1,3,.81,5.18,5.18,0,0,1,2,2.27,7.74,7.74,0,0,1,.7,3.42,10.91,10.91,0,0,1-.53,3.26,11.34,11.34,0,0,1-1.43,3l-2.49-1.26a9,9,0,0,0,1.29-2.28,6.62,6.62,0,0,0,.46-2.41,3.87,3.87,0,0,0-.72-2.48,2.39,2.39,0,0,0-2-.91,2.21,2.21,0,0,0-1.88.9,4.51,4.51,0,0,0-.66,2.68c0,.56,0,1.32.06,2.25s.08,1.65.13,2.16h-9v-10.67H40v7.73h3.29v-2.21A8,8,0,0,1,44,1033Z"/></g></g><g id="Outer"><g id="Scale-3-2" data-name="Scale"><g id="Scale-4"><line class="cls-20" x1="71.36" y1="874.79" x2="71.36" y2="583.95"/><line class="cls-20" x1="89.82" y1="583.95" x2="52.5" y2="583.95"/><line class="cls-20" x1="89.82" y1="874.79" x2="52.5" y2="874.79"/></g><path class="cls-4" d="M40.32,759.67A8,8,0,0,0,39.9,762a3.36,3.36,0,0,0,.42,1.81,1.35,1.35,0,0,0,1.19.66,1.55,1.55,0,0,0,1.15-.46,3.88,3.88,0,0,0,.76-1.16,18.67,18.67,0,0,0,.65-1.91,20.65,20.65,0,0,1,1-2.76,5.06,5.06,0,0,1,1.47-1.84,4,4,0,0,1,2.56-.76,4.34,4.34,0,0,1,2.65.82,5.11,5.11,0,0,1,1.72,2.25,8.55,8.55,0,0,1,.59,3.28,10.3,10.3,0,0,1-.72,3.8,10.76,10.76,0,0,1-2,3.27l-2.7-1.33a9.7,9.7,0,0,0,1.83-2.82,7.53,7.53,0,0,0,.66-2.91,3.73,3.73,0,0,0-.51-2.09,1.69,1.69,0,0,0-2.33-.49,2.11,2.11,0,0,0-.23.19,3.49,3.49,0,0,0-.75,1.18c-.19.47-.4,1.12-.64,1.94a22,22,0,0,1-1,2.75,4.75,4.75,0,0,1-1.43,1.83,4,4,0,0,1-2.53.75,4.22,4.22,0,0,1-2.52-.77A4.87,4.87,0,0,1,37.6,765a8.24,8.24,0,0,1-.6-3.26,11.39,11.39,0,0,1,1.76-6L41.53,757A12.58,12.58,0,0,0,40.32,759.67Z"/><path class="cls-4" d="M43.78,747.3a3.22,3.22,0,0,0,1,2.5,3.82,3.82,0,0,0,2.7,1,3.87,3.87,0,0,0,2.75-1,3.22,3.22,0,0,0,1-2.5,4,4,0,0,0-1.49-3.41L51.42,742a5.75,5.75,0,0,1,1.9,2.25A7.57,7.57,0,0,1,54,747.5a6.78,6.78,0,0,1-.81,3.33,5.59,5.59,0,0,1-2.26,2.26,7.38,7.38,0,0,1-6.75,0,5.72,5.72,0,0,1-2.27-2.28,6.86,6.86,0,0,1-.81-3.35,7.45,7.45,0,0,1,.61-3.09,5.44,5.44,0,0,1,1.72-2.22L45.18,744A4.33,4.33,0,0,0,43.78,747.3Z"/><path class="cls-4" d="M53.86,732.29H52.32A4.27,4.27,0,0,1,53.58,734a6.56,6.56,0,0,1,.42,2.4,5.08,5.08,0,0,1-.51,2.33,3.76,3.76,0,0,1-3.42,2.1,3.37,3.37,0,0,1-2.79-1.26,5.68,5.68,0,0,1-1-3.55v-3.7H46a2.11,2.11,0,0,0-1.73.73,3.28,3.28,0,0,0-.62,2.14A7.37,7.37,0,0,0,44.76,739l-2.14,1.11a14.2,14.2,0,0,1-1.19-2.71,9.85,9.85,0,0,1-.37-2.86,5.63,5.63,0,0,1,1.18-3.83,4.26,4.26,0,0,1,3.32-1.39h8.3ZM51,733.39a2.14,2.14,0,0,0-1.55-1.07H48.31v3.2a3.53,3.53,0,0,0,.37,1.81,1.3,1.3,0,0,0,1.2.58,1.56,1.56,0,0,0,1.28-.6,2.61,2.61,0,0,0,.47-1.65A4.06,4.06,0,0,0,51,733.39Z"/><path class="cls-4" d="M36.27,725.68V722.6H53.86v3.08Z"/><path class="cls-4" d="M42.81,708.79a7.13,7.13,0,0,1,4.86-1.53h.93v9.37A3.55,3.55,0,0,0,51.49,713a4.75,4.75,0,0,0-.37-1.86,4.4,4.4,0,0,0-1-1.55L51.8,708a6.43,6.43,0,0,1,1.61,2.31,7.7,7.7,0,0,1,.57,3,7,7,0,0,1-.81,3.43A5.59,5.59,0,0,1,50.91,719a6.89,6.89,0,0,1-3.36.8,6.79,6.79,0,0,1-3.36-.82,5.84,5.84,0,0,1-2.29-2.28,6.76,6.76,0,0,1-.82-3.35A5.8,5.8,0,0,1,42.81,708.79Zm3.72,1.29a3,3,0,0,0-2.22.92,3.27,3.27,0,0,0-.83,2.33,3.23,3.23,0,0,0,.81,2.26,3.64,3.64,0,0,0,2.24,1.13Z"/><path class="cls-4" d="M44.09,702.7a1.69,1.69,0,0,1,1.21-.47,1.76,1.76,0,0,1,1.25.47,1.52,1.52,0,0,1,.48,1.17,1.48,1.48,0,0,1-.5,1.15,1.7,1.7,0,0,1-1.23.46,1.64,1.64,0,0,1-1.21-.46A1.68,1.68,0,0,1,44.09,702.7Zm7,0a1.69,1.69,0,0,1,1.21-.47,1.76,1.76,0,0,1,1.25.47,1.63,1.63,0,0,1,0,2.32,1.77,1.77,0,0,1-1.24.46,1.64,1.64,0,0,1-1.21-.46A1.68,1.68,0,0,1,51.09,702.7Z"/><path class="cls-4" d="M37.26,695.36V688.7h16.6v3.17H40.06v3.49Z"/></g><g id="Logo"><path class="cls-2" d="M378.09,729.37A144.48,144.48,0,1,1,233.61,584.88V729.37Z"/><circle class="cls-19" cx="233.61" cy="729.37" r="93.91"/><g class="cls-21"><path class="cls-2" d="M216.27,712.2c0,10.55-7.77,19.11-17.34,19.11s-17.34-8.56-17.34-19.11,7.76-19.12,17.34-19.12S216.27,701.64,216.27,712.2Z"/><path class="cls-2" d="M285.62,712.2c0,10.55-7.76,19.11-17.34,19.11s-17.34-8.56-17.34-19.11,7.77-19.12,17.34-19.12S285.62,701.64,285.62,712.2Z"/><path class="cls-2" d="M267.3,748.14c3.72,2.12,5,6.9,2.28,10.15a44.67,44.67,0,0,1-49.13,13.07c-4-1.45-5.3-6.24-3.15-9.93h0c2.15-3.68,6.89-4.82,11-3.75a29.06,29.06,0,0,0,27.53-7.32c3.05-3,7.73-4.35,11.44-2.22Z"/></g></g><path id="BackgroundBG1-8" class="cls-22" d="M231.19,732.41V587A145.44,145.44,0,0,1,376.61,732.41Z"/></g><g id="Dimensions-2" data-name="Dimensions"><path class="cls-4" d="M120.24,510.43a15.41,15.41,0,0,1,6.16,5.9,16.54,16.54,0,0,1,2.23,8.58,16.37,16.37,0,0,1-2.25,8.56,15.68,15.68,0,0,1-6.24,5.9,18.78,18.78,0,0,1-9,2.14H97.53V508.32h13.8A18.55,18.55,0,0,1,120.24,510.43Zm-3.3,24.08a10,10,0,0,0,3.82-3.88,12.21,12.21,0,0,0-.05-11.38,10.08,10.08,0,0,0-3.91-3.94,11.27,11.27,0,0,0-5.57-1.4h-7.35v22h7.59A10.7,10.7,0,0,0,116.94,534.51Z"/><path class="cls-4" d="M139.49,506.28a3.72,3.72,0,0,1,1,2.65,3.61,3.61,0,0,1-1,2.61,3.56,3.56,0,0,1-5,0,3.61,3.61,0,0,1-1-2.61,3.72,3.72,0,0,1,1-2.65A3.56,3.56,0,0,1,139.49,506.28Zm-5.55,9.86h6.17v25.37h-6.17Z"/><path class="cls-4" d="M187.76,518.54a10,10,0,0,1,2.46,7.13v15.84H184v-14a5.84,5.84,0,0,0-1.49-4.24,5.39,5.39,0,0,0-4.06-1.54,6.12,6.12,0,0,0-4.67,2.13,7.71,7.71,0,0,0-1.73,5.17v12.52h-6.21v-14a5.88,5.88,0,0,0-1.47-4.24,5.33,5.33,0,0,0-4-1.54,6.14,6.14,0,0,0-4.72,2.13,7.7,7.7,0,0,0-1.75,5.1v12.52h-6.16V516.14h6.16v4.7q2.52-4.85,8.92-4.94a9.41,9.41,0,0,1,5.57,1.59,8.42,8.42,0,0,1,3.15,4.48q2.42-6,9.44-6.07A8.87,8.87,0,0,1,187.76,518.54Z"/><path class="cls-4" d="M216.8,519.41q3.06,3.47,3.06,9.72a18.09,18.09,0,0,1-.05,1.85H201.08a7.07,7.07,0,0,0,7.26,5.79,9.68,9.68,0,0,0,3.72-.74,9,9,0,0,0,3.1-2.11l3.32,3.46a12.76,12.76,0,0,1-4.62,3.23,15.49,15.49,0,0,1-6.05,1.14,14.09,14.09,0,0,1-6.85-1.62,11.24,11.24,0,0,1-4.57-4.52,14.77,14.77,0,0,1,0-13.45,11.57,11.57,0,0,1,4.58-4.57,13.55,13.55,0,0,1,6.68-1.64Q213.76,516,216.8,519.41Zm-2.58,7.45a6.16,6.16,0,0,0-1.85-4.46,6.47,6.47,0,0,0-4.65-1.66,6.57,6.57,0,0,0-4.53,1.64,7.19,7.19,0,0,0-2.25,4.48Z"/><path class="cls-4" d="M247.31,518.54a9.87,9.87,0,0,1,2.51,7.13v15.84h-6.21v-14a5.64,5.64,0,0,0-1.52-4.19,5.52,5.52,0,0,0-4.12-1.54,6.24,6.24,0,0,0-4.86,2.08,7.64,7.64,0,0,0-1.78,5.22v12.47h-6.16V516.14h6.16v4.74q2.61-4.87,9.11-5A9,9,0,0,1,247.31,518.54Z"/><path class="cls-4" d="M268,521.31a12.13,12.13,0,0,0-3.63-.62,4.91,4.91,0,0,0-2.49.55,1.81,1.81,0,0,0-.92,1.68,2,2,0,0,0,1.16,1.83,19.93,19.93,0,0,0,3.67,1.35,37.37,37.37,0,0,1,4.37,1.59,8.21,8.21,0,0,1,3,2.32,6.2,6.2,0,0,1,1.26,4,6.51,6.51,0,0,1-2.85,5.69,12.12,12.12,0,0,1-7.16,2,18.06,18.06,0,0,1-5.74-.93,13.56,13.56,0,0,1-4.74-2.63l2.14-4.32a12.29,12.29,0,0,0,4.08,2.3,13.53,13.53,0,0,0,4.5.83,5.37,5.37,0,0,0,2.73-.59,1.92,1.92,0,0,0,1-1.78,2.16,2.16,0,0,0-1.19-2,22,22,0,0,0-3.84-1.47,32.32,32.32,0,0,1-4.17-1.49,7.52,7.52,0,0,1-2.8-2.23,6.16,6.16,0,0,1-1.19-3.91,6.63,6.63,0,0,1,2.73-5.72,11.44,11.44,0,0,1,6.85-2,17.27,17.27,0,0,1,5,.71,15.36,15.36,0,0,1,4.33,2L271.78,523A18.57,18.57,0,0,0,268,521.31Z"/><path class="cls-4" d="M285.15,506.28a3.72,3.72,0,0,1,1,2.65,3.61,3.61,0,0,1-1,2.61,3.56,3.56,0,0,1-5,0,3.61,3.61,0,0,1-1-2.61,3.72,3.72,0,0,1,1-2.65A3.56,3.56,0,0,1,285.15,506.28Zm-5.55,9.86h6.16v25.37H279.6Z"/><path class="cls-4" d="M311.44,517.56a11.68,11.68,0,0,1,4.69,4.53,13.24,13.24,0,0,1,1.69,6.71,13.49,13.49,0,0,1-1.69,6.78,11.48,11.48,0,0,1-4.69,4.55,14.45,14.45,0,0,1-6.95,1.62,14.67,14.67,0,0,1-7-1.62,11.53,11.53,0,0,1-4.71-4.55,13.29,13.29,0,0,1-1.69-6.78,13.13,13.13,0,0,1,1.69-6.71,11.67,11.67,0,0,1,4.71-4.53,14.93,14.93,0,0,1,7-1.61A14.49,14.49,0,0,1,311.44,517.56Zm-12.16,5.79a8.73,8.73,0,0,0,0,11.09,6.74,6.74,0,0,0,5.21,2.14,6.61,6.61,0,0,0,5.12-2.14,8.73,8.73,0,0,0,0-11.09,6.7,6.7,0,0,0-5.12-2.14A6.82,6.82,0,0,0,299.28,523.35Z"/><path class="cls-4" d="M345.32,518.54a9.89,9.89,0,0,1,2.51,7.13v15.84h-6.21v-14a5.72,5.72,0,0,0-1.52-4.19,5.52,5.52,0,0,0-4.12-1.54,6.24,6.24,0,0,0-4.86,2.08,7.64,7.64,0,0,0-1.78,5.22v12.47h-6.17V516.14h6.17v4.74q2.61-4.87,9.1-5A9.06,9.06,0,0,1,345.32,518.54Z"/><path class="cls-4" d="M366,521.31a12.13,12.13,0,0,0-3.63-.62,4.91,4.91,0,0,0-2.49.55,1.8,1.8,0,0,0-.93,1.68,2,2,0,0,0,1.17,1.83,19.93,19.93,0,0,0,3.67,1.35,35.49,35.49,0,0,1,4.36,1.59,8.13,8.13,0,0,1,3,2.32,6.25,6.25,0,0,1,1.25,4,6.54,6.54,0,0,1-2.84,5.69,12.19,12.19,0,0,1-7.16,2,18.06,18.06,0,0,1-5.74-.93,13.56,13.56,0,0,1-4.74-2.63l2.13-4.32a12.39,12.39,0,0,0,4.08,2.3,13.59,13.59,0,0,0,4.51.83,5.36,5.36,0,0,0,2.72-.59,1.92,1.92,0,0,0,1-1.78,2.15,2.15,0,0,0-1.18-2,21.08,21.08,0,0,0-3.85-1.47,32.32,32.32,0,0,1-4.17-1.49,7.49,7.49,0,0,1-2.79-2.23,6,6,0,0,1-1.19-3.91,6.63,6.63,0,0,1,2.73-5.72,11.44,11.44,0,0,1,6.85-2,17.63,17.63,0,0,1,4.95.71,15.42,15.42,0,0,1,4.34,2L369.78,523A18,18,0,0,0,366,521.31Z"/></g></g><g id="Colors"><g id="Logo_Normal-4" data-name="Logo Normal"><path class="cls-2" d="M378.09,249A144.48,144.48,0,1,1,233.61,104.51V249Z"/><circle class="cls-3" cx="233.61" cy="249" r="93.91"/><path class="cls-2" d="M216.27,231.83c0,10.55-7.77,19.11-17.34,19.11s-17.34-8.56-17.34-19.11,7.76-19.12,17.34-19.12S216.27,221.27,216.27,231.83Z"/><path class="cls-2" d="M285.62,231.83c0,10.55-7.76,19.11-17.34,19.11s-17.34-8.56-17.34-19.11,7.77-19.12,17.34-19.12S285.62,221.27,285.62,231.83Z"/><path class="cls-2" d="M267.3,267.77c3.72,2.12,5,6.9,2.28,10.15A44.67,44.67,0,0,1,220.45,291c-4-1.45-5.3-6.24-3.15-9.93h0c2.15-3.68,6.89-4.82,11-3.75A29.06,29.06,0,0,0,255.86,270c3.05-3,7.73-4.35,11.44-2.22Z"/></g><g id="Explanations"><g id="Background-2" data-name="Background"><g id="Color"><path class="cls-23" d="M367.8,102h-3.32l-.47,3.89h3.25l-.24,2.32h-3.3l-.49,4H361l.5-4h-4l-.5,4h-2.27l.49-4H352l.24-2.32h3.32L356,102h-3.25l.22-2.3h3.32l.52-4.13H359l-.5,4.13h4l.52-4.13h2.26l-.5,4.13H368Zm-6.07,3.89.48-3.89h-4l-.48,3.89Z"/><path class="cls-23" d="M368.66,95.54h6.66v16.6h-3.18V98.34h-3.48Z"/><path class="cls-23" d="M388.2,98.26a7,7,0,0,0-1.93-.27,3.92,3.92,0,0,0-3.35,1.49,6.35,6.35,0,0,0-1.06,4.08,4.19,4.19,0,0,1,1.74-1.65,5.78,5.78,0,0,1,2.62-.56,5.25,5.25,0,0,1,3.91,1.45,5.18,5.18,0,0,1,1.45,3.86,5.83,5.83,0,0,1-.73,3,4.89,4.89,0,0,1-2.08,2,7.36,7.36,0,0,1-6.77-.28,6.25,6.25,0,0,1-2.36-2.8,10.69,10.69,0,0,1-.81-4.36,11.08,11.08,0,0,1,.89-4.61,7,7,0,0,1,2.52-3.06,6.77,6.77,0,0,1,3.84-1.08,10.69,10.69,0,0,1,2.64.35,9.27,9.27,0,0,1,2.39.93l-1.21,2.37A5.68,5.68,0,0,0,388.2,98.26Zm-5,6.39a3,3,0,0,0-.55,3.47,2.78,2.78,0,0,0,1.08,1.07,3.6,3.6,0,0,0,1.79.41,3.27,3.27,0,0,0,2.28-.78,2.78,2.78,0,0,0,.85-2.18,2.68,2.68,0,0,0-.82-2.07,3.08,3.08,0,0,0-2.21-.78,3.34,3.34,0,0,0-2.43.86Z"/><path class="cls-23" d="M392.72,95.54h6.66v16.6H396.2V98.34h-3.48Z"/><path class="cls-23" d="M412.27,98.26a7,7,0,0,0-1.94-.27A3.94,3.94,0,0,0,407,99.48a6.35,6.35,0,0,0-1.06,4.08,4.22,4.22,0,0,1,1.75-1.65,5.78,5.78,0,0,1,2.62-.56,5.29,5.29,0,0,1,3.91,1.45,5.21,5.21,0,0,1,1.44,3.86,5.83,5.83,0,0,1-.73,3,4.89,4.89,0,0,1-2.08,2,7.34,7.34,0,0,1-6.76-.28,6.14,6.14,0,0,1-2.36-2.8,10.51,10.51,0,0,1-.82-4.36,11.24,11.24,0,0,1,.89-4.61,7,7,0,0,1,2.52-3.06,6.77,6.77,0,0,1,3.84-1.08,10.83,10.83,0,0,1,2.65.35,9.34,9.34,0,0,1,2.38.93L414,99.05A5.54,5.54,0,0,0,412.27,98.26Zm-5,6.39a2.72,2.72,0,0,0-.88,2.11,2.67,2.67,0,0,0,.34,1.36,2.75,2.75,0,0,0,1.07,1.07,3.6,3.6,0,0,0,1.79.41,3.27,3.27,0,0,0,2.28-.78,2.78,2.78,0,0,0,.85-2.18,2.72,2.72,0,0,0-.81-2.07,3.12,3.12,0,0,0-2.22-.78,3.37,3.37,0,0,0-2.44.86Z"/><path class="cls-23" d="M416.78,95.54h6.66v16.6h-3.17V98.34h-3.49Z"/><path class="cls-23" d="M436.33,98.26A7.42,7.42,0,0,0,434.4,98a3.92,3.92,0,0,0-3.4,1.48,6.28,6.28,0,0,0-1.05,4.08,4.07,4.07,0,0,1,1.74-1.65,5.78,5.78,0,0,1,2.62-.56,5,5,0,0,1,5.36,4.62q0,.34,0,.69a5.83,5.83,0,0,1-.74,3,5,5,0,0,1-2.07,2,7.36,7.36,0,0,1-6.77-.28,6.25,6.25,0,0,1-2.36-2.8,10.51,10.51,0,0,1-.82-4.36,11.24,11.24,0,0,1,.89-4.61,7,7,0,0,1,2.53-3.06,6.77,6.77,0,0,1,3.84-1.08,10.69,10.69,0,0,1,2.64.35,9.34,9.34,0,0,1,2.38.93L438,99.05A5.69,5.69,0,0,0,436.33,98.26Zm-5,6.39a2.68,2.68,0,0,0-.87,2.11,2.48,2.48,0,0,0,.33,1.36,2.78,2.78,0,0,0,1.08,1.07,3.6,3.6,0,0,0,1.79.41,3.25,3.25,0,0,0,2.27-.78,2.83,2.83,0,0,0,.86-2.18,2.68,2.68,0,0,0-.82-2.07,3.12,3.12,0,0,0-2.22-.78,3.37,3.37,0,0,0-2.44.86Z"/></g><line class="cls-20" x1="242.92" y1="137.03" x2="367.73" y2="120.73"/><line class="cls-20" x1="287.69" y1="208.3" x2="367.73" y2="120.73"/></g><g id="Accent"><line class="cls-24" x1="112.63" y1="412.27" x2="181.76" y2="334.9"/><g id="Color-2" data-name="Color"><path class="cls-25" d="M68.89,433.49H65.57l-.47,3.89h3.24l-.23,2.33h-3.3l-.5,4H62l.5-4h-4l-.5,4H55.8l.5-4H53l.23-2.33h3.32l.48-3.89H53.81l.21-2.3h3.32l.52-4.12h2.26l-.5,4.12h4l.52-4.12h2.25l-.5,4.12h3.28Zm-6.07,3.89.47-3.89h-4l-.47,3.89Z"/><path class="cls-25" d="M83.11,428.12a7.73,7.73,0,0,1,3.08,3,8.72,8.72,0,0,1,0,8.57,8,8,0,0,1-3.11,3,9.53,9.53,0,0,1-4.53,1.06H71.76V427.07h6.9A9.18,9.18,0,0,1,83.11,428.12Zm-1.65,12.05a4.91,4.91,0,0,0,1.91-1.95,5.7,5.7,0,0,0,.69-2.83,5.83,5.83,0,0,0-.71-2.86,4.94,4.94,0,0,0-2-2,5.52,5.52,0,0,0-2.78-.7H74.93v11h3.8a5.43,5.43,0,0,0,2.73-.66Z"/><path class="cls-25" d="M99.6,428.1a3.81,3.81,0,0,1,1.51,3.19,3.61,3.61,0,0,1-.62,2.06,4.22,4.22,0,0,1-1.71,1.45,4.87,4.87,0,0,1,2.31,1.66,4,4,0,0,1,.85,2.56,4.16,4.16,0,0,1-.79,2.53,4.85,4.85,0,0,1-2.24,1.68,10.3,10.3,0,0,1-6.8,0,5,5,0,0,1-2.24-1.65,4.37,4.37,0,0,1,.09-5.11,5.17,5.17,0,0,1,2.42-1.67,4.53,4.53,0,0,1-1.81-1.52,3.63,3.63,0,0,1-.65-2.11,3.69,3.69,0,0,1,1.5-3.09,7.78,7.78,0,0,1,8.18,0ZM93,436.84a2.16,2.16,0,0,0-.91,1.87,2.26,2.26,0,0,0,.91,1.92,4,4,0,0,0,2.53.69,4.21,4.21,0,0,0,2.53-.68,2.43,2.43,0,0,0,0-3.79,4.27,4.27,0,0,0-2.55-.68A4.05,4.05,0,0,0,93,436.84Zm.39-7a2,2,0,0,0-.77,1.66,1.92,1.92,0,0,0,.77,1.66,4.12,4.12,0,0,0,4.28,0,2.21,2.21,0,0,0,0-3.32A4.16,4.16,0,0,0,93.39,429.84Z"/><path class="cls-25" d="M103.05,427.07h6.66v16.59h-3.17V429.87h-3.49Z"/><path class="cls-25" d="M125.68,428.18a3.58,3.58,0,0,1,1.53,3,3.62,3.62,0,0,1-2.89,3.67,4.32,4.32,0,0,1,2.59,1.42,4.19,4.19,0,0,1,.94,2.78,3.93,3.93,0,0,1-1.65,3.35,7.36,7.36,0,0,1-4.49,1.22h-7.59V427.07h7.38A7,7,0,0,1,125.68,428.18Zm-2.42,5.12a1.78,1.78,0,0,0,.7-1.51,1.7,1.7,0,0,0-.7-1.47,3,3,0,0,0-1.93-.5h-4v4h4A3,3,0,0,0,123.26,433.3Zm.44,7a1.88,1.88,0,0,0,.85-1.65,1.84,1.84,0,0,0-.85-1.61,4.1,4.1,0,0,0-2.37-.55h-4v4.38h4a3.92,3.92,0,0,0,2.37-.53Z"/><path class="cls-25" d="M139.41,429.78a7,7,0,0,0-1.94-.27,4,4,0,0,0-3.35,1.49,6.28,6.28,0,0,0-1.05,4.08,4.19,4.19,0,0,1,1.74-1.65,5.67,5.67,0,0,1,2.62-.55,5,5,0,0,1,5.36,4.62q0,.35,0,.69a5.81,5.81,0,0,1-.74,3,5,5,0,0,1-2.07,2,6.74,6.74,0,0,1-3.12.69,6.61,6.61,0,0,1-3.65-1,6.11,6.11,0,0,1-2.36-2.79,10.55,10.55,0,0,1-.82-4.37,11.24,11.24,0,0,1,.89-4.61,6.61,6.61,0,0,1,6.37-4.13,10.68,10.68,0,0,1,2.64.34,8.88,8.88,0,0,1,2.38.94l-1.21,2.37A5.38,5.38,0,0,0,139.41,429.78Zm-5,6.39a2.71,2.71,0,0,0-.87,2.11,2.53,2.53,0,0,0,.33,1.37,2.69,2.69,0,0,0,1.08,1.06,3.5,3.5,0,0,0,1.79.42,3.21,3.21,0,0,0,2.27-.79,2.79,2.79,0,0,0,.86-2.18,2.71,2.71,0,0,0-.82-2.07,3.16,3.16,0,0,0-2.22-.77,3.37,3.37,0,0,0-2.44.85Z"/><path class="cls-25" d="M157.58,429.11a11.45,11.45,0,0,1,0,12.49,7.5,7.5,0,0,1-10.58,0,11.53,11.53,0,0,1,0-12.49A7.5,7.5,0,0,1,157.58,429.11Zm-8.2,1.76a11.11,11.11,0,0,0,0,9,3.67,3.67,0,0,0,5.14.69,3.76,3.76,0,0,0,.69-.69,11.11,11.11,0,0,0,0-9,3.69,3.69,0,0,0-5.18-.65A4,4,0,0,0,149.38,430.87Z"/></g></g></g><g id="Colors-2" data-name="Colors"><path class="cls-4" d="M183.49,29.87a11.25,11.25,0,0,0-10.5.33,10.59,10.59,0,0,0-4,4.05,11.67,11.67,0,0,0,0,11.34,10.78,10.78,0,0,0,4,4.07,11,11,0,0,0,5.64,1.5,11.86,11.86,0,0,0,4.77-1,13.82,13.82,0,0,0,4.24-2.89l3.74,4.17a19.44,19.44,0,0,1-6.06,4.2,17.08,17.08,0,0,1-7,1.54,17.39,17.39,0,0,1-8.77-2.27,16.54,16.54,0,0,1-6.26-6.19A16.9,16.9,0,0,1,161,40a16.62,16.62,0,0,1,8.65-14.74,18.36,18.36,0,0,1,15.86-.81,16.94,16.94,0,0,1,5.84,3.94L187.64,33A12.51,12.51,0,0,0,183.49,29.87Z"/><path class="cls-4" d="M213.74,32.71a11.84,11.84,0,0,1,4.7,4.53A13.11,13.11,0,0,1,220.12,44a13.38,13.38,0,0,1-1.68,6.78,11.63,11.63,0,0,1-4.7,4.55,14.43,14.43,0,0,1-7,1.61,14.66,14.66,0,0,1-7-1.61A11.55,11.55,0,0,1,195,50.78,13.47,13.47,0,0,1,193.38,44a13.13,13.13,0,0,1,1.68-6.71,11.69,11.69,0,0,1,4.72-4.53,14.81,14.81,0,0,1,7-1.61A14.49,14.49,0,0,1,213.74,32.71ZM201.58,38.5a7.74,7.74,0,0,0-2,5.54,7.78,7.78,0,0,0,2,5.55,6.83,6.83,0,0,0,5.21,2.14,6.72,6.72,0,0,0,5.13-2.14,7.86,7.86,0,0,0,2-5.55,7.84,7.84,0,0,0-2-5.54,6.72,6.72,0,0,0-5.13-2.14A6.82,6.82,0,0,0,201.58,38.5Z"/><path class="cls-4" d="M225.71,21.47h6.17V56.66h-6.17Z"/><path class="cls-4" d="M257.84,32.71a11.75,11.75,0,0,1,4.69,4.53A13.11,13.11,0,0,1,264.21,44a13.38,13.38,0,0,1-1.68,6.78,11.67,11.67,0,0,1-4.69,4.55,14.49,14.49,0,0,1-6.95,1.61,14.66,14.66,0,0,1-7-1.61,11.53,11.53,0,0,1-4.71-4.55A13.41,13.41,0,0,1,237.47,44a13.11,13.11,0,0,1,1.69-6.71,11.67,11.67,0,0,1,4.71-4.53,14.93,14.93,0,0,1,7-1.61A14.53,14.53,0,0,1,257.84,32.71ZM245.67,38.5a7.84,7.84,0,0,0-2,5.54,7.86,7.86,0,0,0,2,5.55,6.84,6.84,0,0,0,5.22,2.14A6.68,6.68,0,0,0,256,49.59,7.78,7.78,0,0,0,258,44a7.74,7.74,0,0,0-2-5.54,6.68,6.68,0,0,0-5.12-2.14A6.81,6.81,0,0,0,245.67,38.5Z"/><path class="cls-4" d="M279.22,32.4a10.32,10.32,0,0,1,5.15-1.35v6a8.4,8.4,0,0,0-6.29,1.82,7,7,0,0,0-2.34,5.57V56.66h-6.17V31.29h6.17v4.88A9.17,9.17,0,0,1,279.22,32.4Z"/><path class="cls-4" d="M299.89,36.46a12.07,12.07,0,0,0-3.62-.62,4.81,4.81,0,0,0-2.49.55,1.8,1.8,0,0,0-.93,1.68A2,2,0,0,0,294,39.9a20,20,0,0,0,3.68,1.35A33.92,33.92,0,0,1,302,42.84a8.13,8.13,0,0,1,3,2.32,6.27,6.27,0,0,1,1.25,4.05,6.54,6.54,0,0,1-2.84,5.69,12.12,12.12,0,0,1-7.16,2,18.05,18.05,0,0,1-5.74-.92,13.48,13.48,0,0,1-4.74-2.63L287.92,49A12.39,12.39,0,0,0,292,51.3a13.53,13.53,0,0,0,4.5.83,5.37,5.37,0,0,0,2.73-.59,1.92,1.92,0,0,0,1-1.78,2.16,2.16,0,0,0-1.19-2,22,22,0,0,0-3.84-1.47A32.32,32.32,0,0,1,291,44.8a7.62,7.62,0,0,1-2.8-2.23,6.09,6.09,0,0,1-1.18-3.91A6.64,6.64,0,0,1,289.79,33a11.47,11.47,0,0,1,6.86-2,17.63,17.63,0,0,1,5,.72,15.15,15.15,0,0,1,4.34,2l-2.23,4.46A17.85,17.85,0,0,0,299.89,36.46Z"/></g></g></g><text class="cls-26" transform="translate(1137.05 365.86) rotate(90)">W<tspan class="cls-27" x="70.12" y="0">ORDMARK | PR</tspan><tspan class="cls-28" x="659.19" y="0">O</tspan><tspan class="cls-27" x="715.49" y="0">JECTS</tspan></text><g id="Right"><g id="Projects"><g id="Icon"><polygon class="cls-29" points="1562.46 1250.25 1562.46 1346.93 1671.66 1346.93 1671.66 1260.61 1616.85 1260.61 1604.33 1250.25 1562.46 1250.25"/><polygon class="cls-30" points="1604.33 1269.26 1564.09 1269.26 1564.09 1345.3 1670.04 1345.3 1670.04 1262.07 1617.06 1262.07 1604.33 1269.26"/><polygon class="cls-31" points="1652.69 1349.75 1652.69 1310.59 1581.43 1310.59 1581.43 1349.75 1599.75 1349.75 1599.75 1330.17 1634.37 1330.17 1634.37 1349.75 1652.69 1349.75"/></g><g id="Layer_1-2-2" data-name="Layer 1-2"><path class="cls-32" d="M1367.87,1244.77h-83.62a12.81,12.81,0,0,0-12.79,12.85h0V1342a12.82,12.82,0,0,0,12.79,12.85H1355l-3.31-11.54,8,7.42,7.55,7,13.42,11.86v-112a12.82,12.82,0,0,0-12.79-12.85Z"/><circle class="cls-33" cx="1326.06" cy="1299.8" r="35.99"/><path class="cls-23" d="M1319.41,1293.23c0,4.06-3,7.31-6.64,7.31s-6.64-3.28-6.64-7.31,3-7.28,6.64-7.28S1319.41,1289.18,1319.41,1293.23Z"/><path class="cls-23" d="M1346,1293.23c0,4.06-3,7.31-6.64,7.31s-6.65-3.28-6.65-7.31,3-7.28,6.62-7.28S1346,1289.18,1346,1293.23Z"/><path class="cls-23" d="M1339,1307a2.57,2.57,0,0,1,1.15,3.45,2.2,2.2,0,0,1-.27.43,17.12,17.12,0,0,1-18.81,5,2.58,2.58,0,0,1-1.48-3.34,2.47,2.47,0,0,1,.23-.46h0a3.69,3.69,0,0,1,4.21-1.44,10.82,10.82,0,0,0,5.62,0,11.19,11.19,0,0,0,4.91-2.77,3.77,3.77,0,0,1,4.37-.81Z"/></g><g id="Firefox_-_Large" data-name="Firefox - Large"><path class="cls-2" d="M1431.69,1518.89c-2.73,3.2-4,10.38-1.23,17.67s7,5.7,9.7,13.13c3.5,9.81,1.86,23,1.86,23s4.22,12.21,7.16-.76C1455.7,1547.55,1431.69,1524.89,1431.69,1518.89Z"/><path id="_Path_" data-name=" Path " class="cls-34" d="M1398.23,1620a51.09,51.09,0,1,0-50.8-51.09A51,51,0,0,0,1398.23,1620Z"/><path class="cls-35" d="M1436.32,1600.45a27.54,27.54,0,0,1-3.45,2.09,81.69,81.69,0,0,0,4.39-7.22,28,28,0,0,0,2.88-3.63c.39-.61.84-1.38,1.31-2.25a49.09,49.09,0,0,0,6.09-22v-.65a30.46,30.46,0,0,0-.65-6.39,3.86,3.86,0,0,0,.06.49c0-.12,0-.25-.07-.37,0,.23.07.45.11.68.56,5,.17,9.78-1.91,13.34l-.1.16a44.54,44.54,0,0,0,.24-17.37s-.48-2.9-4-11.74a36.11,36.11,0,0,0-8.94-12.27q-3.23-3.84-6.81-7.33c-3-3.11-4.2-5.45-4.7-7-.44-.22-6.09-5.7-6.53-5.91-2.47,3.81-10.22,15.78-6.53,26.93a27.78,27.78,0,0,0,10.31,13.25c.2.23,2.64,2.87,3.8,8.84,1.19,6.17.56,11-1.9,18.1-2.89,6.24-10.32,12.4-17.26,13-14.86,1.34-20.29-7.46-20.29-7.46,5.3,2.12,11.17,1.69,14.74-.52s5.77-3.88,7.53-3.23,3.14-1.23,1.89-3.18a9,9,0,0,0-9.1-3.95c-3.6.57-6.9,3.44-11.61.68a10.23,10.23,0,0,1-.89-.56c-.31-.21,1,.31.71.08a22.55,22.55,0,0,1-3-2c-.07-.06.71.26.64.19-4.41-3.63-3.86-6.09-3.72-7.63a4.42,4.42,0,0,1,2.25-3.44c.65.35,1.06.63,1.06.63l-.43-.88a.29.29,0,0,0,.16,0c.8.4,1.58.85,2.34,1.33a3.52,3.52,0,0,1,1.06,1.08s.21-.11.06-.61a3.21,3.21,0,0,0-1.13-1.51h0a9.69,9.69,0,0,1,1.36.94,8.17,8.17,0,0,0,.56-3.21,4.54,4.54,0,0,0-.22-1.78c-.18-.42.09-.5.39-.13a3.53,3.53,0,0,0-.25-.84h0c.37-1.29,7.81-4.64,8.36-5a7.7,7.7,0,0,0,2.19-2.39,6,6,0,0,0,.8-3c0-1-.43-1.69-8-2.48a5,5,0,0,1-3.94-3.07c-.13-.3-.26-.57-.39-.84a6.26,6.26,0,0,1-.29-1,18.05,18.05,0,0,1,6.34-8.79c.17-.15-.66,0-.5-.11a13.7,13.7,0,0,1,1.69-.8c.29-.14-1.24-.79-2.6-.64a6.58,6.58,0,0,0-2.42.64c.31-.31,1.28-.7,1.06-.7a14.5,14.5,0,0,0-4.93,2.07,1.24,1.24,0,0,1,.1-.5,7.76,7.76,0,0,0-3.08,2.65c0-.2,0-.41,0-.61a9.81,9.81,0,0,0-1.51,1.58h0a18.17,18.17,0,0,0-11.23-1.07c-.69-.7-1-.18-2.62-3.67-.11-.21.08.21,0,0-.27-.67.16.9,0,0-2.67,2.11-6.2,4.51-7.89,6.17,0,.07,2-.56,0,0-.69.2-.64.61-.75,4.3v.84a24.11,24.11,0,0,0-2.61,4c-1.74,3-3.66,7.67-5.51,15.07a37.17,37.17,0,0,1,3-5.83c-1.55,3.94-3,10.09-3.34,19.58a58.11,58.11,0,0,1,1.43-5.82,54,54,0,0,0,4,23,56.45,56.45,0,0,0,5.84,10.92,51.76,51.76,0,0,0,73.19,1.93q1.63-1.55,3.13-3.24Z"/><path class="cls-36" d="M1424.92,1607.68c18.65-2.16,26.92-21.39,16.3-21.77C1431.64,1585.61,1416.1,1608.71,1424.92,1607.68Z"/><path class="cls-2" d="M1442.59,1582c12.82-7.46,9.48-23.6,9.48-23.6a52.6,52.6,0,0,0-8.35,14.93C1440.41,1582.4,1434.85,1586.5,1442.59,1582Z"/><path class="cls-36" d="M1401.82,1617.22c17.9,5.71,33.28-8.38,23.8-13.09C1417,1599.88,1393.33,1614.52,1401.82,1617.22Z"/><path class="cls-2" d="M1443.9,1588.84c.43-.62,1-2.58,1.55-3.46a19.27,19.27,0,0,0,3.18-9.26c1.9-9.53,1.73-13.43.56-20.62-.94-5.8-5.07-14.09-8.65-18.1s-1.09-2.78-4.66-5.78c-3.13-3.48-6.17-6.91-7.82-8.29-12-10-11.68-12.11-11.45-12.47l-.17.19c-.14-.57-.24-1-.24-1a32,32,0,0,0-7.89,17.41,26.55,26.55,0,0,0,5.64,19.24,43.76,43.76,0,0,0,6.76,6.64h0a25.89,25.89,0,0,1,4.51,14.88,25.19,25.19,0,0,1-25.24,25.15,25.88,25.88,0,0,1-5.55-.63,20.68,20.68,0,0,1-12.23-6.8,12.13,12.13,0,0,1-1.54-2.23c5.87,2.1,12.4,1.66,16.34-.52s6.39-3.84,8.34-3.19,3.46-1.23,2.09-3.16a10.41,10.41,0,0,0-10.07-3.94c-4,.56-7.63,3.38-12.86.67-.33-.18-.66-.37-1-.57s1.13.31.78.08a25.83,25.83,0,0,1-3.28-2c-.07-.06.79.25.71.19-4.88-3.6-4.27-6-4.12-7.57a4.38,4.38,0,0,1,2.5-3.41c.73.35,1.18.62,1.18.62l-.48-.86a.25.25,0,0,0,.17,0c.59.26,1.9.92,2.59,1.33a3.56,3.56,0,0,1,1.18,1.07s.24-.12.06-.62a3.18,3.18,0,0,0-1.22-1.49h.06a10.73,10.73,0,0,1,1.5.94,7.31,7.31,0,0,0,.6-3.19,4.18,4.18,0,0,0-.24-1.77c-.21-.41.1-.49.43-.12a3.46,3.46,0,0,0-.28-.84v0c.41-1.28,8.66-4.6,9.25-5a7.93,7.93,0,0,0,2.43-2.36,5.55,5.55,0,0,0,.89-3c0-.63-.17-1.13-2.35-1.61a61.26,61.26,0,0,0-6.47-.86,5.48,5.48,0,0,1-4.37-3c-.14-.3-.28-.57-.42-.83a5.63,5.63,0,0,1-.33-1,18.14,18.14,0,0,1,7-8.71c.18-.15-.73,0-.56-.11a18.05,18.05,0,0,1,1.87-.79c.32-.14-1.37-.79-2.88-.63a7.72,7.72,0,0,0-2.67.63c.35-.3,1.42-.7,1.16-.7a17.26,17.26,0,0,0-5.45,2.07,1.24,1.24,0,0,1,.1-.5,8.39,8.39,0,0,0-3.38,2.63,3.33,3.33,0,0,0,0-.63,10,10,0,0,0-1.69,1.56v0a22.18,22.18,0,0,0-12.4-1,15.16,15.16,0,0,1-3.76-5.21c-.12-.2-.19.43-.28.24a16,16,0,0,1-1-6s-1.41.64-2.58,3.33c-.21.48-.35.75-.49,1a7.68,7.68,0,0,1,.11-.82,7.61,7.61,0,0,0-1,1.46,9.83,9.83,0,0,0-.53,1.3l0,.05c0-.17,0-.7,0-.57a29.53,29.53,0,0,0-1.41,3.39,31.89,31.89,0,0,0-1.48,8.56c0,.28,0,.56,0,.84A23.85,23.85,0,0,0,1350,1543c-1.92,3-4,7.62-6.09,15a36,36,0,0,1,3.26-5.73c-1.69,3.89-3.38,10-3.69,19.42a50.12,50.12,0,0,1,1.59-5.76,48.74,48.74,0,0,0,4.4,22.85,53.22,53.22,0,0,0,21,23.83h0a46.26,46.26,0,0,0,12.26,5.87c.56.21,1.12.41,1.74.61l-.56-.23a55.39,55.39,0,0,0,15.92,2.31c20.07,0,26-8,26-8l0,0c.28-.26.56-.56.81-.83-3.16,3-10.39,3.19-13.09,3,4.61-1.35,7.64-2.49,13.53-4.75.69-.26,1.39-.57,2.11-.88l.23-.11a4.14,4.14,0,0,0,.43-.2,39.54,39.54,0,0,0,8-5c5.92-4.73,7.22-9.34,7.89-12.39a14.15,14.15,0,0,1-.57,1.4c-1.52,3.27-4.9,5.27-8.57,7a80.86,80.86,0,0,0,4.85-7.15C1442.63,1592,1443,1590.12,1443.9,1588.84Z"/><path class="cls-36" d="M1436.69,1600.15a37.41,37.41,0,0,0,6.23-9.17c4.23-8.88,10.76-23.66,5.64-39.09-4.07-12.19-9.66-18.86-16.75-25.36-11.54-10.59-14.75-15.31-14.75-18.13,0,0-13.3,14.82-7.53,30.29s17.58,14.89,25.39,31c9.2,19-7.44,39.7-21.19,45.5.84-.19,30.58-6.91,32.12-23.92C1445.83,1591.6,1445.16,1596.32,1436.69,1600.15Z"/><path class="cls-2" d="M1398.17,1545c0-1-.47-1.69-8.78-2.45-3.42-.32-4.73-3.48-5.13-4.81a23.83,23.83,0,0,0-1.45,10.48c.19,2.63,2,5.44,2.82,7.1l.27-.33c1.59-1.65,8.24-4.17,8.87-4.51A7.28,7.28,0,0,0,1398.17,1545Z"/><path class="cls-36" d="M1361.6,1526.32c-.12-.2-.18.44-.27.24a15.19,15.19,0,0,1-1-6s-1.41.64-2.58,3.33a9.45,9.45,0,0,1-.5,1c0-.27.07-.55.12-.82a7,7,0,0,0-1.48,2.76c0,.17,0-.72,0-.62-2.72,5.24-3.24,13.18-2.95,12.84a26.78,26.78,0,0,1,12.4-7.63,13.77,13.77,0,0,1-3.75-5.15Z"/><path class="cls-2" d="M1383.54,1590.88c-8-3.41-17.07-8.21-16.73-19.16.47-14.38,13.42-11.54,13.42-11.54a4.7,4.7,0,0,0-2.25,2,6.18,6.18,0,0,0,1.32,7c4.25,4.61-8.73,10.93,11.3,22.87.5.27-4.7-.17-7.06-1.19Z"/><path class="cls-36" d="M1380.7,1583.71c5.64,2,12.26,1.63,16.21-.56,2.65-1.47,6-3.83,8.12-3.24a14,14,0,0,0-4.81-1.13c-.31,0-.62,0-.93,0a15.51,15.51,0,0,0-1.8.1c-1,.1-2.15.74-3.18.64-.06,0,1-.44.91-.41-.56.11-1.12.13-1.76.21-.4,0-.74.1-1.13.11-11.79,1-21.76-6.39-21.76-6.39-.85,2.86,3.8,8.51,10.14,10.71Z"/><path class="cls-2" d="M1436.68,1600.23c11.93-11.72,18-26,15.41-41.93a33.82,33.82,0,0,1-2.85,16.57,43.91,43.91,0,0,0-2.86-28.87c-6.58-14-17.41-21.41-21.55-24.52-6.26-4.67-8.86-9.42-8.91-10.41-1.87,3.84-7.53,17-.61,28.29,6.49,10.6,16.71,13.75,23.87,23.49C1452.36,1580.76,1436.68,1600.23,1436.68,1600.23Z"/><path class="cls-36" d="M1435,1569.74c-4.17-8.61-9.37-12.36-14.29-16.44.37.52.71,1,1,1.61a30.42,30.42,0,0,1,6.08,30c-8.73,26.61-43.65,14.08-47.33,10.56,1.48,15.4,27.26,22.78,44,12.79C1434.07,1599.23,1441.8,1583.86,1435,1569.74Z"/></g><g id="Layer_1-2-3" data-name="Layer 1-2"><path class="cls-37" d="M1511.89,1244.23h-83.62a12.81,12.81,0,0,0-12.79,12.85h0v84.36a12.82,12.82,0,0,0,12.79,12.86H1499l-3.3-11.54,8,7.42,7.55,7,13.42,11.86v-112a12.81,12.81,0,0,0-12.79-12.85Z"/><circle class="cls-38" cx="1470.08" cy="1299.26" r="35.99"/><path class="cls-39" d="M1463.43,1292.69c0,4.06-3,7.31-6.64,7.31s-6.64-3.28-6.64-7.31,3-7.28,6.64-7.28S1463.43,1288.64,1463.43,1292.69Z"/><path class="cls-39" d="M1490.05,1292.69c0,4.06-3,7.31-6.64,7.31s-6.65-3.28-6.65-7.31,3-7.28,6.62-7.28S1490.05,1288.64,1490.05,1292.69Z"/><path class="cls-39" d="M1483,1306.47a2.57,2.57,0,0,1,1.15,3.45,1.88,1.88,0,0,1-.27.42,17.11,17.11,0,0,1-18.81,5,2.59,2.59,0,0,1-1.48-3.34,2.47,2.47,0,0,1,.23-.46h0a3.7,3.7,0,0,1,4.21-1.45,10.82,10.82,0,0,0,5.62,0,11.13,11.13,0,0,0,4.91-2.77,3.77,3.77,0,0,1,4.37-.81Z"/></g><g id="Layer_1-2-4" data-name="Layer 1-2"><polygon class="cls-2" points="1286.87 1417.96 1317.68 1387.08 1379.31 1448.83 1348.49 1479.7 1286.87 1417.96"/><path class="cls-34" d="M1380.66,1450l-30.28-30.35s-6.55,14.13-15.41,15.44-15.4,15.46-15.4,15.46l30.27,30.33h30.82Z"/><polygon class="cls-2" points="1282.86 1391.09 1290.56 1383.38 1305.97 1398.81 1298.27 1406.53 1282.86 1391.09"/><polygon class="cls-2" points="1271.46 1402.52 1302.27 1371.64 1309.98 1379.36 1279.16 1410.23 1271.46 1402.52"/><path class="cls-2" d="M1306.3,1469.25c-.15-5.17-4.2-7.26-9.42-7.26h-10.14v10.46l6.48,5.83v-11.09H1297c4,0,4,5,0,5h-2.48v4.83H1297c4,0,4,5,0,5h-10.26v5.2h10.14c5.22,0,9.29-2.09,9.42-7.27a9,9,0,0,1,0-10.8Z"/><path class="cls-34" d="M1304.25,1462h-1.13a8.14,8.14,0,0,1,1.1.65,7.47,7.47,0,0,1,2.41,2.73,8.83,8.83,0,0,1,.94,3.87v10.87a8.84,8.84,0,0,1-.94,3.88,7.88,7.88,0,0,1-3.47,3.36h1.06c5.07,0,9.82-2.5,9.82-8.32v-8.55C1314.08,1464.57,1309.32,1462,1304.25,1462Z"/></g><g id="Layer_1-2-5" data-name="Layer 1-2"><polygon class="cls-23" points="1502.9 1547.68 1533.71 1516.81 1595.34 1578.55 1564.52 1609.43 1502.9 1547.68"/><path class="cls-33" d="M1596.69,1579.72l-30.28-30.36s-6.55,14.14-15.41,15.44-15.4,15.47-15.4,15.47l30.27,30.33h30.82Z"/><polygon class="cls-23" points="1498.89 1520.82 1506.59 1513.1 1522 1528.54 1514.3 1536.25 1498.89 1520.82"/><polygon class="cls-23" points="1487.49 1532.25 1518.31 1501.37 1526.01 1509.09 1495.19 1539.96 1487.49 1532.25"/><path class="cls-33" d="M1516.24,1600.21l-2.73-2.73,5.65-5.61a1.94,1.94,0,0,1,2.73,0h0a1.93,1.93,0,0,1,0,2.72h0l-5.62,5.62Z"/><path class="cls-33" d="M1515.88,1600.58l-2.73-2.73a.54.54,0,0,1,0-.75l5.62-5.62a2.45,2.45,0,0,1,3.46,3.46h0l-5.62,5.64A.56.56,0,0,1,1515.88,1600.58Zm-1.59-3.08,2,2,5.24-5.24a1.39,1.39,0,0,0-2-2Z"/><path class="cls-33" d="M1523.6,1607.57l-2.73-2.73,5.61-5.62a1.92,1.92,0,0,1,2.72,0h0a1.92,1.92,0,0,1,0,2.73Z"/><path class="cls-33" d="M1523.22,1607.94l-2.73-2.73a.54.54,0,0,1,0-.75l5.62-5.62a2.45,2.45,0,1,1,3.51,3.41l0,0-5.62,5.62A.55.55,0,0,1,1523.22,1607.94Zm-1.59-3.1,2,2,5.24-5.24a1.39,1.39,0,0,0-2-2Z"/><rect class="cls-23" x="1516.22" y="1594.18" width="2.74" height="18.63" transform="translate(-689.35 1542.75) rotate(-45)"/><path class="cls-23" d="M1522.82,1611.44l-13.17-13.16a.54.54,0,0,1,0-.77h0l1.93-2a.54.54,0,0,1,.77,0h0l13.17,13.17a.55.55,0,0,1,0,.78h0l-1.93,1.94a.56.56,0,0,1-.78,0Zm-12-13.56,12.4,12.42,1.17-1.17-12.4-12.41Z"/><path class="cls-23" d="M1511.44,1617.1l-7.46-7.45a3,3,0,0,1,0-4.17l6.83-6.83,11.62,11.65-6.83,6.83a2.92,2.92,0,0,1-4.14,0Z"/><path class="cls-23" d="M1511.05,1617.49l-7.45-7.46a3.48,3.48,0,0,1,0-4.94l6.82-6.81a.55.55,0,0,1,.77,0h0l11.61,11.64a.54.54,0,0,1,0,.77h0l-6.82,6.83A3.5,3.5,0,0,1,1511.05,1617.49Zm-.24-18.06-6.44,6.44a2.4,2.4,0,0,0,0,3.39h0l7.46,7.46a2.4,2.4,0,0,0,3.39,0h0l6.43-6.42Z"/></g><g id="Layer_1-2-6" data-name="Layer 1-2"><circle class="cls-23" cx="1470.39" cy="1429.51" r="42.43"/><path class="cls-23" d="M1522.9,1422.52l-12.27-1.83a2.08,2.08,0,0,0-2.37,1.75,1.51,1.51,0,0,0,0,.3v11a2.09,2.09,0,0,0,2.09,2.08l.3,0,12.27-1.84a2.09,2.09,0,0,0,1.78-2v-7.31A2.09,2.09,0,0,0,1522.9,1422.52Z"/><path class="cls-23" d="M1464.19,1376.61l-2,13.3a2.25,2.25,0,0,0,1.9,2.57l.33,0h11.92a2.27,2.27,0,0,0,2.26-2.27c0-.11,0-.22,0-.33l-2-13.3a2.27,2.27,0,0,0-2.24-1.93h-7.93A2.24,2.24,0,0,0,1464.19,1376.61Z"/><path class="cls-23" d="M1417.25,1434l12.27,1.83a2.08,2.08,0,0,0,2.37-1.75c0-.1,0-.2,0-.3v-11a2.09,2.09,0,0,0-2.1-2.07l-.3,0-12.27,1.82a2.09,2.09,0,0,0-1.77,2.06v7.32A2.09,2.09,0,0,0,1417.25,1434Z"/><path class="cls-23" d="M1476.6,1482.41l2-13.3a2.27,2.27,0,0,0-1.9-2.58l-.34,0h-11.92a2.26,2.26,0,0,0-2.26,2.26,2,2,0,0,0,0,.34l2,13.3a2.27,2.27,0,0,0,2.24,1.93h7.94A2.26,2.26,0,0,0,1476.6,1482.41Z"/><path class="cls-23" d="M1502.49,1387.22l-10,7.38a2.09,2.09,0,0,0-.44,2.91,2.25,2.25,0,0,0,.21.24l7.77,7.77a2.08,2.08,0,0,0,3,0,1.59,1.59,0,0,0,.2-.24l7.38-10a2.07,2.07,0,0,0-.2-2.71l-5.18-5.18A2.07,2.07,0,0,0,1502.49,1387.22Z"/><path class="cls-23" d="M1428.5,1396.26l8,10.82a2.27,2.27,0,0,0,3.16.47,1.78,1.78,0,0,0,.26-.22l8.43-8.43a2.26,2.26,0,0,0,0-3.19,2.75,2.75,0,0,0-.26-.22l-10.81-8a2.27,2.27,0,0,0-2.94.22l-5.62,5.62A2.25,2.25,0,0,0,1428.5,1396.26Z"/><path class="cls-23" d="M1435.88,1470l10-7.39a2.07,2.07,0,0,0,.44-2.91l-.2-.24-7.77-7.77a2.08,2.08,0,0,0-2.94,0,1.21,1.21,0,0,0-.21.24l-7.38,10a2.09,2.09,0,0,0,.2,2.72l5.18,5.17A2.08,2.08,0,0,0,1435.88,1470Z"/><path class="cls-23" d="M1512.1,1462.31l-8-10.82a2.25,2.25,0,0,0-3.15-.48,2.75,2.75,0,0,0-.26.22l-8.43,8.43a2.27,2.27,0,0,0,0,3.2l.25.22,10.82,8a2.28,2.28,0,0,0,3-.22l5.61-5.62A2.25,2.25,0,0,0,1512.1,1462.31Z"/><circle class="cls-40" cx="1470.08" cy="1429.51" r="27.51"/><path class="cls-39" d="M1465,1424.48a5.1,5.1,0,1,1-5.07-5.58A5.36,5.36,0,0,1,1465,1424.48Z"/><path class="cls-39" d="M1485.32,1424.48a5.1,5.1,0,1,1-5.08-5.58A5.36,5.36,0,0,1,1485.32,1424.48Z"/><path class="cls-39" d="M1480,1435a2,2,0,0,1,.88,2.63,1.38,1.38,0,0,1-.2.33,12.93,12.93,0,0,1-6.6,4.15,13.11,13.11,0,0,1-7.79-.34,2,2,0,0,1-1.1-2.57,2.16,2.16,0,0,1,.17-.34h0a2.85,2.85,0,0,1,3.22-1.1,8.29,8.29,0,0,0,4.31,0,8.52,8.52,0,0,0,3.76-2.11,2.9,2.9,0,0,1,3.36-.62Z"/></g><g id="Layer_2-2" data-name="Layer 2"><g id="Layer_1-2-7" data-name="Layer 1-2"><circle class="cls-34" cx="1617.06" cy="1429.51" r="54.6"/><path class="cls-2" d="M1671.53,1425.87A54.61,54.61,0,0,0,1620.7,1375v-.12h-7.28v.12a54.6,54.6,0,0,0-50.83,50.84h-.13v7.28h.13a54.61,54.61,0,0,0,50.83,50.83v.13h7.28V1484a54.61,54.61,0,0,0,50.83-50.83h.13v-7.28Zm-74.89-39.06a57.66,57.66,0,0,0-8.56,17.22H1577.2A47.64,47.64,0,0,1,1596.64,1386.81Zm-23.26,24.5h12.78a87.91,87.91,0,0,0-1.79,14.56h-14.49A46.86,46.86,0,0,1,1573.38,1411.31Zm-3.48,21.84h14.47a88.18,88.18,0,0,0,1.79,14.56h-12.78a46.92,46.92,0,0,1-3.5-14.56Zm7.29,21.84h10.92a57.79,57.79,0,0,0,8.57,17.22A47.54,47.54,0,0,1,1577.2,1455Zm36.25,21.37c-7.48-2-13.93-10-17.84-21.37h17.84Zm0-28.65h-19.9a80.28,80.28,0,0,1-1.88-14.56h21.76Zm0-21.84h-21.78a80.28,80.28,0,0,1,1.88-14.56h19.88Zm0-21.84h-17.85c3.91-11.34,10.37-19.38,17.83-21.37Zm43.52,0h-10.9a57.68,57.68,0,0,0-8.58-17.22A47.58,47.58,0,0,1,1657,1404Zm-36.26-21.37c7.48,2,13.93,10,17.84,21.37H1620.7Zm0,28.65h19.88a83,83,0,0,1,1.89,14.56H1620.7Zm0,21.84h21.77a81.19,81.19,0,0,1-1.89,14.56H1620.7Zm0,43.21V1455h17.84C1634.63,1466.33,1628.18,1474.36,1620.7,1476.36Zm16.78-4.15a58,58,0,0,0,8.58-17.22H1657A47.65,47.65,0,0,1,1637.48,1472.21Zm23.26-24.5H1648a86.09,86.09,0,0,0,1.79-14.56h14.49A46.92,46.92,0,0,1,1660.74,1447.71Zm-11-21.84a85.84,85.84,0,0,0-1.79-14.56h12.8a46.83,46.83,0,0,1,3.48,14.56Z"/></g></g></g><text class="cls-41" transform="translate(1397.2 1178.73)">Projects</text><text class="cls-6" transform="translate(1288.31 971.46)">Font:<tspan class="cls-7" x="65.44" y="0">	</tspan><tspan class="cls-8" x="72" y="0" xml:space="preserve">		</tspan><tspan x="144" y="0">Montser</tspan><tspan class="cls-9" x="251.28" y="0">r</tspan><tspan x="261.26" y="0">at</tspan><tspan class="cls-10" x="0" y="31.2">W</tspan><tspan x="26.52" y="31.2">eight:</tspan><tspan class="cls-11" x="100.28" y="31.2">	</tspan><tspan class="cls-8" x="108" y="31.2">	</tspan><tspan x="144" y="31.2">Medium</tspan><tspan x="0" y="62.4">Si</tspan><tspan class="cls-12" x="23.89" y="62.4">z</tspan><tspan x="37.83" y="62.4">e:</tspan><tspan class="cls-13" x="59.07" y="62.4">	</tspan><tspan class="cls-8" x="72" y="62.4" xml:space="preserve">		</tspan><tspan x="144" y="62.4">1/3 </tspan><tspan class="cls-14" x="184.48" y="62.4">o</tspan><tspan x="200.65" y="62.4">f </tspan><tspan class="cls-42" x="216.51" y="62.4">W</tspan><tspan x="243.03" y="62.4">ordmark</tspan></text><text class="cls-41" transform="translate(1408.77 925.51)">Project</text><text class="cls-43" transform="translate(1329.87 695.45)">Cus<tspan class="cls-44" x="133.88" y="0">t</tspan><tspan class="cls-45" x="163.81" y="0">oma</tspan></text><text class="cls-6" transform="translate(1291.35 742.53)">Font:<tspan class="cls-7" x="65.44" y="0">	</tspan><tspan class="cls-8" x="72" y="0" xml:space="preserve">		</tspan><tspan x="144" y="0">Montser</tspan><tspan class="cls-9" x="251.28" y="0">r</tspan><tspan x="261.26" y="0">at</tspan><tspan class="cls-10" x="0" y="31.2">W</tspan><tspan x="26.52" y="31.2">eight:</tspan><tspan class="cls-11" x="100.28" y="31.2">	</tspan><tspan class="cls-8" x="108" y="31.2">	</tspan><tspan x="144" y="31.2">Medium</tspan><tspan x="0" y="62.4">Si</tspan><tspan class="cls-12" x="23.89" y="62.4">z</tspan><tspan x="37.83" y="62.4">e:</tspan><tspan class="cls-13" x="59.07" y="62.4">	</tspan><tspan class="cls-8" x="72" y="62.4" xml:space="preserve">		</tspan><tspan x="144" y="62.4">1/1.4 </tspan><tspan class="cls-14" x="200.44" y="62.4">o</tspan><tspan x="216.62" y="62.4">f Logo - Height</tspan></text><text class="cls-46" transform="translate(1388.37 509.04)">Cus<tspan class="cls-47" x="143.05" y="0">t</tspan><tspan x="175.03" y="0">oma</tspan><tspan class="cls-48"><tspan x="0" y="31.2">Dis</tspan><tspan class="cls-9" x="40.2" y="31.2">c</tspan><tspan x="54.37" y="31.2">ord</tspan></tspan></text><g id="Layer_1-2-8" data-name="Layer 1-2"><path class="cls-2" d="M1350,434.54h-83.61a12.82,12.82,0,0,0-12.79,12.85h0v84.37a12.81,12.81,0,0,0,12.79,12.85h70.76l-3.31-11.54,8,7.43,7.55,7,13.42,11.86v-112a12.83,12.83,0,0,0-12.8-12.85Z"/><circle class="cls-49" cx="1308.24" cy="489.58" r="35.99"/><path class="cls-23" d="M1301.59,483c0,4.05-3,7.3-6.64,7.3s-6.64-3.28-6.64-7.3,3-7.29,6.64-7.29S1301.59,479,1301.59,483Z"/><path class="cls-23" d="M1328.2,483c0,4.05-3,7.3-6.64,7.3s-6.64-3.28-6.64-7.3,3-7.29,6.62-7.29S1328.2,479,1328.2,483Z"/><path class="cls-23" d="M1321.17,496.78a2.58,2.58,0,0,1,1.15,3.45,3.12,3.12,0,0,1-.27.43,17.12,17.12,0,0,1-18.81,5,2.58,2.58,0,0,1-1.48-3.34,2.82,2.82,0,0,1,.23-.46h0a3.71,3.71,0,0,1,4.21-1.44,10.82,10.82,0,0,0,5.62,0,11.32,11.32,0,0,0,4.91-2.76,3.77,3.77,0,0,1,4.37-.81Z"/></g><text class="cls-46" transform="translate(1388.43 221.98)">Cus<tspan class="cls-47" x="143.05" y="0">t</tspan><tspan x="175.03" y="0">oma</tspan><tspan class="cls-48"><tspan x="0" y="31.2">Project</tspan></tspan></text><g id="Layer_1-2-9" data-name="Layer 1-2"><circle class="cls-49" cx="1308.3" cy="209.88" r="35.99"/><path class="cls-23" d="M1301.66,203.31c0,4.06-3,7.31-6.64,7.31s-6.65-3.29-6.65-7.31,3-7.28,6.65-7.28S1301.66,199.25,1301.66,203.31Z"/><path class="cls-23" d="M1328.27,203.31c0,4.06-3,7.31-6.64,7.31s-6.65-3.29-6.65-7.31,3-7.28,6.62-7.28S1328.27,199.25,1328.27,203.31Z"/><path class="cls-23" d="M1321.23,217.09a2.56,2.56,0,0,1,1.15,3.45,2.26,2.26,0,0,1-.26.42,17.12,17.12,0,0,1-18.82,5,2.58,2.58,0,0,1-1.48-3.34,2.82,2.82,0,0,1,.23-.46h0a3.72,3.72,0,0,1,4.22-1.44,10.78,10.78,0,0,0,5.61,0,11.13,11.13,0,0,0,4.91-2.77,3.78,3.78,0,0,1,4.37-.81Z"/></g><circle class="cls-2" cx="1533.16" cy="384.11" r="7.85"/><circle class="cls-2" cx="1533.16" cy="296.06" r="7.85"/><circle class="cls-2" cx="1533.16" cy="340.09" r="7.85"/><text class="cls-41" transform="translate(1358.97 56.95)">Project Use</text></g></g></g></svg>