<svg width="108" height="108" viewBox="0 0 108 108" fill="none" xmlns="http://www.w3.org/2000/svg">
<path d="M97.551 50.193C97.4115 53.9325 96.8625 57.645 95.9085 61.2675C95.022 64.7235 93.5685 68.013 91.602 70.992C89.685 73.836 87.2549 76.1445 84.3029 77.8995C81.3329 79.65 77.787 80.532 73.6425 80.532C70.7355 80.532 68.166 79.8975 65.934 78.642C63.7065 77.3865 61.9739 75.6135 60.7274 73.305C57.2624 77.9805 52.596 80.3205 46.755 80.3205C44.2035 80.3205 41.8814 79.749 39.7889 78.6195C37.6694 77.4585 35.8739 75.789 34.5644 73.764C33.0749 71.4465 32.0444 68.868 31.5314 66.1635C30.8969 62.901 30.7664 59.5575 31.1354 56.2545C31.6574 51.7995 32.6699 47.7405 34.1549 44.118C35.6399 40.4865 37.4939 37.386 39.7349 34.821C41.9624 32.2515 44.5229 30.2715 47.4074 28.8945C50.3189 27.5085 53.5094 26.7975 56.7359 26.82C58.8644 26.82 60.7184 26.982 62.3159 27.297C63.9134 27.6165 65.349 28.053 66.645 28.5975C67.9455 29.151 69.1335 29.772 70.236 30.4875C71.3295 31.194 72.432 31.923 73.5255 32.6655L70.8165 63.846C70.632 65.3445 70.668 66.555 70.8975 67.4955C71.127 68.4225 71.496 69.183 72.009 69.7455C72.522 70.317 73.1249 70.704 73.8179 70.9245C76.0049 71.622 78.4034 71.1495 80.1629 69.6735C81.4634 68.6205 82.6065 67.1805 83.565 65.3445C84.519 63.4995 85.2795 61.3215 85.8555 58.833C86.4135 56.3355 86.751 53.64 86.859 50.7285C87.1425 45.207 86.715 40.1535 85.581 35.586C84.4425 31.023 82.575 27.1125 79.9785 23.868C77.2965 20.5695 73.845 17.9775 69.93 16.3215C65.8485 14.5395 60.9615 13.644 55.296 13.644C49.9139 13.644 45.0854 14.697 40.8194 16.7985C36.5714 18.8955 32.8184 21.879 29.8169 25.5465C26.6489 29.466 24.2099 33.921 22.6169 38.7045C20.8844 43.7445 19.8764 49.221 19.5884 55.098C19.3094 61.47 19.8224 67.0365 21.1319 71.8245C22.4459 76.6125 24.4754 80.6085 27.2474 83.817C30.0419 87.0435 33.6014 89.5185 37.6019 91.017C41.7464 92.6055 46.5074 93.402 51.8894 93.402C55.044 93.3705 58.185 93.033 61.272 92.394C62.8155 92.088 64.2824 91.7145 65.6819 91.305C67.0769 90.891 68.3414 90.441 69.4799 89.946L71.442 98.766C70.2045 99.5715 68.7825 100.278 67.1894 100.872C65.5469 101.462 63.8729 101.948 62.1674 102.326C58.7204 103.095 55.2059 103.486 51.6734 103.5C44.4869 103.5 38.1104 102.474 32.5484 100.418C26.9909 98.3655 22.3379 95.31 18.6029 91.251C14.8679 87.201 12.0779 82.1565 10.2329 76.113C8.39694 70.074 7.61394 63.0585 7.89294 55.098C8.21694 47.835 9.55344 41.1165 11.9159 34.929C14.2649 28.755 17.4959 23.4225 21.6044 18.909C25.7444 14.3955 30.7754 10.7955 36.3824 8.334C42.0974 5.7735 48.4695 4.5 55.521 4.5C62.5365 4.5 68.7194 5.6115 74.0699 7.821C79.4159 10.035 83.88 13.1445 87.4575 17.163C91.0305 21.186 93.681 25.9965 95.4 31.5945C97.119 37.197 97.839 43.3935 97.551 50.193ZM44.4239 56.2545C44.0369 60.8535 44.3925 64.3365 45.513 66.69C46.629 69.0435 48.42 70.218 50.895 70.218C51.525 70.2045 52.146 70.0875 52.74 69.876C53.4195 69.6465 54.1394 69.2235 54.8594 68.6025C55.5929 67.986 56.3085 67.1175 57.015 66.006C57.7305 64.89 58.3874 63.4185 58.9949 61.614L61.1099 37.386C60.0569 37.1025 58.9454 36.954 57.8159 36.954C55.6919 36.954 53.8694 37.386 52.3439 38.2095C50.7644 39.096 49.428 40.3605 48.465 41.895C47.304 43.776 46.4354 45.819 45.8909 47.961C45.2339 50.373 44.7479 53.1225 44.4329 56.25L44.4239 56.2545Z" fill="#474747"/>
</svg>
